<?xml version="1.0" standalone="no"?>
 <!DOCTYPE svg PUBLIC "-//W3C//DTD SVG 1.1//EN" 
 "http://www.w3.org/Graphics/SVG/1.1/DTD/svg11.dtd"> 
<svg xmlns="http://www.w3.org/2000/svg" version="1.1" 
    width="29.7002cm" height="21.0007cm" viewBox="0 0 116930 82680 ">
<title>SVG Picture created as RPi_Teleco_PCB-Dwgs_User.svg date 2020/02/10 16:12:06 </title>
  <desc>Picture generated by PCBNEW </desc>
<g style="fill:#000000; fill-opacity:1;stroke:#000000; stroke-opacity:1;
stroke-linecap:round; stroke-linejoin:round; "
 transform="translate(0 0) scale(1 1)">
</g>
<g style="fill:#000000; fill-opacity:0.0; 
stroke:#000000; stroke-width:-0.000393701; stroke-opacity:1; 
stroke-linecap:round; stroke-linejoin:round;">
</g>
<g style="fill:#000000; fill-opacity:0.0; 
stroke:#000000; stroke-width:59.0551; stroke-opacity:1; 
stroke-linecap:round; stroke-linejoin:round;">
<path d="M62905 41535
L58377 41535
" />
<path d="M79047 41535
L83574 41535
" />
<path d="M79047 41535
L78653 41929
" />
<path d="M62905 41535
L63299 41929
" />
<path d="M63299 41929
L78653 41929
" />
<path d="M83574 25590
L83574 41535
" />
<path d="M58377 25590
L58377 41535
" />
<path d="M75110 25590
L83574 25590
" />
<path d="M75110 25000
L75110 25590
" />
<path d="M66842 25000
L75110 25000
" />
<path d="M66842 25590
L66842 25000
" />
<path d="M58377 25590
L66842 25590
" />
<path d="M68406 15166
L68181 15166
" />
<path d="M68293 15166
L68293 14772
L68256 14828
L68218 14866
L68181 14885
" />
<path d="M68781 15166
L68556 15166
" />
<path d="M68668 15166
L68668 14772
L68631 14828
L68593 14866
L68556 14885
" />
<path d="M69118 14903
L69118 15166
" />
<path d="M69025 14753
L68931 15035
L69175 15035
" />
<path d="M69343 15147
L69343 15166
L69325 15203
L69306 15222
" />
<path d="M69475 14772
L69718 14772
L69587 14922
L69643 14922
L69681 14941
L69700 14960
L69718 14997
L69718 15091
L69700 15128
L69681 15147
L69643 15166
L69531 15166
L69493 15147
L69475 15128
" />
<path d="M69962 14772
L70000 14772
L70037 14791
L70056 14810
L70074 14847
L70093 14922
L70093 15016
L70074 15091
L70056 15128
L70037 15147
L70000 15166
L69962 15166
L69925 15147
L69906 15128
L69887 15091
L69868 15016
L69868 14922
L69887 14847
L69906 14810
L69925 14791
L69962 14772
" />
<path d="M70337 14772
L70374 14772
L70412 14791
L70431 14810
L70449 14847
L70468 14922
L70468 15016
L70449 15091
L70431 15128
L70412 15147
L70374 15166
L70337 15166
L70299 15147
L70281 15128
L70262 15091
L70243 15016
L70243 14922
L70262 14847
L70281 14810
L70299 14791
L70337 14772
" />
<path d="M70937 15166
L70937 14903
" />
<path d="M70937 14941
L70956 14922
L70993 14903
L71049 14903
L71087 14922
L71106 14960
L71106 15166
" />
<path d="M71106 14960
L71124 14922
L71162 14903
L71218 14903
L71256 14922
L71274 14960
L71274 15166
" />
<path d="M71462 15166
L71462 14903
" />
<path d="M71462 14941
L71481 14922
L71518 14903
L71574 14903
L71612 14922
L71631 14960
L71631 15166
" />
<path d="M71631 14960
L71649 14922
L71687 14903
L71743 14903
L71781 14922
L71799 14960
L71799 15166
" />
<path d="M92500 15500
L47500 15500
" />
<path d="M92500 18000
L92500 15269
" />
<path d="M47500 18000
L47500 15269
" />
<path d="M47500 15500
L47943 15269
" />
<path d="M47500 15500
L47943 15730
" />
<path d="M92500 15500
L92056 15269
" />
<path d="M92500 15500
L92056 15730
" />
<path d="M97227 31850
L97227 32112
L96833 31943
" />
<path d="M97058 32318
L97077 32281
L97096 32262
L97133 32243
L97152 32243
L97189 32262
L97208 32281
L97227 32318
L97227 32393
L97208 32431
L97189 32450
L97152 32468
L97133 32468
L97096 32450
L97077 32431
L97058 32393
L97058 32318
L97039 32281
L97021 32262
L96983 32243
L96908 32243
L96871 32262
L96852 32281
L96833 32318
L96833 32393
L96852 32431
L96871 32450
L96908 32468
L96983 32468
L97021 32450
L97039 32431
L97058 32393
" />
<path d="M96852 32656
L96833 32656
L96796 32637
L96777 32618
" />
<path d="M97227 32787
L97227 33050
L96833 32881
" />
<path d="M97096 33368
L96833 33368
" />
<path d="M97246 33275
L96964 33181
L96964 33425
" />
<path d="M97227 33649
L97227 33687
L97208 33724
L97189 33743
L97152 33762
L97077 33781
L96983 33781
L96908 33762
L96871 33743
L96852 33724
L96833 33687
L96833 33649
L96852 33612
L96871 33593
L96908 33574
L96983 33556
L97077 33556
L97152 33574
L97189 33593
L97208 33612
L97227 33649
" />
<path d="M96833 34249
L97096 34249
" />
<path d="M97058 34249
L97077 34268
L97096 34306
L97096 34362
L97077 34399
L97039 34418
L96833 34418
" />
<path d="M97039 34418
L97077 34437
L97096 34474
L97096 34531
L97077 34568
L97039 34587
L96833 34587
" />
<path d="M96833 34774
L97096 34774
" />
<path d="M97058 34774
L97077 34793
L97096 34831
L97096 34887
L97077 34924
L97039 34943
L96833 34943
" />
<path d="M97039 34943
L97077 34962
L97096 34999
L97096 35056
L97077 35093
L97039 35112
L96833 35112
" />
<path d="M96500 18000
L96500 49000
" />
<path d="M92500 18000
L96730 18000
" />
<path d="M92500 49000
L96730 49000
" />
<path d="M96500 49000
L96269 48556
" />
<path d="M96500 49000
L96730 48556
" />
<path d="M96500 18000
L96269 18443
" />
<path d="M96500 18000
L96730 18443
" />
</g>
<g style="fill:#000000; fill-opacity:0.0; 
stroke:#000000; stroke-width:80; stroke-opacity:1; 
stroke-linecap:round; stroke-linejoin:round;">
<path d="M76463 21864
L76463 21628
" />
<path d="M76463 21628
L76266 21431
" />
<path d="M76463 21275
L76463 20960
" />
<path d="M76458 46166
L76458 45930
" />
<path d="M76458 45930
L76261 45733
" />
<path d="M76458 45577
L76458 45262
" />
</g>
<g style="fill:#000000; fill-opacity:0.0; 
stroke:#000000; stroke-width:50; stroke-opacity:1; 
stroke-linecap:round; stroke-linejoin:round;">
<path d="M55500 27000
L55500 40000
" />
<path d="M55500 40000
L48500 40000
" />
<path d="M48500 40000
L48500 27000
" />
<path d="M48500 27000
L55500 27000
" />
<path d="M53500 27000
L53500 26500
" />
<path d="M53500 26500
L50500 26500
" />
<path d="M50500 26500
L50500 27000
" />
</g>
<g style="fill:#000000; fill-opacity:0.0; 
stroke:#000000; stroke-width:80; stroke-opacity:1; 
stroke-linecap:round; stroke-linejoin:round;">
<path d="M62468 46161
L62468 45925
" />
<path d="M62468 45925
L62271 45728
" />
<path d="M62468 45572
L62468 45257
" />
<path d="M69468 45582
L69468 45267
" />
<path d="M69468 45935
L69271 45738
" />
<path d="M69468 46171
L69468 45935
" />
<path d="M83468 45582
L83468 45267
" />
<path d="M83468 45935
L83271 45738
" />
<path d="M83468 46171
L83468 45935
" />
<path d="M83454 21272
L83454 20957
" />
<path d="M83454 21625
L83257 21428
" />
<path d="M83454 21861
L83454 21625
" />
<path d="M90968 31011
L90968 30775
" />
<path d="M90968 30775
L90771 30578
" />
<path d="M90968 30422
L90968 30107
" />
<path d="M90968 37622
L90968 37307
" />
<path d="M90968 37975
L90771 37778
" />
<path d="M90968 38211
L90968 37975
" />
<g >
</g>
<g >
</g>
<g >
</g>
<g >
</g>
<g >
</g>
<g >
</g>
<g >
</g>
<g >
</g>
<g >
</g>
<g >
</g>
<g >
</g>
<g >
</g>
<g >
</g>
<g >
</g>
<g >
</g>
<g >
</g>
<g >
</g>
<g >
</g>
</g>
<g style="fill:#000000; fill-opacity:0.0; 
stroke:#000000; stroke-width:60; stroke-opacity:1; 
stroke-linecap:round; stroke-linejoin:round;">
<path d="M51616 26664
L51616 26923
L51631 26954
L51646 26969
L51677 26984
L51738 26984
L51768 26969
L51783 26954
L51799 26923
L51799 26664
" />
<path d="M51936 26969
L51981 26984
L52058 26984
L52088 26969
L52103 26954
L52119 26923
L52119 26893
L52103 26862
L52088 26847
L52058 26832
L51997 26817
L51966 26801
L51951 26786
L51936 26756
L51936 26725
L51951 26695
L51966 26680
L51997 26664
L52073 26664
L52119 26680
" />
<path d="M52362 26817
L52408 26832
L52423 26847
L52439 26878
L52439 26923
L52423 26954
L52408 26969
L52378 26984
L52256 26984
L52256 26664
L52362 26664
L52393 26680
L52408 26695
L52423 26725
L52423 26756
L52408 26786
L52393 26801
L52362 26817
L52256 26817
" />
<g >
</g>
</g> 
</svg>
