<?xml version="1.0" standalone="no"?>
 <!DOCTYPE svg PUBLIC "-//W3C//DTD SVG 1.1//EN" 
 "http://www.w3.org/Graphics/SVG/1.1/DTD/svg11.dtd"> 
<svg xmlns="http://www.w3.org/2000/svg" version="1.1" 
    width="29.7002cm" height="21.0007cm" viewBox="0 0 116930 82680 ">
<title>SVG Picture created as RPi_Teleco_PCB-brd.svg date 2020/02/03 18:18:23 </title>
  <desc>Picture generated by PCBNEW </desc>
<g style="fill:#000000; fill-opacity:1;stroke:#000000; stroke-opacity:1;
stroke-linecap:round; stroke-linejoin:round; "
 transform="translate(0 0) scale(1 1)">
</g>
<g style="fill:#000000; fill-opacity:0.0; 
stroke:#000000; stroke-width:-0.000393701; stroke-opacity:1; 
stroke-linecap:round; stroke-linejoin:round;">
</g>
<g style="fill:#000000; fill-opacity:0.0; 
stroke:#000000; stroke-width:39.3701; stroke-opacity:1; 
stroke-linecap:round; stroke-linejoin:round;">
</g>
<g style="fill:#000000; fill-opacity:0.0; 
stroke:#000000; stroke-width:59.0551; stroke-opacity:1; 
stroke-linecap:round; stroke-linejoin:round;">
<rect x="69685.9" y="65357.2" width="42519.7" height="12598.4" rx="0" />
</g>
<g style="fill:#000000; fill-opacity:0.0; 
stroke:#000000; stroke-width:39.3701; stroke-opacity:1; 
stroke-linecap:round; stroke-linejoin:round;">
</g>
<g style="fill:#000000; fill-opacity:0.0; 
stroke:#000000; stroke-width:59.0551; stroke-opacity:1; 
stroke-linecap:round; stroke-linejoin:round;">
<rect x="3937.01" y="3937.01" width="109056" height="74806" rx="0" />
</g>
<g style="fill:#000000; fill-opacity:0.0; 
stroke:#000000; stroke-width:39.3701; stroke-opacity:1; 
stroke-linecap:round; stroke-linejoin:round;">
</g>
<g style="fill:#000000; fill-opacity:0.0; 
stroke:#000000; stroke-width:59.0551; stroke-opacity:1; 
stroke-linecap:round; stroke-linejoin:round;">
<rect x="4724.41" y="4724.41" width="107481" height="73231.2" rx="0" />
</g>
<g style="fill:#000000; fill-opacity:0.0; 
stroke:#000000; stroke-width:39.3701; stroke-opacity:1; 
stroke-linecap:round; stroke-linejoin:round;">
</g>
<g style="fill:#000000; fill-opacity:0.0; 
stroke:#000000; stroke-width:59.0551; stroke-opacity:1; 
stroke-linecap:round; stroke-linejoin:round;">
<path d="M23622 4724
L23622 3937
" />
</g>
<g style="fill:#000000; fill-opacity:0.0; 
stroke:#000000; stroke-width:39.3701; stroke-opacity:1; 
stroke-linecap:round; stroke-linejoin:round;">
</g>
<g style="fill:#000000; fill-opacity:0.0; 
stroke:#000000; stroke-width:59.0551; stroke-opacity:1; 
stroke-linecap:round; stroke-linejoin:round;">
<path d="M43307 4724
L43307 3937
" />
</g>
<g style="fill:#000000; fill-opacity:0.0; 
stroke:#000000; stroke-width:39.3701; stroke-opacity:1; 
stroke-linecap:round; stroke-linejoin:round;">
</g>
<g style="fill:#000000; fill-opacity:0.0; 
stroke:#000000; stroke-width:59.0551; stroke-opacity:1; 
stroke-linecap:round; stroke-linejoin:round;">
<path d="M62992 4724
L62992 3937
" />
</g>
<g style="fill:#000000; fill-opacity:0.0; 
stroke:#000000; stroke-width:39.3701; stroke-opacity:1; 
stroke-linecap:round; stroke-linejoin:round;">
</g>
<g style="fill:#000000; fill-opacity:0.0; 
stroke:#000000; stroke-width:59.0551; stroke-opacity:1; 
stroke-linecap:round; stroke-linejoin:round;">
<path d="M82677 4724
L82677 3937
" />
</g>
<g style="fill:#000000; fill-opacity:0.0; 
stroke:#000000; stroke-width:39.3701; stroke-opacity:1; 
stroke-linecap:round; stroke-linejoin:round;">
</g>
<g style="fill:#000000; fill-opacity:0.0; 
stroke:#000000; stroke-width:59.0551; stroke-opacity:1; 
stroke-linecap:round; stroke-linejoin:round;">
<path d="M102362 4724
L102362 3937
" />
</g>
<g style="fill:#000000; fill-opacity:0.0; 
stroke:#000000; stroke-width:39.3701; stroke-opacity:1; 
stroke-linecap:round; stroke-linejoin:round;">
</g>
<g style="fill:#000000; fill-opacity:0.0; 
stroke:#000000; stroke-width:59.0551; stroke-opacity:1; 
stroke-linecap:round; stroke-linejoin:round;">
<path d="M14199 4562
L13906 4562
" />
<path d="M14052 4562
L14052 4050
L14004 4123
L13955 4172
L13906 4196
" />
</g>
<g style="fill:#000000; fill-opacity:0.0; 
stroke:#000000; stroke-width:39.3701; stroke-opacity:1; 
stroke-linecap:round; stroke-linejoin:round;">
</g>
<g style="fill:#000000; fill-opacity:0.0; 
stroke:#000000; stroke-width:59.0551; stroke-opacity:1; 
stroke-linecap:round; stroke-linejoin:round;">
<path d="M33591 4099
L33615 4074
L33664 4050
L33786 4050
L33835 4074
L33859 4099
L33884 4147
L33884 4196
L33859 4269
L33567 4562
L33884 4562
" />
</g>
<g style="fill:#000000; fill-opacity:0.0; 
stroke:#000000; stroke-width:39.3701; stroke-opacity:1; 
stroke-linecap:round; stroke-linejoin:round;">
</g>
<g style="fill:#000000; fill-opacity:0.0; 
stroke:#000000; stroke-width:59.0551; stroke-opacity:1; 
stroke-linecap:round; stroke-linejoin:round;">
<path d="M53252 4050
L53569 4050
L53398 4245
L53471 4245
L53520 4269
L53544 4294
L53569 4342
L53569 4464
L53544 4513
L53520 4537
L53471 4562
L53325 4562
L53276 4537
L53252 4513
" />
</g>
<g style="fill:#000000; fill-opacity:0.0; 
stroke:#000000; stroke-width:39.3701; stroke-opacity:1; 
stroke-linecap:round; stroke-linejoin:round;">
</g>
<g style="fill:#000000; fill-opacity:0.0; 
stroke:#000000; stroke-width:59.0551; stroke-opacity:1; 
stroke-linecap:round; stroke-linejoin:round;">
<path d="M73205 4221
L73205 4562
" />
<path d="M73083 4026
L72961 4391
L73278 4391
" />
</g>
<g style="fill:#000000; fill-opacity:0.0; 
stroke:#000000; stroke-width:39.3701; stroke-opacity:1; 
stroke-linecap:round; stroke-linejoin:round;">
</g>
<g style="fill:#000000; fill-opacity:0.0; 
stroke:#000000; stroke-width:59.0551; stroke-opacity:1; 
stroke-linecap:round; stroke-linejoin:round;">
<path d="M92914 4050
L92671 4050
L92646 4294
L92671 4269
L92719 4245
L92841 4245
L92890 4269
L92914 4294
L92939 4342
L92939 4464
L92914 4513
L92890 4537
L92841 4562
L92719 4562
L92671 4537
L92646 4513
" />
</g>
<g style="fill:#000000; fill-opacity:0.0; 
stroke:#000000; stroke-width:39.3701; stroke-opacity:1; 
stroke-linecap:round; stroke-linejoin:round;">
</g>
<g style="fill:#000000; fill-opacity:0.0; 
stroke:#000000; stroke-width:59.0551; stroke-opacity:1; 
stroke-linecap:round; stroke-linejoin:round;">
<path d="M112575 4050
L112477 4050
L112429 4074
L112404 4099
L112356 4172
L112331 4269
L112331 4464
L112356 4513
L112380 4537
L112429 4562
L112526 4562
L112575 4537
L112599 4513
L112624 4464
L112624 4342
L112599 4294
L112575 4269
L112526 4245
L112429 4245
L112380 4269
L112356 4294
L112331 4342
" />
</g>
<g style="fill:#000000; fill-opacity:0.0; 
stroke:#000000; stroke-width:39.3701; stroke-opacity:1; 
stroke-linecap:round; stroke-linejoin:round;">
</g>
<g style="fill:#000000; fill-opacity:0.0; 
stroke:#000000; stroke-width:59.0551; stroke-opacity:1; 
stroke-linecap:round; stroke-linejoin:round;">
<path d="M23622 77955
L23622 78742
" />
</g>
<g style="fill:#000000; fill-opacity:0.0; 
stroke:#000000; stroke-width:39.3701; stroke-opacity:1; 
stroke-linecap:round; stroke-linejoin:round;">
</g>
<g style="fill:#000000; fill-opacity:0.0; 
stroke:#000000; stroke-width:59.0551; stroke-opacity:1; 
stroke-linecap:round; stroke-linejoin:round;">
<path d="M43307 77955
L43307 78742
" />
</g>
<g style="fill:#000000; fill-opacity:0.0; 
stroke:#000000; stroke-width:39.3701; stroke-opacity:1; 
stroke-linecap:round; stroke-linejoin:round;">
</g>
<g style="fill:#000000; fill-opacity:0.0; 
stroke:#000000; stroke-width:59.0551; stroke-opacity:1; 
stroke-linecap:round; stroke-linejoin:round;">
<path d="M62992 77955
L62992 78742
" />
</g>
<g style="fill:#000000; fill-opacity:0.0; 
stroke:#000000; stroke-width:39.3701; stroke-opacity:1; 
stroke-linecap:round; stroke-linejoin:round;">
</g>
<g style="fill:#000000; fill-opacity:0.0; 
stroke:#000000; stroke-width:59.0551; stroke-opacity:1; 
stroke-linecap:round; stroke-linejoin:round;">
<path d="M82677 77955
L82677 78742
" />
</g>
<g style="fill:#000000; fill-opacity:0.0; 
stroke:#000000; stroke-width:39.3701; stroke-opacity:1; 
stroke-linecap:round; stroke-linejoin:round;">
</g>
<g style="fill:#000000; fill-opacity:0.0; 
stroke:#000000; stroke-width:59.0551; stroke-opacity:1; 
stroke-linecap:round; stroke-linejoin:round;">
<path d="M102362 77955
L102362 78742
" />
</g>
<g style="fill:#000000; fill-opacity:0.0; 
stroke:#000000; stroke-width:39.3701; stroke-opacity:1; 
stroke-linecap:round; stroke-linejoin:round;">
</g>
<g style="fill:#000000; fill-opacity:0.0; 
stroke:#000000; stroke-width:59.0551; stroke-opacity:1; 
stroke-linecap:round; stroke-linejoin:round;">
<path d="M14199 78580
L13906 78580
" />
<path d="M14052 78580
L14052 78069
L14004 78142
L13955 78190
L13906 78215
" />
</g>
<g style="fill:#000000; fill-opacity:0.0; 
stroke:#000000; stroke-width:39.3701; stroke-opacity:1; 
stroke-linecap:round; stroke-linejoin:round;">
</g>
<g style="fill:#000000; fill-opacity:0.0; 
stroke:#000000; stroke-width:59.0551; stroke-opacity:1; 
stroke-linecap:round; stroke-linejoin:round;">
<path d="M33591 78117
L33615 78093
L33664 78069
L33786 78069
L33835 78093
L33859 78117
L33884 78166
L33884 78215
L33859 78288
L33567 78580
L33884 78580
" />
</g>
<g style="fill:#000000; fill-opacity:0.0; 
stroke:#000000; stroke-width:39.3701; stroke-opacity:1; 
stroke-linecap:round; stroke-linejoin:round;">
</g>
<g style="fill:#000000; fill-opacity:0.0; 
stroke:#000000; stroke-width:59.0551; stroke-opacity:1; 
stroke-linecap:round; stroke-linejoin:round;">
<path d="M53252 78069
L53569 78069
L53398 78263
L53471 78263
L53520 78288
L53544 78312
L53569 78361
L53569 78483
L53544 78532
L53520 78556
L53471 78580
L53325 78580
L53276 78556
L53252 78532
" />
</g>
<g style="fill:#000000; fill-opacity:0.0; 
stroke:#000000; stroke-width:39.3701; stroke-opacity:1; 
stroke-linecap:round; stroke-linejoin:round;">
</g>
<g style="fill:#000000; fill-opacity:0.0; 
stroke:#000000; stroke-width:59.0551; stroke-opacity:1; 
stroke-linecap:round; stroke-linejoin:round;">
<path d="M73205 78239
L73205 78580
" />
<path d="M73083 78044
L72961 78410
L73278 78410
" />
</g>
<g style="fill:#000000; fill-opacity:0.0; 
stroke:#000000; stroke-width:39.3701; stroke-opacity:1; 
stroke-linecap:round; stroke-linejoin:round;">
</g>
<g style="fill:#000000; fill-opacity:0.0; 
stroke:#000000; stroke-width:59.0551; stroke-opacity:1; 
stroke-linecap:round; stroke-linejoin:round;">
<path d="M92914 78069
L92671 78069
L92646 78312
L92671 78288
L92719 78263
L92841 78263
L92890 78288
L92914 78312
L92939 78361
L92939 78483
L92914 78532
L92890 78556
L92841 78580
L92719 78580
L92671 78556
L92646 78532
" />
</g>
<g style="fill:#000000; fill-opacity:0.0; 
stroke:#000000; stroke-width:39.3701; stroke-opacity:1; 
stroke-linecap:round; stroke-linejoin:round;">
</g>
<g style="fill:#000000; fill-opacity:0.0; 
stroke:#000000; stroke-width:59.0551; stroke-opacity:1; 
stroke-linecap:round; stroke-linejoin:round;">
<path d="M112575 78069
L112477 78069
L112429 78093
L112404 78117
L112356 78190
L112331 78288
L112331 78483
L112356 78532
L112380 78556
L112429 78580
L112526 78580
L112575 78556
L112599 78532
L112624 78483
L112624 78361
L112599 78312
L112575 78288
L112526 78263
L112429 78263
L112380 78288
L112356 78312
L112331 78361
" />
</g>
<g style="fill:#000000; fill-opacity:0.0; 
stroke:#000000; stroke-width:39.3701; stroke-opacity:1; 
stroke-linecap:round; stroke-linejoin:round;">
</g>
<g style="fill:#000000; fill-opacity:0.0; 
stroke:#000000; stroke-width:59.0551; stroke-opacity:1; 
stroke-linecap:round; stroke-linejoin:round;">
<path d="M3937 23622
L4724 23622
" />
</g>
<g style="fill:#000000; fill-opacity:0.0; 
stroke:#000000; stroke-width:39.3701; stroke-opacity:1; 
stroke-linecap:round; stroke-linejoin:round;">
</g>
<g style="fill:#000000; fill-opacity:0.0; 
stroke:#000000; stroke-width:59.0551; stroke-opacity:1; 
stroke-linecap:round; stroke-linejoin:round;">
<path d="M3937 43307
L4724 43307
" />
</g>
<g style="fill:#000000; fill-opacity:0.0; 
stroke:#000000; stroke-width:39.3701; stroke-opacity:1; 
stroke-linecap:round; stroke-linejoin:round;">
</g>
<g style="fill:#000000; fill-opacity:0.0; 
stroke:#000000; stroke-width:59.0551; stroke-opacity:1; 
stroke-linecap:round; stroke-linejoin:round;">
<path d="M3937 62992
L4724 62992
" />
</g>
<g style="fill:#000000; fill-opacity:0.0; 
stroke:#000000; stroke-width:39.3701; stroke-opacity:1; 
stroke-linecap:round; stroke-linejoin:round;">
</g>
<g style="fill:#000000; fill-opacity:0.0; 
stroke:#000000; stroke-width:59.0551; stroke-opacity:1; 
stroke-linecap:round; stroke-linejoin:round;">
<path d="M4208 13864
L4452 13864
" />
<path d="M4160 14011
L4330 13499
L4501 14011
" />
</g>
<g style="fill:#000000; fill-opacity:0.0; 
stroke:#000000; stroke-width:39.3701; stroke-opacity:1; 
stroke-linecap:round; stroke-linejoin:round;">
</g>
<g style="fill:#000000; fill-opacity:0.0; 
stroke:#000000; stroke-width:59.0551; stroke-opacity:1; 
stroke-linecap:round; stroke-linejoin:round;">
<path d="M4367 33428
L4440 33452
L4464 33476
L4489 33525
L4489 33598
L4464 33647
L4440 33671
L4391 33696
L4196 33696
L4196 33184
L4367 33184
L4416 33208
L4440 33233
L4464 33281
L4464 33330
L4440 33379
L4416 33403
L4367 33428
L4196 33428
" />
</g>
<g style="fill:#000000; fill-opacity:0.0; 
stroke:#000000; stroke-width:39.3701; stroke-opacity:1; 
stroke-linecap:round; stroke-linejoin:round;">
</g>
<g style="fill:#000000; fill-opacity:0.0; 
stroke:#000000; stroke-width:59.0551; stroke-opacity:1; 
stroke-linecap:round; stroke-linejoin:round;">
<path d="M4489 53332
L4464 53356
L4391 53381
L4342 53381
L4269 53356
L4221 53308
L4196 53259
L4172 53161
L4172 53088
L4196 52991
L4221 52942
L4269 52893
L4342 52869
L4391 52869
L4464 52893
L4489 52918
" />
</g>
<g style="fill:#000000; fill-opacity:0.0; 
stroke:#000000; stroke-width:39.3701; stroke-opacity:1; 
stroke-linecap:round; stroke-linejoin:round;">
</g>
<g style="fill:#000000; fill-opacity:0.0; 
stroke:#000000; stroke-width:59.0551; stroke-opacity:1; 
stroke-linecap:round; stroke-linejoin:round;">
<path d="M4196 73066
L4196 72554
L4318 72554
L4391 72578
L4440 72627
L4464 72676
L4489 72773
L4489 72846
L4464 72944
L4440 72993
L4391 73041
L4318 73066
L4196 73066
" />
</g>
<g style="fill:#000000; fill-opacity:0.0; 
stroke:#000000; stroke-width:39.3701; stroke-opacity:1; 
stroke-linecap:round; stroke-linejoin:round;">
</g>
<g style="fill:#000000; fill-opacity:0.0; 
stroke:#000000; stroke-width:59.0551; stroke-opacity:1; 
stroke-linecap:round; stroke-linejoin:round;">
<path d="M112992 23622
L112205 23622
" />
</g>
<g style="fill:#000000; fill-opacity:0.0; 
stroke:#000000; stroke-width:39.3701; stroke-opacity:1; 
stroke-linecap:round; stroke-linejoin:round;">
</g>
<g style="fill:#000000; fill-opacity:0.0; 
stroke:#000000; stroke-width:59.0551; stroke-opacity:1; 
stroke-linecap:round; stroke-linejoin:round;">
<path d="M112992 43307
L112205 43307
" />
</g>
<g style="fill:#000000; fill-opacity:0.0; 
stroke:#000000; stroke-width:39.3701; stroke-opacity:1; 
stroke-linecap:round; stroke-linejoin:round;">
</g>
<g style="fill:#000000; fill-opacity:0.0; 
stroke:#000000; stroke-width:59.0551; stroke-opacity:1; 
stroke-linecap:round; stroke-linejoin:round;">
<path d="M112992 62992
L112205 62992
" />
</g>
<g style="fill:#000000; fill-opacity:0.0; 
stroke:#000000; stroke-width:39.3701; stroke-opacity:1; 
stroke-linecap:round; stroke-linejoin:round;">
</g>
<g style="fill:#000000; fill-opacity:0.0; 
stroke:#000000; stroke-width:59.0551; stroke-opacity:1; 
stroke-linecap:round; stroke-linejoin:round;">
<path d="M112477 13864
L112721 13864
" />
<path d="M112428 14011
L112599 13499
L112769 14011
" />
</g>
<g style="fill:#000000; fill-opacity:0.0; 
stroke:#000000; stroke-width:39.3701; stroke-opacity:1; 
stroke-linecap:round; stroke-linejoin:round;">
</g>
<g style="fill:#000000; fill-opacity:0.0; 
stroke:#000000; stroke-width:59.0551; stroke-opacity:1; 
stroke-linecap:round; stroke-linejoin:round;">
<path d="M112635 33428
L112708 33452
L112733 33476
L112757 33525
L112757 33598
L112733 33647
L112708 33671
L112660 33696
L112465 33696
L112465 33184
L112635 33184
L112684 33208
L112708 33233
L112733 33281
L112733 33330
L112708 33379
L112684 33403
L112635 33428
L112465 33428
" />
</g>
<g style="fill:#000000; fill-opacity:0.0; 
stroke:#000000; stroke-width:39.3701; stroke-opacity:1; 
stroke-linecap:round; stroke-linejoin:round;">
</g>
<g style="fill:#000000; fill-opacity:0.0; 
stroke:#000000; stroke-width:59.0551; stroke-opacity:1; 
stroke-linecap:round; stroke-linejoin:round;">
<path d="M112757 53332
L112733 53356
L112660 53381
L112611 53381
L112538 53356
L112489 53308
L112465 53259
L112440 53161
L112440 53088
L112465 52991
L112489 52942
L112538 52893
L112611 52869
L112660 52869
L112733 52893
L112757 52918
" />
</g>
<g style="fill:#000000; fill-opacity:0.0; 
stroke:#000000; stroke-width:39.3701; stroke-opacity:1; 
stroke-linecap:round; stroke-linejoin:round;">
</g>
<g style="fill:#000000; fill-opacity:0.0; 
stroke:#000000; stroke-width:59.0551; stroke-opacity:1; 
stroke-linecap:round; stroke-linejoin:round;">
<path d="M112465 73066
L112465 72554
L112587 72554
L112660 72578
L112708 72627
L112733 72676
L112757 72773
L112757 72846
L112733 72944
L112708 72993
L112660 73041
L112587 73066
L112465 73066
" />
</g>
<g style="fill:#000000; fill-opacity:0.0; 
stroke:#000000; stroke-width:39.3701; stroke-opacity:1; 
stroke-linecap:round; stroke-linejoin:round;">
</g>
<g style="fill:#000000; fill-opacity:0.0; 
stroke:#000000; stroke-width:59.0551; stroke-opacity:1; 
stroke-linecap:round; stroke-linejoin:round;">
<path d="M78911 76293
L78911 75703
L79051 75703
L79136 75731
L79192 75787
L79220 75843
L79248 75956
L79248 76040
L79220 76153
L79192 76209
L79136 76265
L79051 76293
L78911 76293
" />
<path d="M79754 76293
L79754 75984
L79726 75928
L79670 75899
L79557 75899
L79501 75928
" />
<path d="M79754 76265
L79698 76293
L79557 76293
L79501 76265
L79473 76209
L79473 76153
L79501 76096
L79557 76068
L79698 76068
L79754 76040
" />
<path d="M79951 75899
L80176 75899
" />
<path d="M80036 75703
L80036 76209
L80064 76265
L80120 76293
L80176 76293
" />
<path d="M80598 76265
L80542 76293
L80429 76293
L80373 76265
L80345 76209
L80345 75984
L80373 75928
L80429 75899
L80542 75899
L80598 75928
L80626 75984
L80626 76040
L80345 76096
" />
<path d="M80879 76237
L80907 76265
L80879 76293
L80851 76265
L80879 76237
L80879 76293
" />
<path d="M80879 75928
L80907 75956
L80879 75984
L80851 75956
L80879 75928
L80879 75984
" />
</g>
<g style="fill:#000000; fill-opacity:0.0; 
stroke:#000000; stroke-width:39.3701; stroke-opacity:1; 
stroke-linecap:round; stroke-linejoin:round;">
</g>
<g style="fill:#000000; fill-opacity:0.0; 
stroke:#000000; stroke-width:59.0551; stroke-opacity:1; 
stroke-linecap:round; stroke-linejoin:round;">
<path d="M69685 76577
L112205 76577
" />
</g>
<g style="fill:#000000; fill-opacity:0.0; 
stroke:#000000; stroke-width:39.3701; stroke-opacity:1; 
stroke-linecap:round; stroke-linejoin:round;">
</g>
<g style="fill:#000000; fill-opacity:0.0; 
stroke:#000000; stroke-width:59.0551; stroke-opacity:1; 
stroke-linecap:round; stroke-linejoin:round;">
<path d="M70249 77395
L70249 76805
" />
<path d="M70587 77395
L70334 77058
" />
<path d="M70587 76805
L70249 77142
" />
<path d="M70840 77395
L70840 77002
" />
<path d="M70840 76805
L70812 76833
L70840 76861
L70868 76833
L70840 76805
L70840 76861
" />
<path d="M71458 77339
L71430 77367
L71346 77395
L71290 77395
L71205 77367
L71149 77311
L71121 77255
L71093 77142
L71093 77058
L71121 76946
L71149 76889
L71205 76833
L71290 76805
L71346 76805
L71430 76833
L71458 76861
" />
<path d="M71965 77395
L71965 77086
L71937 77030
L71880 77002
L71768 77002
L71712 77030
" />
<path d="M71965 77367
L71908 77395
L71768 77395
L71712 77367
L71683 77311
L71683 77255
L71712 77199
L71768 77171
L71908 77171
L71965 77142
" />
<path d="M72499 77395
L72499 76805
" />
<path d="M72499 77367
L72443 77395
L72330 77395
L72274 77367
L72246 77339
L72218 77283
L72218 77114
L72246 77058
L72274 77030
L72330 77002
L72443 77002
L72499 77030
" />
<path d="M73230 77086
L73427 77086
" />
<path d="M73511 77395
L73230 77395
L73230 76805
L73511 76805
" />
<path d="M73764 77339
L73793 77367
L73764 77395
L73736 77367
L73764 77339
L73764 77395
" />
<path d="M74046 77395
L74046 76805
L74186 76805
L74271 76833
L74327 76889
L74355 76946
L74383 77058
L74383 77142
L74355 77255
L74327 77311
L74271 77367
L74186 77395
L74046 77395
" />
<path d="M74636 77339
L74664 77367
L74636 77395
L74608 77367
L74636 77339
L74636 77395
" />
<path d="M74889 77227
L75171 77227
" />
<path d="M74833 77395
L75030 76805
L75227 77395
" />
<path d="M75424 77339
L75452 77367
L75424 77395
L75395 77367
L75424 77339
L75424 77395
" />
<path d="M76605 77002
L76605 77592
" />
<path d="M76605 77030
L76661 77002
L76773 77002
L76830 77030
L76858 77058
L76886 77114
L76886 77283
L76858 77339
L76830 77367
L76773 77395
L76661 77395
L76605 77367
" />
<path d="M77392 77367
L77336 77395
L77223 77395
L77167 77367
L77139 77339
L77111 77283
L77111 77114
L77139 77058
L77167 77030
L77223 77002
L77336 77002
L77392 77030
" />
<path d="M77645 77395
L77645 76805
" />
<path d="M77645 77030
L77701 77002
L77814 77002
L77870 77030
L77898 77058
L77926 77114
L77926 77283
L77898 77339
L77870 77367
L77814 77395
L77701 77395
L77645 77367
" />
<path d="M78180 77002
L78180 77395
" />
<path d="M78180 77058
L78208 77030
L78264 77002
L78348 77002
L78404 77030
L78433 77086
L78433 77395
" />
<path d="M78939 77367
L78883 77395
L78770 77395
L78714 77367
L78686 77311
L78686 77086
L78714 77030
L78770 77002
L78883 77002
L78939 77030
L78967 77086
L78967 77142
L78686 77199
" />
<path d="M79164 77002
L79276 77395
L79389 77114
L79501 77395
L79614 77002
" />
<path d="M80457 77620
L80429 77592
L80373 77508
L80345 77452
L80317 77367
L80289 77227
L80289 77114
L80317 76974
L80345 76889
L80373 76833
L80429 76749
L80457 76721
" />
<path d="M80964 76805
L80682 76805
L80654 77086
L80682 77058
L80739 77030
L80879 77030
L80935 77058
L80964 77086
L80992 77142
L80992 77283
L80964 77339
L80935 77367
L80879 77395
L80739 77395
L80682 77367
L80654 77339
" />
<path d="M81245 77339
L81273 77367
L81245 77395
L81217 77367
L81245 77339
L81245 77395
" />
<path d="M81835 77395
L81498 77395
" />
<path d="M81667 77395
L81667 76805
L81610 76889
L81554 76946
L81498 76974
" />
<path d="M82088 77339
L82117 77367
L82088 77395
L82060 77367
L82088 77339
L82088 77395
" />
<path d="M82341 76861
L82370 76833
L82426 76805
L82566 76805
L82623 76833
L82651 76861
L82679 76917
L82679 76974
L82651 77058
L82313 77395
L82679 77395
" />
<path d="M82932 77171
L83382 77171
" />
<path d="M83973 77395
L83635 77395
" />
<path d="M83804 77395
L83804 76805
L83748 76889
L83691 76946
L83635 76974
" />
<path d="M84169 77620
L84197 77592
L84254 77508
L84282 77452
L84310 77367
L84338 77227
L84338 77114
L84310 76974
L84282 76889
L84254 76833
L84197 76749
L84169 76721
" />
<path d="M84619 77171
L85069 77171
" />
<path d="M85660 77395
L85322 77395
" />
<path d="M85491 77395
L85491 76805
L85435 76889
L85379 76946
L85322 76974
" />
</g>
<g style="fill:#000000; fill-opacity:0.0; 
stroke:#000000; stroke-width:39.3701; stroke-opacity:1; 
stroke-linecap:round; stroke-linejoin:round;">
</g>
<g style="fill:#000000; fill-opacity:0.0; 
stroke:#000000; stroke-width:59.0551; stroke-opacity:1; 
stroke-linecap:round; stroke-linejoin:round;">
<path d="M69685 75396
L112205 75396
" />
</g>
<g style="fill:#000000; fill-opacity:0.0; 
stroke:#000000; stroke-width:39.3701; stroke-opacity:1; 
stroke-linecap:round; stroke-linejoin:round;">
</g>
<g style="fill:#000000; fill-opacity:0.0; 
stroke:#000000; stroke-width:118.11; stroke-opacity:1; 
stroke-linecap:round; stroke-linejoin:round;">
<path d="M104099 76293
L103902 76012
" />
<path d="M103761 76293
L103761 75703
L103986 75703
L104042 75731
L104070 75759
L104099 75815
L104099 75899
L104070 75956
L104042 75984
L103986 76012
L103761 76012
" />
<path d="M104577 76265
L104520 76293
L104408 76293
L104352 76265
L104323 76209
L104323 75984
L104352 75928
L104408 75899
L104520 75899
L104577 75928
L104605 75984
L104605 76040
L104323 76096
" />
<path d="M104802 75899
L104942 76293
L105083 75899
" />
<path d="M105308 76237
L105336 76265
L105308 76293
L105280 76265
L105308 76237
L105308 76293
" />
<path d="M105308 75928
L105336 75956
L105308 75984
L105280 75956
L105308 75928
L105308 75984
" />
</g>
<g style="fill:#000000; fill-opacity:0.0; 
stroke:#000000; stroke-width:39.3701; stroke-opacity:1; 
stroke-linecap:round; stroke-linejoin:round;">
</g>
<g style="fill:#000000; fill-opacity:0.0; 
stroke:#000000; stroke-width:59.0551; stroke-opacity:1; 
stroke-linecap:round; stroke-linejoin:round;">
<path d="M70221 76265
L70305 76293
L70446 76293
L70502 76265
L70530 76237
L70559 76181
L70559 76124
L70530 76068
L70502 76040
L70446 76012
L70334 75984
L70277 75956
L70249 75928
L70221 75871
L70221 75815
L70249 75759
L70277 75731
L70334 75703
L70474 75703
L70559 75731
" />
<path d="M70812 76293
L70812 75899
" />
<path d="M70812 75703
L70784 75731
L70812 75759
L70840 75731
L70812 75703
L70812 75759
" />
<path d="M71037 75899
L71346 75899
L71037 76293
L71346 76293
" />
<path d="M71796 76265
L71740 76293
L71627 76293
L71571 76265
L71543 76209
L71543 75984
L71571 75928
L71627 75899
L71740 75899
L71796 75928
L71824 75984
L71824 76040
L71543 76096
" />
<path d="M72077 76237
L72105 76265
L72077 76293
L72049 76265
L72077 76237
L72077 76293
" />
<path d="M72077 75928
L72105 75956
L72077 75984
L72049 75956
L72077 75928
L72077 75984
" />
<path d="M72780 76124
L73061 76124
" />
<path d="M72724 76293
L72921 75703
L73118 76293
" />
<path d="M73568 75899
L73568 76293
" />
<path d="M73427 75674
L73286 76096
L73652 76096
" />
</g>
<g style="fill:#000000; fill-opacity:0.0; 
stroke:#000000; stroke-width:39.3701; stroke-opacity:1; 
stroke-linecap:round; stroke-linejoin:round;">
</g>
<g style="fill:#000000; fill-opacity:0.0; 
stroke:#000000; stroke-width:59.0551; stroke-opacity:1; 
stroke-linecap:round; stroke-linejoin:round;">
<path d="M103714 77395
L103714 76805
" />
<path d="M104248 77395
L104248 76805
" />
<path d="M104248 77367
L104192 77395
L104079 77395
L104023 77367
L103995 77339
L103967 77283
L103967 77114
L103995 77058
L104023 77030
L104079 77002
L104192 77002
L104248 77030
" />
<path d="M104529 77339
L104557 77367
L104529 77395
L104501 77367
L104529 77339
L104529 77395
" />
<path d="M104529 77030
L104557 77058
L104529 77086
L104501 77058
L104529 77030
L104529 77086
" />
<path d="M105570 77395
L105232 77395
" />
<path d="M105401 77395
L105401 76805
L105345 76889
L105289 76946
L105232 76974
" />
<path d="M106245 76777
L105739 77536
" />
<path d="M106751 77395
L106413 77395
" />
<path d="M106582 77395
L106582 76805
L106526 76889
L106470 76946
L106413 76974
" />
</g>
<g style="fill:#000000; fill-opacity:0.0; 
stroke:#000000; stroke-width:39.3701; stroke-opacity:1; 
stroke-linecap:round; stroke-linejoin:round;">
</g>
<g style="fill:#000000; fill-opacity:0.0; 
stroke:#000000; stroke-width:59.0551; stroke-opacity:1; 
stroke-linecap:round; stroke-linejoin:round;">
<path d="M69685 73821
L112205 73821
" />
</g>
<g style="fill:#000000; fill-opacity:0.0; 
stroke:#000000; stroke-width:39.3701; stroke-opacity:1; 
stroke-linecap:round; stroke-linejoin:round;">
</g>
<g style="fill:#000000; fill-opacity:0.0; 
stroke:#000000; stroke-width:157.48; stroke-opacity:1; 
stroke-linecap:round; stroke-linejoin:round;">
<path d="M70360 74099
L70810 74099
" />
<path d="M70486 74886
L70585 74099
" />
<path d="M70974 74886
L71039 74361
" />
<path d="M71072 74099
L71030 74136
L71063 74174
L71105 74136
L71072 74099
L71063 74174
" />
<path d="M71302 74361
L71602 74361
" />
<path d="M71447 74099
L71363 74774
L71391 74849
L71461 74886
L71536 74886
" />
<path d="M71911 74886
L71841 74849
L71813 74774
L71897 74099
" />
<path d="M72516 74849
L72436 74886
L72286 74886
L72216 74849
L72187 74774
L72225 74474
L72272 74399
L72352 74361
L72501 74361
L72572 74399
L72600 74474
L72591 74549
L72206 74624
" />
<path d="M72895 74811
L72928 74849
L72886 74886
L72853 74849
L72895 74811
L72886 74886
" />
<path d="M72947 74399
L72980 74436
L72937 74474
L72905 74436
L72947 74399
L72937 74474
" />
</g>
<g style="fill:#000000; fill-opacity:0.0; 
stroke:#000000; stroke-width:39.3701; stroke-opacity:1; 
stroke-linecap:round; stroke-linejoin:round;">
</g>
<g style="fill:#000000; fill-opacity:0.0; 
stroke:#000000; stroke-width:59.0551; stroke-opacity:1; 
stroke-linecap:round; stroke-linejoin:round;">
<path d="M70446 73070
L70249 73070
" />
<path d="M70249 73380
L70249 72789
L70530 72789
" />
<path d="M70755 73380
L70755 72986
" />
<path d="M70755 72789
L70727 72817
L70755 72845
L70784 72817
L70755 72789
L70755 72845
" />
<path d="M71121 73380
L71065 73352
L71037 73295
L71037 72789
" />
<path d="M71571 73352
L71515 73380
L71402 73380
L71346 73352
L71318 73295
L71318 73070
L71346 73014
L71402 72986
L71515 72986
L71571 73014
L71599 73070
L71599 73127
L71318 73183
" />
<path d="M71852 73323
L71880 73352
L71852 73380
L71824 73352
L71852 73323
L71852 73380
" />
<path d="M71852 73014
L71880 73042
L71852 73070
L71824 73042
L71852 73014
L71852 73070
" />
<path d="M72921 73380
L72724 73099
" />
<path d="M72583 73380
L72583 72789
L72808 72789
L72865 72817
L72893 72845
L72921 72902
L72921 72986
L72893 73042
L72865 73070
L72808 73099
L72583 73099
" />
<path d="M73174 73380
L73174 72789
L73399 72789
L73455 72817
L73483 72845
L73511 72902
L73511 72986
L73483 73042
L73455 73070
L73399 73099
L73174 73099
" />
<path d="M73764 73380
L73764 72986
" />
<path d="M73764 72789
L73736 72817
L73764 72845
L73793 72817
L73764 72789
L73764 72845
" />
<path d="M73905 73436
L74355 73436
" />
<path d="M74411 72789
L74749 72789
" />
<path d="M74580 73380
L74580 72789
" />
<path d="M75171 73352
L75114 73380
L75002 73380
L74946 73352
L74917 73295
L74917 73070
L74946 73014
L75002 72986
L75114 72986
L75171 73014
L75199 73070
L75199 73127
L74917 73183
" />
<path d="M75536 73380
L75480 73352
L75452 73295
L75452 72789
" />
<path d="M75986 73352
L75930 73380
L75817 73380
L75761 73352
L75733 73295
L75733 73070
L75761 73014
L75817 72986
L75930 72986
L75986 73014
L76014 73070
L76014 73127
L75733 73183
" />
<path d="M76520 73352
L76464 73380
L76352 73380
L76295 73352
L76267 73323
L76239 73267
L76239 73099
L76267 73042
L76295 73014
L76352 72986
L76464 72986
L76520 73014
" />
<path d="M76858 73380
L76802 73352
L76773 73323
L76745 73267
L76745 73099
L76773 73042
L76802 73014
L76858 72986
L76942 72986
L76998 73014
L77027 73042
L77055 73099
L77055 73267
L77027 73323
L76998 73352
L76942 73380
L76858 73380
" />
<path d="M77167 73436
L77617 73436
" />
<path d="M77758 73380
L77758 72789
L77983 72789
L78039 72817
L78067 72845
L78095 72902
L78095 72986
L78067 73042
L78039 73070
L77983 73099
L77758 73099
" />
<path d="M78686 73323
L78658 73352
L78573 73380
L78517 73380
L78433 73352
L78376 73295
L78348 73239
L78320 73127
L78320 73042
L78348 72930
L78376 72874
L78433 72817
L78517 72789
L78573 72789
L78658 72817
L78686 72845
" />
<path d="M79136 73070
L79220 73099
L79248 73127
L79276 73183
L79276 73267
L79248 73323
L79220 73352
L79164 73380
L78939 73380
L78939 72789
L79136 72789
L79192 72817
L79220 72845
L79248 72902
L79248 72958
L79220 73014
L79192 73042
L79136 73070
L78939 73070
" />
<path d="M79529 73323
L79557 73352
L79529 73380
L79501 73352
L79529 73323
L79529 73380
" />
<path d="M79811 73380
L79811 72789
" />
<path d="M79867 73155
L80036 73380
" />
<path d="M80036 72986
L79811 73211
" />
<path d="M80289 73380
L80289 72986
" />
<path d="M80289 72789
L80260 72817
L80289 72845
L80317 72817
L80289 72789
L80289 72845
" />
<path d="M80823 73352
L80767 73380
L80654 73380
L80598 73352
L80570 73323
L80542 73267
L80542 73099
L80570 73042
L80598 73014
L80654 72986
L80767 72986
L80823 73014
" />
<path d="M81329 73380
L81329 73070
L81301 73014
L81245 72986
L81132 72986
L81076 73014
" />
<path d="M81329 73352
L81273 73380
L81132 73380
L81076 73352
L81048 73295
L81048 73239
L81076 73183
L81132 73155
L81273 73155
L81329 73127
" />
<path d="M81863 73380
L81863 72789
" />
<path d="M81863 73352
L81807 73380
L81695 73380
L81638 73352
L81610 73323
L81582 73267
L81582 73099
L81610 73042
L81638 73014
L81695 72986
L81807 72986
L81863 73014
" />
<path d="M82004 73436
L82454 73436
" />
<path d="M82595 72986
L82595 73577
" />
<path d="M82595 73014
L82651 72986
L82763 72986
L82820 73014
L82848 73042
L82876 73099
L82876 73267
L82848 73323
L82820 73352
L82763 73380
L82651 73380
L82595 73352
" />
<path d="M83382 73352
L83326 73380
L83213 73380
L83157 73352
L83129 73323
L83101 73267
L83101 73099
L83129 73042
L83157 73014
L83213 72986
L83326 72986
L83382 73014
" />
<path d="M83635 73380
L83635 72789
" />
<path d="M83635 73014
L83691 72986
L83804 72986
L83860 73014
L83888 73042
L83916 73099
L83916 73267
L83888 73323
L83860 73352
L83804 73380
L83691 73380
L83635 73352
" />
</g>
<g style="fill:#000000; fill-opacity:0.0; 
stroke:#000000; stroke-width:39.3701; stroke-opacity:1; 
stroke-linecap:round; stroke-linejoin:round;">
</g>
<g style="fill:#000000; fill-opacity:0.0; 
stroke:#000000; stroke-width:59.0551; stroke-opacity:1; 
stroke-linecap:round; stroke-linejoin:round;">
<path d="M69685 71459
L112205 71459
" />
</g>
<g style="fill:#000000; fill-opacity:0.0; 
stroke:#000000; stroke-width:39.3701; stroke-opacity:1; 
stroke-linecap:round; stroke-linejoin:round;">
</g>
<g style="fill:#000000; fill-opacity:0.0; 
stroke:#000000; stroke-width:59.0551; stroke-opacity:1; 
stroke-linecap:round; stroke-linejoin:round;">
<path d="M70221 72289
L70305 72317
L70446 72317
L70502 72289
L70530 72260
L70559 72204
L70559 72148
L70530 72092
L70502 72064
L70446 72036
L70334 72007
L70277 71979
L70249 71951
L70221 71895
L70221 71839
L70249 71782
L70277 71754
L70334 71726
L70474 71726
L70559 71754
" />
<path d="M70812 72317
L70812 71726
" />
<path d="M71065 72317
L71065 72007
L71037 71951
L70980 71923
L70896 71923
L70840 71951
L70812 71979
" />
<path d="M71571 72289
L71515 72317
L71402 72317
L71346 72289
L71318 72232
L71318 72007
L71346 71951
L71402 71923
L71515 71923
L71571 71951
L71599 72007
L71599 72064
L71318 72120
" />
<path d="M72077 72289
L72021 72317
L71908 72317
L71852 72289
L71824 72232
L71824 72007
L71852 71951
L71908 71923
L72021 71923
L72077 71951
L72105 72007
L72105 72064
L71824 72120
" />
<path d="M72274 71923
L72499 71923
" />
<path d="M72358 71726
L72358 72232
L72386 72289
L72443 72317
L72499 72317
" />
<path d="M72696 72260
L72724 72289
L72696 72317
L72668 72289
L72696 72260
L72696 72317
" />
<path d="M72696 71951
L72724 71979
L72696 72007
L72668 71979
L72696 71951
L72696 72007
" />
</g>
<g style="fill:#000000; fill-opacity:0.0; 
stroke:#000000; stroke-width:39.3701; stroke-opacity:1; 
stroke-linecap:round; stroke-linejoin:round;">
</g>
<g style="fill:#000000; fill-opacity:0.0; 
stroke:#000000; stroke-width:59.0551; stroke-opacity:1; 
stroke-linecap:round; stroke-linejoin:round;">
<path d="M77559 75396
L77559 76577
" />
</g>
<g style="fill:#000000; fill-opacity:0.0; 
stroke:#000000; stroke-width:39.3701; stroke-opacity:1; 
stroke-linecap:round; stroke-linejoin:round;">
</g>
<g style="fill:#000000; fill-opacity:0.0; 
stroke:#000000; stroke-width:59.0551; stroke-opacity:1; 
stroke-linecap:round; stroke-linejoin:round;">
<path d="M102756 75396
L102756 77955
" />
</g>
<g style="fill:#008484; fill-opacity:0.0; 
stroke:#008484; stroke-width:59.0551; stroke-opacity:1; 
stroke-linecap:round; stroke-linejoin:round;">
</g>
<g style="fill:#008484; fill-opacity:0.0; 
stroke:#008484; stroke-width:47.2441; stroke-opacity:1; 
stroke-linecap:round; stroke-linejoin:round;">
<path d="M59362 38779
L59362 26574
" />
<path d="M82590 38779
L59362 38779
" />
<path d="M82590 26574
L82590 38779
" />
<path d="M59362 26574
L82590 26574
" />
</g>
<g style="fill:#008484; fill-opacity:0.0; 
stroke:#008484; stroke-width:59.0551; stroke-opacity:1; 
stroke-linecap:round; stroke-linejoin:round;">
<path d="M49300 23736
L49037 23361
" />
<path d="M48850 23736
L48850 22948
L49150 22948
L49225 22986
L49262 23023
L49300 23098
L49300 23211
L49262 23286
L49225 23323
L49150 23361
L48850 23361
" />
<path d="M49637 23736
L49637 22948
L49937 22948
L50012 22986
L50050 23023
L50087 23098
L50087 23211
L50050 23286
L50012 23323
L49937 23361
L49637 23361
" />
<path d="M50425 23736
L50425 23211
" />
<path d="M50425 22948
L50387 22986
L50425 23023
L50462 22986
L50425 22948
L50425 23023
" />
<path d="M50800 23436
L51400 23436
" />
<path d="M51662 22948
L52112 22948
" />
<path d="M51887 23736
L51887 22948
" />
<path d="M52674 23698
L52599 23736
L52449 23736
L52374 23698
L52337 23623
L52337 23323
L52374 23248
L52449 23211
L52599 23211
L52674 23248
L52712 23323
L52712 23398
L52337 23473
" />
<path d="M53162 23736
L53087 23698
L53049 23623
L53049 22948
" />
<path d="M53762 23698
L53687 23736
L53537 23736
L53462 23698
L53424 23623
L53424 23323
L53462 23248
L53537 23211
L53687 23211
L53762 23248
L53799 23323
L53799 23398
L53424 23473
" />
<path d="M54474 23698
L54399 23736
L54249 23736
L54174 23698
L54137 23661
L54099 23586
L54099 23361
L54137 23286
L54174 23248
L54249 23211
L54399 23211
L54474 23248
" />
<path d="M54924 23736
L54849 23698
L54812 23661
L54774 23586
L54774 23361
L54812 23286
L54849 23248
L54924 23211
L55037 23211
L55112 23248
L55149 23286
L55187 23361
L55187 23586
L55149 23661
L55112 23698
L55037 23736
L54924 23736
" />
<path d="M48775 24976
L48775 24188
" />
<path d="M49225 24976
L48887 24526
" />
<path d="M49225 24188
L48775 24638
" />
<path d="M49487 24188
L50012 24976
" />
<path d="M50012 24188
L49487 24976
" />
<path d="M50312 24976
L50312 24188
" />
<path d="M50762 24976
L50425 24526
" />
<path d="M50762 24188
L50312 24638
" />
<path d="M51100 24976
L51100 24188
L51362 24751
L51625 24188
L51625 24976
" />
<path d="M52562 24263
L52599 24226
L52674 24188
L52862 24188
L52937 24226
L52974 24263
L53012 24338
L53012 24413
L52974 24526
L52524 24976
L53012 24976
" />
<path d="M53499 24188
L53574 24188
L53649 24226
L53687 24263
L53724 24338
L53762 24488
L53762 24676
L53724 24826
L53687 24901
L53649 24938
L53574 24976
L53499 24976
L53424 24938
L53387 24901
L53349 24826
L53312 24676
L53312 24488
L53349 24338
L53387 24263
L53424 24226
L53499 24188
" />
<path d="M54062 24263
L54099 24226
L54174 24188
L54362 24188
L54437 24226
L54474 24263
L54512 24338
L54512 24413
L54474 24526
L54024 24976
L54512 24976
" />
<path d="M54999 24188
L55074 24188
L55149 24226
L55187 24263
L55224 24338
L55262 24488
L55262 24676
L55224 24826
L55187 24901
L55149 24938
L55074 24976
L54999 24976
L54924 24938
L54887 24901
L54849 24826
L54812 24676
L54812 24488
L54849 24338
L54887 24263
L54924 24226
L54999 24188
" />
<path d="M66040 32961
L66068 32933
L66124 32904
L66265 32904
L66321 32933
L66349 32961
L66377 33017
L66377 33073
L66349 33158
L66012 33495
L66377 33495
" />
<path d="M66631 33439
L66659 33467
L66631 33495
L66602 33467
L66631 33439
L66631 33495
" />
<path d="M67165 33101
L67165 33495
" />
<path d="M67024 32876
L66884 33298
L67249 33298
" />
<path d="M67446 32961
L67474 32933
L67530 32904
L67671 32904
L67727 32933
L67755 32961
L67784 33017
L67784 33073
L67755 33158
L67418 33495
L67784 33495
" />
<path d="M68065 32904
L68065 32933
L68037 32989
L68008 33017
" />
<path d="M68346 32904
L68346 32933
L68318 32989
L68290 33017
" />
<path d="M69161 32904
L69274 32904
L69330 32933
L69386 32989
L69415 33101
L69415 33298
L69386 33411
L69330 33467
L69274 33495
L69161 33495
L69105 33467
L69049 33411
L69021 33298
L69021 33101
L69049 32989
L69105 32933
L69161 32904
" />
<path d="M69949 33495
L69668 33495
L69668 32904
" />
<path d="M70146 33186
L70343 33186
" />
<path d="M70427 33495
L70146 33495
L70146 32904
L70427 32904
" />
<path d="M70680 33495
L70680 32904
L70821 32904
L70905 32933
L70961 32989
L70989 33045
L71017 33158
L71017 33242
L70989 33354
L70961 33411
L70905 33467
L70821 33495
L70680 33495
" />
<path d="M71721 33495
L71721 32904
L71861 32904
L71946 32933
L72002 32989
L72030 33045
L72058 33158
L72058 33242
L72030 33354
L72002 33411
L71946 33467
L71861 33495
L71721 33495
" />
<path d="M72311 33495
L72311 32904
" />
<path d="M72564 33467
L72649 33495
L72789 33495
L72845 33467
L72874 33439
L72902 33383
L72902 33326
L72874 33270
L72845 33242
L72789 33214
L72677 33186
L72620 33158
L72592 33129
L72564 33073
L72564 33017
L72592 32961
L72620 32933
L72677 32904
L72817 32904
L72902 32933
" />
<path d="M73155 33495
L73155 32904
L73380 32904
L73436 32933
L73464 32961
L73492 33017
L73492 33101
L73464 33158
L73436 33186
L73380 33214
L73155 33214
" />
<path d="M74026 33495
L73745 33495
L73745 32904
" />
<path d="M74195 33326
L74476 33326
" />
<path d="M74139 33495
L74336 32904
L74533 33495
" />
<path d="M74842 33214
L74842 33495
" />
<path d="M74645 32904
L74842 33214
L75039 32904
" />
</g>
<g style="fill:#008484; fill-opacity:0.0; 
stroke:#008484; stroke-width:47.2441; stroke-opacity:1; 
stroke-linecap:round; stroke-linejoin:round;">
<path d="M85000 42000
L85000 25000
" />
<path d="M57000 42000
L85000 42000
" />
<path d="M57000 25000
L57000 42000
" />
<path d="M85000 25000
L57000 25000
" />
</g>
<g style="fill:#008484; fill-opacity:0.0; 
stroke:#008484; stroke-width:80; stroke-opacity:1; 
stroke-linecap:round; stroke-linejoin:round;">
<path d="M72133 19779
L72133 19444
" />
<path d="M72586 18991
L76404 18991
" />
<path d="M76857 19444
L76857 19779
" />
<path d="M76857 20960
L76857 21746
" />
<path d="M76857 22927
L76857 23262
" />
<path d="M76404 23715
L72586 23715
" />
<path d="M72133 23262
L72133 22927
" />
<path d="M72133 21746
L72133 20960
" />
<path d="M76404 18991
L76857 19444
" />
<path d="M72133 19444
L72586 18991
" />
<path d="M72586 23715
L72133 23262
" />
<path d="M76857 23262
L76404 23715
" />
<path d="M76857 20960
L76463 20960
" />
<path d="M76463 20960
L76463 19779
" />
<path d="M76463 19779
L76857 19779
" />
<path d="M76857 21746
L76463 21746
" />
<path d="M76463 21746
L76463 22927
" />
<path d="M76463 22927
L76857 22927
" />
</g>
<g style="fill:#008484; fill-opacity:0.0; 
stroke:#008484; stroke-width:120; stroke-opacity:1; 
stroke-linecap:round; stroke-linejoin:round;">
<path d="M74745 21103
L74245 21103
" />
<path d="M74245 21103
L74495 21603
" />
<path d="M74495 21603
L74745 21103
" />
<path d="M74745 21603
L74495 21603
" />
<path d="M74495 21603
L74245 21603
" />
</g>
<g style="fill:#008484; fill-opacity:0.0; 
stroke:#008484; stroke-width:80; stroke-opacity:1; 
stroke-linecap:round; stroke-linejoin:round;">
<circle cx="74495.2" cy="21353.1" r="1377" /> 
</g>
<g style="fill:#008484; fill-opacity:0.0; 
stroke:#008484; stroke-width:354; stroke-opacity:1; 
stroke-linecap:round; stroke-linejoin:round;">
</g>
<g style="fill:#008484; fill-opacity:1.0; 
stroke:#008484; stroke-width:0; stroke-opacity:1; 
stroke-linecap:round; stroke-linejoin:round;">
<circle cx="72921.2" cy="19779.1" r="334" /> 
</g>
<g style="fill:#008484; fill-opacity:0.0; 
stroke:#008484; stroke-width:354; stroke-opacity:1; 
stroke-linecap:round; stroke-linejoin:round;">
</g>
<g style="fill:#008484; fill-opacity:1.0; 
stroke:#008484; stroke-width:0; stroke-opacity:1; 
stroke-linecap:round; stroke-linejoin:round;">
<circle cx="76069.2" cy="19779.1" r="334" /> 
</g>
<g style="fill:#008484; fill-opacity:0.0; 
stroke:#008484; stroke-width:354; stroke-opacity:1; 
stroke-linecap:round; stroke-linejoin:round;">
</g>
<g style="fill:#008484; fill-opacity:1.0; 
stroke:#008484; stroke-width:0; stroke-opacity:1; 
stroke-linecap:round; stroke-linejoin:round;">
<circle cx="76069.2" cy="22927.1" r="334" /> 
</g>
<g style="fill:#008484; fill-opacity:0.0; 
stroke:#008484; stroke-width:354; stroke-opacity:1; 
stroke-linecap:round; stroke-linejoin:round;">
</g>
<g style="fill:#008484; fill-opacity:1.0; 
stroke:#008484; stroke-width:0; stroke-opacity:1; 
stroke-linecap:round; stroke-linejoin:round;">
<circle cx="72921.2" cy="22927.1" r="334" /> 
</g>
<g style="fill:#008484; fill-opacity:1.0; 
stroke:#008484; stroke-width:80; stroke-opacity:1; 
stroke-linecap:round; stroke-linejoin:round;">
</g>
<g style="fill:#008484; fill-opacity:0.0; 
stroke:#008484; stroke-width:80; stroke-opacity:1; 
stroke-linecap:round; stroke-linejoin:round;">
<path d="M72128 44081
L72128 43746
" />
<path d="M72581 43293
L76399 43293
" />
<path d="M76852 43746
L76852 44081
" />
<path d="M76852 45262
L76852 46048
" />
<path d="M76852 47229
L76852 47564
" />
<path d="M76399 48017
L72581 48017
" />
<path d="M72128 47564
L72128 47229
" />
<path d="M72128 46048
L72128 45262
" />
<path d="M76399 43293
L76852 43746
" />
<path d="M72128 43746
L72581 43293
" />
<path d="M72581 48017
L72128 47564
" />
<path d="M76852 47564
L76399 48017
" />
<path d="M76852 45262
L76458 45262
" />
<path d="M76458 45262
L76458 44081
" />
<path d="M76458 44081
L76852 44081
" />
<path d="M76852 46048
L76458 46048
" />
<path d="M76458 46048
L76458 47229
" />
<path d="M76458 47229
L76852 47229
" />
</g>
<g style="fill:#008484; fill-opacity:0.0; 
stroke:#008484; stroke-width:120; stroke-opacity:1; 
stroke-linecap:round; stroke-linejoin:round;">
<path d="M74740 45405
L74240 45405
" />
<path d="M74240 45405
L74490 45905
" />
<path d="M74490 45905
L74740 45405
" />
<path d="M74740 45905
L74490 45905
" />
<path d="M74490 45905
L74240 45905
" />
</g>
<g style="fill:#008484; fill-opacity:0.0; 
stroke:#008484; stroke-width:80; stroke-opacity:1; 
stroke-linecap:round; stroke-linejoin:round;">
<circle cx="74490" cy="45655" r="1377" /> 
</g>
<g style="fill:#008484; fill-opacity:0.0; 
stroke:#008484; stroke-width:354; stroke-opacity:1; 
stroke-linecap:round; stroke-linejoin:round;">
</g>
<g style="fill:#008484; fill-opacity:1.0; 
stroke:#008484; stroke-width:0; stroke-opacity:1; 
stroke-linecap:round; stroke-linejoin:round;">
<circle cx="72916" cy="44081" r="334" /> 
</g>
<g style="fill:#008484; fill-opacity:0.0; 
stroke:#008484; stroke-width:354; stroke-opacity:1; 
stroke-linecap:round; stroke-linejoin:round;">
</g>
<g style="fill:#008484; fill-opacity:1.0; 
stroke:#008484; stroke-width:0; stroke-opacity:1; 
stroke-linecap:round; stroke-linejoin:round;">
<circle cx="76064" cy="44081" r="334" /> 
</g>
<g style="fill:#008484; fill-opacity:0.0; 
stroke:#008484; stroke-width:354; stroke-opacity:1; 
stroke-linecap:round; stroke-linejoin:round;">
</g>
<g style="fill:#008484; fill-opacity:1.0; 
stroke:#008484; stroke-width:0; stroke-opacity:1; 
stroke-linecap:round; stroke-linejoin:round;">
<circle cx="76064" cy="47229" r="334" /> 
</g>
<g style="fill:#008484; fill-opacity:0.0; 
stroke:#008484; stroke-width:354; stroke-opacity:1; 
stroke-linecap:round; stroke-linejoin:round;">
</g>
<g style="fill:#008484; fill-opacity:1.0; 
stroke:#008484; stroke-width:0; stroke-opacity:1; 
stroke-linecap:round; stroke-linejoin:round;">
<circle cx="72916" cy="47229" r="334" /> 
</g>
<g style="fill:#008484; fill-opacity:1.0; 
stroke:#008484; stroke-width:47.2441; stroke-opacity:1; 
stroke-linecap:round; stroke-linejoin:round;">
</g>
<g style="fill:#008484; fill-opacity:0.0; 
stroke:#008484; stroke-width:47.2441; stroke-opacity:1; 
stroke-linecap:round; stroke-linejoin:round;">
<path d="M67476 25145
L67476 26192
" />
<path d="M73500 25145
L67476 25145
" />
<path d="M73500 26192
L67476 26192
" />
<path d="M73500 25145
L73500 26192
" />
<path d="M74000 25145
L74523 25145
" />
<path d="M74523 25145
L74523 25669
" />
<path d="M52708 41271
L51291 41271
" />
<path d="M52000 43023.6 A1023.62 1023.62 0.0 0 0 52723.8 41276.2 " />
<path d="M51276.2 41276.2 A1023.62 1023.62 0.0 0 0 52000 43023.6 " />
</g>
<g style="fill:#008484; fill-opacity:0.0; 
stroke:#008484; stroke-width:80; stroke-opacity:1; 
stroke-linecap:round; stroke-linejoin:round;">
<path d="M58138 44076
L58138 43741
" />
<path d="M58591 43288
L62409 43288
" />
<path d="M62862 43741
L62862 44076
" />
<path d="M62862 45257
L62862 46043
" />
<path d="M62862 47224
L62862 47559
" />
<path d="M62409 48012
L58591 48012
" />
<path d="M58138 47559
L58138 47224
" />
<path d="M58138 46043
L58138 45257
" />
<path d="M62409 43288
L62862 43741
" />
<path d="M58138 43741
L58591 43288
" />
<path d="M58591 48012
L58138 47559
" />
<path d="M62862 47559
L62409 48012
" />
<path d="M62862 45257
L62468 45257
" />
<path d="M62468 45257
L62468 44076
" />
<path d="M62468 44076
L62862 44076
" />
<path d="M62862 46043
L62468 46043
" />
<path d="M62468 46043
L62468 47224
" />
<path d="M62468 47224
L62862 47224
" />
</g>
<g style="fill:#008484; fill-opacity:0.0; 
stroke:#008484; stroke-width:120; stroke-opacity:1; 
stroke-linecap:round; stroke-linejoin:round;">
<path d="M60750 45400
L60250 45400
" />
<path d="M60250 45400
L60500 45900
" />
<path d="M60500 45900
L60750 45400
" />
<path d="M60750 45900
L60500 45900
" />
<path d="M60500 45900
L60250 45900
" />
</g>
<g style="fill:#008484; fill-opacity:0.0; 
stroke:#008484; stroke-width:80; stroke-opacity:1; 
stroke-linecap:round; stroke-linejoin:round;">
<circle cx="60500" cy="45650" r="1377" /> 
</g>
<g style="fill:#008484; fill-opacity:0.0; 
stroke:#008484; stroke-width:354; stroke-opacity:1; 
stroke-linecap:round; stroke-linejoin:round;">
</g>
<g style="fill:#008484; fill-opacity:1.0; 
stroke:#008484; stroke-width:0; stroke-opacity:1; 
stroke-linecap:round; stroke-linejoin:round;">
<circle cx="58926" cy="44076" r="334" /> 
</g>
<g style="fill:#008484; fill-opacity:0.0; 
stroke:#008484; stroke-width:354; stroke-opacity:1; 
stroke-linecap:round; stroke-linejoin:round;">
</g>
<g style="fill:#008484; fill-opacity:1.0; 
stroke:#008484; stroke-width:0; stroke-opacity:1; 
stroke-linecap:round; stroke-linejoin:round;">
<circle cx="62074" cy="44076" r="334" /> 
</g>
<g style="fill:#008484; fill-opacity:0.0; 
stroke:#008484; stroke-width:354; stroke-opacity:1; 
stroke-linecap:round; stroke-linejoin:round;">
</g>
<g style="fill:#008484; fill-opacity:1.0; 
stroke:#008484; stroke-width:0; stroke-opacity:1; 
stroke-linecap:round; stroke-linejoin:round;">
<circle cx="62074" cy="47224" r="334" /> 
</g>
<g style="fill:#008484; fill-opacity:0.0; 
stroke:#008484; stroke-width:354; stroke-opacity:1; 
stroke-linecap:round; stroke-linejoin:round;">
</g>
<g style="fill:#008484; fill-opacity:1.0; 
stroke:#008484; stroke-width:0; stroke-opacity:1; 
stroke-linecap:round; stroke-linejoin:round;">
<circle cx="58926" cy="47224" r="334" /> 
</g>
<g style="fill:#008484; fill-opacity:0.0; 
stroke:#008484; stroke-width:354; stroke-opacity:1; 
stroke-linecap:round; stroke-linejoin:round;">
</g>
<g style="fill:#008484; fill-opacity:1.0; 
stroke:#008484; stroke-width:0; stroke-opacity:1; 
stroke-linecap:round; stroke-linejoin:round;">
<circle cx="65926" cy="47234" r="334" /> 
</g>
<g style="fill:#008484; fill-opacity:0.0; 
stroke:#008484; stroke-width:354; stroke-opacity:1; 
stroke-linecap:round; stroke-linejoin:round;">
</g>
<g style="fill:#008484; fill-opacity:1.0; 
stroke:#008484; stroke-width:0; stroke-opacity:1; 
stroke-linecap:round; stroke-linejoin:round;">
<circle cx="69074" cy="47234" r="334" /> 
</g>
<g style="fill:#008484; fill-opacity:0.0; 
stroke:#008484; stroke-width:354; stroke-opacity:1; 
stroke-linecap:round; stroke-linejoin:round;">
</g>
<g style="fill:#008484; fill-opacity:1.0; 
stroke:#008484; stroke-width:0; stroke-opacity:1; 
stroke-linecap:round; stroke-linejoin:round;">
<circle cx="69074" cy="44086" r="334" /> 
</g>
<g style="fill:#008484; fill-opacity:0.0; 
stroke:#008484; stroke-width:354; stroke-opacity:1; 
stroke-linecap:round; stroke-linejoin:round;">
</g>
<g style="fill:#008484; fill-opacity:1.0; 
stroke:#008484; stroke-width:0; stroke-opacity:1; 
stroke-linecap:round; stroke-linejoin:round;">
<circle cx="65926" cy="44086" r="334" /> 
</g>
<g style="fill:#008484; fill-opacity:0.0; 
stroke:#008484; stroke-width:80; stroke-opacity:1; 
stroke-linecap:round; stroke-linejoin:round;">
<circle cx="67500" cy="45660" r="1377" /> 
</g>
<g style="fill:#008484; fill-opacity:0.0; 
stroke:#008484; stroke-width:120; stroke-opacity:1; 
stroke-linecap:round; stroke-linejoin:round;">
<path d="M67500 45910
L67250 45910
" />
<path d="M67750 45910
L67500 45910
" />
<path d="M67500 45910
L67750 45410
" />
<path d="M67250 45410
L67500 45910
" />
<path d="M67750 45410
L67250 45410
" />
</g>
<g style="fill:#008484; fill-opacity:0.0; 
stroke:#008484; stroke-width:80; stroke-opacity:1; 
stroke-linecap:round; stroke-linejoin:round;">
<path d="M69468 47234
L69862 47234
" />
<path d="M69468 46053
L69468 47234
" />
<path d="M69862 46053
L69468 46053
" />
<path d="M69468 44086
L69862 44086
" />
<path d="M69468 45267
L69468 44086
" />
<path d="M69862 45267
L69468 45267
" />
<path d="M69862 47569
L69409 48022
" />
<path d="M65591 48022
L65138 47569
" />
<path d="M65138 43751
L65591 43298
" />
<path d="M69409 43298
L69862 43751
" />
<path d="M65138 46053
L65138 45267
" />
<path d="M65138 47569
L65138 47234
" />
<path d="M69409 48022
L65591 48022
" />
<path d="M69862 47234
L69862 47569
" />
<path d="M69862 45267
L69862 46053
" />
<path d="M69862 43751
L69862 44086
" />
<path d="M65591 43298
L69409 43298
" />
<path d="M65138 44086
L65138 43751
" />
</g>
<g style="fill:#008484; fill-opacity:0.0; 
stroke:#008484; stroke-width:354; stroke-opacity:1; 
stroke-linecap:round; stroke-linejoin:round;">
</g>
<g style="fill:#008484; fill-opacity:1.0; 
stroke:#008484; stroke-width:0; stroke-opacity:1; 
stroke-linecap:round; stroke-linejoin:round;">
<circle cx="79926" cy="47234" r="334" /> 
</g>
<g style="fill:#008484; fill-opacity:0.0; 
stroke:#008484; stroke-width:354; stroke-opacity:1; 
stroke-linecap:round; stroke-linejoin:round;">
</g>
<g style="fill:#008484; fill-opacity:1.0; 
stroke:#008484; stroke-width:0; stroke-opacity:1; 
stroke-linecap:round; stroke-linejoin:round;">
<circle cx="83074" cy="47234" r="334" /> 
</g>
<g style="fill:#008484; fill-opacity:0.0; 
stroke:#008484; stroke-width:354; stroke-opacity:1; 
stroke-linecap:round; stroke-linejoin:round;">
</g>
<g style="fill:#008484; fill-opacity:1.0; 
stroke:#008484; stroke-width:0; stroke-opacity:1; 
stroke-linecap:round; stroke-linejoin:round;">
<circle cx="83074" cy="44086" r="334" /> 
</g>
<g style="fill:#008484; fill-opacity:0.0; 
stroke:#008484; stroke-width:354; stroke-opacity:1; 
stroke-linecap:round; stroke-linejoin:round;">
</g>
<g style="fill:#008484; fill-opacity:1.0; 
stroke:#008484; stroke-width:0; stroke-opacity:1; 
stroke-linecap:round; stroke-linejoin:round;">
<circle cx="79926" cy="44086" r="334" /> 
</g>
<g style="fill:#008484; fill-opacity:0.0; 
stroke:#008484; stroke-width:80; stroke-opacity:1; 
stroke-linecap:round; stroke-linejoin:round;">
<circle cx="81500" cy="45660" r="1377" /> 
</g>
<g style="fill:#008484; fill-opacity:0.0; 
stroke:#008484; stroke-width:120; stroke-opacity:1; 
stroke-linecap:round; stroke-linejoin:round;">
<path d="M81500 45910
L81250 45910
" />
<path d="M81750 45910
L81500 45910
" />
<path d="M81500 45910
L81750 45410
" />
<path d="M81250 45410
L81500 45910
" />
<path d="M81750 45410
L81250 45410
" />
</g>
<g style="fill:#008484; fill-opacity:0.0; 
stroke:#008484; stroke-width:80; stroke-opacity:1; 
stroke-linecap:round; stroke-linejoin:round;">
<path d="M83468 47234
L83862 47234
" />
<path d="M83468 46053
L83468 47234
" />
<path d="M83862 46053
L83468 46053
" />
<path d="M83468 44086
L83862 44086
" />
<path d="M83468 45267
L83468 44086
" />
<path d="M83862 45267
L83468 45267
" />
<path d="M83862 47569
L83409 48022
" />
<path d="M79591 48022
L79138 47569
" />
<path d="M79138 43751
L79591 43298
" />
<path d="M83409 43298
L83862 43751
" />
<path d="M79138 46053
L79138 45267
" />
<path d="M79138 47569
L79138 47234
" />
<path d="M83409 48022
L79591 48022
" />
<path d="M83862 47234
L83862 47569
" />
<path d="M83862 45267
L83862 46053
" />
<path d="M83862 43751
L83862 44086
" />
<path d="M79591 43298
L83409 43298
" />
<path d="M79138 44086
L79138 43751
" />
</g>
<g style="fill:#008484; fill-opacity:0.0; 
stroke:#008484; stroke-width:354; stroke-opacity:1; 
stroke-linecap:round; stroke-linejoin:round;">
</g>
<g style="fill:#008484; fill-opacity:1.0; 
stroke:#008484; stroke-width:0; stroke-opacity:1; 
stroke-linecap:round; stroke-linejoin:round;">
<circle cx="79912.2" cy="22924" r="334" /> 
</g>
<g style="fill:#008484; fill-opacity:0.0; 
stroke:#008484; stroke-width:354; stroke-opacity:1; 
stroke-linecap:round; stroke-linejoin:round;">
</g>
<g style="fill:#008484; fill-opacity:1.0; 
stroke:#008484; stroke-width:0; stroke-opacity:1; 
stroke-linecap:round; stroke-linejoin:round;">
<circle cx="83060.2" cy="22924" r="334" /> 
</g>
<g style="fill:#008484; fill-opacity:0.0; 
stroke:#008484; stroke-width:354; stroke-opacity:1; 
stroke-linecap:round; stroke-linejoin:round;">
</g>
<g style="fill:#008484; fill-opacity:1.0; 
stroke:#008484; stroke-width:0; stroke-opacity:1; 
stroke-linecap:round; stroke-linejoin:round;">
<circle cx="83060.2" cy="19776" r="334" /> 
</g>
<g style="fill:#008484; fill-opacity:0.0; 
stroke:#008484; stroke-width:354; stroke-opacity:1; 
stroke-linecap:round; stroke-linejoin:round;">
</g>
<g style="fill:#008484; fill-opacity:1.0; 
stroke:#008484; stroke-width:0; stroke-opacity:1; 
stroke-linecap:round; stroke-linejoin:round;">
<circle cx="79912.2" cy="19776" r="334" /> 
</g>
<g style="fill:#008484; fill-opacity:0.0; 
stroke:#008484; stroke-width:80; stroke-opacity:1; 
stroke-linecap:round; stroke-linejoin:round;">
<circle cx="81486.2" cy="21350" r="1377" /> 
</g>
<g style="fill:#008484; fill-opacity:0.0; 
stroke:#008484; stroke-width:120; stroke-opacity:1; 
stroke-linecap:round; stroke-linejoin:round;">
<path d="M81486 21600
L81236 21600
" />
<path d="M81736 21600
L81486 21600
" />
<path d="M81486 21600
L81736 21100
" />
<path d="M81236 21100
L81486 21600
" />
<path d="M81736 21100
L81236 21100
" />
</g>
<g style="fill:#008484; fill-opacity:0.0; 
stroke:#008484; stroke-width:80; stroke-opacity:1; 
stroke-linecap:round; stroke-linejoin:round;">
<path d="M83454 22924
L83848 22924
" />
<path d="M83454 21743
L83454 22924
" />
<path d="M83848 21743
L83454 21743
" />
<path d="M83454 19776
L83848 19776
" />
<path d="M83454 20957
L83454 19776
" />
<path d="M83848 20957
L83454 20957
" />
<path d="M83848 23259
L83395 23712
" />
<path d="M79577 23712
L79124 23259
" />
<path d="M79124 19441
L79577 18988
" />
<path d="M83395 18988
L83848 19441
" />
<path d="M79124 21743
L79124 20957
" />
<path d="M79124 23259
L79124 22924
" />
<path d="M83395 23712
L79577 23712
" />
<path d="M83848 22924
L83848 23259
" />
<path d="M83848 20957
L83848 21743
" />
<path d="M83848 19441
L83848 19776
" />
<path d="M79577 18988
L83395 18988
" />
<path d="M79124 19776
L79124 19441
" />
<path d="M86638 28926
L86638 28591
" />
<path d="M87091 28138
L90909 28138
" />
<path d="M91362 28591
L91362 28926
" />
<path d="M91362 30107
L91362 30893
" />
<path d="M91362 32074
L91362 32409
" />
<path d="M90909 32862
L87091 32862
" />
<path d="M86638 32409
L86638 32074
" />
<path d="M86638 30893
L86638 30107
" />
<path d="M90909 28138
L91362 28591
" />
<path d="M86638 28591
L87091 28138
" />
<path d="M87091 32862
L86638 32409
" />
<path d="M91362 32409
L90909 32862
" />
<path d="M91362 30107
L90968 30107
" />
<path d="M90968 30107
L90968 28926
" />
<path d="M90968 28926
L91362 28926
" />
<path d="M91362 30893
L90968 30893
" />
<path d="M90968 30893
L90968 32074
" />
<path d="M90968 32074
L91362 32074
" />
</g>
<g style="fill:#008484; fill-opacity:0.0; 
stroke:#008484; stroke-width:120; stroke-opacity:1; 
stroke-linecap:round; stroke-linejoin:round;">
<path d="M89250 30250
L88750 30250
" />
<path d="M88750 30250
L89000 30750
" />
<path d="M89000 30750
L89250 30250
" />
<path d="M89250 30750
L89000 30750
" />
<path d="M89000 30750
L88750 30750
" />
</g>
<g style="fill:#008484; fill-opacity:0.0; 
stroke:#008484; stroke-width:80; stroke-opacity:1; 
stroke-linecap:round; stroke-linejoin:round;">
<circle cx="89000" cy="30500" r="1377" /> 
</g>
<g style="fill:#008484; fill-opacity:0.0; 
stroke:#008484; stroke-width:354; stroke-opacity:1; 
stroke-linecap:round; stroke-linejoin:round;">
</g>
<g style="fill:#008484; fill-opacity:1.0; 
stroke:#008484; stroke-width:0; stroke-opacity:1; 
stroke-linecap:round; stroke-linejoin:round;">
<circle cx="87426" cy="28926" r="334" /> 
</g>
<g style="fill:#008484; fill-opacity:0.0; 
stroke:#008484; stroke-width:354; stroke-opacity:1; 
stroke-linecap:round; stroke-linejoin:round;">
</g>
<g style="fill:#008484; fill-opacity:1.0; 
stroke:#008484; stroke-width:0; stroke-opacity:1; 
stroke-linecap:round; stroke-linejoin:round;">
<circle cx="90574" cy="28926" r="334" /> 
</g>
<g style="fill:#008484; fill-opacity:0.0; 
stroke:#008484; stroke-width:354; stroke-opacity:1; 
stroke-linecap:round; stroke-linejoin:round;">
</g>
<g style="fill:#008484; fill-opacity:1.0; 
stroke:#008484; stroke-width:0; stroke-opacity:1; 
stroke-linecap:round; stroke-linejoin:round;">
<circle cx="90574" cy="32074" r="334" /> 
</g>
<g style="fill:#008484; fill-opacity:0.0; 
stroke:#008484; stroke-width:354; stroke-opacity:1; 
stroke-linecap:round; stroke-linejoin:round;">
</g>
<g style="fill:#008484; fill-opacity:1.0; 
stroke:#008484; stroke-width:0; stroke-opacity:1; 
stroke-linecap:round; stroke-linejoin:round;">
<circle cx="87426" cy="32074" r="334" /> 
</g>
<g style="fill:#008484; fill-opacity:0.0; 
stroke:#008484; stroke-width:354; stroke-opacity:1; 
stroke-linecap:round; stroke-linejoin:round;">
</g>
<g style="fill:#008484; fill-opacity:1.0; 
stroke:#008484; stroke-width:0; stroke-opacity:1; 
stroke-linecap:round; stroke-linejoin:round;">
<circle cx="87426" cy="39274" r="334" /> 
</g>
<g style="fill:#008484; fill-opacity:0.0; 
stroke:#008484; stroke-width:354; stroke-opacity:1; 
stroke-linecap:round; stroke-linejoin:round;">
</g>
<g style="fill:#008484; fill-opacity:1.0; 
stroke:#008484; stroke-width:0; stroke-opacity:1; 
stroke-linecap:round; stroke-linejoin:round;">
<circle cx="90574" cy="39274" r="334" /> 
</g>
<g style="fill:#008484; fill-opacity:0.0; 
stroke:#008484; stroke-width:354; stroke-opacity:1; 
stroke-linecap:round; stroke-linejoin:round;">
</g>
<g style="fill:#008484; fill-opacity:1.0; 
stroke:#008484; stroke-width:0; stroke-opacity:1; 
stroke-linecap:round; stroke-linejoin:round;">
<circle cx="90574" cy="36126" r="334" /> 
</g>
<g style="fill:#008484; fill-opacity:0.0; 
stroke:#008484; stroke-width:354; stroke-opacity:1; 
stroke-linecap:round; stroke-linejoin:round;">
</g>
<g style="fill:#008484; fill-opacity:1.0; 
stroke:#008484; stroke-width:0; stroke-opacity:1; 
stroke-linecap:round; stroke-linejoin:round;">
<circle cx="87426" cy="36126" r="334" /> 
</g>
<g style="fill:#008484; fill-opacity:0.0; 
stroke:#008484; stroke-width:80; stroke-opacity:1; 
stroke-linecap:round; stroke-linejoin:round;">
<circle cx="89000" cy="37700" r="1377" /> 
</g>
<g style="fill:#008484; fill-opacity:0.0; 
stroke:#008484; stroke-width:120; stroke-opacity:1; 
stroke-linecap:round; stroke-linejoin:round;">
<path d="M89000 37950
L88750 37950
" />
<path d="M89250 37950
L89000 37950
" />
<path d="M89000 37950
L89250 37450
" />
<path d="M88750 37450
L89000 37950
" />
<path d="M89250 37450
L88750 37450
" />
</g>
<g style="fill:#008484; fill-opacity:0.0; 
stroke:#008484; stroke-width:80; stroke-opacity:1; 
stroke-linecap:round; stroke-linejoin:round;">
<path d="M90968 39274
L91362 39274
" />
<path d="M90968 38093
L90968 39274
" />
<path d="M91362 38093
L90968 38093
" />
<path d="M90968 36126
L91362 36126
" />
<path d="M90968 37307
L90968 36126
" />
<path d="M91362 37307
L90968 37307
" />
<path d="M91362 39609
L90909 40062
" />
<path d="M87091 40062
L86638 39609
" />
<path d="M86638 35791
L87091 35338
" />
<path d="M90909 35338
L91362 35791
" />
<path d="M86638 38093
L86638 37307
" />
<path d="M86638 39609
L86638 39274
" />
<path d="M90909 40062
L87091 40062
" />
<path d="M91362 39274
L91362 39609
" />
<path d="M91362 37307
L91362 38093
" />
<path d="M91362 35791
L91362 36126
" />
<path d="M87091 35338
L90909 35338
" />
<path d="M86638 36126
L86638 35791
" />
</g>
<g style="fill:#008484; fill-opacity:0.0; 
stroke:#008484; stroke-width:47.2441; stroke-opacity:1; 
stroke-linecap:round; stroke-linejoin:round;">
<path d="M55976.4 21393.7 A393.701 393.701 0.0 0 0 55976.4 20606.3 " />
<path d="M55976 21393
L55976 22043
" />
<path d="M55976 22043
L70023 22043
" />
<path d="M70023 22043
L70023 19956
" />
<path d="M70023 19956
L55976 19956
" />
<path d="M55976 19956
L55976 20606
" />
</g>
<g style="fill:#008484; fill-opacity:0.0; 
stroke:#008484; stroke-width:50; stroke-opacity:1; 
stroke-linecap:round; stroke-linejoin:round;">
<path d="M75099 18830
L75133 18841
L75190 18841
L75213 18830
L75225 18818
L75236 18795
L75236 18773
L75225 18750
L75213 18738
L75190 18727
L75145 18715
L75122 18704
L75110 18693
L75099 18670
L75099 18647
L75110 18624
L75122 18613
L75145 18601
L75202 18601
L75236 18613
" />
<path d="M75316 18681
L75362 18841
L75408 18727
L75453 18841
L75499 18681
" />
<path d="M75590 18841
L75590 18681
" />
<path d="M75590 18601
L75579 18613
L75590 18624
L75602 18613
L75590 18601
L75590 18624
" />
<path d="M75670 18681
L75762 18681
" />
<path d="M75705 18601
L75705 18807
L75716 18830
L75739 18841
L75762 18841
" />
<path d="M75945 18830
L75922 18841
L75876 18841
L75853 18830
L75842 18818
L75830 18795
L75830 18727
L75842 18704
L75853 18693
L75876 18681
L75922 18681
L75945 18693
" />
<path d="M76048 18841
L76048 18601
" />
<path d="M76150 18841
L76150 18715
L76139 18693
L76116 18681
L76082 18681
L76059 18693
L76048 18704
" />
<path d="M76379 18601
L76265 18601
L76253 18715
L76265 18704
L76288 18693
L76345 18693
L76368 18704
L76379 18715
L76390 18738
L76390 18795
L76379 18818
L76368 18830
L76345 18841
L76288 18841
L76265 18830
L76253 18818
" />
</g>
<g style="fill:#008484; fill-opacity:0.0; 
stroke:#008484; stroke-width:60; stroke-opacity:1; 
stroke-linecap:round; stroke-linejoin:round;">
<path d="M72920 20547
L72691 20547
" />
<path d="M72806 20547
L72806 20147
L72768 20204
L72730 20242
L72691 20261
" />
<path d="M76154 20185
L76173 20166
L76212 20147
L76307 20147
L76345 20166
L76364 20185
L76383 20223
L76383 20261
L76364 20318
L76135 20547
L76383 20547
" />
<path d="M72672 22115
L72920 22115
L72787 22267
L72844 22267
L72882 22286
L72901 22305
L72920 22343
L72920 22438
L72901 22476
L72882 22496
L72844 22515
L72730 22515
L72691 22496
L72672 22476
" />
<path d="M76345 22248
L76345 22515
" />
<path d="M76250 22096
L76154 22381
L76402 22381
" />
</g>
<g style="fill:#008484; fill-opacity:0.0; 
stroke:#008484; stroke-width:130; stroke-opacity:1; 
stroke-linecap:round; stroke-linejoin:round;">
<path d="M74232 20464
L74887 20464
" />
<path d="M74560 20791
L74560 20137
" />
<path d="M74212 22354
L74867 22354
" />
</g>
<g style="fill:#008484; fill-opacity:0.0; 
stroke:#008484; stroke-width:50; stroke-opacity:1; 
stroke-linecap:round; stroke-linejoin:round;">
<path d="M75094 43132
L75128 43143
L75185 43143
L75208 43132
L75220 43120
L75231 43097
L75231 43075
L75220 43052
L75208 43040
L75185 43029
L75140 43017
L75117 43006
L75105 42995
L75094 42972
L75094 42949
L75105 42926
L75117 42915
L75140 42903
L75197 42903
L75231 42915
" />
<path d="M75311 42983
L75357 43143
L75402 43029
L75448 43143
L75494 42983
" />
<path d="M75585 43143
L75585 42983
" />
<path d="M75585 42903
L75574 42915
L75585 42926
L75597 42915
L75585 42903
L75585 42926
" />
<path d="M75665 42983
L75757 42983
" />
<path d="M75700 42903
L75700 43109
L75711 43132
L75734 43143
L75757 43143
" />
<path d="M75940 43132
L75917 43143
L75871 43143
L75848 43132
L75837 43120
L75825 43097
L75825 43029
L75837 43006
L75848 42995
L75871 42983
L75917 42983
L75940 42995
" />
<path d="M76042 43143
L76042 42903
" />
<path d="M76145 43143
L76145 43017
L76134 42995
L76111 42983
L76077 42983
L76054 42995
L76042 43006
" />
<path d="M76237 42903
L76385 42903
L76305 42995
L76340 42995
L76362 43006
L76374 43017
L76385 43040
L76385 43097
L76374 43120
L76362 43132
L76340 43143
L76271 43143
L76248 43132
L76237 43120
" />
</g>
<g style="fill:#008484; fill-opacity:0.0; 
stroke:#008484; stroke-width:60; stroke-opacity:1; 
stroke-linecap:round; stroke-linejoin:round;">
<path d="M72915 44848
L72686 44848
" />
<path d="M72801 44848
L72801 44448
L72762 44506
L72724 44544
L72686 44563
" />
<path d="M76149 44487
L76168 44468
L76206 44448
L76302 44448
L76340 44468
L76359 44487
L76378 44525
L76378 44563
L76359 44620
L76130 44848
L76378 44848
" />
<path d="M72667 46416
L72915 46416
L72781 46569
L72839 46569
L72877 46588
L72896 46607
L72915 46645
L72915 46740
L72896 46778
L72877 46797
L72839 46816
L72724 46816
L72686 46797
L72667 46778
" />
<path d="M76340 46550
L76340 46816
" />
<path d="M76244 46397
L76149 46683
L76397 46683
" />
</g>
<g style="fill:#008484; fill-opacity:0.0; 
stroke:#008484; stroke-width:130; stroke-opacity:1; 
stroke-linecap:round; stroke-linejoin:round;">
<path d="M74227 44766
L74882 44766
" />
<path d="M74555 45093
L74555 44439
" />
<path d="M74207 46656
L74862 46656
" />
</g>
<g style="fill:#008484; fill-opacity:0.0; 
stroke:#008484; stroke-width:59.0551; stroke-opacity:1; 
stroke-linecap:round; stroke-linejoin:round;">
<path d="M49181 21831
L49181 21437
L49312 21719
L49443 21437
L49443 21831
" />
<path d="M49593 21437
L49837 21437
L49706 21587
L49762 21587
L49799 21606
L49818 21625
L49837 21662
L49837 21756
L49818 21794
L49799 21812
L49762 21831
L49649 21831
L49612 21812
L49593 21794
" />
<path d="M49181 45524
L49181 45130
L49312 45412
L49443 45130
L49443 45524
" />
<path d="M49593 45130
L49837 45130
L49706 45280
L49762 45280
L49799 45299
L49818 45318
L49837 45355
L49837 45449
L49818 45487
L49799 45505
L49762 45524
L49649 45524
L49612 45505
L49593 45487
" />
<path d="M90181 45524
L90181 45130
L90312 45412
L90443 45130
L90443 45524
" />
<path d="M90593 45130
L90837 45130
L90706 45280
L90762 45280
L90799 45299
L90818 45318
L90837 45355
L90837 45449
L90818 45487
L90799 45505
L90762 45524
L90649 45524
L90612 45505
L90593 45487
" />
<path d="M90181 21831
L90181 21437
L90312 21719
L90443 21437
L90443 21831
" />
<path d="M90593 21437
L90837 21437
L90706 21587
L90762 21587
L90799 21606
L90818 21625
L90837 21662
L90837 21756
L90818 21794
L90799 21812
L90762 21831
L90649 21831
L90612 21812
L90593 21794
" />
<path d="M57381 39824
L57381 39430
L57512 39712
L57643 39430
L57643 39824
" />
<path d="M57793 39430
L58037 39430
L57906 39580
L57962 39580
L57999 39599
L58018 39618
L58037 39655
L58037 39749
L58018 39787
L57999 39805
L57962 39824
L57849 39824
L57812 39805
L57793 39787
" />
<path d="M83981 39824
L83981 39430
L84112 39712
L84243 39430
L84243 39824
" />
<path d="M84393 39430
L84637 39430
L84506 39580
L84562 39580
L84599 39599
L84618 39618
L84637 39655
L84637 39749
L84618 39787
L84599 39805
L84562 39824
L84449 39824
L84412 39805
L84393 39787
" />
<path d="M74701 25800
L74982 25800
L75039 25819
L75076 25856
L75095 25913
L75095 25950
" />
<path d="M75095 25406
L75095 25631
" />
<path d="M75095 25519
L74701 25519
L74757 25556
L74795 25594
L74814 25631
" />
<path d="M51962 43617
L51925 43598
L51887 43560
L51831 43504
L51793 43485
L51756 43485
" />
<path d="M51775 43579
L51737 43560
L51700 43523
L51681 43448
L51681 43317
L51700 43242
L51737 43204
L51775 43185
L51850 43185
L51887 43204
L51925 43242
L51943 43317
L51943 43448
L51925 43523
L51887 43560
L51850 43579
L51775 43579
" />
<path d="M52318 43579
L52093 43579
" />
<path d="M52206 43579
L52206 43185
L52168 43242
L52131 43279
L52093 43298
" />
</g>
<g style="fill:#008484; fill-opacity:0.0; 
stroke:#008484; stroke-width:50; stroke-opacity:1; 
stroke-linecap:round; stroke-linejoin:round;">
<path d="M61104 43127
L61138 43138
L61195 43138
L61218 43127
L61230 43115
L61241 43092
L61241 43070
L61230 43047
L61218 43035
L61195 43024
L61150 43012
L61127 43001
L61115 42990
L61104 42967
L61104 42944
L61115 42921
L61127 42910
L61150 42898
L61207 42898
L61241 42910
" />
<path d="M61321 42978
L61367 43138
L61412 43024
L61458 43138
L61504 42978
" />
<path d="M61595 43138
L61595 42978
" />
<path d="M61595 42898
L61584 42910
L61595 42921
L61607 42910
L61595 42898
L61595 42921
" />
<path d="M61675 42978
L61767 42978
" />
<path d="M61710 42898
L61710 43104
L61721 43127
L61744 43138
L61767 43138
" />
<path d="M61950 43127
L61927 43138
L61881 43138
L61858 43127
L61847 43115
L61835 43092
L61835 43024
L61847 43001
L61858 42990
L61881 42978
L61927 42978
L61950 42990
" />
<path d="M62052 43138
L62052 42898
" />
<path d="M62155 43138
L62155 43012
L62144 42990
L62121 42978
L62087 42978
L62064 42990
L62052 43001
" />
<path d="M62395 43138
L62258 43138
" />
<path d="M62327 43138
L62327 42898
L62304 42932
L62281 42955
L62258 42967
" />
</g>
<g style="fill:#008484; fill-opacity:0.0; 
stroke:#008484; stroke-width:60; stroke-opacity:1; 
stroke-linecap:round; stroke-linejoin:round;">
<path d="M58925 44843
L58696 44843
" />
<path d="M58811 44843
L58811 44443
L58772 44501
L58734 44539
L58696 44558
" />
<path d="M62159 44482
L62178 44463
L62216 44443
L62312 44443
L62350 44463
L62369 44482
L62388 44520
L62388 44558
L62369 44615
L62140 44843
L62388 44843
" />
<path d="M58677 46411
L58925 46411
L58791 46564
L58849 46564
L58887 46583
L58906 46602
L58925 46640
L58925 46735
L58906 46773
L58887 46792
L58849 46811
L58734 46811
L58696 46792
L58677 46773
" />
<path d="M62350 46545
L62350 46811
" />
<path d="M62254 46392
L62159 46678
L62407 46678
" />
</g>
<g style="fill:#008484; fill-opacity:0.0; 
stroke:#008484; stroke-width:130; stroke-opacity:1; 
stroke-linecap:round; stroke-linejoin:round;">
<path d="M60237 44761
L60892 44761
" />
<path d="M60565 45088
L60565 44434
" />
<path d="M60217 46651
L60872 46651
" />
</g>
<g style="fill:#008484; fill-opacity:0.0; 
stroke:#008484; stroke-width:50; stroke-opacity:1; 
stroke-linecap:round; stroke-linejoin:round;">
<path d="M68104 43137
L68138 43148
L68195 43148
L68218 43137
L68230 43125
L68241 43102
L68241 43080
L68230 43057
L68218 43045
L68195 43034
L68150 43022
L68127 43011
L68115 43000
L68104 42977
L68104 42954
L68115 42931
L68127 42920
L68150 42908
L68207 42908
L68241 42920
" />
<path d="M68321 42988
L68367 43148
L68412 43034
L68458 43148
L68504 42988
" />
<path d="M68595 43148
L68595 42988
" />
<path d="M68595 42908
L68584 42920
L68595 42931
L68607 42920
L68595 42908
L68595 42931
" />
<path d="M68675 42988
L68767 42988
" />
<path d="M68710 42908
L68710 43114
L68721 43137
L68744 43148
L68767 43148
" />
<path d="M68950 43137
L68927 43148
L68881 43148
L68858 43137
L68847 43125
L68835 43102
L68835 43034
L68847 43011
L68858 43000
L68881 42988
L68927 42988
L68950 43000
" />
<path d="M69052 43148
L69052 42908
" />
<path d="M69155 43148
L69155 43022
L69144 43000
L69121 42988
L69087 42988
L69064 43000
L69052 43011
" />
<path d="M69258 42931
L69270 42920
L69292 42908
L69350 42908
L69372 42920
L69384 42931
L69395 42954
L69395 42977
L69384 43011
L69247 43148
L69395 43148
" />
</g>
<g style="fill:#008484; fill-opacity:0.0; 
stroke:#008484; stroke-width:130; stroke-opacity:1; 
stroke-linecap:round; stroke-linejoin:round;">
<path d="M67217 46661
L67872 46661
" />
<path d="M67237 44771
L67892 44771
" />
<path d="M67565 45098
L67565 44444
" />
</g>
<g style="fill:#008484; fill-opacity:0.0; 
stroke:#008484; stroke-width:60; stroke-opacity:1; 
stroke-linecap:round; stroke-linejoin:round;">
<path d="M69350 46555
L69350 46821
" />
<path d="M69254 46402
L69159 46688
L69407 46688
" />
<path d="M65677 46421
L65925 46421
L65791 46574
L65849 46574
L65887 46593
L65906 46612
L65925 46650
L65925 46745
L65906 46783
L65887 46802
L65849 46821
L65734 46821
L65696 46802
L65677 46783
" />
<path d="M69159 44492
L69178 44473
L69216 44453
L69312 44453
L69350 44473
L69369 44492
L69388 44530
L69388 44568
L69369 44625
L69140 44853
L69388 44853
" />
<path d="M65925 44853
L65696 44853
" />
<path d="M65811 44853
L65811 44453
L65772 44511
L65734 44549
L65696 44568
" />
</g>
<g style="fill:#008484; fill-opacity:0.0; 
stroke:#008484; stroke-width:50; stroke-opacity:1; 
stroke-linecap:round; stroke-linejoin:round;">
<path d="M82104 43137
L82138 43148
L82195 43148
L82218 43137
L82230 43125
L82241 43102
L82241 43080
L82230 43057
L82218 43045
L82195 43034
L82150 43022
L82127 43011
L82115 43000
L82104 42977
L82104 42954
L82115 42931
L82127 42920
L82150 42908
L82207 42908
L82241 42920
" />
<path d="M82321 42988
L82367 43148
L82412 43034
L82458 43148
L82504 42988
" />
<path d="M82595 43148
L82595 42988
" />
<path d="M82595 42908
L82584 42920
L82595 42931
L82607 42920
L82595 42908
L82595 42931
" />
<path d="M82675 42988
L82767 42988
" />
<path d="M82710 42908
L82710 43114
L82721 43137
L82744 43148
L82767 43148
" />
<path d="M82950 43137
L82927 43148
L82881 43148
L82858 43137
L82847 43125
L82835 43102
L82835 43034
L82847 43011
L82858 43000
L82881 42988
L82927 42988
L82950 43000
" />
<path d="M83052 43148
L83052 42908
" />
<path d="M83155 43148
L83155 43022
L83144 43000
L83121 42988
L83087 42988
L83064 43000
L83052 43011
" />
<path d="M83372 42988
L83372 43148
" />
<path d="M83315 42897
L83258 43068
L83407 43068
" />
</g>
<g style="fill:#008484; fill-opacity:0.0; 
stroke:#008484; stroke-width:130; stroke-opacity:1; 
stroke-linecap:round; stroke-linejoin:round;">
<path d="M81217 46661
L81872 46661
" />
<path d="M81237 44771
L81892 44771
" />
<path d="M81565 45098
L81565 44444
" />
</g>
<g style="fill:#008484; fill-opacity:0.0; 
stroke:#008484; stroke-width:60; stroke-opacity:1; 
stroke-linecap:round; stroke-linejoin:round;">
<path d="M83350 46555
L83350 46821
" />
<path d="M83254 46402
L83159 46688
L83407 46688
" />
<path d="M79677 46421
L79925 46421
L79791 46574
L79849 46574
L79887 46593
L79906 46612
L79925 46650
L79925 46745
L79906 46783
L79887 46802
L79849 46821
L79734 46821
L79696 46802
L79677 46783
" />
<path d="M83159 44492
L83178 44473
L83216 44453
L83312 44453
L83350 44473
L83369 44492
L83388 44530
L83388 44568
L83369 44625
L83140 44853
L83388 44853
" />
<path d="M79925 44853
L79696 44853
" />
<path d="M79811 44853
L79811 44453
L79772 44511
L79734 44549
L79696 44568
" />
</g>
<g style="fill:#008484; fill-opacity:0.0; 
stroke:#008484; stroke-width:50; stroke-opacity:1; 
stroke-linecap:round; stroke-linejoin:round;">
<path d="M82090 18827
L82124 18838
L82181 18838
L82204 18827
L82216 18815
L82227 18792
L82227 18770
L82216 18747
L82204 18735
L82181 18724
L82136 18712
L82113 18701
L82101 18690
L82090 18667
L82090 18644
L82101 18621
L82113 18610
L82136 18598
L82193 18598
L82227 18610
" />
<path d="M82307 18678
L82353 18838
L82399 18724
L82444 18838
L82490 18678
" />
<path d="M82581 18838
L82581 18678
" />
<path d="M82581 18598
L82570 18610
L82581 18621
L82593 18610
L82581 18598
L82581 18621
" />
<path d="M82661 18678
L82753 18678
" />
<path d="M82696 18598
L82696 18804
L82707 18827
L82730 18838
L82753 18838
" />
<path d="M82936 18827
L82913 18838
L82867 18838
L82844 18827
L82833 18815
L82821 18792
L82821 18724
L82833 18701
L82844 18690
L82867 18678
L82913 18678
L82936 18690
" />
<path d="M83039 18838
L83039 18598
" />
<path d="M83141 18838
L83141 18712
L83130 18690
L83107 18678
L83073 18678
L83050 18690
L83039 18701
" />
<path d="M83359 18598
L83313 18598
L83290 18610
L83279 18621
L83256 18655
L83244 18701
L83244 18792
L83256 18815
L83267 18827
L83290 18838
L83336 18838
L83359 18827
L83370 18815
L83381 18792
L83381 18735
L83370 18712
L83359 18701
L83336 18690
L83290 18690
L83267 18701
L83256 18712
L83244 18735
" />
</g>
<g style="fill:#008484; fill-opacity:0.0; 
stroke:#008484; stroke-width:130; stroke-opacity:1; 
stroke-linecap:round; stroke-linejoin:round;">
<path d="M81203 22351
L81858 22351
" />
<path d="M81223 20461
L81878 20461
" />
<path d="M81551 20788
L81551 20134
" />
</g>
<g style="fill:#008484; fill-opacity:0.0; 
stroke:#008484; stroke-width:60; stroke-opacity:1; 
stroke-linecap:round; stroke-linejoin:round;">
<path d="M83336 22245
L83336 22511
" />
<path d="M83241 22092
L83145 22378
L83393 22378
" />
<path d="M79663 22111
L79911 22111
L79778 22264
L79835 22264
L79873 22283
L79892 22302
L79911 22340
L79911 22435
L79892 22473
L79873 22492
L79835 22511
L79721 22511
L79682 22492
L79663 22473
" />
<path d="M83145 20182
L83164 20163
L83203 20143
L83298 20143
L83336 20163
L83355 20182
L83374 20220
L83374 20258
L83355 20315
L83126 20543
L83374 20543
" />
<path d="M79911 20543
L79682 20543
" />
<path d="M79797 20543
L79797 20143
L79759 20201
L79721 20239
L79682 20258
" />
</g>
<g style="fill:#008484; fill-opacity:0.0; 
stroke:#008484; stroke-width:50; stroke-opacity:1; 
stroke-linecap:round; stroke-linejoin:round;">
<path d="M89604 27977
L89638 27988
L89695 27988
L89718 27977
L89730 27965
L89741 27942
L89741 27920
L89730 27897
L89718 27885
L89695 27874
L89650 27862
L89627 27851
L89615 27840
L89604 27817
L89604 27794
L89615 27771
L89627 27760
L89650 27748
L89707 27748
L89741 27760
" />
<path d="M89821 27828
L89867 27988
L89912 27874
L89958 27988
L90004 27828
" />
<path d="M90095 27988
L90095 27828
" />
<path d="M90095 27748
L90084 27760
L90095 27771
L90107 27760
L90095 27748
L90095 27771
" />
<path d="M90175 27828
L90267 27828
" />
<path d="M90210 27748
L90210 27954
L90221 27977
L90244 27988
L90267 27988
" />
<path d="M90450 27977
L90427 27988
L90381 27988
L90358 27977
L90347 27965
L90335 27942
L90335 27874
L90347 27851
L90358 27840
L90381 27828
L90427 27828
L90450 27840
" />
<path d="M90552 27988
L90552 27748
" />
<path d="M90655 27988
L90655 27862
L90644 27840
L90621 27828
L90587 27828
L90564 27840
L90552 27851
" />
<path d="M90747 27748
L90907 27748
L90804 27988
" />
</g>
<g style="fill:#008484; fill-opacity:0.0; 
stroke:#008484; stroke-width:60; stroke-opacity:1; 
stroke-linecap:round; stroke-linejoin:round;">
<path d="M87425 29693
L87196 29693
" />
<path d="M87311 29693
L87311 29293
L87272 29351
L87234 29389
L87196 29408
" />
<path d="M90659 29332
L90678 29313
L90716 29293
L90812 29293
L90850 29313
L90869 29332
L90888 29370
L90888 29408
L90869 29465
L90640 29693
L90888 29693
" />
<path d="M87177 31261
L87425 31261
L87291 31414
L87349 31414
L87387 31433
L87406 31452
L87425 31490
L87425 31585
L87406 31623
L87387 31642
L87349 31661
L87234 31661
L87196 31642
L87177 31623
" />
<path d="M90850 31395
L90850 31661
" />
<path d="M90754 31242
L90659 31528
L90907 31528
" />
</g>
<g style="fill:#008484; fill-opacity:0.0; 
stroke:#008484; stroke-width:130; stroke-opacity:1; 
stroke-linecap:round; stroke-linejoin:round;">
<path d="M88737 29611
L89392 29611
" />
<path d="M89065 29938
L89065 29284
" />
<path d="M88717 31501
L89372 31501
" />
</g>
<g style="fill:#008484; fill-opacity:0.0; 
stroke:#008484; stroke-width:50; stroke-opacity:1; 
stroke-linecap:round; stroke-linejoin:round;">
<path d="M89604 35177
L89638 35188
L89695 35188
L89718 35177
L89730 35165
L89741 35142
L89741 35120
L89730 35097
L89718 35085
L89695 35074
L89650 35062
L89627 35051
L89615 35040
L89604 35017
L89604 34994
L89615 34971
L89627 34960
L89650 34948
L89707 34948
L89741 34960
" />
<path d="M89821 35028
L89867 35188
L89912 35074
L89958 35188
L90004 35028
" />
<path d="M90095 35188
L90095 35028
" />
<path d="M90095 34948
L90084 34960
L90095 34971
L90107 34960
L90095 34948
L90095 34971
" />
<path d="M90175 35028
L90267 35028
" />
<path d="M90210 34948
L90210 35154
L90221 35177
L90244 35188
L90267 35188
" />
<path d="M90450 35177
L90427 35188
L90381 35188
L90358 35177
L90347 35165
L90335 35142
L90335 35074
L90347 35051
L90358 35040
L90381 35028
L90427 35028
L90450 35040
" />
<path d="M90552 35188
L90552 34948
" />
<path d="M90655 35188
L90655 35062
L90644 35040
L90621 35028
L90587 35028
L90564 35040
L90552 35051
" />
<path d="M90804 35051
L90781 35040
L90770 35028
L90758 35005
L90758 34994
L90770 34971
L90781 34960
L90804 34948
L90850 34948
L90872 34960
L90884 34971
L90895 34994
L90895 35005
L90884 35028
L90872 35040
L90850 35051
L90804 35051
L90781 35062
L90770 35074
L90758 35097
L90758 35142
L90770 35165
L90781 35177
L90804 35188
L90850 35188
L90872 35177
L90884 35165
L90895 35142
L90895 35097
L90884 35074
L90872 35062
L90850 35051
" />
</g>
<g style="fill:#008484; fill-opacity:0.0; 
stroke:#008484; stroke-width:130; stroke-opacity:1; 
stroke-linecap:round; stroke-linejoin:round;">
<path d="M88717 38701
L89372 38701
" />
<path d="M88737 36811
L89392 36811
" />
<path d="M89065 37138
L89065 36484
" />
</g>
<g style="fill:#008484; fill-opacity:0.0; 
stroke:#008484; stroke-width:60; stroke-opacity:1; 
stroke-linecap:round; stroke-linejoin:round;">
<path d="M90850 38595
L90850 38861
" />
<path d="M90754 38442
L90659 38728
L90907 38728
" />
<path d="M87177 38461
L87425 38461
L87291 38614
L87349 38614
L87387 38633
L87406 38652
L87425 38690
L87425 38785
L87406 38823
L87387 38842
L87349 38861
L87234 38861
L87196 38842
L87177 38823
" />
<path d="M90659 36532
L90678 36513
L90716 36493
L90812 36493
L90850 36513
L90869 36532
L90888 36570
L90888 36608
L90869 36665
L90640 36893
L90888 36893
" />
<path d="M87425 36893
L87196 36893
" />
<path d="M87311 36893
L87311 36493
L87272 36551
L87234 36589
L87196 36608
" />
</g>
<g style="fill:#008484; fill-opacity:0.0; 
stroke:#008484; stroke-width:59.0551; stroke-opacity:1; 
stroke-linecap:round; stroke-linejoin:round;">
<path d="M55367 21299
L55685 21299
L55723 21281
L55742 21262
L55760 21224
L55760 21149
L55742 21112
L55723 21093
L55685 21074
L55367 21074
" />
<path d="M55760 20681
L55760 20906
" />
<path d="M55760 20793
L55367 20793
L55423 20831
L55460 20868
L55479 20906
" />
<g >
</g>
</g>
<g style="fill:#000000; fill-opacity:0.0; 
stroke:#000000; stroke-width:59.0551; stroke-opacity:1; 
stroke-linecap:round; stroke-linejoin:round;">
</g>
<g style="fill:#000084; fill-opacity:0.0; 
stroke:#000084; stroke-width:59.0551; stroke-opacity:1; 
stroke-linecap:round; stroke-linejoin:round;">
<circle cx="49500" cy="20000" r="1259.84" /> 
<circle cx="49500" cy="47000" r="1259.84" /> 
<circle cx="90500" cy="47000" r="1259.84" /> 
<circle cx="90500" cy="20000" r="1259.84" /> 
<circle cx="57700" cy="41300" r="1259.84" /> 
<circle cx="84300" cy="41300" r="1259.84" /> 
<g >
</g>
<g >
</g>
<g >
</g>
<g >
</g>
<g >
</g>
<g >
</g>
<g >
</g>
<g >
</g>
<g >
</g>
<g >
</g>
<g >
</g>
<g >
</g>
<g >
</g>
<g >
</g>
<g >
</g>
<g >
</g>
<g >
</g>
<g >
</g>
<g >
</g>
</g>
<g style="fill:#000000; fill-opacity:0.0; 
stroke:#000000; stroke-width:59.0551; stroke-opacity:1; 
stroke-linecap:round; stroke-linejoin:round;">
</g>
<g style="fill:#C2C200; fill-opacity:0.0; 
stroke:#C2C200; stroke-width:59.0551; stroke-opacity:1; 
stroke-linecap:round; stroke-linejoin:round;">
</g>
<g style="fill:#C2C200; fill-opacity:0.0; 
stroke:#C2C200; stroke-width:19.685; stroke-opacity:1; 
stroke-linecap:round; stroke-linejoin:round;">
<path d="M92500 18000
L92500 49000
" />
<path d="M47500 18000
L47500 49000
" />
<path d="M92500 18000
L47500 18000
" />
<path d="M92500 49000
L47500 49000
" />
<g >
</g>
<g >
</g>
<g >
</g>
<g >
</g>
<g >
</g>
<g >
</g>
<g >
</g>
<g >
</g>
<g >
</g>
<g >
</g>
<g >
</g>
<g >
</g>
<g >
</g>
<g >
</g>
<g >
</g>
<g >
</g>
<g >
</g>
<g >
</g>
<g >
</g>
</g> 
</svg>
