%FSLAX45Y45*%
G04 Gerber Fmt 4.5, Leading zero omitted, Abs format (unit mm)*
G04 Created by KiCad (PCBNEW (5.1.4-0)) date 2020-05-08 12:12:15*
%MOMM*%
%LPD*%
G04 APERTURE LIST*
%ADD10C,0.050000*%
%ADD11C,0.200000*%
%ADD12C,0.300000*%
G04 APERTURE END LIST*
D10*
X23495000Y-4572000D02*
X23495000Y-12446000D01*
X12065000Y-4572000D02*
X12065000Y-12446000D01*
X23495000Y-4572000D02*
X12065000Y-4572000D01*
X23495000Y-12446000D02*
X12065000Y-12446000D01*
D11*
X15347000Y-9124000D02*
X15387000Y-9164000D01*
X15387000Y-9124000D02*
X15347000Y-9164000D01*
X15474000Y-9505000D02*
X15514000Y-9545000D01*
X15514000Y-9505000D02*
X15474000Y-9545000D01*
X15610265Y-8752265D02*
X15650265Y-8792265D01*
X15650265Y-8752265D02*
X15610265Y-8792265D01*
X15728000Y-9124000D02*
X15768000Y-9164000D01*
X15768000Y-9124000D02*
X15728000Y-9164000D01*
X16109000Y-8489000D02*
X16149000Y-8529000D01*
X16149000Y-8489000D02*
X16109000Y-8529000D01*
X16363000Y-8870000D02*
X16403000Y-8910000D01*
X16403000Y-8870000D02*
X16363000Y-8910000D01*
X16744000Y-5949000D02*
X16784000Y-5989000D01*
X16784000Y-5949000D02*
X16744000Y-5989000D01*
X16744000Y-8108000D02*
X16784000Y-8148000D01*
X16784000Y-8108000D02*
X16744000Y-8148000D01*
X17633000Y-8489000D02*
X17673000Y-8529000D01*
X17673000Y-8489000D02*
X17633000Y-8529000D01*
X18649000Y-5432000D02*
X18689000Y-5472000D01*
X18689000Y-5432000D02*
X18649000Y-5472000D01*
X19157000Y-5377500D02*
X19197000Y-5417500D01*
X19197000Y-5377500D02*
X19157000Y-5417500D01*
X20808000Y-10394000D02*
X20848000Y-10434000D01*
X20848000Y-10394000D02*
X20808000Y-10434000D01*
X13118500Y-10668000D02*
G75*
G03X13118500Y-10668000I-37500J0D01*
G01*
X13245500Y-10668000D02*
G75*
G03X13245500Y-10668000I-37500J0D01*
G01*
X13372500Y-10668000D02*
G75*
G03X13372500Y-10668000I-37500J0D01*
G01*
X17145000Y-10882884D02*
X17145000Y-10962640D01*
X17105122Y-10922762D02*
X17184878Y-10922762D01*
X17145000Y-12232640D02*
X17145000Y-12312396D01*
X17105122Y-12272518D02*
X17184878Y-12272518D01*
X18921790Y-4708942D02*
X18921790Y-4788698D01*
X18881912Y-4748820D02*
X18961668Y-4748820D01*
X18921790Y-6058698D02*
X18921790Y-6138454D01*
X18881912Y-6098576D02*
X18961668Y-6098576D01*
X20697500Y-4708144D02*
X20697500Y-4787900D01*
X20657622Y-4748022D02*
X20737378Y-4748022D01*
X20697500Y-6057900D02*
X20697500Y-6137656D01*
X20657622Y-6097778D02*
X20737378Y-6097778D01*
X18920460Y-10881614D02*
X18920460Y-10961370D01*
X18880582Y-10921492D02*
X18960338Y-10921492D01*
X18920460Y-12231370D02*
X18920460Y-12311126D01*
X18880582Y-12271248D02*
X18960338Y-12271248D01*
X15367000Y-10880344D02*
X15367000Y-10960100D01*
X15327122Y-10920222D02*
X15406878Y-10920222D01*
X22606000Y-8861044D02*
X22606000Y-8940800D01*
X22566122Y-8900922D02*
X22645878Y-8900922D01*
X22606000Y-7032244D02*
X22606000Y-7112000D01*
X22566122Y-7072122D02*
X22645878Y-7072122D01*
X22606000Y-8382000D02*
X22606000Y-8461756D01*
X22566122Y-8421878D02*
X22645878Y-8421878D01*
X22606000Y-10210800D02*
X22606000Y-10290556D01*
X22566122Y-10250678D02*
X22645878Y-10250678D01*
X15367000Y-12230100D02*
X15367000Y-12309856D01*
X15327122Y-12269978D02*
X15406878Y-12269978D01*
X20701000Y-10882884D02*
X20701000Y-10962640D01*
X20661122Y-10922762D02*
X20740878Y-10922762D01*
X20701000Y-12232640D02*
X20701000Y-12312396D01*
X20661122Y-12272518D02*
X20740878Y-12272518D01*
X14379284Y-4981285D02*
X14379284Y-4924716D01*
X14322715Y-4924716D01*
X14322715Y-4981285D01*
X14379284Y-4981285D01*
X14379284Y-5743284D02*
X14379284Y-5686715D01*
X14322715Y-5686715D01*
X14322715Y-5743284D01*
X14379284Y-5743284D01*
X14633284Y-4981285D02*
X14633284Y-4924716D01*
X14576715Y-4924716D01*
X14576715Y-4981285D01*
X14633284Y-4981285D01*
X14633284Y-5743284D02*
X14633284Y-5686715D01*
X14576715Y-5686715D01*
X14576715Y-5743284D01*
X14633284Y-5743284D01*
X14887284Y-4981285D02*
X14887284Y-4924716D01*
X14830715Y-4924716D01*
X14830715Y-4981285D01*
X14887284Y-4981285D01*
X14887284Y-5743284D02*
X14887284Y-5686715D01*
X14830715Y-5686715D01*
X14830715Y-5743284D01*
X14887284Y-5743284D01*
X15141284Y-4981285D02*
X15141284Y-4924716D01*
X15084715Y-4924716D01*
X15084715Y-4981285D01*
X15141284Y-4981285D01*
X15141284Y-5743284D02*
X15141284Y-5686715D01*
X15084715Y-5686715D01*
X15084715Y-5743284D01*
X15141284Y-5743284D01*
X15395284Y-4981285D02*
X15395284Y-4924716D01*
X15338715Y-4924716D01*
X15338715Y-4981285D01*
X15395284Y-4981285D01*
X15395284Y-5743284D02*
X15395284Y-5686715D01*
X15338715Y-5686715D01*
X15338715Y-5743284D01*
X15395284Y-5743284D01*
X15649284Y-4981285D02*
X15649284Y-4924716D01*
X15592715Y-4924716D01*
X15592715Y-4981285D01*
X15649284Y-4981285D01*
X15649284Y-5743284D02*
X15649284Y-5686715D01*
X15592715Y-5686715D01*
X15592715Y-5743284D01*
X15649284Y-5743284D01*
X15903284Y-4981285D02*
X15903284Y-4924716D01*
X15846715Y-4924716D01*
X15846715Y-4981285D01*
X15903284Y-4981285D01*
X15903284Y-5743284D02*
X15903284Y-5686715D01*
X15846715Y-5686715D01*
X15846715Y-5743284D01*
X15903284Y-5743284D01*
X16157284Y-4981285D02*
X16157284Y-4924716D01*
X16100715Y-4924716D01*
X16100715Y-4981285D01*
X16157284Y-4981285D01*
X16157284Y-5743284D02*
X16157284Y-5686715D01*
X16100715Y-5686715D01*
X16100715Y-5743284D01*
X16157284Y-5743284D01*
X16411284Y-4981285D02*
X16411284Y-4924716D01*
X16354715Y-4924716D01*
X16354715Y-4981285D01*
X16411284Y-4981285D01*
X16411284Y-5743284D02*
X16411284Y-5686715D01*
X16354715Y-5686715D01*
X16354715Y-5743284D01*
X16411284Y-5743284D01*
X16665284Y-4981285D02*
X16665284Y-4924716D01*
X16608715Y-4924716D01*
X16608715Y-4981285D01*
X16665284Y-4981285D01*
X16665284Y-5743284D02*
X16665284Y-5686715D01*
X16608715Y-5686715D01*
X16608715Y-5743284D01*
X16665284Y-5743284D01*
X16919285Y-4981285D02*
X16919285Y-4924716D01*
X16862716Y-4924716D01*
X16862716Y-4981285D01*
X16919285Y-4981285D01*
X16919285Y-5743284D02*
X16919285Y-5686715D01*
X16862716Y-5686715D01*
X16862716Y-5743284D01*
X16919285Y-5743284D01*
X17173285Y-4981285D02*
X17173285Y-4924716D01*
X17116716Y-4924716D01*
X17116716Y-4981285D01*
X17173285Y-4981285D01*
X17173285Y-5743284D02*
X17173285Y-5686715D01*
X17116716Y-5686715D01*
X17116716Y-5743284D01*
X17173285Y-5743284D01*
X17427285Y-4981285D02*
X17427285Y-4924716D01*
X17370716Y-4924716D01*
X17370716Y-4981285D01*
X17427285Y-4981285D01*
X17427285Y-5743284D02*
X17427285Y-5686715D01*
X17370716Y-5686715D01*
X17370716Y-5743284D01*
X17427285Y-5743284D01*
X17681285Y-4981285D02*
X17681285Y-4924716D01*
X17624716Y-4924716D01*
X17624716Y-4981285D01*
X17681285Y-4981285D01*
X17681285Y-5743284D02*
X17681285Y-5686715D01*
X17624716Y-5686715D01*
X17624716Y-5743284D01*
X17681285Y-5743284D01*
X17272000Y-6570000D02*
X17322000Y-6520000D01*
X17272000Y-6470000D01*
X17222000Y-6520000D01*
X17272000Y-6570000D01*
X17526000Y-6570000D02*
X17576000Y-6520000D01*
X17526000Y-6470000D01*
X17476000Y-6520000D01*
X17526000Y-6570000D01*
X17780000Y-6570000D02*
X17830000Y-6520000D01*
X17780000Y-6470000D01*
X17730000Y-6520000D01*
X17780000Y-6570000D01*
X18034000Y-6570000D02*
X18084000Y-6520000D01*
X18034000Y-6470000D01*
X17984000Y-6520000D01*
X18034000Y-6570000D01*
X18288000Y-6570000D02*
X18338000Y-6520000D01*
X18288000Y-6470000D01*
X18238000Y-6520000D01*
X18288000Y-6570000D01*
X18542000Y-6570000D02*
X18592000Y-6520000D01*
X18542000Y-6470000D01*
X18492000Y-6520000D01*
X18542000Y-6570000D01*
X18796000Y-6570000D02*
X18846000Y-6520000D01*
X18796000Y-6470000D01*
X18746000Y-6520000D01*
X18796000Y-6570000D01*
X12395200Y-7188200D02*
X12496800Y-7289800D01*
X12496800Y-7188200D02*
X12395200Y-7289800D01*
X12496800Y-7239000D02*
G75*
G03X12496800Y-7239000I-50800J0D01*
G01*
X12395200Y-7442200D02*
X12496800Y-7543800D01*
X12496800Y-7442200D02*
X12395200Y-7543800D01*
X12496800Y-7493000D02*
G75*
G03X12496800Y-7493000I-50800J0D01*
G01*
X12395200Y-7696200D02*
X12496800Y-7797800D01*
X12496800Y-7696200D02*
X12395200Y-7797800D01*
X12496800Y-7747000D02*
G75*
G03X12496800Y-7747000I-50800J0D01*
G01*
X12395200Y-7950200D02*
X12496800Y-8051800D01*
X12496800Y-7950200D02*
X12395200Y-8051800D01*
X12496800Y-8001000D02*
G75*
G03X12496800Y-8001000I-50800J0D01*
G01*
X12395200Y-8204200D02*
X12496800Y-8305800D01*
X12496800Y-8204200D02*
X12395200Y-8305800D01*
X12496800Y-8255000D02*
G75*
G03X12496800Y-8255000I-50800J0D01*
G01*
X12395200Y-8458200D02*
X12496800Y-8559800D01*
X12496800Y-8458200D02*
X12395200Y-8559800D01*
X12496800Y-8509000D02*
G75*
G03X12496800Y-8509000I-50800J0D01*
G01*
X12395200Y-8712200D02*
X12496800Y-8813800D01*
X12496800Y-8712200D02*
X12395200Y-8813800D01*
X12496800Y-8763000D02*
G75*
G03X12496800Y-8763000I-50800J0D01*
G01*
X12395200Y-8966200D02*
X12496800Y-9067800D01*
X12496800Y-8966200D02*
X12395200Y-9067800D01*
X12496800Y-9017000D02*
G75*
G03X12496800Y-9017000I-50800J0D01*
G01*
X12395200Y-9220200D02*
X12496800Y-9321800D01*
X12496800Y-9220200D02*
X12395200Y-9321800D01*
X12496800Y-9271000D02*
G75*
G03X12496800Y-9271000I-50800J0D01*
G01*
X12395200Y-9474200D02*
X12496800Y-9575800D01*
X12496800Y-9474200D02*
X12395200Y-9575800D01*
X12496800Y-9525000D02*
G75*
G03X12496800Y-9525000I-50800J0D01*
G01*
X12395200Y-9728200D02*
X12496800Y-9829800D01*
X12496800Y-9728200D02*
X12395200Y-9829800D01*
X12496800Y-9779000D02*
G75*
G03X12496800Y-9779000I-50800J0D01*
G01*
X12395200Y-9982200D02*
X12496800Y-10083800D01*
X12496800Y-9982200D02*
X12395200Y-10083800D01*
X12496800Y-10033000D02*
G75*
G03X12496800Y-10033000I-50800J0D01*
G01*
X13919200Y-7188200D02*
X14020800Y-7289800D01*
X14020800Y-7188200D02*
X13919200Y-7289800D01*
X14020800Y-7239000D02*
G75*
G03X14020800Y-7239000I-50800J0D01*
G01*
X13919200Y-7442200D02*
X14020800Y-7543800D01*
X14020800Y-7442200D02*
X13919200Y-7543800D01*
X14020800Y-7493000D02*
G75*
G03X14020800Y-7493000I-50800J0D01*
G01*
X13919200Y-7696200D02*
X14020800Y-7797800D01*
X14020800Y-7696200D02*
X13919200Y-7797800D01*
X14020800Y-7747000D02*
G75*
G03X14020800Y-7747000I-50800J0D01*
G01*
X13919200Y-7950200D02*
X14020800Y-8051800D01*
X14020800Y-7950200D02*
X13919200Y-8051800D01*
X14020800Y-8001000D02*
G75*
G03X14020800Y-8001000I-50800J0D01*
G01*
X13919200Y-8204200D02*
X14020800Y-8305800D01*
X14020800Y-8204200D02*
X13919200Y-8305800D01*
X14020800Y-8255000D02*
G75*
G03X14020800Y-8255000I-50800J0D01*
G01*
X13919200Y-8458200D02*
X14020800Y-8559800D01*
X14020800Y-8458200D02*
X13919200Y-8559800D01*
X14020800Y-8509000D02*
G75*
G03X14020800Y-8509000I-50800J0D01*
G01*
X13919200Y-8712200D02*
X14020800Y-8813800D01*
X14020800Y-8712200D02*
X13919200Y-8813800D01*
X14020800Y-8763000D02*
G75*
G03X14020800Y-8763000I-50800J0D01*
G01*
X13919200Y-8966200D02*
X14020800Y-9067800D01*
X14020800Y-8966200D02*
X13919200Y-9067800D01*
X14020800Y-9017000D02*
G75*
G03X14020800Y-9017000I-50800J0D01*
G01*
X13919200Y-9220200D02*
X14020800Y-9321800D01*
X14020800Y-9220200D02*
X13919200Y-9321800D01*
X14020800Y-9271000D02*
G75*
G03X14020800Y-9271000I-50800J0D01*
G01*
X13919200Y-9474200D02*
X14020800Y-9575800D01*
X14020800Y-9474200D02*
X13919200Y-9575800D01*
X14020800Y-9525000D02*
G75*
G03X14020800Y-9525000I-50800J0D01*
G01*
X13919200Y-9728200D02*
X14020800Y-9829800D01*
X14020800Y-9728200D02*
X13919200Y-9829800D01*
X14020800Y-9779000D02*
G75*
G03X14020800Y-9779000I-50800J0D01*
G01*
X13919200Y-9982200D02*
X14020800Y-10083800D01*
X14020800Y-9982200D02*
X13919200Y-10083800D01*
X14020800Y-10033000D02*
G75*
G03X14020800Y-10033000I-50800J0D01*
G01*
X18237006Y-5613690D02*
X18356894Y-5733578D01*
X18356894Y-5613690D02*
X18237006Y-5733578D01*
X18296950Y-5613690D02*
X18296950Y-5733578D01*
X18237006Y-5673634D02*
X18356894Y-5673634D01*
X19486686Y-5613690D02*
X19606574Y-5733578D01*
X19606574Y-5613690D02*
X19486686Y-5733578D01*
X19546630Y-5613690D02*
X19546630Y-5733578D01*
X19486686Y-5673634D02*
X19606574Y-5673634D01*
X16460216Y-11287760D02*
X16580104Y-11407648D01*
X16580104Y-11287760D02*
X16460216Y-11407648D01*
X16520160Y-11287760D02*
X16520160Y-11407648D01*
X16460216Y-11347704D02*
X16580104Y-11347704D01*
X16460216Y-11787632D02*
X16580104Y-11907520D01*
X16580104Y-11787632D02*
X16460216Y-11907520D01*
X16520160Y-11787632D02*
X16520160Y-11907520D01*
X16460216Y-11847576D02*
X16580104Y-11847576D01*
X17709896Y-11287760D02*
X17829784Y-11407648D01*
X17829784Y-11287760D02*
X17709896Y-11407648D01*
X17769840Y-11287760D02*
X17769840Y-11407648D01*
X17709896Y-11347704D02*
X17829784Y-11347704D01*
X17709896Y-11787632D02*
X17829784Y-11907520D01*
X17829784Y-11787632D02*
X17709896Y-11907520D01*
X17769840Y-11787632D02*
X17769840Y-11907520D01*
X17709896Y-11847576D02*
X17829784Y-11847576D01*
X18237006Y-5113818D02*
X18356894Y-5233706D01*
X18356894Y-5113818D02*
X18237006Y-5233706D01*
X18296950Y-5113818D02*
X18296950Y-5233706D01*
X18237006Y-5173762D02*
X18356894Y-5173762D01*
X19486686Y-5113818D02*
X19606574Y-5233706D01*
X19606574Y-5113818D02*
X19486686Y-5233706D01*
X19546630Y-5113818D02*
X19546630Y-5233706D01*
X19486686Y-5173762D02*
X19606574Y-5173762D01*
X21921216Y-7437120D02*
X22041104Y-7557008D01*
X22041104Y-7437120D02*
X21921216Y-7557008D01*
X21981160Y-7437120D02*
X21981160Y-7557008D01*
X21921216Y-7497064D02*
X22041104Y-7497064D01*
X21921216Y-7936992D02*
X22041104Y-8056880D01*
X22041104Y-7936992D02*
X21921216Y-8056880D01*
X21981160Y-7936992D02*
X21981160Y-8056880D01*
X21921216Y-7996936D02*
X22041104Y-7996936D01*
X23170896Y-7437120D02*
X23290784Y-7557008D01*
X23290784Y-7437120D02*
X23170896Y-7557008D01*
X23230840Y-7437120D02*
X23230840Y-7557008D01*
X23170896Y-7497064D02*
X23290784Y-7497064D01*
X23170896Y-7936992D02*
X23290784Y-8056880D01*
X23290784Y-7936992D02*
X23170896Y-8056880D01*
X23230840Y-7936992D02*
X23230840Y-8056880D01*
X23170896Y-7996936D02*
X23290784Y-7996936D01*
X20012716Y-5113020D02*
X20132604Y-5232908D01*
X20132604Y-5113020D02*
X20012716Y-5232908D01*
X20072660Y-5113020D02*
X20072660Y-5232908D01*
X20012716Y-5172964D02*
X20132604Y-5172964D01*
X20012716Y-5612892D02*
X20132604Y-5732780D01*
X20132604Y-5612892D02*
X20012716Y-5732780D01*
X20072660Y-5612892D02*
X20072660Y-5732780D01*
X20012716Y-5672836D02*
X20132604Y-5672836D01*
X21262396Y-5113020D02*
X21382284Y-5232908D01*
X21382284Y-5113020D02*
X21262396Y-5232908D01*
X21322340Y-5113020D02*
X21322340Y-5232908D01*
X21262396Y-5172964D02*
X21382284Y-5172964D01*
X21262396Y-5612892D02*
X21382284Y-5732780D01*
X21382284Y-5612892D02*
X21262396Y-5732780D01*
X21322340Y-5612892D02*
X21322340Y-5732780D01*
X21262396Y-5672836D02*
X21382284Y-5672836D01*
X18235676Y-11286490D02*
X18355564Y-11406378D01*
X18355564Y-11286490D02*
X18235676Y-11406378D01*
X18295620Y-11286490D02*
X18295620Y-11406378D01*
X18235676Y-11346434D02*
X18355564Y-11346434D01*
X18235676Y-11786362D02*
X18355564Y-11906250D01*
X18355564Y-11786362D02*
X18235676Y-11906250D01*
X18295620Y-11786362D02*
X18295620Y-11906250D01*
X18235676Y-11846306D02*
X18355564Y-11846306D01*
X19485356Y-11286490D02*
X19605244Y-11406378D01*
X19605244Y-11286490D02*
X19485356Y-11406378D01*
X19545300Y-11286490D02*
X19545300Y-11406378D01*
X19485356Y-11346434D02*
X19605244Y-11346434D01*
X19485356Y-11786362D02*
X19605244Y-11906250D01*
X19605244Y-11786362D02*
X19485356Y-11906250D01*
X19545300Y-11786362D02*
X19545300Y-11906250D01*
X19485356Y-11846306D02*
X19605244Y-11846306D01*
X21921216Y-9265920D02*
X22041104Y-9385808D01*
X22041104Y-9265920D02*
X21921216Y-9385808D01*
X21981160Y-9265920D02*
X21981160Y-9385808D01*
X21921216Y-9325864D02*
X22041104Y-9325864D01*
X21921216Y-9765792D02*
X22041104Y-9885680D01*
X22041104Y-9765792D02*
X21921216Y-9885680D01*
X21981160Y-9765792D02*
X21981160Y-9885680D01*
X21921216Y-9825736D02*
X22041104Y-9825736D01*
X23170896Y-9265920D02*
X23290784Y-9385808D01*
X23290784Y-9265920D02*
X23170896Y-9385808D01*
X23230840Y-9265920D02*
X23230840Y-9385808D01*
X23170896Y-9325864D02*
X23290784Y-9325864D01*
X23170896Y-9765792D02*
X23290784Y-9885680D01*
X23290784Y-9765792D02*
X23170896Y-9885680D01*
X23230840Y-9765792D02*
X23230840Y-9885680D01*
X23170896Y-9825736D02*
X23290784Y-9825736D01*
X14682216Y-11285220D02*
X14802104Y-11405108D01*
X14802104Y-11285220D02*
X14682216Y-11405108D01*
X14742160Y-11285220D02*
X14742160Y-11405108D01*
X14682216Y-11345164D02*
X14802104Y-11345164D01*
X14682216Y-11785092D02*
X14802104Y-11904980D01*
X14802104Y-11785092D02*
X14682216Y-11904980D01*
X14742160Y-11785092D02*
X14742160Y-11904980D01*
X14682216Y-11845036D02*
X14802104Y-11845036D01*
X15931896Y-11285220D02*
X16051784Y-11405108D01*
X16051784Y-11285220D02*
X15931896Y-11405108D01*
X15991840Y-11285220D02*
X15991840Y-11405108D01*
X15931896Y-11345164D02*
X16051784Y-11345164D01*
X15931896Y-11785092D02*
X16051784Y-11904980D01*
X16051784Y-11785092D02*
X15931896Y-11904980D01*
X15991840Y-11785092D02*
X15991840Y-11904980D01*
X15931896Y-11845036D02*
X16051784Y-11845036D01*
X20016216Y-11287760D02*
X20136104Y-11407648D01*
X20136104Y-11287760D02*
X20016216Y-11407648D01*
X20076160Y-11287760D02*
X20076160Y-11407648D01*
X20016216Y-11347704D02*
X20136104Y-11347704D01*
X20016216Y-11787632D02*
X20136104Y-11907520D01*
X20136104Y-11787632D02*
X20016216Y-11907520D01*
X20076160Y-11787632D02*
X20076160Y-11907520D01*
X20016216Y-11847576D02*
X20136104Y-11847576D01*
X21265896Y-11287760D02*
X21385784Y-11407648D01*
X21385784Y-11287760D02*
X21265896Y-11407648D01*
X21325840Y-11287760D02*
X21325840Y-11407648D01*
X21265896Y-11347704D02*
X21385784Y-11347704D01*
X21265896Y-11787632D02*
X21385784Y-11907520D01*
X21385784Y-11787632D02*
X21265896Y-11907520D01*
X21325840Y-11787632D02*
X21325840Y-11907520D01*
X21265896Y-11847576D02*
X21385784Y-11847576D01*
X18841907Y-4893981D02*
X19001673Y-5053747D01*
X19001673Y-4893981D02*
X18841907Y-5053747D01*
X18978276Y-5030350D02*
X18978276Y-4917378D01*
X18865304Y-4917378D01*
X18865304Y-5030350D01*
X18978276Y-5030350D01*
X18841907Y-5793649D02*
X19001673Y-5953415D01*
X19001673Y-5793649D02*
X18841907Y-5953415D01*
X18978276Y-5930018D02*
X18978276Y-5817046D01*
X18865304Y-5817046D01*
X18865304Y-5930018D01*
X18978276Y-5930018D01*
X17065117Y-11067923D02*
X17224883Y-11227689D01*
X17224883Y-11067923D02*
X17065117Y-11227689D01*
X17201486Y-11204292D02*
X17201486Y-11091320D01*
X17088514Y-11091320D01*
X17088514Y-11204292D01*
X17201486Y-11204292D01*
X17065117Y-11967591D02*
X17224883Y-12127357D01*
X17224883Y-11967591D02*
X17065117Y-12127357D01*
X17201486Y-12103960D02*
X17201486Y-11990988D01*
X17088514Y-11990988D01*
X17088514Y-12103960D01*
X17201486Y-12103960D01*
X20617617Y-4893183D02*
X20777383Y-5052949D01*
X20777383Y-4893183D02*
X20617617Y-5052949D01*
X20753986Y-5029552D02*
X20753986Y-4916580D01*
X20641014Y-4916580D01*
X20641014Y-5029552D01*
X20753986Y-5029552D01*
X20617617Y-5792851D02*
X20777383Y-5952617D01*
X20777383Y-5792851D02*
X20617617Y-5952617D01*
X20753986Y-5929220D02*
X20753986Y-5816248D01*
X20641014Y-5816248D01*
X20641014Y-5929220D01*
X20753986Y-5929220D01*
X18840577Y-11066653D02*
X19000343Y-11226419D01*
X19000343Y-11066653D02*
X18840577Y-11226419D01*
X18976946Y-11203022D02*
X18976946Y-11090050D01*
X18863974Y-11090050D01*
X18863974Y-11203022D01*
X18976946Y-11203022D01*
X18840577Y-11966321D02*
X19000343Y-12126087D01*
X19000343Y-11966321D02*
X18840577Y-12126087D01*
X18976946Y-12102690D02*
X18976946Y-11989718D01*
X18863974Y-11989718D01*
X18863974Y-12102690D01*
X18976946Y-12102690D01*
X15287117Y-11065383D02*
X15446883Y-11225149D01*
X15446883Y-11065383D02*
X15287117Y-11225149D01*
X15423486Y-11201752D02*
X15423486Y-11088780D01*
X15310514Y-11088780D01*
X15310514Y-11201752D01*
X15423486Y-11201752D01*
X15287117Y-11965051D02*
X15446883Y-12124817D01*
X15446883Y-11965051D02*
X15287117Y-12124817D01*
X15423486Y-12101420D02*
X15423486Y-11988448D01*
X15310514Y-11988448D01*
X15310514Y-12101420D01*
X15423486Y-12101420D01*
X22526117Y-9046083D02*
X22685883Y-9205849D01*
X22685883Y-9046083D02*
X22526117Y-9205849D01*
X22662486Y-9182452D02*
X22662486Y-9069480D01*
X22549514Y-9069480D01*
X22549514Y-9182452D01*
X22662486Y-9182452D01*
X22526117Y-9945751D02*
X22685883Y-10105517D01*
X22685883Y-9945751D02*
X22526117Y-10105517D01*
X22662486Y-10082120D02*
X22662486Y-9969148D01*
X22549514Y-9969148D01*
X22549514Y-10082120D01*
X22662486Y-10082120D01*
X20621117Y-11067923D02*
X20780883Y-11227689D01*
X20780883Y-11067923D02*
X20621117Y-11227689D01*
X20757486Y-11204292D02*
X20757486Y-11091320D01*
X20644514Y-11091320D01*
X20644514Y-11204292D01*
X20757486Y-11204292D01*
X20621117Y-11967591D02*
X20780883Y-12127357D01*
X20780883Y-11967591D02*
X20621117Y-12127357D01*
X20757486Y-12103960D02*
X20757486Y-11990988D01*
X20644514Y-11990988D01*
X20644514Y-12103960D01*
X20757486Y-12103960D01*
X22526117Y-7217283D02*
X22685883Y-7377049D01*
X22685883Y-7217283D02*
X22526117Y-7377049D01*
X22662486Y-7353652D02*
X22662486Y-7240680D01*
X22549514Y-7240680D01*
X22549514Y-7353652D01*
X22662486Y-7353652D01*
X22526117Y-8116951D02*
X22685883Y-8276717D01*
X22685883Y-8116951D02*
X22526117Y-8276717D01*
X22662486Y-8253320D02*
X22662486Y-8140348D01*
X22549514Y-8140348D01*
X22549514Y-8253320D01*
X22662486Y-8253320D01*
X22827000Y-4920000D02*
X23147000Y-5240000D01*
X23147000Y-4920000D02*
X22827000Y-5240000D01*
X22987000Y-5240000D02*
X23147000Y-5080000D01*
X22987000Y-4920000D01*
X22827000Y-5080000D01*
X22987000Y-5240000D01*
X14495800Y-10330200D02*
X14815800Y-10650200D01*
X14815800Y-10330200D02*
X14495800Y-10650200D01*
X14655800Y-10650200D02*
X14815800Y-10490200D01*
X14655800Y-10330200D01*
X14495800Y-10490200D01*
X14655800Y-10650200D01*
X12413000Y-11778000D02*
X12733000Y-12098000D01*
X12733000Y-11778000D02*
X12413000Y-12098000D01*
X12573000Y-12098000D02*
X12733000Y-11938000D01*
X12573000Y-11778000D01*
X12413000Y-11938000D01*
X12573000Y-12098000D01*
X21252200Y-10330200D02*
X21572200Y-10650200D01*
X21572200Y-10330200D02*
X21252200Y-10650200D01*
X21412200Y-10650200D02*
X21572200Y-10490200D01*
X21412200Y-10330200D01*
X21252200Y-10490200D01*
X21412200Y-10650200D01*
X12413000Y-4920000D02*
X12733000Y-5240000D01*
X12733000Y-4920000D02*
X12413000Y-5240000D01*
X12573000Y-5240000D02*
X12733000Y-5080000D01*
X12573000Y-4920000D01*
X12413000Y-5080000D01*
X12573000Y-5240000D01*
X22827000Y-11778000D02*
X23147000Y-12098000D01*
X23147000Y-11778000D02*
X22827000Y-12098000D01*
X22987000Y-12098000D02*
X23147000Y-11938000D01*
X22987000Y-11778000D01*
X22827000Y-11938000D01*
X22987000Y-12098000D01*
D12*
X12348928Y-12914214D02*
X12348928Y-12614214D01*
X12420357Y-12614214D01*
X12463214Y-12628500D01*
X12491786Y-12657071D01*
X12506071Y-12685643D01*
X12520357Y-12742786D01*
X12520357Y-12785643D01*
X12506071Y-12842786D01*
X12491786Y-12871357D01*
X12463214Y-12899929D01*
X12420357Y-12914214D01*
X12348928Y-12914214D01*
X12648928Y-12914214D02*
X12648928Y-12714214D01*
X12648928Y-12771357D02*
X12663214Y-12742786D01*
X12677500Y-12728500D01*
X12706071Y-12714214D01*
X12734643Y-12714214D01*
X12834643Y-12914214D02*
X12834643Y-12714214D01*
X12834643Y-12614214D02*
X12820357Y-12628500D01*
X12834643Y-12642786D01*
X12848928Y-12628500D01*
X12834643Y-12614214D01*
X12834643Y-12642786D01*
X13020357Y-12914214D02*
X12991786Y-12899929D01*
X12977500Y-12871357D01*
X12977500Y-12614214D01*
X13177500Y-12914214D02*
X13148928Y-12899929D01*
X13134643Y-12871357D01*
X13134643Y-12614214D01*
X13520357Y-12914214D02*
X13520357Y-12614214D01*
X13620357Y-12828500D01*
X13720357Y-12614214D01*
X13720357Y-12914214D01*
X13991786Y-12914214D02*
X13991786Y-12757071D01*
X13977500Y-12728500D01*
X13948928Y-12714214D01*
X13891786Y-12714214D01*
X13863214Y-12728500D01*
X13991786Y-12899929D02*
X13963214Y-12914214D01*
X13891786Y-12914214D01*
X13863214Y-12899929D01*
X13848928Y-12871357D01*
X13848928Y-12842786D01*
X13863214Y-12814214D01*
X13891786Y-12799929D01*
X13963214Y-12799929D01*
X13991786Y-12785643D01*
X14134643Y-12714214D02*
X14134643Y-13014214D01*
X14134643Y-12728500D02*
X14163214Y-12714214D01*
X14220357Y-12714214D01*
X14248928Y-12728500D01*
X14263214Y-12742786D01*
X14277500Y-12771357D01*
X14277500Y-12857071D01*
X14263214Y-12885643D01*
X14248928Y-12899929D01*
X14220357Y-12914214D01*
X14163214Y-12914214D01*
X14134643Y-12899929D01*
X14406071Y-12885643D02*
X14420357Y-12899929D01*
X14406071Y-12914214D01*
X14391786Y-12899929D01*
X14406071Y-12885643D01*
X14406071Y-12914214D01*
X14406071Y-12728500D02*
X14420357Y-12742786D01*
X14406071Y-12757071D01*
X14391786Y-12742786D01*
X14406071Y-12728500D01*
X14406071Y-12757071D01*
X12022500Y-13388500D02*
X12062500Y-13428500D01*
X12062500Y-13388500D02*
X12022500Y-13428500D01*
X12406071Y-13244214D02*
X12434643Y-13244214D01*
X12463214Y-13258500D01*
X12477500Y-13272786D01*
X12491786Y-13301357D01*
X12506071Y-13358500D01*
X12506071Y-13429929D01*
X12491786Y-13487071D01*
X12477500Y-13515643D01*
X12463214Y-13529929D01*
X12434643Y-13544214D01*
X12406071Y-13544214D01*
X12377500Y-13529929D01*
X12363214Y-13515643D01*
X12348928Y-13487071D01*
X12334643Y-13429929D01*
X12334643Y-13358500D01*
X12348928Y-13301357D01*
X12363214Y-13272786D01*
X12377500Y-13258500D01*
X12406071Y-13244214D01*
X12634643Y-13515643D02*
X12648928Y-13529929D01*
X12634643Y-13544214D01*
X12620357Y-13529929D01*
X12634643Y-13515643D01*
X12634643Y-13544214D01*
X12906071Y-13344214D02*
X12906071Y-13544214D01*
X12834643Y-13229929D02*
X12763214Y-13444214D01*
X12948928Y-13444214D01*
X13120357Y-13244214D02*
X13148928Y-13244214D01*
X13177500Y-13258500D01*
X13191786Y-13272786D01*
X13206071Y-13301357D01*
X13220357Y-13358500D01*
X13220357Y-13429929D01*
X13206071Y-13487071D01*
X13191786Y-13515643D01*
X13177500Y-13529929D01*
X13148928Y-13544214D01*
X13120357Y-13544214D01*
X13091786Y-13529929D01*
X13077500Y-13515643D01*
X13063214Y-13487071D01*
X13048928Y-13429929D01*
X13048928Y-13358500D01*
X13063214Y-13301357D01*
X13077500Y-13272786D01*
X13091786Y-13258500D01*
X13120357Y-13244214D01*
X13348928Y-13544214D02*
X13348928Y-13344214D01*
X13348928Y-13372786D02*
X13363214Y-13358500D01*
X13391786Y-13344214D01*
X13434643Y-13344214D01*
X13463214Y-13358500D01*
X13477500Y-13387071D01*
X13477500Y-13544214D01*
X13477500Y-13387071D02*
X13491786Y-13358500D01*
X13520357Y-13344214D01*
X13563214Y-13344214D01*
X13591786Y-13358500D01*
X13606071Y-13387071D01*
X13606071Y-13544214D01*
X13748928Y-13544214D02*
X13748928Y-13344214D01*
X13748928Y-13372786D02*
X13763214Y-13358500D01*
X13791786Y-13344214D01*
X13834643Y-13344214D01*
X13863214Y-13358500D01*
X13877500Y-13387071D01*
X13877500Y-13544214D01*
X13877500Y-13387071D02*
X13891786Y-13358500D01*
X13920357Y-13344214D01*
X13963214Y-13344214D01*
X13991786Y-13358500D01*
X14006071Y-13387071D01*
X14006071Y-13544214D01*
X14591786Y-13229929D02*
X14334643Y-13615643D01*
X14977500Y-13244214D02*
X15006071Y-13244214D01*
X15034643Y-13258500D01*
X15048928Y-13272786D01*
X15063214Y-13301357D01*
X15077500Y-13358500D01*
X15077500Y-13429929D01*
X15063214Y-13487071D01*
X15048928Y-13515643D01*
X15034643Y-13529929D01*
X15006071Y-13544214D01*
X14977500Y-13544214D01*
X14948928Y-13529929D01*
X14934643Y-13515643D01*
X14920357Y-13487071D01*
X14906071Y-13429929D01*
X14906071Y-13358500D01*
X14920357Y-13301357D01*
X14934643Y-13272786D01*
X14948928Y-13258500D01*
X14977500Y-13244214D01*
X15206071Y-13515643D02*
X15220357Y-13529929D01*
X15206071Y-13544214D01*
X15191786Y-13529929D01*
X15206071Y-13515643D01*
X15206071Y-13544214D01*
X15406071Y-13244214D02*
X15434643Y-13244214D01*
X15463214Y-13258500D01*
X15477500Y-13272786D01*
X15491786Y-13301357D01*
X15506071Y-13358500D01*
X15506071Y-13429929D01*
X15491786Y-13487071D01*
X15477500Y-13515643D01*
X15463214Y-13529929D01*
X15434643Y-13544214D01*
X15406071Y-13544214D01*
X15377500Y-13529929D01*
X15363214Y-13515643D01*
X15348928Y-13487071D01*
X15334643Y-13429929D01*
X15334643Y-13358500D01*
X15348928Y-13301357D01*
X15363214Y-13272786D01*
X15377500Y-13258500D01*
X15406071Y-13244214D01*
X15791786Y-13544214D02*
X15620357Y-13544214D01*
X15706071Y-13544214D02*
X15706071Y-13244214D01*
X15677500Y-13287071D01*
X15648928Y-13315643D01*
X15620357Y-13329929D01*
X16048928Y-13244214D02*
X15991786Y-13244214D01*
X15963214Y-13258500D01*
X15948928Y-13272786D01*
X15920357Y-13315643D01*
X15906071Y-13372786D01*
X15906071Y-13487071D01*
X15920357Y-13515643D01*
X15934643Y-13529929D01*
X15963214Y-13544214D01*
X16020357Y-13544214D01*
X16048928Y-13529929D01*
X16063214Y-13515643D01*
X16077500Y-13487071D01*
X16077500Y-13415643D01*
X16063214Y-13387071D01*
X16048928Y-13372786D01*
X16020357Y-13358500D01*
X15963214Y-13358500D01*
X15934643Y-13372786D01*
X15920357Y-13387071D01*
X15906071Y-13415643D01*
X16191786Y-13244214D02*
X16191786Y-13301357D01*
X16306071Y-13244214D02*
X16306071Y-13301357D01*
X16748928Y-13658500D02*
X16734643Y-13644214D01*
X16706071Y-13601357D01*
X16691786Y-13572786D01*
X16677500Y-13529929D01*
X16663214Y-13458500D01*
X16663214Y-13401357D01*
X16677500Y-13329929D01*
X16691786Y-13287071D01*
X16706071Y-13258500D01*
X16734643Y-13215643D01*
X16748928Y-13201357D01*
X17020357Y-13544214D02*
X16848928Y-13544214D01*
X16934643Y-13544214D02*
X16934643Y-13244214D01*
X16906071Y-13287071D01*
X16877500Y-13315643D01*
X16848928Y-13329929D01*
X17134643Y-13272786D02*
X17148928Y-13258500D01*
X17177500Y-13244214D01*
X17248928Y-13244214D01*
X17277500Y-13258500D01*
X17291786Y-13272786D01*
X17306071Y-13301357D01*
X17306071Y-13329929D01*
X17291786Y-13372786D01*
X17120357Y-13544214D01*
X17306071Y-13544214D01*
X17663214Y-13544214D02*
X17663214Y-13244214D01*
X17791786Y-13544214D02*
X17791786Y-13387071D01*
X17777500Y-13358500D01*
X17748928Y-13344214D01*
X17706071Y-13344214D01*
X17677500Y-13358500D01*
X17663214Y-13372786D01*
X17977500Y-13544214D02*
X17948928Y-13529929D01*
X17934643Y-13515643D01*
X17920357Y-13487071D01*
X17920357Y-13401357D01*
X17934643Y-13372786D01*
X17948928Y-13358500D01*
X17977500Y-13344214D01*
X18020357Y-13344214D01*
X18048928Y-13358500D01*
X18063214Y-13372786D01*
X18077500Y-13401357D01*
X18077500Y-13487071D01*
X18063214Y-13515643D01*
X18048928Y-13529929D01*
X18020357Y-13544214D01*
X17977500Y-13544214D01*
X18248928Y-13544214D02*
X18220357Y-13529929D01*
X18206071Y-13501357D01*
X18206071Y-13244214D01*
X18477500Y-13529929D02*
X18448928Y-13544214D01*
X18391786Y-13544214D01*
X18363214Y-13529929D01*
X18348928Y-13501357D01*
X18348928Y-13387071D01*
X18363214Y-13358500D01*
X18391786Y-13344214D01*
X18448928Y-13344214D01*
X18477500Y-13358500D01*
X18491786Y-13387071D01*
X18491786Y-13415643D01*
X18348928Y-13444214D01*
X18606071Y-13529929D02*
X18634643Y-13544214D01*
X18691786Y-13544214D01*
X18720357Y-13529929D01*
X18734643Y-13501357D01*
X18734643Y-13487071D01*
X18720357Y-13458500D01*
X18691786Y-13444214D01*
X18648928Y-13444214D01*
X18620357Y-13429929D01*
X18606071Y-13401357D01*
X18606071Y-13387071D01*
X18620357Y-13358500D01*
X18648928Y-13344214D01*
X18691786Y-13344214D01*
X18720357Y-13358500D01*
X18834643Y-13658500D02*
X18848928Y-13644214D01*
X18877500Y-13601357D01*
X18891786Y-13572786D01*
X18906071Y-13529929D01*
X18920357Y-13458500D01*
X18920357Y-13401357D01*
X18906071Y-13329929D01*
X18891786Y-13287071D01*
X18877500Y-13258500D01*
X18848928Y-13215643D01*
X18834643Y-13201357D01*
X12062500Y-13804500D02*
G75*
G03X12062500Y-13804500I-37500J0D01*
G01*
X12406071Y-13640214D02*
X12434643Y-13640214D01*
X12463214Y-13654500D01*
X12477500Y-13668786D01*
X12491786Y-13697357D01*
X12506071Y-13754500D01*
X12506071Y-13825929D01*
X12491786Y-13883071D01*
X12477500Y-13911643D01*
X12463214Y-13925929D01*
X12434643Y-13940214D01*
X12406071Y-13940214D01*
X12377500Y-13925929D01*
X12363214Y-13911643D01*
X12348928Y-13883071D01*
X12334643Y-13825929D01*
X12334643Y-13754500D01*
X12348928Y-13697357D01*
X12363214Y-13668786D01*
X12377500Y-13654500D01*
X12406071Y-13640214D01*
X12634643Y-13911643D02*
X12648928Y-13925929D01*
X12634643Y-13940214D01*
X12620357Y-13925929D01*
X12634643Y-13911643D01*
X12634643Y-13940214D01*
X12748928Y-13640214D02*
X12948928Y-13640214D01*
X12820357Y-13940214D01*
X13206071Y-13640214D02*
X13063214Y-13640214D01*
X13048928Y-13783071D01*
X13063214Y-13768786D01*
X13091786Y-13754500D01*
X13163214Y-13754500D01*
X13191786Y-13768786D01*
X13206071Y-13783071D01*
X13220357Y-13811643D01*
X13220357Y-13883071D01*
X13206071Y-13911643D01*
X13191786Y-13925929D01*
X13163214Y-13940214D01*
X13091786Y-13940214D01*
X13063214Y-13925929D01*
X13048928Y-13911643D01*
X13348928Y-13940214D02*
X13348928Y-13740214D01*
X13348928Y-13768786D02*
X13363214Y-13754500D01*
X13391786Y-13740214D01*
X13434643Y-13740214D01*
X13463214Y-13754500D01*
X13477500Y-13783071D01*
X13477500Y-13940214D01*
X13477500Y-13783071D02*
X13491786Y-13754500D01*
X13520357Y-13740214D01*
X13563214Y-13740214D01*
X13591786Y-13754500D01*
X13606071Y-13783071D01*
X13606071Y-13940214D01*
X13748928Y-13940214D02*
X13748928Y-13740214D01*
X13748928Y-13768786D02*
X13763214Y-13754500D01*
X13791786Y-13740214D01*
X13834643Y-13740214D01*
X13863214Y-13754500D01*
X13877500Y-13783071D01*
X13877500Y-13940214D01*
X13877500Y-13783071D02*
X13891786Y-13754500D01*
X13920357Y-13740214D01*
X13963214Y-13740214D01*
X13991786Y-13754500D01*
X14006071Y-13783071D01*
X14006071Y-13940214D01*
X14591786Y-13625929D02*
X14334643Y-14011643D01*
X14977500Y-13640214D02*
X15006071Y-13640214D01*
X15034643Y-13654500D01*
X15048928Y-13668786D01*
X15063214Y-13697357D01*
X15077500Y-13754500D01*
X15077500Y-13825929D01*
X15063214Y-13883071D01*
X15048928Y-13911643D01*
X15034643Y-13925929D01*
X15006071Y-13940214D01*
X14977500Y-13940214D01*
X14948928Y-13925929D01*
X14934643Y-13911643D01*
X14920357Y-13883071D01*
X14906071Y-13825929D01*
X14906071Y-13754500D01*
X14920357Y-13697357D01*
X14934643Y-13668786D01*
X14948928Y-13654500D01*
X14977500Y-13640214D01*
X15206071Y-13911643D02*
X15220357Y-13925929D01*
X15206071Y-13940214D01*
X15191786Y-13925929D01*
X15206071Y-13911643D01*
X15206071Y-13940214D01*
X15406071Y-13640214D02*
X15434643Y-13640214D01*
X15463214Y-13654500D01*
X15477500Y-13668786D01*
X15491786Y-13697357D01*
X15506071Y-13754500D01*
X15506071Y-13825929D01*
X15491786Y-13883071D01*
X15477500Y-13911643D01*
X15463214Y-13925929D01*
X15434643Y-13940214D01*
X15406071Y-13940214D01*
X15377500Y-13925929D01*
X15363214Y-13911643D01*
X15348928Y-13883071D01*
X15334643Y-13825929D01*
X15334643Y-13754500D01*
X15348928Y-13697357D01*
X15363214Y-13668786D01*
X15377500Y-13654500D01*
X15406071Y-13640214D01*
X15606071Y-13640214D02*
X15791786Y-13640214D01*
X15691786Y-13754500D01*
X15734643Y-13754500D01*
X15763214Y-13768786D01*
X15777500Y-13783071D01*
X15791786Y-13811643D01*
X15791786Y-13883071D01*
X15777500Y-13911643D01*
X15763214Y-13925929D01*
X15734643Y-13940214D01*
X15648928Y-13940214D01*
X15620357Y-13925929D01*
X15606071Y-13911643D01*
X15977500Y-13640214D02*
X16006071Y-13640214D01*
X16034643Y-13654500D01*
X16048928Y-13668786D01*
X16063214Y-13697357D01*
X16077500Y-13754500D01*
X16077500Y-13825929D01*
X16063214Y-13883071D01*
X16048928Y-13911643D01*
X16034643Y-13925929D01*
X16006071Y-13940214D01*
X15977500Y-13940214D01*
X15948928Y-13925929D01*
X15934643Y-13911643D01*
X15920357Y-13883071D01*
X15906071Y-13825929D01*
X15906071Y-13754500D01*
X15920357Y-13697357D01*
X15934643Y-13668786D01*
X15948928Y-13654500D01*
X15977500Y-13640214D01*
X16191786Y-13640214D02*
X16191786Y-13697357D01*
X16306071Y-13640214D02*
X16306071Y-13697357D01*
X16748928Y-14054500D02*
X16734643Y-14040214D01*
X16706071Y-13997357D01*
X16691786Y-13968786D01*
X16677500Y-13925929D01*
X16663214Y-13854500D01*
X16663214Y-13797357D01*
X16677500Y-13725929D01*
X16691786Y-13683071D01*
X16706071Y-13654500D01*
X16734643Y-13611643D01*
X16748928Y-13597357D01*
X16834643Y-13640214D02*
X17020357Y-13640214D01*
X16920357Y-13754500D01*
X16963214Y-13754500D01*
X16991786Y-13768786D01*
X17006071Y-13783071D01*
X17020357Y-13811643D01*
X17020357Y-13883071D01*
X17006071Y-13911643D01*
X16991786Y-13925929D01*
X16963214Y-13940214D01*
X16877500Y-13940214D01*
X16848928Y-13925929D01*
X16834643Y-13911643D01*
X17377500Y-13940214D02*
X17377500Y-13640214D01*
X17506071Y-13940214D02*
X17506071Y-13783071D01*
X17491786Y-13754500D01*
X17463214Y-13740214D01*
X17420357Y-13740214D01*
X17391786Y-13754500D01*
X17377500Y-13768786D01*
X17691786Y-13940214D02*
X17663214Y-13925929D01*
X17648928Y-13911643D01*
X17634643Y-13883071D01*
X17634643Y-13797357D01*
X17648928Y-13768786D01*
X17663214Y-13754500D01*
X17691786Y-13740214D01*
X17734643Y-13740214D01*
X17763214Y-13754500D01*
X17777500Y-13768786D01*
X17791786Y-13797357D01*
X17791786Y-13883071D01*
X17777500Y-13911643D01*
X17763214Y-13925929D01*
X17734643Y-13940214D01*
X17691786Y-13940214D01*
X17963214Y-13940214D02*
X17934643Y-13925929D01*
X17920357Y-13897357D01*
X17920357Y-13640214D01*
X18191786Y-13925929D02*
X18163214Y-13940214D01*
X18106071Y-13940214D01*
X18077500Y-13925929D01*
X18063214Y-13897357D01*
X18063214Y-13783071D01*
X18077500Y-13754500D01*
X18106071Y-13740214D01*
X18163214Y-13740214D01*
X18191786Y-13754500D01*
X18206071Y-13783071D01*
X18206071Y-13811643D01*
X18063214Y-13840214D01*
X18320357Y-13925929D02*
X18348928Y-13940214D01*
X18406071Y-13940214D01*
X18434643Y-13925929D01*
X18448928Y-13897357D01*
X18448928Y-13883071D01*
X18434643Y-13854500D01*
X18406071Y-13840214D01*
X18363214Y-13840214D01*
X18334643Y-13825929D01*
X18320357Y-13797357D01*
X18320357Y-13783071D01*
X18334643Y-13754500D01*
X18363214Y-13740214D01*
X18406071Y-13740214D01*
X18434643Y-13754500D01*
X18548928Y-14054500D02*
X18563214Y-14040214D01*
X18591786Y-13997357D01*
X18606071Y-13968786D01*
X18620357Y-13925929D01*
X18634643Y-13854500D01*
X18634643Y-13797357D01*
X18620357Y-13725929D01*
X18606071Y-13683071D01*
X18591786Y-13654500D01*
X18563214Y-13611643D01*
X18548928Y-13597357D01*
X12022622Y-14160622D02*
X12022622Y-14240378D01*
X11982744Y-14200500D02*
X12062500Y-14200500D01*
X12406071Y-14036214D02*
X12434643Y-14036214D01*
X12463214Y-14050500D01*
X12477500Y-14064786D01*
X12491786Y-14093357D01*
X12506071Y-14150500D01*
X12506071Y-14221929D01*
X12491786Y-14279071D01*
X12477500Y-14307643D01*
X12463214Y-14321929D01*
X12434643Y-14336214D01*
X12406071Y-14336214D01*
X12377500Y-14321929D01*
X12363214Y-14307643D01*
X12348928Y-14279071D01*
X12334643Y-14221929D01*
X12334643Y-14150500D01*
X12348928Y-14093357D01*
X12363214Y-14064786D01*
X12377500Y-14050500D01*
X12406071Y-14036214D01*
X12634643Y-14307643D02*
X12648928Y-14321929D01*
X12634643Y-14336214D01*
X12620357Y-14321929D01*
X12634643Y-14307643D01*
X12634643Y-14336214D01*
X12820357Y-14164786D02*
X12791786Y-14150500D01*
X12777500Y-14136214D01*
X12763214Y-14107643D01*
X12763214Y-14093357D01*
X12777500Y-14064786D01*
X12791786Y-14050500D01*
X12820357Y-14036214D01*
X12877500Y-14036214D01*
X12906071Y-14050500D01*
X12920357Y-14064786D01*
X12934643Y-14093357D01*
X12934643Y-14107643D01*
X12920357Y-14136214D01*
X12906071Y-14150500D01*
X12877500Y-14164786D01*
X12820357Y-14164786D01*
X12791786Y-14179071D01*
X12777500Y-14193357D01*
X12763214Y-14221929D01*
X12763214Y-14279071D01*
X12777500Y-14307643D01*
X12791786Y-14321929D01*
X12820357Y-14336214D01*
X12877500Y-14336214D01*
X12906071Y-14321929D01*
X12920357Y-14307643D01*
X12934643Y-14279071D01*
X12934643Y-14221929D01*
X12920357Y-14193357D01*
X12906071Y-14179071D01*
X12877500Y-14164786D01*
X13120357Y-14036214D02*
X13148928Y-14036214D01*
X13177500Y-14050500D01*
X13191786Y-14064786D01*
X13206071Y-14093357D01*
X13220357Y-14150500D01*
X13220357Y-14221929D01*
X13206071Y-14279071D01*
X13191786Y-14307643D01*
X13177500Y-14321929D01*
X13148928Y-14336214D01*
X13120357Y-14336214D01*
X13091786Y-14321929D01*
X13077500Y-14307643D01*
X13063214Y-14279071D01*
X13048928Y-14221929D01*
X13048928Y-14150500D01*
X13063214Y-14093357D01*
X13077500Y-14064786D01*
X13091786Y-14050500D01*
X13120357Y-14036214D01*
X13348928Y-14336214D02*
X13348928Y-14136214D01*
X13348928Y-14164786D02*
X13363214Y-14150500D01*
X13391786Y-14136214D01*
X13434643Y-14136214D01*
X13463214Y-14150500D01*
X13477500Y-14179071D01*
X13477500Y-14336214D01*
X13477500Y-14179071D02*
X13491786Y-14150500D01*
X13520357Y-14136214D01*
X13563214Y-14136214D01*
X13591786Y-14150500D01*
X13606071Y-14179071D01*
X13606071Y-14336214D01*
X13748928Y-14336214D02*
X13748928Y-14136214D01*
X13748928Y-14164786D02*
X13763214Y-14150500D01*
X13791786Y-14136214D01*
X13834643Y-14136214D01*
X13863214Y-14150500D01*
X13877500Y-14179071D01*
X13877500Y-14336214D01*
X13877500Y-14179071D02*
X13891786Y-14150500D01*
X13920357Y-14136214D01*
X13963214Y-14136214D01*
X13991786Y-14150500D01*
X14006071Y-14179071D01*
X14006071Y-14336214D01*
X14591786Y-14021929D02*
X14334643Y-14407643D01*
X14977500Y-14036214D02*
X15006071Y-14036214D01*
X15034643Y-14050500D01*
X15048928Y-14064786D01*
X15063214Y-14093357D01*
X15077500Y-14150500D01*
X15077500Y-14221929D01*
X15063214Y-14279071D01*
X15048928Y-14307643D01*
X15034643Y-14321929D01*
X15006071Y-14336214D01*
X14977500Y-14336214D01*
X14948928Y-14321929D01*
X14934643Y-14307643D01*
X14920357Y-14279071D01*
X14906071Y-14221929D01*
X14906071Y-14150500D01*
X14920357Y-14093357D01*
X14934643Y-14064786D01*
X14948928Y-14050500D01*
X14977500Y-14036214D01*
X15206071Y-14307643D02*
X15220357Y-14321929D01*
X15206071Y-14336214D01*
X15191786Y-14321929D01*
X15206071Y-14307643D01*
X15206071Y-14336214D01*
X15406071Y-14036214D02*
X15434643Y-14036214D01*
X15463214Y-14050500D01*
X15477500Y-14064786D01*
X15491786Y-14093357D01*
X15506071Y-14150500D01*
X15506071Y-14221929D01*
X15491786Y-14279071D01*
X15477500Y-14307643D01*
X15463214Y-14321929D01*
X15434643Y-14336214D01*
X15406071Y-14336214D01*
X15377500Y-14321929D01*
X15363214Y-14307643D01*
X15348928Y-14279071D01*
X15334643Y-14221929D01*
X15334643Y-14150500D01*
X15348928Y-14093357D01*
X15363214Y-14064786D01*
X15377500Y-14050500D01*
X15406071Y-14036214D01*
X15606071Y-14036214D02*
X15791786Y-14036214D01*
X15691786Y-14150500D01*
X15734643Y-14150500D01*
X15763214Y-14164786D01*
X15777500Y-14179071D01*
X15791786Y-14207643D01*
X15791786Y-14279071D01*
X15777500Y-14307643D01*
X15763214Y-14321929D01*
X15734643Y-14336214D01*
X15648928Y-14336214D01*
X15620357Y-14321929D01*
X15606071Y-14307643D01*
X16077500Y-14336214D02*
X15906071Y-14336214D01*
X15991786Y-14336214D02*
X15991786Y-14036214D01*
X15963214Y-14079071D01*
X15934643Y-14107643D01*
X15906071Y-14121929D01*
X16191786Y-14036214D02*
X16191786Y-14093357D01*
X16306071Y-14036214D02*
X16306071Y-14093357D01*
X16748928Y-14450500D02*
X16734643Y-14436214D01*
X16706071Y-14393357D01*
X16691786Y-14364786D01*
X16677500Y-14321929D01*
X16663214Y-14250500D01*
X16663214Y-14193357D01*
X16677500Y-14121929D01*
X16691786Y-14079071D01*
X16706071Y-14050500D01*
X16734643Y-14007643D01*
X16748928Y-13993357D01*
X17020357Y-14336214D02*
X16848928Y-14336214D01*
X16934643Y-14336214D02*
X16934643Y-14036214D01*
X16906071Y-14079071D01*
X16877500Y-14107643D01*
X16848928Y-14121929D01*
X17277500Y-14036214D02*
X17220357Y-14036214D01*
X17191786Y-14050500D01*
X17177500Y-14064786D01*
X17148928Y-14107643D01*
X17134643Y-14164786D01*
X17134643Y-14279071D01*
X17148928Y-14307643D01*
X17163214Y-14321929D01*
X17191786Y-14336214D01*
X17248928Y-14336214D01*
X17277500Y-14321929D01*
X17291786Y-14307643D01*
X17306071Y-14279071D01*
X17306071Y-14207643D01*
X17291786Y-14179071D01*
X17277500Y-14164786D01*
X17248928Y-14150500D01*
X17191786Y-14150500D01*
X17163214Y-14164786D01*
X17148928Y-14179071D01*
X17134643Y-14207643D01*
X17663214Y-14336214D02*
X17663214Y-14036214D01*
X17791786Y-14336214D02*
X17791786Y-14179071D01*
X17777500Y-14150500D01*
X17748928Y-14136214D01*
X17706071Y-14136214D01*
X17677500Y-14150500D01*
X17663214Y-14164786D01*
X17977500Y-14336214D02*
X17948928Y-14321929D01*
X17934643Y-14307643D01*
X17920357Y-14279071D01*
X17920357Y-14193357D01*
X17934643Y-14164786D01*
X17948928Y-14150500D01*
X17977500Y-14136214D01*
X18020357Y-14136214D01*
X18048928Y-14150500D01*
X18063214Y-14164786D01*
X18077500Y-14193357D01*
X18077500Y-14279071D01*
X18063214Y-14307643D01*
X18048928Y-14321929D01*
X18020357Y-14336214D01*
X17977500Y-14336214D01*
X18248928Y-14336214D02*
X18220357Y-14321929D01*
X18206071Y-14293357D01*
X18206071Y-14036214D01*
X18477500Y-14321929D02*
X18448928Y-14336214D01*
X18391786Y-14336214D01*
X18363214Y-14321929D01*
X18348928Y-14293357D01*
X18348928Y-14179071D01*
X18363214Y-14150500D01*
X18391786Y-14136214D01*
X18448928Y-14136214D01*
X18477500Y-14150500D01*
X18491786Y-14179071D01*
X18491786Y-14207643D01*
X18348928Y-14236214D01*
X18606071Y-14321929D02*
X18634643Y-14336214D01*
X18691786Y-14336214D01*
X18720357Y-14321929D01*
X18734643Y-14293357D01*
X18734643Y-14279071D01*
X18720357Y-14250500D01*
X18691786Y-14236214D01*
X18648928Y-14236214D01*
X18620357Y-14221929D01*
X18606071Y-14193357D01*
X18606071Y-14179071D01*
X18620357Y-14150500D01*
X18648928Y-14136214D01*
X18691786Y-14136214D01*
X18720357Y-14150500D01*
X18834643Y-14450500D02*
X18848928Y-14436214D01*
X18877500Y-14393357D01*
X18891786Y-14364786D01*
X18906071Y-14321929D01*
X18920357Y-14250500D01*
X18920357Y-14193357D01*
X18906071Y-14121929D01*
X18891786Y-14079071D01*
X18877500Y-14050500D01*
X18848928Y-14007643D01*
X18834643Y-13993357D01*
X12050784Y-14624785D02*
X12050784Y-14568216D01*
X11994215Y-14568216D01*
X11994215Y-14624785D01*
X12050784Y-14624785D01*
X12406071Y-14432214D02*
X12434643Y-14432214D01*
X12463214Y-14446500D01*
X12477500Y-14460786D01*
X12491786Y-14489357D01*
X12506071Y-14546500D01*
X12506071Y-14617929D01*
X12491786Y-14675071D01*
X12477500Y-14703643D01*
X12463214Y-14717929D01*
X12434643Y-14732214D01*
X12406071Y-14732214D01*
X12377500Y-14717929D01*
X12363214Y-14703643D01*
X12348928Y-14675071D01*
X12334643Y-14617929D01*
X12334643Y-14546500D01*
X12348928Y-14489357D01*
X12363214Y-14460786D01*
X12377500Y-14446500D01*
X12406071Y-14432214D01*
X12634643Y-14703643D02*
X12648928Y-14717929D01*
X12634643Y-14732214D01*
X12620357Y-14717929D01*
X12634643Y-14703643D01*
X12634643Y-14732214D01*
X12820357Y-14560786D02*
X12791786Y-14546500D01*
X12777500Y-14532214D01*
X12763214Y-14503643D01*
X12763214Y-14489357D01*
X12777500Y-14460786D01*
X12791786Y-14446500D01*
X12820357Y-14432214D01*
X12877500Y-14432214D01*
X12906071Y-14446500D01*
X12920357Y-14460786D01*
X12934643Y-14489357D01*
X12934643Y-14503643D01*
X12920357Y-14532214D01*
X12906071Y-14546500D01*
X12877500Y-14560786D01*
X12820357Y-14560786D01*
X12791786Y-14575071D01*
X12777500Y-14589357D01*
X12763214Y-14617929D01*
X12763214Y-14675071D01*
X12777500Y-14703643D01*
X12791786Y-14717929D01*
X12820357Y-14732214D01*
X12877500Y-14732214D01*
X12906071Y-14717929D01*
X12920357Y-14703643D01*
X12934643Y-14675071D01*
X12934643Y-14617929D01*
X12920357Y-14589357D01*
X12906071Y-14575071D01*
X12877500Y-14560786D01*
X13120357Y-14432214D02*
X13148928Y-14432214D01*
X13177500Y-14446500D01*
X13191786Y-14460786D01*
X13206071Y-14489357D01*
X13220357Y-14546500D01*
X13220357Y-14617929D01*
X13206071Y-14675071D01*
X13191786Y-14703643D01*
X13177500Y-14717929D01*
X13148928Y-14732214D01*
X13120357Y-14732214D01*
X13091786Y-14717929D01*
X13077500Y-14703643D01*
X13063214Y-14675071D01*
X13048928Y-14617929D01*
X13048928Y-14546500D01*
X13063214Y-14489357D01*
X13077500Y-14460786D01*
X13091786Y-14446500D01*
X13120357Y-14432214D01*
X13348928Y-14732214D02*
X13348928Y-14532214D01*
X13348928Y-14560786D02*
X13363214Y-14546500D01*
X13391786Y-14532214D01*
X13434643Y-14532214D01*
X13463214Y-14546500D01*
X13477500Y-14575071D01*
X13477500Y-14732214D01*
X13477500Y-14575071D02*
X13491786Y-14546500D01*
X13520357Y-14532214D01*
X13563214Y-14532214D01*
X13591786Y-14546500D01*
X13606071Y-14575071D01*
X13606071Y-14732214D01*
X13748928Y-14732214D02*
X13748928Y-14532214D01*
X13748928Y-14560786D02*
X13763214Y-14546500D01*
X13791786Y-14532214D01*
X13834643Y-14532214D01*
X13863214Y-14546500D01*
X13877500Y-14575071D01*
X13877500Y-14732214D01*
X13877500Y-14575071D02*
X13891786Y-14546500D01*
X13920357Y-14532214D01*
X13963214Y-14532214D01*
X13991786Y-14546500D01*
X14006071Y-14575071D01*
X14006071Y-14732214D01*
X14591786Y-14417929D02*
X14334643Y-14803643D01*
X14977500Y-14432214D02*
X15006071Y-14432214D01*
X15034643Y-14446500D01*
X15048928Y-14460786D01*
X15063214Y-14489357D01*
X15077500Y-14546500D01*
X15077500Y-14617929D01*
X15063214Y-14675071D01*
X15048928Y-14703643D01*
X15034643Y-14717929D01*
X15006071Y-14732214D01*
X14977500Y-14732214D01*
X14948928Y-14717929D01*
X14934643Y-14703643D01*
X14920357Y-14675071D01*
X14906071Y-14617929D01*
X14906071Y-14546500D01*
X14920357Y-14489357D01*
X14934643Y-14460786D01*
X14948928Y-14446500D01*
X14977500Y-14432214D01*
X15206071Y-14703643D02*
X15220357Y-14717929D01*
X15206071Y-14732214D01*
X15191786Y-14717929D01*
X15206071Y-14703643D01*
X15206071Y-14732214D01*
X15406071Y-14432214D02*
X15434643Y-14432214D01*
X15463214Y-14446500D01*
X15477500Y-14460786D01*
X15491786Y-14489357D01*
X15506071Y-14546500D01*
X15506071Y-14617929D01*
X15491786Y-14675071D01*
X15477500Y-14703643D01*
X15463214Y-14717929D01*
X15434643Y-14732214D01*
X15406071Y-14732214D01*
X15377500Y-14717929D01*
X15363214Y-14703643D01*
X15348928Y-14675071D01*
X15334643Y-14617929D01*
X15334643Y-14546500D01*
X15348928Y-14489357D01*
X15363214Y-14460786D01*
X15377500Y-14446500D01*
X15406071Y-14432214D01*
X15606071Y-14432214D02*
X15791786Y-14432214D01*
X15691786Y-14546500D01*
X15734643Y-14546500D01*
X15763214Y-14560786D01*
X15777500Y-14575071D01*
X15791786Y-14603643D01*
X15791786Y-14675071D01*
X15777500Y-14703643D01*
X15763214Y-14717929D01*
X15734643Y-14732214D01*
X15648928Y-14732214D01*
X15620357Y-14717929D01*
X15606071Y-14703643D01*
X16077500Y-14732214D02*
X15906071Y-14732214D01*
X15991786Y-14732214D02*
X15991786Y-14432214D01*
X15963214Y-14475071D01*
X15934643Y-14503643D01*
X15906071Y-14517929D01*
X16191786Y-14432214D02*
X16191786Y-14489357D01*
X16306071Y-14432214D02*
X16306071Y-14489357D01*
X16748928Y-14846500D02*
X16734643Y-14832214D01*
X16706071Y-14789357D01*
X16691786Y-14760786D01*
X16677500Y-14717929D01*
X16663214Y-14646500D01*
X16663214Y-14589357D01*
X16677500Y-14517929D01*
X16691786Y-14475071D01*
X16706071Y-14446500D01*
X16734643Y-14403643D01*
X16748928Y-14389357D01*
X16848928Y-14460786D02*
X16863214Y-14446500D01*
X16891786Y-14432214D01*
X16963214Y-14432214D01*
X16991786Y-14446500D01*
X17006071Y-14460786D01*
X17020357Y-14489357D01*
X17020357Y-14517929D01*
X17006071Y-14560786D01*
X16834643Y-14732214D01*
X17020357Y-14732214D01*
X17191786Y-14560786D02*
X17163214Y-14546500D01*
X17148928Y-14532214D01*
X17134643Y-14503643D01*
X17134643Y-14489357D01*
X17148928Y-14460786D01*
X17163214Y-14446500D01*
X17191786Y-14432214D01*
X17248928Y-14432214D01*
X17277500Y-14446500D01*
X17291786Y-14460786D01*
X17306071Y-14489357D01*
X17306071Y-14503643D01*
X17291786Y-14532214D01*
X17277500Y-14546500D01*
X17248928Y-14560786D01*
X17191786Y-14560786D01*
X17163214Y-14575071D01*
X17148928Y-14589357D01*
X17134643Y-14617929D01*
X17134643Y-14675071D01*
X17148928Y-14703643D01*
X17163214Y-14717929D01*
X17191786Y-14732214D01*
X17248928Y-14732214D01*
X17277500Y-14717929D01*
X17291786Y-14703643D01*
X17306071Y-14675071D01*
X17306071Y-14617929D01*
X17291786Y-14589357D01*
X17277500Y-14575071D01*
X17248928Y-14560786D01*
X17663214Y-14732214D02*
X17663214Y-14432214D01*
X17791786Y-14732214D02*
X17791786Y-14575071D01*
X17777500Y-14546500D01*
X17748928Y-14532214D01*
X17706071Y-14532214D01*
X17677500Y-14546500D01*
X17663214Y-14560786D01*
X17977500Y-14732214D02*
X17948928Y-14717929D01*
X17934643Y-14703643D01*
X17920357Y-14675071D01*
X17920357Y-14589357D01*
X17934643Y-14560786D01*
X17948928Y-14546500D01*
X17977500Y-14532214D01*
X18020357Y-14532214D01*
X18048928Y-14546500D01*
X18063214Y-14560786D01*
X18077500Y-14589357D01*
X18077500Y-14675071D01*
X18063214Y-14703643D01*
X18048928Y-14717929D01*
X18020357Y-14732214D01*
X17977500Y-14732214D01*
X18248928Y-14732214D02*
X18220357Y-14717929D01*
X18206071Y-14689357D01*
X18206071Y-14432214D01*
X18477500Y-14717929D02*
X18448928Y-14732214D01*
X18391786Y-14732214D01*
X18363214Y-14717929D01*
X18348928Y-14689357D01*
X18348928Y-14575071D01*
X18363214Y-14546500D01*
X18391786Y-14532214D01*
X18448928Y-14532214D01*
X18477500Y-14546500D01*
X18491786Y-14575071D01*
X18491786Y-14603643D01*
X18348928Y-14632214D01*
X18606071Y-14717929D02*
X18634643Y-14732214D01*
X18691786Y-14732214D01*
X18720357Y-14717929D01*
X18734643Y-14689357D01*
X18734643Y-14675071D01*
X18720357Y-14646500D01*
X18691786Y-14632214D01*
X18648928Y-14632214D01*
X18620357Y-14617929D01*
X18606071Y-14589357D01*
X18606071Y-14575071D01*
X18620357Y-14546500D01*
X18648928Y-14532214D01*
X18691786Y-14532214D01*
X18720357Y-14546500D01*
X18834643Y-14846500D02*
X18848928Y-14832214D01*
X18877500Y-14789357D01*
X18891786Y-14760786D01*
X18906071Y-14717929D01*
X18920357Y-14646500D01*
X18920357Y-14589357D01*
X18906071Y-14517929D01*
X18891786Y-14475071D01*
X18877500Y-14446500D01*
X18848928Y-14403643D01*
X18834643Y-14389357D01*
X12012500Y-15042500D02*
X12062500Y-14992500D01*
X12012500Y-14942500D01*
X11962500Y-14992500D01*
X12012500Y-15042500D01*
X12506071Y-15128214D02*
X12334643Y-15128214D01*
X12420357Y-15128214D02*
X12420357Y-14828214D01*
X12391786Y-14871071D01*
X12363214Y-14899643D01*
X12334643Y-14913929D01*
X12634643Y-15099643D02*
X12648928Y-15113929D01*
X12634643Y-15128214D01*
X12620357Y-15113929D01*
X12634643Y-15099643D01*
X12634643Y-15128214D01*
X12834643Y-14828214D02*
X12863214Y-14828214D01*
X12891786Y-14842500D01*
X12906071Y-14856786D01*
X12920357Y-14885357D01*
X12934643Y-14942500D01*
X12934643Y-15013929D01*
X12920357Y-15071071D01*
X12906071Y-15099643D01*
X12891786Y-15113929D01*
X12863214Y-15128214D01*
X12834643Y-15128214D01*
X12806071Y-15113929D01*
X12791786Y-15099643D01*
X12777500Y-15071071D01*
X12763214Y-15013929D01*
X12763214Y-14942500D01*
X12777500Y-14885357D01*
X12791786Y-14856786D01*
X12806071Y-14842500D01*
X12834643Y-14828214D01*
X13120357Y-14828214D02*
X13148928Y-14828214D01*
X13177500Y-14842500D01*
X13191786Y-14856786D01*
X13206071Y-14885357D01*
X13220357Y-14942500D01*
X13220357Y-15013929D01*
X13206071Y-15071071D01*
X13191786Y-15099643D01*
X13177500Y-15113929D01*
X13148928Y-15128214D01*
X13120357Y-15128214D01*
X13091786Y-15113929D01*
X13077500Y-15099643D01*
X13063214Y-15071071D01*
X13048928Y-15013929D01*
X13048928Y-14942500D01*
X13063214Y-14885357D01*
X13077500Y-14856786D01*
X13091786Y-14842500D01*
X13120357Y-14828214D01*
X13348928Y-15128214D02*
X13348928Y-14928214D01*
X13348928Y-14956786D02*
X13363214Y-14942500D01*
X13391786Y-14928214D01*
X13434643Y-14928214D01*
X13463214Y-14942500D01*
X13477500Y-14971071D01*
X13477500Y-15128214D01*
X13477500Y-14971071D02*
X13491786Y-14942500D01*
X13520357Y-14928214D01*
X13563214Y-14928214D01*
X13591786Y-14942500D01*
X13606071Y-14971071D01*
X13606071Y-15128214D01*
X13748928Y-15128214D02*
X13748928Y-14928214D01*
X13748928Y-14956786D02*
X13763214Y-14942500D01*
X13791786Y-14928214D01*
X13834643Y-14928214D01*
X13863214Y-14942500D01*
X13877500Y-14971071D01*
X13877500Y-15128214D01*
X13877500Y-14971071D02*
X13891786Y-14942500D01*
X13920357Y-14928214D01*
X13963214Y-14928214D01*
X13991786Y-14942500D01*
X14006071Y-14971071D01*
X14006071Y-15128214D01*
X14591786Y-14813929D02*
X14334643Y-15199643D01*
X14977500Y-14828214D02*
X15006071Y-14828214D01*
X15034643Y-14842500D01*
X15048928Y-14856786D01*
X15063214Y-14885357D01*
X15077500Y-14942500D01*
X15077500Y-15013929D01*
X15063214Y-15071071D01*
X15048928Y-15099643D01*
X15034643Y-15113929D01*
X15006071Y-15128214D01*
X14977500Y-15128214D01*
X14948928Y-15113929D01*
X14934643Y-15099643D01*
X14920357Y-15071071D01*
X14906071Y-15013929D01*
X14906071Y-14942500D01*
X14920357Y-14885357D01*
X14934643Y-14856786D01*
X14948928Y-14842500D01*
X14977500Y-14828214D01*
X15206071Y-15099643D02*
X15220357Y-15113929D01*
X15206071Y-15128214D01*
X15191786Y-15113929D01*
X15206071Y-15099643D01*
X15206071Y-15128214D01*
X15406071Y-14828214D02*
X15434643Y-14828214D01*
X15463214Y-14842500D01*
X15477500Y-14856786D01*
X15491786Y-14885357D01*
X15506071Y-14942500D01*
X15506071Y-15013929D01*
X15491786Y-15071071D01*
X15477500Y-15099643D01*
X15463214Y-15113929D01*
X15434643Y-15128214D01*
X15406071Y-15128214D01*
X15377500Y-15113929D01*
X15363214Y-15099643D01*
X15348928Y-15071071D01*
X15334643Y-15013929D01*
X15334643Y-14942500D01*
X15348928Y-14885357D01*
X15363214Y-14856786D01*
X15377500Y-14842500D01*
X15406071Y-14828214D01*
X15606071Y-14828214D02*
X15791786Y-14828214D01*
X15691786Y-14942500D01*
X15734643Y-14942500D01*
X15763214Y-14956786D01*
X15777500Y-14971071D01*
X15791786Y-14999643D01*
X15791786Y-15071071D01*
X15777500Y-15099643D01*
X15763214Y-15113929D01*
X15734643Y-15128214D01*
X15648928Y-15128214D01*
X15620357Y-15113929D01*
X15606071Y-15099643D01*
X15934643Y-15128214D02*
X15991786Y-15128214D01*
X16020357Y-15113929D01*
X16034643Y-15099643D01*
X16063214Y-15056786D01*
X16077500Y-14999643D01*
X16077500Y-14885357D01*
X16063214Y-14856786D01*
X16048928Y-14842500D01*
X16020357Y-14828214D01*
X15963214Y-14828214D01*
X15934643Y-14842500D01*
X15920357Y-14856786D01*
X15906071Y-14885357D01*
X15906071Y-14956786D01*
X15920357Y-14985357D01*
X15934643Y-14999643D01*
X15963214Y-15013929D01*
X16020357Y-15013929D01*
X16048928Y-14999643D01*
X16063214Y-14985357D01*
X16077500Y-14956786D01*
X16191786Y-14828214D02*
X16191786Y-14885357D01*
X16306071Y-14828214D02*
X16306071Y-14885357D01*
X16748928Y-15242500D02*
X16734643Y-15228214D01*
X16706071Y-15185357D01*
X16691786Y-15156786D01*
X16677500Y-15113929D01*
X16663214Y-15042500D01*
X16663214Y-14985357D01*
X16677500Y-14913929D01*
X16691786Y-14871071D01*
X16706071Y-14842500D01*
X16734643Y-14799643D01*
X16748928Y-14785357D01*
X16834643Y-14828214D02*
X17034643Y-14828214D01*
X16906071Y-15128214D01*
X17377500Y-15128214D02*
X17377500Y-14828214D01*
X17506071Y-15128214D02*
X17506071Y-14971071D01*
X17491786Y-14942500D01*
X17463214Y-14928214D01*
X17420357Y-14928214D01*
X17391786Y-14942500D01*
X17377500Y-14956786D01*
X17691786Y-15128214D02*
X17663214Y-15113929D01*
X17648928Y-15099643D01*
X17634643Y-15071071D01*
X17634643Y-14985357D01*
X17648928Y-14956786D01*
X17663214Y-14942500D01*
X17691786Y-14928214D01*
X17734643Y-14928214D01*
X17763214Y-14942500D01*
X17777500Y-14956786D01*
X17791786Y-14985357D01*
X17791786Y-15071071D01*
X17777500Y-15099643D01*
X17763214Y-15113929D01*
X17734643Y-15128214D01*
X17691786Y-15128214D01*
X17963214Y-15128214D02*
X17934643Y-15113929D01*
X17920357Y-15085357D01*
X17920357Y-14828214D01*
X18191786Y-15113929D02*
X18163214Y-15128214D01*
X18106071Y-15128214D01*
X18077500Y-15113929D01*
X18063214Y-15085357D01*
X18063214Y-14971071D01*
X18077500Y-14942500D01*
X18106071Y-14928214D01*
X18163214Y-14928214D01*
X18191786Y-14942500D01*
X18206071Y-14971071D01*
X18206071Y-14999643D01*
X18063214Y-15028214D01*
X18320357Y-15113929D02*
X18348928Y-15128214D01*
X18406071Y-15128214D01*
X18434643Y-15113929D01*
X18448928Y-15085357D01*
X18448928Y-15071071D01*
X18434643Y-15042500D01*
X18406071Y-15028214D01*
X18363214Y-15028214D01*
X18334643Y-15013929D01*
X18320357Y-14985357D01*
X18320357Y-14971071D01*
X18334643Y-14942500D01*
X18363214Y-14928214D01*
X18406071Y-14928214D01*
X18434643Y-14942500D01*
X18548928Y-15242500D02*
X18563214Y-15228214D01*
X18591786Y-15185357D01*
X18606071Y-15156786D01*
X18620357Y-15113929D01*
X18634643Y-15042500D01*
X18634643Y-14985357D01*
X18620357Y-14913929D01*
X18606071Y-14871071D01*
X18591786Y-14842500D01*
X18563214Y-14799643D01*
X18548928Y-14785357D01*
X11960900Y-15337700D02*
X12062500Y-15439300D01*
X12062500Y-15337700D02*
X11960900Y-15439300D01*
X12062500Y-15388500D02*
G75*
G03X12062500Y-15388500I-50800J0D01*
G01*
X12506071Y-15524214D02*
X12334643Y-15524214D01*
X12420357Y-15524214D02*
X12420357Y-15224214D01*
X12391786Y-15267071D01*
X12363214Y-15295643D01*
X12334643Y-15309929D01*
X12634643Y-15495643D02*
X12648928Y-15509929D01*
X12634643Y-15524214D01*
X12620357Y-15509929D01*
X12634643Y-15495643D01*
X12634643Y-15524214D01*
X12834643Y-15224214D02*
X12863214Y-15224214D01*
X12891786Y-15238500D01*
X12906071Y-15252786D01*
X12920357Y-15281357D01*
X12934643Y-15338500D01*
X12934643Y-15409929D01*
X12920357Y-15467071D01*
X12906071Y-15495643D01*
X12891786Y-15509929D01*
X12863214Y-15524214D01*
X12834643Y-15524214D01*
X12806071Y-15509929D01*
X12791786Y-15495643D01*
X12777500Y-15467071D01*
X12763214Y-15409929D01*
X12763214Y-15338500D01*
X12777500Y-15281357D01*
X12791786Y-15252786D01*
X12806071Y-15238500D01*
X12834643Y-15224214D01*
X13048928Y-15252786D02*
X13063214Y-15238500D01*
X13091786Y-15224214D01*
X13163214Y-15224214D01*
X13191786Y-15238500D01*
X13206071Y-15252786D01*
X13220357Y-15281357D01*
X13220357Y-15309929D01*
X13206071Y-15352786D01*
X13034643Y-15524214D01*
X13220357Y-15524214D01*
X13348928Y-15524214D02*
X13348928Y-15324214D01*
X13348928Y-15352786D02*
X13363214Y-15338500D01*
X13391786Y-15324214D01*
X13434643Y-15324214D01*
X13463214Y-15338500D01*
X13477500Y-15367071D01*
X13477500Y-15524214D01*
X13477500Y-15367071D02*
X13491786Y-15338500D01*
X13520357Y-15324214D01*
X13563214Y-15324214D01*
X13591786Y-15338500D01*
X13606071Y-15367071D01*
X13606071Y-15524214D01*
X13748928Y-15524214D02*
X13748928Y-15324214D01*
X13748928Y-15352786D02*
X13763214Y-15338500D01*
X13791786Y-15324214D01*
X13834643Y-15324214D01*
X13863214Y-15338500D01*
X13877500Y-15367071D01*
X13877500Y-15524214D01*
X13877500Y-15367071D02*
X13891786Y-15338500D01*
X13920357Y-15324214D01*
X13963214Y-15324214D01*
X13991786Y-15338500D01*
X14006071Y-15367071D01*
X14006071Y-15524214D01*
X14591786Y-15209929D02*
X14334643Y-15595643D01*
X14977500Y-15224214D02*
X15006071Y-15224214D01*
X15034643Y-15238500D01*
X15048928Y-15252786D01*
X15063214Y-15281357D01*
X15077500Y-15338500D01*
X15077500Y-15409929D01*
X15063214Y-15467071D01*
X15048928Y-15495643D01*
X15034643Y-15509929D01*
X15006071Y-15524214D01*
X14977500Y-15524214D01*
X14948928Y-15509929D01*
X14934643Y-15495643D01*
X14920357Y-15467071D01*
X14906071Y-15409929D01*
X14906071Y-15338500D01*
X14920357Y-15281357D01*
X14934643Y-15252786D01*
X14948928Y-15238500D01*
X14977500Y-15224214D01*
X15206071Y-15495643D02*
X15220357Y-15509929D01*
X15206071Y-15524214D01*
X15191786Y-15509929D01*
X15206071Y-15495643D01*
X15206071Y-15524214D01*
X15406071Y-15224214D02*
X15434643Y-15224214D01*
X15463214Y-15238500D01*
X15477500Y-15252786D01*
X15491786Y-15281357D01*
X15506071Y-15338500D01*
X15506071Y-15409929D01*
X15491786Y-15467071D01*
X15477500Y-15495643D01*
X15463214Y-15509929D01*
X15434643Y-15524214D01*
X15406071Y-15524214D01*
X15377500Y-15509929D01*
X15363214Y-15495643D01*
X15348928Y-15467071D01*
X15334643Y-15409929D01*
X15334643Y-15338500D01*
X15348928Y-15281357D01*
X15363214Y-15252786D01*
X15377500Y-15238500D01*
X15406071Y-15224214D01*
X15763214Y-15324214D02*
X15763214Y-15524214D01*
X15691786Y-15209929D02*
X15620357Y-15424214D01*
X15806071Y-15424214D01*
X15977500Y-15224214D02*
X16006071Y-15224214D01*
X16034643Y-15238500D01*
X16048928Y-15252786D01*
X16063214Y-15281357D01*
X16077500Y-15338500D01*
X16077500Y-15409929D01*
X16063214Y-15467071D01*
X16048928Y-15495643D01*
X16034643Y-15509929D01*
X16006071Y-15524214D01*
X15977500Y-15524214D01*
X15948928Y-15509929D01*
X15934643Y-15495643D01*
X15920357Y-15467071D01*
X15906071Y-15409929D01*
X15906071Y-15338500D01*
X15920357Y-15281357D01*
X15934643Y-15252786D01*
X15948928Y-15238500D01*
X15977500Y-15224214D01*
X16191786Y-15224214D02*
X16191786Y-15281357D01*
X16306071Y-15224214D02*
X16306071Y-15281357D01*
X16748928Y-15638500D02*
X16734643Y-15624214D01*
X16706071Y-15581357D01*
X16691786Y-15552786D01*
X16677500Y-15509929D01*
X16663214Y-15438500D01*
X16663214Y-15381357D01*
X16677500Y-15309929D01*
X16691786Y-15267071D01*
X16706071Y-15238500D01*
X16734643Y-15195643D01*
X16748928Y-15181357D01*
X16848928Y-15252786D02*
X16863214Y-15238500D01*
X16891786Y-15224214D01*
X16963214Y-15224214D01*
X16991786Y-15238500D01*
X17006071Y-15252786D01*
X17020357Y-15281357D01*
X17020357Y-15309929D01*
X17006071Y-15352786D01*
X16834643Y-15524214D01*
X17020357Y-15524214D01*
X17277500Y-15324214D02*
X17277500Y-15524214D01*
X17206071Y-15209929D02*
X17134643Y-15424214D01*
X17320357Y-15424214D01*
X17663214Y-15524214D02*
X17663214Y-15224214D01*
X17791786Y-15524214D02*
X17791786Y-15367071D01*
X17777500Y-15338500D01*
X17748928Y-15324214D01*
X17706071Y-15324214D01*
X17677500Y-15338500D01*
X17663214Y-15352786D01*
X17977500Y-15524214D02*
X17948928Y-15509929D01*
X17934643Y-15495643D01*
X17920357Y-15467071D01*
X17920357Y-15381357D01*
X17934643Y-15352786D01*
X17948928Y-15338500D01*
X17977500Y-15324214D01*
X18020357Y-15324214D01*
X18048928Y-15338500D01*
X18063214Y-15352786D01*
X18077500Y-15381357D01*
X18077500Y-15467071D01*
X18063214Y-15495643D01*
X18048928Y-15509929D01*
X18020357Y-15524214D01*
X17977500Y-15524214D01*
X18248928Y-15524214D02*
X18220357Y-15509929D01*
X18206071Y-15481357D01*
X18206071Y-15224214D01*
X18477500Y-15509929D02*
X18448928Y-15524214D01*
X18391786Y-15524214D01*
X18363214Y-15509929D01*
X18348928Y-15481357D01*
X18348928Y-15367071D01*
X18363214Y-15338500D01*
X18391786Y-15324214D01*
X18448928Y-15324214D01*
X18477500Y-15338500D01*
X18491786Y-15367071D01*
X18491786Y-15395643D01*
X18348928Y-15424214D01*
X18606071Y-15509929D02*
X18634643Y-15524214D01*
X18691786Y-15524214D01*
X18720357Y-15509929D01*
X18734643Y-15481357D01*
X18734643Y-15467071D01*
X18720357Y-15438500D01*
X18691786Y-15424214D01*
X18648928Y-15424214D01*
X18620357Y-15409929D01*
X18606071Y-15381357D01*
X18606071Y-15367071D01*
X18620357Y-15338500D01*
X18648928Y-15324214D01*
X18691786Y-15324214D01*
X18720357Y-15338500D01*
X18834643Y-15638500D02*
X18848928Y-15624214D01*
X18877500Y-15581357D01*
X18891786Y-15552786D01*
X18906071Y-15509929D01*
X18920357Y-15438500D01*
X18920357Y-15381357D01*
X18906071Y-15309929D01*
X18891786Y-15267071D01*
X18877500Y-15238500D01*
X18848928Y-15195643D01*
X18834643Y-15181357D01*
X11942612Y-15724556D02*
X12062500Y-15844444D01*
X12062500Y-15724556D02*
X11942612Y-15844444D01*
X12002556Y-15724556D02*
X12002556Y-15844444D01*
X11942612Y-15784500D02*
X12062500Y-15784500D01*
X12506071Y-15920214D02*
X12334643Y-15920214D01*
X12420357Y-15920214D02*
X12420357Y-15620214D01*
X12391786Y-15663071D01*
X12363214Y-15691643D01*
X12334643Y-15705929D01*
X12634643Y-15891643D02*
X12648928Y-15905929D01*
X12634643Y-15920214D01*
X12620357Y-15905929D01*
X12634643Y-15891643D01*
X12634643Y-15920214D01*
X12763214Y-15648786D02*
X12777500Y-15634500D01*
X12806071Y-15620214D01*
X12877500Y-15620214D01*
X12906071Y-15634500D01*
X12920357Y-15648786D01*
X12934643Y-15677357D01*
X12934643Y-15705929D01*
X12920357Y-15748786D01*
X12748928Y-15920214D01*
X12934643Y-15920214D01*
X13120357Y-15620214D02*
X13148928Y-15620214D01*
X13177500Y-15634500D01*
X13191786Y-15648786D01*
X13206071Y-15677357D01*
X13220357Y-15734500D01*
X13220357Y-15805929D01*
X13206071Y-15863071D01*
X13191786Y-15891643D01*
X13177500Y-15905929D01*
X13148928Y-15920214D01*
X13120357Y-15920214D01*
X13091786Y-15905929D01*
X13077500Y-15891643D01*
X13063214Y-15863071D01*
X13048928Y-15805929D01*
X13048928Y-15734500D01*
X13063214Y-15677357D01*
X13077500Y-15648786D01*
X13091786Y-15634500D01*
X13120357Y-15620214D01*
X13348928Y-15920214D02*
X13348928Y-15720214D01*
X13348928Y-15748786D02*
X13363214Y-15734500D01*
X13391786Y-15720214D01*
X13434643Y-15720214D01*
X13463214Y-15734500D01*
X13477500Y-15763071D01*
X13477500Y-15920214D01*
X13477500Y-15763071D02*
X13491786Y-15734500D01*
X13520357Y-15720214D01*
X13563214Y-15720214D01*
X13591786Y-15734500D01*
X13606071Y-15763071D01*
X13606071Y-15920214D01*
X13748928Y-15920214D02*
X13748928Y-15720214D01*
X13748928Y-15748786D02*
X13763214Y-15734500D01*
X13791786Y-15720214D01*
X13834643Y-15720214D01*
X13863214Y-15734500D01*
X13877500Y-15763071D01*
X13877500Y-15920214D01*
X13877500Y-15763071D02*
X13891786Y-15734500D01*
X13920357Y-15720214D01*
X13963214Y-15720214D01*
X13991786Y-15734500D01*
X14006071Y-15763071D01*
X14006071Y-15920214D01*
X14591786Y-15605929D02*
X14334643Y-15991643D01*
X14977500Y-15620214D02*
X15006071Y-15620214D01*
X15034643Y-15634500D01*
X15048928Y-15648786D01*
X15063214Y-15677357D01*
X15077500Y-15734500D01*
X15077500Y-15805929D01*
X15063214Y-15863071D01*
X15048928Y-15891643D01*
X15034643Y-15905929D01*
X15006071Y-15920214D01*
X14977500Y-15920214D01*
X14948928Y-15905929D01*
X14934643Y-15891643D01*
X14920357Y-15863071D01*
X14906071Y-15805929D01*
X14906071Y-15734500D01*
X14920357Y-15677357D01*
X14934643Y-15648786D01*
X14948928Y-15634500D01*
X14977500Y-15620214D01*
X15206071Y-15891643D02*
X15220357Y-15905929D01*
X15206071Y-15920214D01*
X15191786Y-15905929D01*
X15206071Y-15891643D01*
X15206071Y-15920214D01*
X15406071Y-15620214D02*
X15434643Y-15620214D01*
X15463214Y-15634500D01*
X15477500Y-15648786D01*
X15491786Y-15677357D01*
X15506071Y-15734500D01*
X15506071Y-15805929D01*
X15491786Y-15863071D01*
X15477500Y-15891643D01*
X15463214Y-15905929D01*
X15434643Y-15920214D01*
X15406071Y-15920214D01*
X15377500Y-15905929D01*
X15363214Y-15891643D01*
X15348928Y-15863071D01*
X15334643Y-15805929D01*
X15334643Y-15734500D01*
X15348928Y-15677357D01*
X15363214Y-15648786D01*
X15377500Y-15634500D01*
X15406071Y-15620214D01*
X15763214Y-15720214D02*
X15763214Y-15920214D01*
X15691786Y-15605929D02*
X15620357Y-15820214D01*
X15806071Y-15820214D01*
X15891786Y-15620214D02*
X16091786Y-15620214D01*
X15963214Y-15920214D01*
X16191786Y-15620214D02*
X16191786Y-15677357D01*
X16306071Y-15620214D02*
X16306071Y-15677357D01*
X16748928Y-16034500D02*
X16734643Y-16020214D01*
X16706071Y-15977357D01*
X16691786Y-15948786D01*
X16677500Y-15905929D01*
X16663214Y-15834500D01*
X16663214Y-15777357D01*
X16677500Y-15705929D01*
X16691786Y-15663071D01*
X16706071Y-15634500D01*
X16734643Y-15591643D01*
X16748928Y-15577357D01*
X16834643Y-15620214D02*
X17020357Y-15620214D01*
X16920357Y-15734500D01*
X16963214Y-15734500D01*
X16991786Y-15748786D01*
X17006071Y-15763071D01*
X17020357Y-15791643D01*
X17020357Y-15863071D01*
X17006071Y-15891643D01*
X16991786Y-15905929D01*
X16963214Y-15920214D01*
X16877500Y-15920214D01*
X16848928Y-15905929D01*
X16834643Y-15891643D01*
X17134643Y-15648786D02*
X17148928Y-15634500D01*
X17177500Y-15620214D01*
X17248928Y-15620214D01*
X17277500Y-15634500D01*
X17291786Y-15648786D01*
X17306071Y-15677357D01*
X17306071Y-15705929D01*
X17291786Y-15748786D01*
X17120357Y-15920214D01*
X17306071Y-15920214D01*
X17663214Y-15920214D02*
X17663214Y-15620214D01*
X17791786Y-15920214D02*
X17791786Y-15763071D01*
X17777500Y-15734500D01*
X17748928Y-15720214D01*
X17706071Y-15720214D01*
X17677500Y-15734500D01*
X17663214Y-15748786D01*
X17977500Y-15920214D02*
X17948928Y-15905929D01*
X17934643Y-15891643D01*
X17920357Y-15863071D01*
X17920357Y-15777357D01*
X17934643Y-15748786D01*
X17948928Y-15734500D01*
X17977500Y-15720214D01*
X18020357Y-15720214D01*
X18048928Y-15734500D01*
X18063214Y-15748786D01*
X18077500Y-15777357D01*
X18077500Y-15863071D01*
X18063214Y-15891643D01*
X18048928Y-15905929D01*
X18020357Y-15920214D01*
X17977500Y-15920214D01*
X18248928Y-15920214D02*
X18220357Y-15905929D01*
X18206071Y-15877357D01*
X18206071Y-15620214D01*
X18477500Y-15905929D02*
X18448928Y-15920214D01*
X18391786Y-15920214D01*
X18363214Y-15905929D01*
X18348928Y-15877357D01*
X18348928Y-15763071D01*
X18363214Y-15734500D01*
X18391786Y-15720214D01*
X18448928Y-15720214D01*
X18477500Y-15734500D01*
X18491786Y-15763071D01*
X18491786Y-15791643D01*
X18348928Y-15820214D01*
X18606071Y-15905929D02*
X18634643Y-15920214D01*
X18691786Y-15920214D01*
X18720357Y-15905929D01*
X18734643Y-15877357D01*
X18734643Y-15863071D01*
X18720357Y-15834500D01*
X18691786Y-15820214D01*
X18648928Y-15820214D01*
X18620357Y-15805929D01*
X18606071Y-15777357D01*
X18606071Y-15763071D01*
X18620357Y-15734500D01*
X18648928Y-15720214D01*
X18691786Y-15720214D01*
X18720357Y-15734500D01*
X18834643Y-16034500D02*
X18848928Y-16020214D01*
X18877500Y-15977357D01*
X18891786Y-15948786D01*
X18906071Y-15905929D01*
X18920357Y-15834500D01*
X18920357Y-15777357D01*
X18906071Y-15705929D01*
X18891786Y-15663071D01*
X18877500Y-15634500D01*
X18848928Y-15591643D01*
X18834643Y-15577357D01*
X11902734Y-16100617D02*
X12062500Y-16260383D01*
X12062500Y-16100617D02*
X11902734Y-16260383D01*
X12039103Y-16236986D02*
X12039103Y-16124014D01*
X11926130Y-16124014D01*
X11926130Y-16236986D01*
X12039103Y-16236986D01*
X12506071Y-16316214D02*
X12334643Y-16316214D01*
X12420357Y-16316214D02*
X12420357Y-16016214D01*
X12391786Y-16059071D01*
X12363214Y-16087643D01*
X12334643Y-16101929D01*
X12634643Y-16287643D02*
X12648928Y-16301929D01*
X12634643Y-16316214D01*
X12620357Y-16301929D01*
X12634643Y-16287643D01*
X12634643Y-16316214D01*
X12906071Y-16016214D02*
X12848928Y-16016214D01*
X12820357Y-16030500D01*
X12806071Y-16044786D01*
X12777500Y-16087643D01*
X12763214Y-16144786D01*
X12763214Y-16259071D01*
X12777500Y-16287643D01*
X12791786Y-16301929D01*
X12820357Y-16316214D01*
X12877500Y-16316214D01*
X12906071Y-16301929D01*
X12920357Y-16287643D01*
X12934643Y-16259071D01*
X12934643Y-16187643D01*
X12920357Y-16159071D01*
X12906071Y-16144786D01*
X12877500Y-16130500D01*
X12820357Y-16130500D01*
X12791786Y-16144786D01*
X12777500Y-16159071D01*
X12763214Y-16187643D01*
X13120357Y-16016214D02*
X13148928Y-16016214D01*
X13177500Y-16030500D01*
X13191786Y-16044786D01*
X13206071Y-16073357D01*
X13220357Y-16130500D01*
X13220357Y-16201929D01*
X13206071Y-16259071D01*
X13191786Y-16287643D01*
X13177500Y-16301929D01*
X13148928Y-16316214D01*
X13120357Y-16316214D01*
X13091786Y-16301929D01*
X13077500Y-16287643D01*
X13063214Y-16259071D01*
X13048928Y-16201929D01*
X13048928Y-16130500D01*
X13063214Y-16073357D01*
X13077500Y-16044786D01*
X13091786Y-16030500D01*
X13120357Y-16016214D01*
X13348928Y-16316214D02*
X13348928Y-16116214D01*
X13348928Y-16144786D02*
X13363214Y-16130500D01*
X13391786Y-16116214D01*
X13434643Y-16116214D01*
X13463214Y-16130500D01*
X13477500Y-16159071D01*
X13477500Y-16316214D01*
X13477500Y-16159071D02*
X13491786Y-16130500D01*
X13520357Y-16116214D01*
X13563214Y-16116214D01*
X13591786Y-16130500D01*
X13606071Y-16159071D01*
X13606071Y-16316214D01*
X13748928Y-16316214D02*
X13748928Y-16116214D01*
X13748928Y-16144786D02*
X13763214Y-16130500D01*
X13791786Y-16116214D01*
X13834643Y-16116214D01*
X13863214Y-16130500D01*
X13877500Y-16159071D01*
X13877500Y-16316214D01*
X13877500Y-16159071D02*
X13891786Y-16130500D01*
X13920357Y-16116214D01*
X13963214Y-16116214D01*
X13991786Y-16130500D01*
X14006071Y-16159071D01*
X14006071Y-16316214D01*
X14591786Y-16001929D02*
X14334643Y-16387643D01*
X14977500Y-16016214D02*
X15006071Y-16016214D01*
X15034643Y-16030500D01*
X15048928Y-16044786D01*
X15063214Y-16073357D01*
X15077500Y-16130500D01*
X15077500Y-16201929D01*
X15063214Y-16259071D01*
X15048928Y-16287643D01*
X15034643Y-16301929D01*
X15006071Y-16316214D01*
X14977500Y-16316214D01*
X14948928Y-16301929D01*
X14934643Y-16287643D01*
X14920357Y-16259071D01*
X14906071Y-16201929D01*
X14906071Y-16130500D01*
X14920357Y-16073357D01*
X14934643Y-16044786D01*
X14948928Y-16030500D01*
X14977500Y-16016214D01*
X15206071Y-16287643D02*
X15220357Y-16301929D01*
X15206071Y-16316214D01*
X15191786Y-16301929D01*
X15206071Y-16287643D01*
X15206071Y-16316214D01*
X15406071Y-16016214D02*
X15434643Y-16016214D01*
X15463214Y-16030500D01*
X15477500Y-16044786D01*
X15491786Y-16073357D01*
X15506071Y-16130500D01*
X15506071Y-16201929D01*
X15491786Y-16259071D01*
X15477500Y-16287643D01*
X15463214Y-16301929D01*
X15434643Y-16316214D01*
X15406071Y-16316214D01*
X15377500Y-16301929D01*
X15363214Y-16287643D01*
X15348928Y-16259071D01*
X15334643Y-16201929D01*
X15334643Y-16130500D01*
X15348928Y-16073357D01*
X15363214Y-16044786D01*
X15377500Y-16030500D01*
X15406071Y-16016214D01*
X15763214Y-16016214D02*
X15706071Y-16016214D01*
X15677500Y-16030500D01*
X15663214Y-16044786D01*
X15634643Y-16087643D01*
X15620357Y-16144786D01*
X15620357Y-16259071D01*
X15634643Y-16287643D01*
X15648928Y-16301929D01*
X15677500Y-16316214D01*
X15734643Y-16316214D01*
X15763214Y-16301929D01*
X15777500Y-16287643D01*
X15791786Y-16259071D01*
X15791786Y-16187643D01*
X15777500Y-16159071D01*
X15763214Y-16144786D01*
X15734643Y-16130500D01*
X15677500Y-16130500D01*
X15648928Y-16144786D01*
X15634643Y-16159071D01*
X15620357Y-16187643D01*
X15891786Y-16016214D02*
X16077500Y-16016214D01*
X15977500Y-16130500D01*
X16020357Y-16130500D01*
X16048928Y-16144786D01*
X16063214Y-16159071D01*
X16077500Y-16187643D01*
X16077500Y-16259071D01*
X16063214Y-16287643D01*
X16048928Y-16301929D01*
X16020357Y-16316214D01*
X15934643Y-16316214D01*
X15906071Y-16301929D01*
X15891786Y-16287643D01*
X16191786Y-16016214D02*
X16191786Y-16073357D01*
X16306071Y-16016214D02*
X16306071Y-16073357D01*
X16748928Y-16430500D02*
X16734643Y-16416214D01*
X16706071Y-16373357D01*
X16691786Y-16344786D01*
X16677500Y-16301929D01*
X16663214Y-16230500D01*
X16663214Y-16173357D01*
X16677500Y-16101929D01*
X16691786Y-16059071D01*
X16706071Y-16030500D01*
X16734643Y-15987643D01*
X16748928Y-15973357D01*
X17020357Y-16316214D02*
X16848928Y-16316214D01*
X16934643Y-16316214D02*
X16934643Y-16016214D01*
X16906071Y-16059071D01*
X16877500Y-16087643D01*
X16848928Y-16101929D01*
X17277500Y-16016214D02*
X17220357Y-16016214D01*
X17191786Y-16030500D01*
X17177500Y-16044786D01*
X17148928Y-16087643D01*
X17134643Y-16144786D01*
X17134643Y-16259071D01*
X17148928Y-16287643D01*
X17163214Y-16301929D01*
X17191786Y-16316214D01*
X17248928Y-16316214D01*
X17277500Y-16301929D01*
X17291786Y-16287643D01*
X17306071Y-16259071D01*
X17306071Y-16187643D01*
X17291786Y-16159071D01*
X17277500Y-16144786D01*
X17248928Y-16130500D01*
X17191786Y-16130500D01*
X17163214Y-16144786D01*
X17148928Y-16159071D01*
X17134643Y-16187643D01*
X17663214Y-16316214D02*
X17663214Y-16016214D01*
X17791786Y-16316214D02*
X17791786Y-16159071D01*
X17777500Y-16130500D01*
X17748928Y-16116214D01*
X17706071Y-16116214D01*
X17677500Y-16130500D01*
X17663214Y-16144786D01*
X17977500Y-16316214D02*
X17948928Y-16301929D01*
X17934643Y-16287643D01*
X17920357Y-16259071D01*
X17920357Y-16173357D01*
X17934643Y-16144786D01*
X17948928Y-16130500D01*
X17977500Y-16116214D01*
X18020357Y-16116214D01*
X18048928Y-16130500D01*
X18063214Y-16144786D01*
X18077500Y-16173357D01*
X18077500Y-16259071D01*
X18063214Y-16287643D01*
X18048928Y-16301929D01*
X18020357Y-16316214D01*
X17977500Y-16316214D01*
X18248928Y-16316214D02*
X18220357Y-16301929D01*
X18206071Y-16273357D01*
X18206071Y-16016214D01*
X18477500Y-16301929D02*
X18448928Y-16316214D01*
X18391786Y-16316214D01*
X18363214Y-16301929D01*
X18348928Y-16273357D01*
X18348928Y-16159071D01*
X18363214Y-16130500D01*
X18391786Y-16116214D01*
X18448928Y-16116214D01*
X18477500Y-16130500D01*
X18491786Y-16159071D01*
X18491786Y-16187643D01*
X18348928Y-16216214D01*
X18606071Y-16301929D02*
X18634643Y-16316214D01*
X18691786Y-16316214D01*
X18720357Y-16301929D01*
X18734643Y-16273357D01*
X18734643Y-16259071D01*
X18720357Y-16230500D01*
X18691786Y-16216214D01*
X18648928Y-16216214D01*
X18620357Y-16201929D01*
X18606071Y-16173357D01*
X18606071Y-16159071D01*
X18620357Y-16130500D01*
X18648928Y-16116214D01*
X18691786Y-16116214D01*
X18720357Y-16130500D01*
X18834643Y-16430500D02*
X18848928Y-16416214D01*
X18877500Y-16373357D01*
X18891786Y-16344786D01*
X18906071Y-16301929D01*
X18920357Y-16230500D01*
X18920357Y-16173357D01*
X18906071Y-16101929D01*
X18891786Y-16059071D01*
X18877500Y-16030500D01*
X18848928Y-15987643D01*
X18834643Y-15973357D01*
X19377500Y-16430500D02*
X19363214Y-16416214D01*
X19334643Y-16373357D01*
X19320357Y-16344786D01*
X19306071Y-16301929D01*
X19291786Y-16230500D01*
X19291786Y-16173357D01*
X19306071Y-16101929D01*
X19320357Y-16059071D01*
X19334643Y-16030500D01*
X19363214Y-15987643D01*
X19377500Y-15973357D01*
X19491786Y-16116214D02*
X19491786Y-16316214D01*
X19491786Y-16144786D02*
X19506071Y-16130500D01*
X19534643Y-16116214D01*
X19577500Y-16116214D01*
X19606071Y-16130500D01*
X19620357Y-16159071D01*
X19620357Y-16316214D01*
X19806071Y-16316214D02*
X19777500Y-16301929D01*
X19763214Y-16287643D01*
X19748928Y-16259071D01*
X19748928Y-16173357D01*
X19763214Y-16144786D01*
X19777500Y-16130500D01*
X19806071Y-16116214D01*
X19848928Y-16116214D01*
X19877500Y-16130500D01*
X19891786Y-16144786D01*
X19906071Y-16173357D01*
X19906071Y-16259071D01*
X19891786Y-16287643D01*
X19877500Y-16301929D01*
X19848928Y-16316214D01*
X19806071Y-16316214D01*
X19991786Y-16116214D02*
X20106071Y-16116214D01*
X20034643Y-16016214D02*
X20034643Y-16273357D01*
X20048928Y-16301929D01*
X20077500Y-16316214D01*
X20106071Y-16316214D01*
X20434643Y-16116214D02*
X20434643Y-16416214D01*
X20434643Y-16130500D02*
X20463214Y-16116214D01*
X20520357Y-16116214D01*
X20548928Y-16130500D01*
X20563214Y-16144786D01*
X20577500Y-16173357D01*
X20577500Y-16259071D01*
X20563214Y-16287643D01*
X20548928Y-16301929D01*
X20520357Y-16316214D01*
X20463214Y-16316214D01*
X20434643Y-16301929D01*
X20748928Y-16316214D02*
X20720357Y-16301929D01*
X20706071Y-16273357D01*
X20706071Y-16016214D01*
X20991786Y-16316214D02*
X20991786Y-16159071D01*
X20977500Y-16130500D01*
X20948928Y-16116214D01*
X20891786Y-16116214D01*
X20863214Y-16130500D01*
X20991786Y-16301929D02*
X20963214Y-16316214D01*
X20891786Y-16316214D01*
X20863214Y-16301929D01*
X20848928Y-16273357D01*
X20848928Y-16244786D01*
X20863214Y-16216214D01*
X20891786Y-16201929D01*
X20963214Y-16201929D01*
X20991786Y-16187643D01*
X21091786Y-16116214D02*
X21206071Y-16116214D01*
X21134643Y-16016214D02*
X21134643Y-16273357D01*
X21148928Y-16301929D01*
X21177500Y-16316214D01*
X21206071Y-16316214D01*
X21420357Y-16301929D02*
X21391786Y-16316214D01*
X21334643Y-16316214D01*
X21306071Y-16301929D01*
X21291786Y-16273357D01*
X21291786Y-16159071D01*
X21306071Y-16130500D01*
X21334643Y-16116214D01*
X21391786Y-16116214D01*
X21420357Y-16130500D01*
X21434643Y-16159071D01*
X21434643Y-16187643D01*
X21291786Y-16216214D01*
X21691786Y-16316214D02*
X21691786Y-16016214D01*
X21691786Y-16301929D02*
X21663214Y-16316214D01*
X21606071Y-16316214D01*
X21577500Y-16301929D01*
X21563214Y-16287643D01*
X21548928Y-16259071D01*
X21548928Y-16173357D01*
X21563214Y-16144786D01*
X21577500Y-16130500D01*
X21606071Y-16116214D01*
X21663214Y-16116214D01*
X21691786Y-16130500D01*
X21806071Y-16430500D02*
X21820357Y-16416214D01*
X21848928Y-16373357D01*
X21863214Y-16344786D01*
X21877500Y-16301929D01*
X21891786Y-16230500D01*
X21891786Y-16173357D01*
X21877500Y-16101929D01*
X21863214Y-16059071D01*
X21848928Y-16030500D01*
X21820357Y-15987643D01*
X21806071Y-15973357D01*
X11742500Y-16416500D02*
X12062500Y-16736500D01*
X12062500Y-16416500D02*
X11742500Y-16736500D01*
X11902500Y-16736500D02*
X12062500Y-16576500D01*
X11902500Y-16416500D01*
X11742500Y-16576500D01*
X11902500Y-16736500D01*
X12320357Y-16412214D02*
X12506071Y-16412214D01*
X12406071Y-16526500D01*
X12448928Y-16526500D01*
X12477500Y-16540786D01*
X12491786Y-16555071D01*
X12506071Y-16583643D01*
X12506071Y-16655071D01*
X12491786Y-16683643D01*
X12477500Y-16697929D01*
X12448928Y-16712214D01*
X12363214Y-16712214D01*
X12334643Y-16697929D01*
X12320357Y-16683643D01*
X12634643Y-16683643D02*
X12648928Y-16697929D01*
X12634643Y-16712214D01*
X12620357Y-16697929D01*
X12634643Y-16683643D01*
X12634643Y-16712214D01*
X12763214Y-16440786D02*
X12777500Y-16426500D01*
X12806071Y-16412214D01*
X12877500Y-16412214D01*
X12906071Y-16426500D01*
X12920357Y-16440786D01*
X12934643Y-16469357D01*
X12934643Y-16497929D01*
X12920357Y-16540786D01*
X12748928Y-16712214D01*
X12934643Y-16712214D01*
X13120357Y-16412214D02*
X13148928Y-16412214D01*
X13177500Y-16426500D01*
X13191786Y-16440786D01*
X13206071Y-16469357D01*
X13220357Y-16526500D01*
X13220357Y-16597929D01*
X13206071Y-16655071D01*
X13191786Y-16683643D01*
X13177500Y-16697929D01*
X13148928Y-16712214D01*
X13120357Y-16712214D01*
X13091786Y-16697929D01*
X13077500Y-16683643D01*
X13063214Y-16655071D01*
X13048928Y-16597929D01*
X13048928Y-16526500D01*
X13063214Y-16469357D01*
X13077500Y-16440786D01*
X13091786Y-16426500D01*
X13120357Y-16412214D01*
X13348928Y-16712214D02*
X13348928Y-16512214D01*
X13348928Y-16540786D02*
X13363214Y-16526500D01*
X13391786Y-16512214D01*
X13434643Y-16512214D01*
X13463214Y-16526500D01*
X13477500Y-16555071D01*
X13477500Y-16712214D01*
X13477500Y-16555071D02*
X13491786Y-16526500D01*
X13520357Y-16512214D01*
X13563214Y-16512214D01*
X13591786Y-16526500D01*
X13606071Y-16555071D01*
X13606071Y-16712214D01*
X13748928Y-16712214D02*
X13748928Y-16512214D01*
X13748928Y-16540786D02*
X13763214Y-16526500D01*
X13791786Y-16512214D01*
X13834643Y-16512214D01*
X13863214Y-16526500D01*
X13877500Y-16555071D01*
X13877500Y-16712214D01*
X13877500Y-16555071D02*
X13891786Y-16526500D01*
X13920357Y-16512214D01*
X13963214Y-16512214D01*
X13991786Y-16526500D01*
X14006071Y-16555071D01*
X14006071Y-16712214D01*
X14591786Y-16397929D02*
X14334643Y-16783643D01*
X14977500Y-16412214D02*
X15006071Y-16412214D01*
X15034643Y-16426500D01*
X15048928Y-16440786D01*
X15063214Y-16469357D01*
X15077500Y-16526500D01*
X15077500Y-16597929D01*
X15063214Y-16655071D01*
X15048928Y-16683643D01*
X15034643Y-16697929D01*
X15006071Y-16712214D01*
X14977500Y-16712214D01*
X14948928Y-16697929D01*
X14934643Y-16683643D01*
X14920357Y-16655071D01*
X14906071Y-16597929D01*
X14906071Y-16526500D01*
X14920357Y-16469357D01*
X14934643Y-16440786D01*
X14948928Y-16426500D01*
X14977500Y-16412214D01*
X15206071Y-16683643D02*
X15220357Y-16697929D01*
X15206071Y-16712214D01*
X15191786Y-16697929D01*
X15206071Y-16683643D01*
X15206071Y-16712214D01*
X15506071Y-16712214D02*
X15334643Y-16712214D01*
X15420357Y-16712214D02*
X15420357Y-16412214D01*
X15391786Y-16455071D01*
X15363214Y-16483643D01*
X15334643Y-16497929D01*
X15620357Y-16440786D02*
X15634643Y-16426500D01*
X15663214Y-16412214D01*
X15734643Y-16412214D01*
X15763214Y-16426500D01*
X15777500Y-16440786D01*
X15791786Y-16469357D01*
X15791786Y-16497929D01*
X15777500Y-16540786D01*
X15606071Y-16712214D01*
X15791786Y-16712214D01*
X16048928Y-16412214D02*
X15991786Y-16412214D01*
X15963214Y-16426500D01*
X15948928Y-16440786D01*
X15920357Y-16483643D01*
X15906071Y-16540786D01*
X15906071Y-16655071D01*
X15920357Y-16683643D01*
X15934643Y-16697929D01*
X15963214Y-16712214D01*
X16020357Y-16712214D01*
X16048928Y-16697929D01*
X16063214Y-16683643D01*
X16077500Y-16655071D01*
X16077500Y-16583643D01*
X16063214Y-16555071D01*
X16048928Y-16540786D01*
X16020357Y-16526500D01*
X15963214Y-16526500D01*
X15934643Y-16540786D01*
X15920357Y-16555071D01*
X15906071Y-16583643D01*
X16191786Y-16412214D02*
X16191786Y-16469357D01*
X16306071Y-16412214D02*
X16306071Y-16469357D01*
X16748928Y-16826500D02*
X16734643Y-16812214D01*
X16706071Y-16769357D01*
X16691786Y-16740786D01*
X16677500Y-16697929D01*
X16663214Y-16626500D01*
X16663214Y-16569357D01*
X16677500Y-16497929D01*
X16691786Y-16455071D01*
X16706071Y-16426500D01*
X16734643Y-16383643D01*
X16748928Y-16369357D01*
X16991786Y-16412214D02*
X16934643Y-16412214D01*
X16906071Y-16426500D01*
X16891786Y-16440786D01*
X16863214Y-16483643D01*
X16848928Y-16540786D01*
X16848928Y-16655071D01*
X16863214Y-16683643D01*
X16877500Y-16697929D01*
X16906071Y-16712214D01*
X16963214Y-16712214D01*
X16991786Y-16697929D01*
X17006071Y-16683643D01*
X17020357Y-16655071D01*
X17020357Y-16583643D01*
X17006071Y-16555071D01*
X16991786Y-16540786D01*
X16963214Y-16526500D01*
X16906071Y-16526500D01*
X16877500Y-16540786D01*
X16863214Y-16555071D01*
X16848928Y-16583643D01*
X17377500Y-16712214D02*
X17377500Y-16412214D01*
X17506071Y-16712214D02*
X17506071Y-16555071D01*
X17491786Y-16526500D01*
X17463214Y-16512214D01*
X17420357Y-16512214D01*
X17391786Y-16526500D01*
X17377500Y-16540786D01*
X17691786Y-16712214D02*
X17663214Y-16697929D01*
X17648928Y-16683643D01*
X17634643Y-16655071D01*
X17634643Y-16569357D01*
X17648928Y-16540786D01*
X17663214Y-16526500D01*
X17691786Y-16512214D01*
X17734643Y-16512214D01*
X17763214Y-16526500D01*
X17777500Y-16540786D01*
X17791786Y-16569357D01*
X17791786Y-16655071D01*
X17777500Y-16683643D01*
X17763214Y-16697929D01*
X17734643Y-16712214D01*
X17691786Y-16712214D01*
X17963214Y-16712214D02*
X17934643Y-16697929D01*
X17920357Y-16669357D01*
X17920357Y-16412214D01*
X18191786Y-16697929D02*
X18163214Y-16712214D01*
X18106071Y-16712214D01*
X18077500Y-16697929D01*
X18063214Y-16669357D01*
X18063214Y-16555071D01*
X18077500Y-16526500D01*
X18106071Y-16512214D01*
X18163214Y-16512214D01*
X18191786Y-16526500D01*
X18206071Y-16555071D01*
X18206071Y-16583643D01*
X18063214Y-16612214D01*
X18320357Y-16697929D02*
X18348928Y-16712214D01*
X18406071Y-16712214D01*
X18434643Y-16697929D01*
X18448928Y-16669357D01*
X18448928Y-16655071D01*
X18434643Y-16626500D01*
X18406071Y-16612214D01*
X18363214Y-16612214D01*
X18334643Y-16597929D01*
X18320357Y-16569357D01*
X18320357Y-16555071D01*
X18334643Y-16526500D01*
X18363214Y-16512214D01*
X18406071Y-16512214D01*
X18434643Y-16526500D01*
X18548928Y-16826500D02*
X18563214Y-16812214D01*
X18591786Y-16769357D01*
X18606071Y-16740786D01*
X18620357Y-16697929D01*
X18634643Y-16626500D01*
X18634643Y-16569357D01*
X18620357Y-16497929D01*
X18606071Y-16455071D01*
X18591786Y-16426500D01*
X18563214Y-16383643D01*
X18548928Y-16369357D01*
X19091786Y-16826500D02*
X19077500Y-16812214D01*
X19048928Y-16769357D01*
X19034643Y-16740786D01*
X19020357Y-16697929D01*
X19006071Y-16626500D01*
X19006071Y-16569357D01*
X19020357Y-16497929D01*
X19034643Y-16455071D01*
X19048928Y-16426500D01*
X19077500Y-16383643D01*
X19091786Y-16369357D01*
X19206071Y-16512214D02*
X19206071Y-16712214D01*
X19206071Y-16540786D02*
X19220357Y-16526500D01*
X19248928Y-16512214D01*
X19291786Y-16512214D01*
X19320357Y-16526500D01*
X19334643Y-16555071D01*
X19334643Y-16712214D01*
X19520357Y-16712214D02*
X19491786Y-16697929D01*
X19477500Y-16683643D01*
X19463214Y-16655071D01*
X19463214Y-16569357D01*
X19477500Y-16540786D01*
X19491786Y-16526500D01*
X19520357Y-16512214D01*
X19563214Y-16512214D01*
X19591786Y-16526500D01*
X19606071Y-16540786D01*
X19620357Y-16569357D01*
X19620357Y-16655071D01*
X19606071Y-16683643D01*
X19591786Y-16697929D01*
X19563214Y-16712214D01*
X19520357Y-16712214D01*
X19706071Y-16512214D02*
X19820357Y-16512214D01*
X19748928Y-16412214D02*
X19748928Y-16669357D01*
X19763214Y-16697929D01*
X19791786Y-16712214D01*
X19820357Y-16712214D01*
X20148928Y-16512214D02*
X20148928Y-16812214D01*
X20148928Y-16526500D02*
X20177500Y-16512214D01*
X20234643Y-16512214D01*
X20263214Y-16526500D01*
X20277500Y-16540786D01*
X20291786Y-16569357D01*
X20291786Y-16655071D01*
X20277500Y-16683643D01*
X20263214Y-16697929D01*
X20234643Y-16712214D01*
X20177500Y-16712214D01*
X20148928Y-16697929D01*
X20463214Y-16712214D02*
X20434643Y-16697929D01*
X20420357Y-16669357D01*
X20420357Y-16412214D01*
X20706071Y-16712214D02*
X20706071Y-16555071D01*
X20691786Y-16526500D01*
X20663214Y-16512214D01*
X20606071Y-16512214D01*
X20577500Y-16526500D01*
X20706071Y-16697929D02*
X20677500Y-16712214D01*
X20606071Y-16712214D01*
X20577500Y-16697929D01*
X20563214Y-16669357D01*
X20563214Y-16640786D01*
X20577500Y-16612214D01*
X20606071Y-16597929D01*
X20677500Y-16597929D01*
X20706071Y-16583643D01*
X20806071Y-16512214D02*
X20920357Y-16512214D01*
X20848928Y-16412214D02*
X20848928Y-16669357D01*
X20863214Y-16697929D01*
X20891786Y-16712214D01*
X20920357Y-16712214D01*
X21134643Y-16697929D02*
X21106071Y-16712214D01*
X21048928Y-16712214D01*
X21020357Y-16697929D01*
X21006071Y-16669357D01*
X21006071Y-16555071D01*
X21020357Y-16526500D01*
X21048928Y-16512214D01*
X21106071Y-16512214D01*
X21134643Y-16526500D01*
X21148928Y-16555071D01*
X21148928Y-16583643D01*
X21006071Y-16612214D01*
X21406071Y-16712214D02*
X21406071Y-16412214D01*
X21406071Y-16697929D02*
X21377500Y-16712214D01*
X21320357Y-16712214D01*
X21291786Y-16697929D01*
X21277500Y-16683643D01*
X21263214Y-16655071D01*
X21263214Y-16569357D01*
X21277500Y-16540786D01*
X21291786Y-16526500D01*
X21320357Y-16512214D01*
X21377500Y-16512214D01*
X21406071Y-16526500D01*
X21520357Y-16826500D02*
X21534643Y-16812214D01*
X21563214Y-16769357D01*
X21577500Y-16740786D01*
X21591786Y-16697929D01*
X21606071Y-16626500D01*
X21606071Y-16569357D01*
X21591786Y-16497929D01*
X21577500Y-16455071D01*
X21563214Y-16426500D01*
X21534643Y-16383643D01*
X21520357Y-16369357D01*
M02*
