G04 #@! TF.GenerationSoftware,KiCad,Pcbnew,(5.1.4-0)*
G04 #@! TF.CreationDate,2020-05-08T12:10:25+02:00*
G04 #@! TF.ProjectId,RPi_Teleco_PCB,5250695f-5465-46c6-9563-6f5f5043422e,rev?*
G04 #@! TF.SameCoordinates,Original*
G04 #@! TF.FileFunction,Copper,L1,Top*
G04 #@! TF.FilePolarity,Positive*
%FSLAX46Y46*%
G04 Gerber Fmt 4.6, Leading zero omitted, Abs format (unit mm)*
G04 Created by KiCad (PCBNEW (5.1.4-0)) date 2020-05-08 12:10:25*
%MOMM*%
%LPD*%
G04 APERTURE LIST*
%ADD10C,2.159000*%
%ADD11C,1.676400*%
%ADD12C,1.879600*%
%ADD13R,1.700000X1.700000*%
%ADD14O,1.700000X1.700000*%
%ADD15O,1.050000X1.500000*%
%ADD16R,1.050000X1.500000*%
%ADD17R,1.600000X1.600000*%
%ADD18O,1.600000X1.600000*%
%ADD19C,0.800000*%
%ADD20C,0.250000*%
%ADD21C,0.500000*%
G04 APERTURE END LIST*
D10*
X182969500Y-51737620D03*
X195466300Y-51737620D03*
X182969500Y-56736340D03*
X195466300Y-56736340D03*
D11*
X189217900Y-47488200D03*
X189217900Y-60985760D03*
D10*
X182956200Y-113464340D03*
X195453000Y-113464340D03*
X182956200Y-118463060D03*
X195453000Y-118463060D03*
D11*
X189204600Y-109214920D03*
X189204600Y-122712480D03*
D12*
X139700000Y-72390000D03*
X139700000Y-74930000D03*
X139700000Y-77470000D03*
X139700000Y-80010000D03*
X139700000Y-82550000D03*
X139700000Y-85090000D03*
X139700000Y-87630000D03*
X139700000Y-90170000D03*
X139700000Y-92710000D03*
X139700000Y-95250000D03*
X139700000Y-97790000D03*
X139700000Y-100330000D03*
X124460000Y-100330000D03*
X124460000Y-97790000D03*
X124460000Y-95250000D03*
X124460000Y-92710000D03*
X124460000Y-90170000D03*
X124460000Y-87630000D03*
X124460000Y-85090000D03*
X124460000Y-82550000D03*
X124460000Y-80010000D03*
X124460000Y-77470000D03*
X124460000Y-74930000D03*
X124460000Y-72390000D03*
D13*
X187960000Y-65200000D03*
D14*
X185420000Y-65200000D03*
X182880000Y-65200000D03*
X180340000Y-65200000D03*
X177800000Y-65200000D03*
X175260000Y-65200000D03*
X172720000Y-65200000D03*
D15*
X132080000Y-106680000D03*
X130810000Y-106680000D03*
D16*
X133350000Y-106680000D03*
D10*
X147421600Y-113451640D03*
X159918400Y-113451640D03*
X147421600Y-118450360D03*
X159918400Y-118450360D03*
D11*
X153670000Y-109202220D03*
X153670000Y-122699780D03*
X171450000Y-122725180D03*
X171450000Y-109227620D03*
D10*
X177698400Y-118475760D03*
X165201600Y-118475760D03*
X177698400Y-113477040D03*
X165201600Y-113477040D03*
D11*
X207010000Y-122725180D03*
X207010000Y-109227620D03*
D10*
X213258400Y-118475760D03*
X200761600Y-118475760D03*
X213258400Y-113477040D03*
X200761600Y-113477040D03*
D11*
X206975000Y-60977780D03*
X206975000Y-47480220D03*
D10*
X213223400Y-56728360D03*
X200726600Y-56728360D03*
X213223400Y-51729640D03*
X200726600Y-51729640D03*
X219811600Y-74970640D03*
X232308400Y-74970640D03*
X219811600Y-79969360D03*
X232308400Y-79969360D03*
D11*
X226060000Y-70721220D03*
X226060000Y-84218780D03*
X226060000Y-102506780D03*
X226060000Y-89009220D03*
D10*
X232308400Y-98257360D03*
X219811600Y-98257360D03*
X232308400Y-93258640D03*
X219811600Y-93258640D03*
D17*
X143510000Y-57150000D03*
D18*
X176530000Y-49530000D03*
X146050000Y-57150000D03*
X173990000Y-49530000D03*
X148590000Y-57150000D03*
X171450000Y-49530000D03*
X151130000Y-57150000D03*
X168910000Y-49530000D03*
X153670000Y-57150000D03*
X166370000Y-49530000D03*
X156210000Y-57150000D03*
X163830000Y-49530000D03*
X158750000Y-57150000D03*
X161290000Y-49530000D03*
X161290000Y-57150000D03*
X158750000Y-49530000D03*
X163830000Y-57150000D03*
X156210000Y-49530000D03*
X166370000Y-57150000D03*
X153670000Y-49530000D03*
X168910000Y-57150000D03*
X151130000Y-49530000D03*
X171450000Y-57150000D03*
X148590000Y-49530000D03*
X173990000Y-57150000D03*
X146050000Y-49530000D03*
X176530000Y-57150000D03*
X143510000Y-49530000D03*
D19*
X167640000Y-59690000D03*
X153670000Y-91440000D03*
X154940000Y-95250000D03*
X157480000Y-91440000D03*
X156302653Y-87722653D03*
X161290000Y-85090000D03*
X163830000Y-88900000D03*
X176530000Y-85090000D03*
X167640000Y-81280000D03*
X191770000Y-53975000D03*
X186690000Y-54520000D03*
X208280000Y-104140000D03*
D20*
X139700000Y-82550000D02*
X144780000Y-82550000D01*
X144780000Y-82550000D02*
X167640000Y-59690000D01*
X143510000Y-85090000D02*
X171450000Y-57150000D01*
X139700000Y-85090000D02*
X143510000Y-85090000D01*
X132080000Y-100330000D02*
X132080000Y-106680000D01*
X139700000Y-92710000D02*
X132080000Y-100330000D01*
X141405199Y-101594801D02*
X176950001Y-66049999D01*
X139092895Y-101594801D02*
X141405199Y-101594801D01*
X176950001Y-66049999D02*
X177800000Y-65200000D01*
X138435199Y-100937105D02*
X139092895Y-101594801D01*
X138435199Y-99054801D02*
X138435199Y-100937105D01*
X139700000Y-97790000D02*
X138435199Y-99054801D01*
X174830000Y-65200000D02*
X175260000Y-65200000D01*
X139700000Y-100330000D02*
X174830000Y-65200000D01*
X133344801Y-91445199D02*
X144774801Y-91445199D01*
X124460000Y-100330000D02*
X133344801Y-91445199D01*
X171020000Y-65200000D02*
X172720000Y-65200000D01*
X144774801Y-91445199D02*
X171020000Y-65200000D01*
X133350000Y-88900000D02*
X143510000Y-88900000D01*
X124460000Y-97790000D02*
X133350000Y-88900000D01*
X179164999Y-64024999D02*
X179490001Y-64350001D01*
X168385001Y-64024999D02*
X179164999Y-64024999D01*
X179490001Y-64350001D02*
X180340000Y-65200000D01*
X143510000Y-88900000D02*
X168385001Y-64024999D01*
X181610000Y-63930000D02*
X182880000Y-65200000D01*
X167640000Y-62230000D02*
X181610000Y-62230000D01*
X124460000Y-92710000D02*
X127000000Y-92710000D01*
X133350000Y-86360000D02*
X143510000Y-86360000D01*
X143510000Y-86360000D02*
X167640000Y-62230000D01*
X181610000Y-62230000D02*
X181610000Y-63930000D01*
X127000000Y-92710000D02*
X133350000Y-86360000D01*
X130035000Y-106680000D02*
X130810000Y-106680000D01*
D21*
X123070199Y-100997105D02*
X128753094Y-106680000D01*
X123070199Y-81399801D02*
X123070199Y-100997105D01*
X129785000Y-106680000D02*
X130810000Y-106680000D01*
X128753094Y-106680000D02*
X129785000Y-106680000D01*
X124460000Y-80010000D02*
X123070199Y-81399801D01*
X163030001Y-57949999D02*
X163830000Y-57150000D01*
X149979801Y-71000199D02*
X163030001Y-57949999D01*
X133469801Y-71000199D02*
X149979801Y-71000199D01*
X124460000Y-80010000D02*
X133469801Y-71000199D01*
X163830000Y-54610000D02*
X168910000Y-49530000D01*
X163830000Y-57150000D02*
X163830000Y-54610000D01*
X181874990Y-61654990D02*
X184570001Y-64350001D01*
X184570001Y-64350001D02*
X185420000Y-65200000D01*
X179184988Y-61654990D02*
X181874990Y-61654990D01*
X175279999Y-57750001D02*
X179184988Y-61654990D01*
X175279999Y-55899999D02*
X175279999Y-57750001D01*
X168910000Y-49530000D02*
X175279999Y-55899999D01*
D20*
X133350000Y-106680000D02*
X134125000Y-106680000D01*
X171424600Y-109202220D02*
X171450000Y-109227620D01*
X189191900Y-109227620D02*
X189204600Y-109214920D01*
X206997300Y-109214920D02*
X207010000Y-109227620D01*
X226898199Y-71559419D02*
X226060000Y-70721220D01*
X209924441Y-123888381D02*
X227223201Y-106589621D01*
X227223201Y-71884421D02*
X226898199Y-71559419D01*
X133350000Y-106905000D02*
X150333381Y-123888381D01*
X133350000Y-106680000D02*
X133350000Y-106905000D01*
X150558381Y-112313839D02*
X153670000Y-109202220D01*
X150558381Y-123888381D02*
X150558381Y-112313839D01*
X150333381Y-123888381D02*
X150558381Y-123888381D01*
X169608381Y-111069239D02*
X171450000Y-109227620D01*
X150558381Y-123888381D02*
X169608381Y-123888381D01*
X169608381Y-123888381D02*
X169608381Y-111069239D01*
X191198381Y-111208701D02*
X189204600Y-109214920D01*
X191198381Y-123888381D02*
X191198381Y-111208701D01*
X169608381Y-123888381D02*
X191198381Y-123888381D01*
X191198381Y-123888381D02*
X209924441Y-123888381D01*
X205886169Y-112017500D02*
X205886169Y-110351451D01*
X209924441Y-116055772D02*
X205886169Y-112017500D01*
X206171801Y-110065819D02*
X207010000Y-109227620D01*
X205886169Y-110351451D02*
X206171801Y-110065819D01*
X209924441Y-123888381D02*
X209924441Y-116055772D01*
X226276019Y-88793201D02*
X226060000Y-89009220D01*
X227223201Y-88793201D02*
X226276019Y-88793201D01*
X227223201Y-106589621D02*
X227223201Y-88793201D01*
X227223201Y-88793201D02*
X227223201Y-71884421D01*
X206967020Y-47488200D02*
X206975000Y-47480220D01*
X189217900Y-47488200D02*
X206967020Y-47488200D01*
X226060000Y-66565220D02*
X206975000Y-47480220D01*
X226060000Y-70721220D02*
X226060000Y-66565220D01*
X161322901Y-117045859D02*
X161322901Y-99092901D01*
X159918400Y-118450360D02*
X161322901Y-117045859D01*
X161322901Y-99092901D02*
X153670000Y-91440000D01*
X154833201Y-121536579D02*
X154833201Y-95356799D01*
X153670000Y-122699780D02*
X154833201Y-121536579D01*
X154833201Y-95356799D02*
X154940000Y-95250000D01*
X172720000Y-121455180D02*
X172720000Y-106680000D01*
X171450000Y-122725180D02*
X172720000Y-121455180D01*
X172720000Y-106680000D02*
X157480000Y-91440000D01*
X179102901Y-117071259D02*
X179102901Y-110522901D01*
X177698400Y-118475760D02*
X179102901Y-117071259D01*
X179102901Y-110522901D02*
X156302653Y-87722653D01*
X196857501Y-112790179D02*
X169157322Y-85090000D01*
X196857501Y-117058559D02*
X196857501Y-112790179D01*
X195453000Y-118463060D02*
X196857501Y-117058559D01*
X169157322Y-85090000D02*
X161290000Y-85090000D01*
X190367801Y-121549279D02*
X190367801Y-115437801D01*
X189204600Y-122712480D02*
X190367801Y-121549279D01*
X190367801Y-115437801D02*
X163830000Y-88900000D01*
X205740000Y-121455180D02*
X205740000Y-113030000D01*
X207010000Y-122725180D02*
X205740000Y-121455180D01*
X177800000Y-85090000D02*
X176530000Y-85090000D01*
X205740000Y-113030000D02*
X177800000Y-85090000D01*
X208173201Y-108669283D02*
X180783918Y-81280000D01*
X208173201Y-113390561D02*
X208173201Y-108669283D01*
X213258400Y-118475760D02*
X208173201Y-113390561D01*
X180783918Y-81280000D02*
X167640000Y-81280000D01*
X195166340Y-56736340D02*
X195466300Y-56736340D01*
X194531340Y-56736340D02*
X195466300Y-56736340D01*
X191770000Y-53975000D02*
X194531340Y-56736340D01*
X186690000Y-58457860D02*
X189217900Y-60985760D01*
X186690000Y-54520000D02*
X186690000Y-58457860D01*
X208280000Y-101998780D02*
X208280000Y-104140000D01*
X226060000Y-84218780D02*
X208280000Y-101998780D01*
M02*
