G04 #@! TF.GenerationSoftware,KiCad,Pcbnew,(5.1.4-0)*
G04 #@! TF.CreationDate,2020-05-08T12:10:25+02:00*
G04 #@! TF.ProjectId,RPi_Teleco_PCB,5250695f-5465-46c6-9563-6f5f5043422e,rev?*
G04 #@! TF.SameCoordinates,Original*
G04 #@! TF.FileFunction,Copper,L2,Bot*
G04 #@! TF.FilePolarity,Positive*
%FSLAX46Y46*%
G04 Gerber Fmt 4.6, Leading zero omitted, Abs format (unit mm)*
G04 Created by KiCad (PCBNEW (5.1.4-0)) date 2020-05-08 12:10:25*
%MOMM*%
%LPD*%
G04 APERTURE LIST*
%ADD10C,2.159000*%
%ADD11C,1.676400*%
%ADD12C,1.879600*%
%ADD13R,1.700000X1.700000*%
%ADD14O,1.700000X1.700000*%
%ADD15O,1.050000X1.500000*%
%ADD16R,1.050000X1.500000*%
%ADD17R,1.600000X1.600000*%
%ADD18O,1.600000X1.600000*%
%ADD19C,0.800000*%
%ADD20C,0.250000*%
%ADD21C,0.254000*%
G04 APERTURE END LIST*
D10*
X182969500Y-51737620D03*
X195466300Y-51737620D03*
X182969500Y-56736340D03*
X195466300Y-56736340D03*
D11*
X189217900Y-47488200D03*
X189217900Y-60985760D03*
D10*
X182956200Y-113464340D03*
X195453000Y-113464340D03*
X182956200Y-118463060D03*
X195453000Y-118463060D03*
D11*
X189204600Y-109214920D03*
X189204600Y-122712480D03*
D12*
X139700000Y-72390000D03*
X139700000Y-74930000D03*
X139700000Y-77470000D03*
X139700000Y-80010000D03*
X139700000Y-82550000D03*
X139700000Y-85090000D03*
X139700000Y-87630000D03*
X139700000Y-90170000D03*
X139700000Y-92710000D03*
X139700000Y-95250000D03*
X139700000Y-97790000D03*
X139700000Y-100330000D03*
X124460000Y-100330000D03*
X124460000Y-97790000D03*
X124460000Y-95250000D03*
X124460000Y-92710000D03*
X124460000Y-90170000D03*
X124460000Y-87630000D03*
X124460000Y-85090000D03*
X124460000Y-82550000D03*
X124460000Y-80010000D03*
X124460000Y-77470000D03*
X124460000Y-74930000D03*
X124460000Y-72390000D03*
D13*
X187960000Y-65200000D03*
D14*
X185420000Y-65200000D03*
X182880000Y-65200000D03*
X180340000Y-65200000D03*
X177800000Y-65200000D03*
X175260000Y-65200000D03*
X172720000Y-65200000D03*
D15*
X132080000Y-106680000D03*
X130810000Y-106680000D03*
D16*
X133350000Y-106680000D03*
D10*
X147421600Y-113451640D03*
X159918400Y-113451640D03*
X147421600Y-118450360D03*
X159918400Y-118450360D03*
D11*
X153670000Y-109202220D03*
X153670000Y-122699780D03*
X171450000Y-122725180D03*
X171450000Y-109227620D03*
D10*
X177698400Y-118475760D03*
X165201600Y-118475760D03*
X177698400Y-113477040D03*
X165201600Y-113477040D03*
D11*
X207010000Y-122725180D03*
X207010000Y-109227620D03*
D10*
X213258400Y-118475760D03*
X200761600Y-118475760D03*
X213258400Y-113477040D03*
X200761600Y-113477040D03*
D11*
X206975000Y-60977780D03*
X206975000Y-47480220D03*
D10*
X213223400Y-56728360D03*
X200726600Y-56728360D03*
X213223400Y-51729640D03*
X200726600Y-51729640D03*
X219811600Y-74970640D03*
X232308400Y-74970640D03*
X219811600Y-79969360D03*
X232308400Y-79969360D03*
D11*
X226060000Y-70721220D03*
X226060000Y-84218780D03*
X226060000Y-102506780D03*
X226060000Y-89009220D03*
D10*
X232308400Y-98257360D03*
X219811600Y-98257360D03*
X232308400Y-93258640D03*
X219811600Y-93258640D03*
D17*
X143510000Y-57150000D03*
D18*
X176530000Y-49530000D03*
X146050000Y-57150000D03*
X173990000Y-49530000D03*
X148590000Y-57150000D03*
X171450000Y-49530000D03*
X151130000Y-57150000D03*
X168910000Y-49530000D03*
X153670000Y-57150000D03*
X166370000Y-49530000D03*
X156210000Y-57150000D03*
X163830000Y-49530000D03*
X158750000Y-57150000D03*
X161290000Y-49530000D03*
X161290000Y-57150000D03*
X158750000Y-49530000D03*
X163830000Y-57150000D03*
X156210000Y-49530000D03*
X166370000Y-57150000D03*
X153670000Y-49530000D03*
X168910000Y-57150000D03*
X151130000Y-49530000D03*
X171450000Y-57150000D03*
X148590000Y-49530000D03*
X173990000Y-57150000D03*
X146050000Y-49530000D03*
X176530000Y-57150000D03*
X143510000Y-49530000D03*
D19*
X167640000Y-59690000D03*
X153670000Y-91440000D03*
X154940000Y-95250000D03*
X157480000Y-91440000D03*
X156302653Y-87722653D03*
X161290000Y-85090000D03*
X163830000Y-88900000D03*
X176530000Y-85090000D03*
X167640000Y-81280000D03*
X191770000Y-53975000D03*
X186690000Y-54520000D03*
X208280000Y-104140000D03*
D20*
X171450000Y-59690000D02*
X173990000Y-57150000D01*
X167640000Y-59690000D02*
X171450000Y-59690000D01*
X143510000Y-81280000D02*
X143510000Y-57150000D01*
X153670000Y-91440000D02*
X143510000Y-81280000D01*
X154940000Y-95250000D02*
X154940000Y-88900000D01*
X146050000Y-80010000D02*
X146050000Y-57150000D01*
X154940000Y-88900000D02*
X146050000Y-80010000D01*
X157480000Y-91440000D02*
X157480000Y-83820000D01*
X157480000Y-83820000D02*
X151130000Y-77470000D01*
X151130000Y-77470000D02*
X151130000Y-57150000D01*
X148590000Y-80010000D02*
X148590000Y-57150000D01*
X156302653Y-87722653D02*
X148590000Y-80010000D01*
X161290000Y-85090000D02*
X161290000Y-82550000D01*
X161290000Y-82550000D02*
X153670000Y-74930000D01*
X153670000Y-74930000D02*
X153670000Y-57150000D01*
X156210000Y-71120000D02*
X156210000Y-57150000D01*
X163830000Y-78740000D02*
X156210000Y-71120000D01*
X163830000Y-88900000D02*
X163830000Y-78740000D01*
X176530000Y-85090000D02*
X176530000Y-78740000D01*
X161290000Y-63500000D02*
X161290000Y-57150000D01*
X176530000Y-78740000D02*
X161290000Y-63500000D01*
X167640000Y-81280000D02*
X167640000Y-74930000D01*
X158750000Y-66040000D02*
X158750000Y-57150000D01*
X167640000Y-74930000D02*
X158750000Y-66040000D01*
X161290000Y-50800000D02*
X161290000Y-49530000D01*
X175262820Y-50800000D02*
X161290000Y-50800000D01*
X176532820Y-52070000D02*
X175262820Y-50800000D01*
X190937121Y-53142121D02*
X191770000Y-53975000D01*
X177604941Y-53142121D02*
X190937121Y-53142121D01*
X176532820Y-52070000D02*
X177604941Y-53142121D01*
X175446400Y-51619990D02*
X160839990Y-51619990D01*
X160839990Y-51619990D02*
X158750000Y-49530000D01*
X177155269Y-53328859D02*
X175446400Y-51619990D01*
X177155269Y-53328859D02*
X178435705Y-54609295D01*
X178525000Y-54520000D02*
X186690000Y-54520000D01*
X178435705Y-54609295D02*
X178525000Y-54520000D01*
X206366390Y-60316390D02*
X206975000Y-59707780D01*
X175893590Y-53340000D02*
X157480000Y-53340000D01*
X184783590Y-62230000D02*
X175893590Y-53340000D01*
X157480000Y-53340000D02*
X153670000Y-49530000D01*
X205722780Y-62230000D02*
X184783590Y-62230000D01*
X206975000Y-60977780D02*
X205722780Y-62230000D01*
X212938360Y-56728360D02*
X213223400Y-56728360D01*
X211740040Y-55245000D02*
X213223400Y-56728360D01*
X178435000Y-55245000D02*
X211740040Y-55245000D01*
X175260000Y-52070000D02*
X178435000Y-55245000D01*
X158750000Y-52070000D02*
X175260000Y-52070000D01*
X156210000Y-49530000D02*
X158750000Y-52070000D01*
X164955001Y-56609999D02*
X162955002Y-54610000D01*
X164955001Y-58078003D02*
X164955001Y-56609999D01*
X167291999Y-60415001D02*
X164955001Y-58078003D01*
X173895001Y-67215001D02*
X173895001Y-64635999D01*
X220485761Y-81373861D02*
X188053861Y-81373861D01*
X188053861Y-81373861D02*
X173895001Y-67215001D01*
X169674003Y-60415001D02*
X167291999Y-60415001D01*
X173895001Y-64635999D02*
X169674003Y-60415001D01*
X221890262Y-79969360D02*
X220485761Y-81373861D01*
X232308400Y-79969360D02*
X221890262Y-79969360D01*
X156210000Y-54610000D02*
X151130000Y-49530000D01*
X162955002Y-54610000D02*
X156210000Y-54610000D01*
X147464999Y-48404999D02*
X147790001Y-48730001D01*
X142969999Y-48404999D02*
X147464999Y-48404999D01*
X138435199Y-52939799D02*
X142969999Y-48404999D01*
X147790001Y-48730001D02*
X148590000Y-49530000D01*
X140296707Y-86354801D02*
X139092895Y-86354801D01*
X160768907Y-106827001D02*
X140296707Y-86354801D01*
X138435199Y-85697105D02*
X138435199Y-52939799D01*
X139092895Y-86354801D02*
X138435199Y-85697105D01*
X205592999Y-106827001D02*
X208280000Y-104140000D01*
X160768907Y-106827001D02*
X205592999Y-106827001D01*
X142710001Y-50329999D02*
X143510000Y-49530000D01*
X142384999Y-50655001D02*
X142710001Y-50329999D01*
X142384999Y-83768001D02*
X142384999Y-50655001D01*
X161123778Y-102506780D02*
X142384999Y-83768001D01*
X226060000Y-102506780D02*
X161123778Y-102506780D01*
X204386861Y-99661861D02*
X162415001Y-57690001D01*
X232308400Y-98257360D02*
X221890262Y-98257360D01*
X220485761Y-99661861D02*
X204386861Y-99661861D01*
X162415001Y-56609999D02*
X161685002Y-55880000D01*
X221890262Y-98257360D02*
X220485761Y-99661861D01*
X162415001Y-57690001D02*
X162415001Y-56609999D01*
X152400000Y-55880000D02*
X146050000Y-49530000D01*
X161685002Y-55880000D02*
X152400000Y-55880000D01*
D21*
G36*
X188073591Y-46549090D02*
G01*
X187912367Y-46790378D01*
X187801314Y-47058483D01*
X187744700Y-47343102D01*
X187744700Y-47633298D01*
X187801314Y-47917917D01*
X187912367Y-48186022D01*
X188073591Y-48427310D01*
X188278790Y-48632509D01*
X188289279Y-48639518D01*
X188104171Y-48824626D01*
X187947256Y-49059467D01*
X187839171Y-49320407D01*
X187784070Y-49597420D01*
X187784070Y-49879860D01*
X187839171Y-50156873D01*
X187947256Y-50417813D01*
X188104171Y-50652654D01*
X188303886Y-50852369D01*
X188538727Y-51009284D01*
X188799667Y-51117369D01*
X189076680Y-51172470D01*
X189359120Y-51172470D01*
X189636133Y-51117369D01*
X189897073Y-51009284D01*
X190131914Y-50852369D01*
X190331629Y-50652654D01*
X190403211Y-50545522D01*
X194453807Y-50545522D01*
X195466300Y-51558015D01*
X196478793Y-50545522D01*
X196373434Y-50272992D01*
X196070269Y-50124161D01*
X195743893Y-50037335D01*
X195406850Y-50015850D01*
X195072092Y-50060532D01*
X194752483Y-50169663D01*
X194559166Y-50272992D01*
X194453807Y-50545522D01*
X190403211Y-50545522D01*
X190488544Y-50417813D01*
X190596629Y-50156873D01*
X190651730Y-49879860D01*
X190651730Y-49597420D01*
X190596629Y-49320407D01*
X190488544Y-49059467D01*
X190331629Y-48824626D01*
X190146521Y-48639518D01*
X190157010Y-48632509D01*
X190362209Y-48427310D01*
X190523433Y-48186022D01*
X190634486Y-47917917D01*
X190691100Y-47633298D01*
X190691100Y-47343102D01*
X190634486Y-47058483D01*
X190523433Y-46790378D01*
X190362209Y-46549090D01*
X190193119Y-46380000D01*
X205991801Y-46380000D01*
X205830691Y-46541110D01*
X205669467Y-46782398D01*
X205558414Y-47050503D01*
X205501800Y-47335122D01*
X205501800Y-47625318D01*
X205558414Y-47909937D01*
X205669467Y-48178042D01*
X205830691Y-48419330D01*
X206035890Y-48624529D01*
X206046379Y-48631538D01*
X205861271Y-48816646D01*
X205704356Y-49051487D01*
X205596271Y-49312427D01*
X205541170Y-49589440D01*
X205541170Y-49871880D01*
X205596271Y-50148893D01*
X205704356Y-50409833D01*
X205861271Y-50644674D01*
X206060986Y-50844389D01*
X206295827Y-51001304D01*
X206556767Y-51109389D01*
X206833780Y-51164490D01*
X207116220Y-51164490D01*
X207393233Y-51109389D01*
X207654173Y-51001304D01*
X207889014Y-50844389D01*
X208088729Y-50644674D01*
X208160311Y-50537542D01*
X212210907Y-50537542D01*
X213223400Y-51550035D01*
X214193563Y-50579872D01*
X227635000Y-50579872D01*
X227635000Y-51020128D01*
X227720890Y-51451925D01*
X227889369Y-51858669D01*
X228133962Y-52224729D01*
X228445271Y-52536038D01*
X228811331Y-52780631D01*
X229218075Y-52949110D01*
X229649872Y-53035000D01*
X230090128Y-53035000D01*
X230521925Y-52949110D01*
X230928669Y-52780631D01*
X231294729Y-52536038D01*
X231606038Y-52224729D01*
X231850631Y-51858669D01*
X232019110Y-51451925D01*
X232105000Y-51020128D01*
X232105000Y-50579872D01*
X232019110Y-50148075D01*
X231850631Y-49741331D01*
X231606038Y-49375271D01*
X231294729Y-49063962D01*
X230928669Y-48819369D01*
X230521925Y-48650890D01*
X230090128Y-48565000D01*
X229649872Y-48565000D01*
X229218075Y-48650890D01*
X228811331Y-48819369D01*
X228445271Y-49063962D01*
X228133962Y-49375271D01*
X227889369Y-49741331D01*
X227720890Y-50148075D01*
X227635000Y-50579872D01*
X214193563Y-50579872D01*
X214235893Y-50537542D01*
X214130534Y-50265012D01*
X213827369Y-50116181D01*
X213500993Y-50029355D01*
X213163950Y-50007870D01*
X212829192Y-50052552D01*
X212509583Y-50161683D01*
X212316266Y-50265012D01*
X212210907Y-50537542D01*
X208160311Y-50537542D01*
X208245644Y-50409833D01*
X208353729Y-50148893D01*
X208408830Y-49871880D01*
X208408830Y-49589440D01*
X208353729Y-49312427D01*
X208245644Y-49051487D01*
X208088729Y-48816646D01*
X207903621Y-48631538D01*
X207914110Y-48624529D01*
X208119309Y-48419330D01*
X208280533Y-48178042D01*
X208391586Y-47909937D01*
X208448200Y-47625318D01*
X208448200Y-47335122D01*
X208391586Y-47050503D01*
X208280533Y-46782398D01*
X208119309Y-46541110D01*
X207958199Y-46380000D01*
X234290000Y-46380000D01*
X234290001Y-123800000D01*
X208018599Y-123800000D01*
X208154309Y-123664290D01*
X208315533Y-123423002D01*
X208426586Y-123154897D01*
X208483200Y-122870278D01*
X208483200Y-122580082D01*
X208426586Y-122295463D01*
X208315533Y-122027358D01*
X208154309Y-121786070D01*
X207949110Y-121580871D01*
X207938621Y-121573862D01*
X208123729Y-121388754D01*
X208280644Y-121153913D01*
X208388729Y-120892973D01*
X208443830Y-120615960D01*
X208443830Y-120333520D01*
X208388729Y-120056507D01*
X208280644Y-119795567D01*
X208123729Y-119560726D01*
X207924014Y-119361011D01*
X207689173Y-119204096D01*
X207428233Y-119096011D01*
X207151220Y-119040910D01*
X206868780Y-119040910D01*
X206591767Y-119096011D01*
X206330827Y-119204096D01*
X206095986Y-119361011D01*
X205896271Y-119560726D01*
X205739356Y-119795567D01*
X205631271Y-120056507D01*
X205576170Y-120333520D01*
X205576170Y-120615960D01*
X205631271Y-120892973D01*
X205739356Y-121153913D01*
X205896271Y-121388754D01*
X206081379Y-121573862D01*
X206070890Y-121580871D01*
X205865691Y-121786070D01*
X205704467Y-122027358D01*
X205593414Y-122295463D01*
X205536800Y-122580082D01*
X205536800Y-122870278D01*
X205593414Y-123154897D01*
X205704467Y-123423002D01*
X205865691Y-123664290D01*
X206001401Y-123800000D01*
X190200499Y-123800000D01*
X190348909Y-123651590D01*
X190510133Y-123410302D01*
X190621186Y-123142197D01*
X190677800Y-122857578D01*
X190677800Y-122567382D01*
X190621186Y-122282763D01*
X190510133Y-122014658D01*
X190348909Y-121773370D01*
X190143710Y-121568171D01*
X190133221Y-121561162D01*
X190318329Y-121376054D01*
X190475244Y-121141213D01*
X190583329Y-120880273D01*
X190638430Y-120603260D01*
X190638430Y-120320820D01*
X190583329Y-120043807D01*
X190475244Y-119782867D01*
X190318329Y-119548026D01*
X190118614Y-119348311D01*
X189883773Y-119191396D01*
X189622833Y-119083311D01*
X189345820Y-119028210D01*
X189063380Y-119028210D01*
X188786367Y-119083311D01*
X188525427Y-119191396D01*
X188290586Y-119348311D01*
X188090871Y-119548026D01*
X187933956Y-119782867D01*
X187825871Y-120043807D01*
X187770770Y-120320820D01*
X187770770Y-120603260D01*
X187825871Y-120880273D01*
X187933956Y-121141213D01*
X188090871Y-121376054D01*
X188275979Y-121561162D01*
X188265490Y-121568171D01*
X188060291Y-121773370D01*
X187899067Y-122014658D01*
X187788014Y-122282763D01*
X187731400Y-122567382D01*
X187731400Y-122857578D01*
X187788014Y-123142197D01*
X187899067Y-123410302D01*
X188060291Y-123651590D01*
X188208701Y-123800000D01*
X172458599Y-123800000D01*
X172594309Y-123664290D01*
X172755533Y-123423002D01*
X172866586Y-123154897D01*
X172923200Y-122870278D01*
X172923200Y-122580082D01*
X172866586Y-122295463D01*
X172755533Y-122027358D01*
X172594309Y-121786070D01*
X172389110Y-121580871D01*
X172378621Y-121573862D01*
X172563729Y-121388754D01*
X172720644Y-121153913D01*
X172828729Y-120892973D01*
X172883830Y-120615960D01*
X172883830Y-120333520D01*
X172828729Y-120056507D01*
X172720644Y-119795567D01*
X172563729Y-119560726D01*
X172364014Y-119361011D01*
X172129173Y-119204096D01*
X171868233Y-119096011D01*
X171591220Y-119040910D01*
X171308780Y-119040910D01*
X171031767Y-119096011D01*
X170770827Y-119204096D01*
X170535986Y-119361011D01*
X170336271Y-119560726D01*
X170179356Y-119795567D01*
X170071271Y-120056507D01*
X170016170Y-120333520D01*
X170016170Y-120615960D01*
X170071271Y-120892973D01*
X170179356Y-121153913D01*
X170336271Y-121388754D01*
X170521379Y-121573862D01*
X170510890Y-121580871D01*
X170305691Y-121786070D01*
X170144467Y-122027358D01*
X170033414Y-122295463D01*
X169976800Y-122580082D01*
X169976800Y-122870278D01*
X170033414Y-123154897D01*
X170144467Y-123423002D01*
X170305691Y-123664290D01*
X170441401Y-123800000D01*
X154653199Y-123800000D01*
X154814309Y-123638890D01*
X154975533Y-123397602D01*
X155086586Y-123129497D01*
X155143200Y-122844878D01*
X155143200Y-122554682D01*
X155086586Y-122270063D01*
X154975533Y-122001958D01*
X154814309Y-121760670D01*
X154609110Y-121555471D01*
X154598621Y-121548462D01*
X154783729Y-121363354D01*
X154940644Y-121128513D01*
X155048729Y-120867573D01*
X155103830Y-120590560D01*
X155103830Y-120308120D01*
X155048729Y-120031107D01*
X154940644Y-119770167D01*
X154783729Y-119535326D01*
X154584014Y-119335611D01*
X154349173Y-119178696D01*
X154088233Y-119070611D01*
X153811220Y-119015510D01*
X153528780Y-119015510D01*
X153251767Y-119070611D01*
X152990827Y-119178696D01*
X152755986Y-119335611D01*
X152556271Y-119535326D01*
X152399356Y-119770167D01*
X152291271Y-120031107D01*
X152236170Y-120308120D01*
X152236170Y-120590560D01*
X152291271Y-120867573D01*
X152399356Y-121128513D01*
X152556271Y-121363354D01*
X152741379Y-121548462D01*
X152730890Y-121555471D01*
X152525691Y-121760670D01*
X152364467Y-122001958D01*
X152253414Y-122270063D01*
X152196800Y-122554682D01*
X152196800Y-122844878D01*
X152253414Y-123129497D01*
X152364467Y-123397602D01*
X152525691Y-123638890D01*
X152686801Y-123800000D01*
X121310000Y-123800000D01*
X121310000Y-119159872D01*
X123495000Y-119159872D01*
X123495000Y-119600128D01*
X123580890Y-120031925D01*
X123749369Y-120438669D01*
X123993962Y-120804729D01*
X124305271Y-121116038D01*
X124671331Y-121360631D01*
X125078075Y-121529110D01*
X125509872Y-121615000D01*
X125950128Y-121615000D01*
X126381925Y-121529110D01*
X126788669Y-121360631D01*
X127154729Y-121116038D01*
X127466038Y-120804729D01*
X127710631Y-120438669D01*
X127879110Y-120031925D01*
X127965000Y-119600128D01*
X127965000Y-119159872D01*
X127879110Y-118728075D01*
X127710631Y-118321331D01*
X127684015Y-118281496D01*
X145707100Y-118281496D01*
X145707100Y-118619224D01*
X145772987Y-118950461D01*
X145902230Y-119262480D01*
X146089861Y-119543290D01*
X146328670Y-119782099D01*
X146609480Y-119969730D01*
X146921499Y-120098973D01*
X147252736Y-120164860D01*
X147590464Y-120164860D01*
X147921701Y-120098973D01*
X148233720Y-119969730D01*
X148514530Y-119782099D01*
X148753339Y-119543290D01*
X148940970Y-119262480D01*
X149070213Y-118950461D01*
X149136100Y-118619224D01*
X149136100Y-118281496D01*
X158203900Y-118281496D01*
X158203900Y-118619224D01*
X158269787Y-118950461D01*
X158399030Y-119262480D01*
X158586661Y-119543290D01*
X158825470Y-119782099D01*
X159106280Y-119969730D01*
X159418299Y-120098973D01*
X159749536Y-120164860D01*
X160087264Y-120164860D01*
X160418501Y-120098973D01*
X160730520Y-119969730D01*
X161011330Y-119782099D01*
X161250139Y-119543290D01*
X161437770Y-119262480D01*
X161567013Y-118950461D01*
X161632900Y-118619224D01*
X161632900Y-118306896D01*
X163487100Y-118306896D01*
X163487100Y-118644624D01*
X163552987Y-118975861D01*
X163682230Y-119287880D01*
X163869861Y-119568690D01*
X164108670Y-119807499D01*
X164389480Y-119995130D01*
X164701499Y-120124373D01*
X165032736Y-120190260D01*
X165370464Y-120190260D01*
X165701701Y-120124373D01*
X166013720Y-119995130D01*
X166294530Y-119807499D01*
X166533339Y-119568690D01*
X166720970Y-119287880D01*
X166850213Y-118975861D01*
X166916100Y-118644624D01*
X166916100Y-118306896D01*
X175983900Y-118306896D01*
X175983900Y-118644624D01*
X176049787Y-118975861D01*
X176179030Y-119287880D01*
X176366661Y-119568690D01*
X176605470Y-119807499D01*
X176886280Y-119995130D01*
X177198299Y-120124373D01*
X177529536Y-120190260D01*
X177867264Y-120190260D01*
X178198501Y-120124373D01*
X178510520Y-119995130D01*
X178791330Y-119807499D01*
X179030139Y-119568690D01*
X179217770Y-119287880D01*
X179347013Y-118975861D01*
X179412900Y-118644624D01*
X179412900Y-118306896D01*
X179410374Y-118294196D01*
X181241700Y-118294196D01*
X181241700Y-118631924D01*
X181307587Y-118963161D01*
X181436830Y-119275180D01*
X181624461Y-119555990D01*
X181863270Y-119794799D01*
X182144080Y-119982430D01*
X182456099Y-120111673D01*
X182787336Y-120177560D01*
X183125064Y-120177560D01*
X183456301Y-120111673D01*
X183768320Y-119982430D01*
X184049130Y-119794799D01*
X184287939Y-119555990D01*
X184475570Y-119275180D01*
X184604813Y-118963161D01*
X184670700Y-118631924D01*
X184670700Y-118294196D01*
X193738500Y-118294196D01*
X193738500Y-118631924D01*
X193804387Y-118963161D01*
X193933630Y-119275180D01*
X194121261Y-119555990D01*
X194360070Y-119794799D01*
X194640880Y-119982430D01*
X194952899Y-120111673D01*
X195284136Y-120177560D01*
X195621864Y-120177560D01*
X195953101Y-120111673D01*
X196265120Y-119982430D01*
X196545930Y-119794799D01*
X196784739Y-119555990D01*
X196972370Y-119275180D01*
X197101613Y-118963161D01*
X197167500Y-118631924D01*
X197167500Y-118306896D01*
X199047100Y-118306896D01*
X199047100Y-118644624D01*
X199112987Y-118975861D01*
X199242230Y-119287880D01*
X199429861Y-119568690D01*
X199668670Y-119807499D01*
X199949480Y-119995130D01*
X200261499Y-120124373D01*
X200592736Y-120190260D01*
X200930464Y-120190260D01*
X201261701Y-120124373D01*
X201573720Y-119995130D01*
X201854530Y-119807499D01*
X202093339Y-119568690D01*
X202280970Y-119287880D01*
X202410213Y-118975861D01*
X202476100Y-118644624D01*
X202476100Y-118306896D01*
X211543900Y-118306896D01*
X211543900Y-118644624D01*
X211609787Y-118975861D01*
X211739030Y-119287880D01*
X211926661Y-119568690D01*
X212165470Y-119807499D01*
X212446280Y-119995130D01*
X212758299Y-120124373D01*
X213089536Y-120190260D01*
X213427264Y-120190260D01*
X213758501Y-120124373D01*
X214070520Y-119995130D01*
X214351330Y-119807499D01*
X214590139Y-119568690D01*
X214777770Y-119287880D01*
X214830792Y-119159872D01*
X227635000Y-119159872D01*
X227635000Y-119600128D01*
X227720890Y-120031925D01*
X227889369Y-120438669D01*
X228133962Y-120804729D01*
X228445271Y-121116038D01*
X228811331Y-121360631D01*
X229218075Y-121529110D01*
X229649872Y-121615000D01*
X230090128Y-121615000D01*
X230521925Y-121529110D01*
X230928669Y-121360631D01*
X231294729Y-121116038D01*
X231606038Y-120804729D01*
X231850631Y-120438669D01*
X232019110Y-120031925D01*
X232105000Y-119600128D01*
X232105000Y-119159872D01*
X232019110Y-118728075D01*
X231850631Y-118321331D01*
X231606038Y-117955271D01*
X231294729Y-117643962D01*
X230928669Y-117399369D01*
X230521925Y-117230890D01*
X230090128Y-117145000D01*
X229649872Y-117145000D01*
X229218075Y-117230890D01*
X228811331Y-117399369D01*
X228445271Y-117643962D01*
X228133962Y-117955271D01*
X227889369Y-118321331D01*
X227720890Y-118728075D01*
X227635000Y-119159872D01*
X214830792Y-119159872D01*
X214907013Y-118975861D01*
X214972900Y-118644624D01*
X214972900Y-118306896D01*
X214907013Y-117975659D01*
X214777770Y-117663640D01*
X214590139Y-117382830D01*
X214351330Y-117144021D01*
X214070520Y-116956390D01*
X213758501Y-116827147D01*
X213427264Y-116761260D01*
X213089536Y-116761260D01*
X212758299Y-116827147D01*
X212446280Y-116956390D01*
X212165470Y-117144021D01*
X211926661Y-117382830D01*
X211739030Y-117663640D01*
X211609787Y-117975659D01*
X211543900Y-118306896D01*
X202476100Y-118306896D01*
X202410213Y-117975659D01*
X202280970Y-117663640D01*
X202093339Y-117382830D01*
X201854530Y-117144021D01*
X201573720Y-116956390D01*
X201261701Y-116827147D01*
X200930464Y-116761260D01*
X200592736Y-116761260D01*
X200261499Y-116827147D01*
X199949480Y-116956390D01*
X199668670Y-117144021D01*
X199429861Y-117382830D01*
X199242230Y-117663640D01*
X199112987Y-117975659D01*
X199047100Y-118306896D01*
X197167500Y-118306896D01*
X197167500Y-118294196D01*
X197101613Y-117962959D01*
X196972370Y-117650940D01*
X196784739Y-117370130D01*
X196545930Y-117131321D01*
X196265120Y-116943690D01*
X195953101Y-116814447D01*
X195621864Y-116748560D01*
X195284136Y-116748560D01*
X194952899Y-116814447D01*
X194640880Y-116943690D01*
X194360070Y-117131321D01*
X194121261Y-117370130D01*
X193933630Y-117650940D01*
X193804387Y-117962959D01*
X193738500Y-118294196D01*
X184670700Y-118294196D01*
X184604813Y-117962959D01*
X184475570Y-117650940D01*
X184287939Y-117370130D01*
X184049130Y-117131321D01*
X183768320Y-116943690D01*
X183456301Y-116814447D01*
X183125064Y-116748560D01*
X182787336Y-116748560D01*
X182456099Y-116814447D01*
X182144080Y-116943690D01*
X181863270Y-117131321D01*
X181624461Y-117370130D01*
X181436830Y-117650940D01*
X181307587Y-117962959D01*
X181241700Y-118294196D01*
X179410374Y-118294196D01*
X179347013Y-117975659D01*
X179217770Y-117663640D01*
X179030139Y-117382830D01*
X178791330Y-117144021D01*
X178510520Y-116956390D01*
X178198501Y-116827147D01*
X177867264Y-116761260D01*
X177529536Y-116761260D01*
X177198299Y-116827147D01*
X176886280Y-116956390D01*
X176605470Y-117144021D01*
X176366661Y-117382830D01*
X176179030Y-117663640D01*
X176049787Y-117975659D01*
X175983900Y-118306896D01*
X166916100Y-118306896D01*
X166850213Y-117975659D01*
X166720970Y-117663640D01*
X166533339Y-117382830D01*
X166294530Y-117144021D01*
X166013720Y-116956390D01*
X165701701Y-116827147D01*
X165370464Y-116761260D01*
X165032736Y-116761260D01*
X164701499Y-116827147D01*
X164389480Y-116956390D01*
X164108670Y-117144021D01*
X163869861Y-117382830D01*
X163682230Y-117663640D01*
X163552987Y-117975659D01*
X163487100Y-118306896D01*
X161632900Y-118306896D01*
X161632900Y-118281496D01*
X161567013Y-117950259D01*
X161437770Y-117638240D01*
X161250139Y-117357430D01*
X161011330Y-117118621D01*
X160730520Y-116930990D01*
X160418501Y-116801747D01*
X160087264Y-116735860D01*
X159749536Y-116735860D01*
X159418299Y-116801747D01*
X159106280Y-116930990D01*
X158825470Y-117118621D01*
X158586661Y-117357430D01*
X158399030Y-117638240D01*
X158269787Y-117950259D01*
X158203900Y-118281496D01*
X149136100Y-118281496D01*
X149070213Y-117950259D01*
X148940970Y-117638240D01*
X148753339Y-117357430D01*
X148514530Y-117118621D01*
X148233720Y-116930990D01*
X147921701Y-116801747D01*
X147590464Y-116735860D01*
X147252736Y-116735860D01*
X146921499Y-116801747D01*
X146609480Y-116930990D01*
X146328670Y-117118621D01*
X146089861Y-117357430D01*
X145902230Y-117638240D01*
X145772987Y-117950259D01*
X145707100Y-118281496D01*
X127684015Y-118281496D01*
X127466038Y-117955271D01*
X127154729Y-117643962D01*
X126788669Y-117399369D01*
X126381925Y-117230890D01*
X125950128Y-117145000D01*
X125509872Y-117145000D01*
X125078075Y-117230890D01*
X124671331Y-117399369D01*
X124305271Y-117643962D01*
X123993962Y-117955271D01*
X123749369Y-118321331D01*
X123580890Y-118728075D01*
X123495000Y-119159872D01*
X121310000Y-119159872D01*
X121310000Y-113282776D01*
X145707100Y-113282776D01*
X145707100Y-113620504D01*
X145772987Y-113951741D01*
X145902230Y-114263760D01*
X146089861Y-114544570D01*
X146328670Y-114783379D01*
X146609480Y-114971010D01*
X146921499Y-115100253D01*
X147252736Y-115166140D01*
X147590464Y-115166140D01*
X147921701Y-115100253D01*
X148233720Y-114971010D01*
X148514530Y-114783379D01*
X148654171Y-114643738D01*
X158905907Y-114643738D01*
X159011266Y-114916268D01*
X159314431Y-115065099D01*
X159640807Y-115151925D01*
X159977850Y-115173410D01*
X160312608Y-115128728D01*
X160632217Y-115019597D01*
X160825534Y-114916268D01*
X160930893Y-114643738D01*
X159918400Y-113631245D01*
X158905907Y-114643738D01*
X148654171Y-114643738D01*
X148753339Y-114544570D01*
X148940970Y-114263760D01*
X149070213Y-113951741D01*
X149136100Y-113620504D01*
X149136100Y-113511090D01*
X158196630Y-113511090D01*
X158241312Y-113845848D01*
X158350443Y-114165457D01*
X158453772Y-114358774D01*
X158726302Y-114464133D01*
X159738795Y-113451640D01*
X160098005Y-113451640D01*
X161110498Y-114464133D01*
X161383028Y-114358774D01*
X161531859Y-114055609D01*
X161618685Y-113729233D01*
X161640170Y-113392190D01*
X161628957Y-113308176D01*
X163487100Y-113308176D01*
X163487100Y-113645904D01*
X163552987Y-113977141D01*
X163682230Y-114289160D01*
X163869861Y-114569970D01*
X164108670Y-114808779D01*
X164389480Y-114996410D01*
X164701499Y-115125653D01*
X165032736Y-115191540D01*
X165370464Y-115191540D01*
X165701701Y-115125653D01*
X166013720Y-114996410D01*
X166294530Y-114808779D01*
X166434171Y-114669138D01*
X176685907Y-114669138D01*
X176791266Y-114941668D01*
X177094431Y-115090499D01*
X177420807Y-115177325D01*
X177757850Y-115198810D01*
X178092608Y-115154128D01*
X178412217Y-115044997D01*
X178605534Y-114941668D01*
X178710893Y-114669138D01*
X177698400Y-113656645D01*
X176685907Y-114669138D01*
X166434171Y-114669138D01*
X166533339Y-114569970D01*
X166720970Y-114289160D01*
X166850213Y-113977141D01*
X166916100Y-113645904D01*
X166916100Y-113536490D01*
X175976630Y-113536490D01*
X176021312Y-113871248D01*
X176130443Y-114190857D01*
X176233772Y-114384174D01*
X176506302Y-114489533D01*
X177518795Y-113477040D01*
X177878005Y-113477040D01*
X178890498Y-114489533D01*
X179163028Y-114384174D01*
X179311859Y-114081009D01*
X179398685Y-113754633D01*
X179420170Y-113417590D01*
X179403871Y-113295476D01*
X181241700Y-113295476D01*
X181241700Y-113633204D01*
X181307587Y-113964441D01*
X181436830Y-114276460D01*
X181624461Y-114557270D01*
X181863270Y-114796079D01*
X182144080Y-114983710D01*
X182456099Y-115112953D01*
X182787336Y-115178840D01*
X183125064Y-115178840D01*
X183456301Y-115112953D01*
X183768320Y-114983710D01*
X184049130Y-114796079D01*
X184188771Y-114656438D01*
X194440507Y-114656438D01*
X194545866Y-114928968D01*
X194849031Y-115077799D01*
X195175407Y-115164625D01*
X195512450Y-115186110D01*
X195847208Y-115141428D01*
X196166817Y-115032297D01*
X196360134Y-114928968D01*
X196465493Y-114656438D01*
X195453000Y-113643945D01*
X194440507Y-114656438D01*
X184188771Y-114656438D01*
X184287939Y-114557270D01*
X184475570Y-114276460D01*
X184604813Y-113964441D01*
X184670700Y-113633204D01*
X184670700Y-113523790D01*
X193731230Y-113523790D01*
X193775912Y-113858548D01*
X193885043Y-114178157D01*
X193988372Y-114371474D01*
X194260902Y-114476833D01*
X195273395Y-113464340D01*
X195632605Y-113464340D01*
X196645098Y-114476833D01*
X196917628Y-114371474D01*
X197066459Y-114068309D01*
X197153285Y-113741933D01*
X197174770Y-113404890D01*
X197161862Y-113308176D01*
X199047100Y-113308176D01*
X199047100Y-113645904D01*
X199112987Y-113977141D01*
X199242230Y-114289160D01*
X199429861Y-114569970D01*
X199668670Y-114808779D01*
X199949480Y-114996410D01*
X200261499Y-115125653D01*
X200592736Y-115191540D01*
X200930464Y-115191540D01*
X201261701Y-115125653D01*
X201573720Y-114996410D01*
X201854530Y-114808779D01*
X201994171Y-114669138D01*
X212245907Y-114669138D01*
X212351266Y-114941668D01*
X212654431Y-115090499D01*
X212980807Y-115177325D01*
X213317850Y-115198810D01*
X213652608Y-115154128D01*
X213972217Y-115044997D01*
X214165534Y-114941668D01*
X214270893Y-114669138D01*
X213258400Y-113656645D01*
X212245907Y-114669138D01*
X201994171Y-114669138D01*
X202093339Y-114569970D01*
X202280970Y-114289160D01*
X202410213Y-113977141D01*
X202476100Y-113645904D01*
X202476100Y-113536490D01*
X211536630Y-113536490D01*
X211581312Y-113871248D01*
X211690443Y-114190857D01*
X211793772Y-114384174D01*
X212066302Y-114489533D01*
X213078795Y-113477040D01*
X213438005Y-113477040D01*
X214450498Y-114489533D01*
X214723028Y-114384174D01*
X214871859Y-114081009D01*
X214958685Y-113754633D01*
X214980170Y-113417590D01*
X214935488Y-113082832D01*
X214826357Y-112763223D01*
X214723028Y-112569906D01*
X214450498Y-112464547D01*
X213438005Y-113477040D01*
X213078795Y-113477040D01*
X212066302Y-112464547D01*
X211793772Y-112569906D01*
X211644941Y-112873071D01*
X211558115Y-113199447D01*
X211536630Y-113536490D01*
X202476100Y-113536490D01*
X202476100Y-113308176D01*
X202410213Y-112976939D01*
X202280970Y-112664920D01*
X202093339Y-112384110D01*
X201854530Y-112145301D01*
X201573720Y-111957670D01*
X201261701Y-111828427D01*
X200930464Y-111762540D01*
X200592736Y-111762540D01*
X200261499Y-111828427D01*
X199949480Y-111957670D01*
X199668670Y-112145301D01*
X199429861Y-112384110D01*
X199242230Y-112664920D01*
X199112987Y-112976939D01*
X199047100Y-113308176D01*
X197161862Y-113308176D01*
X197130088Y-113070132D01*
X197020957Y-112750523D01*
X196917628Y-112557206D01*
X196645098Y-112451847D01*
X195632605Y-113464340D01*
X195273395Y-113464340D01*
X194260902Y-112451847D01*
X193988372Y-112557206D01*
X193839541Y-112860371D01*
X193752715Y-113186747D01*
X193731230Y-113523790D01*
X184670700Y-113523790D01*
X184670700Y-113295476D01*
X184604813Y-112964239D01*
X184475570Y-112652220D01*
X184287939Y-112371410D01*
X184049130Y-112132601D01*
X183768320Y-111944970D01*
X183456301Y-111815727D01*
X183125064Y-111749840D01*
X182787336Y-111749840D01*
X182456099Y-111815727D01*
X182144080Y-111944970D01*
X181863270Y-112132601D01*
X181624461Y-112371410D01*
X181436830Y-112652220D01*
X181307587Y-112964239D01*
X181241700Y-113295476D01*
X179403871Y-113295476D01*
X179375488Y-113082832D01*
X179266357Y-112763223D01*
X179163028Y-112569906D01*
X178890498Y-112464547D01*
X177878005Y-113477040D01*
X177518795Y-113477040D01*
X176506302Y-112464547D01*
X176233772Y-112569906D01*
X176084941Y-112873071D01*
X175998115Y-113199447D01*
X175976630Y-113536490D01*
X166916100Y-113536490D01*
X166916100Y-113308176D01*
X166850213Y-112976939D01*
X166720970Y-112664920D01*
X166533339Y-112384110D01*
X166294530Y-112145301D01*
X166013720Y-111957670D01*
X165701701Y-111828427D01*
X165370464Y-111762540D01*
X165032736Y-111762540D01*
X164701499Y-111828427D01*
X164389480Y-111957670D01*
X164108670Y-112145301D01*
X163869861Y-112384110D01*
X163682230Y-112664920D01*
X163552987Y-112976939D01*
X163487100Y-113308176D01*
X161628957Y-113308176D01*
X161595488Y-113057432D01*
X161486357Y-112737823D01*
X161383028Y-112544506D01*
X161110498Y-112439147D01*
X160098005Y-113451640D01*
X159738795Y-113451640D01*
X158726302Y-112439147D01*
X158453772Y-112544506D01*
X158304941Y-112847671D01*
X158218115Y-113174047D01*
X158196630Y-113511090D01*
X149136100Y-113511090D01*
X149136100Y-113282776D01*
X149070213Y-112951539D01*
X148940970Y-112639520D01*
X148753339Y-112358710D01*
X148514530Y-112119901D01*
X148233720Y-111932270D01*
X147921701Y-111803027D01*
X147590464Y-111737140D01*
X147252736Y-111737140D01*
X146921499Y-111803027D01*
X146609480Y-111932270D01*
X146328670Y-112119901D01*
X146089861Y-112358710D01*
X145902230Y-112639520D01*
X145772987Y-112951539D01*
X145707100Y-113282776D01*
X121310000Y-113282776D01*
X121310000Y-109057122D01*
X152196800Y-109057122D01*
X152196800Y-109347318D01*
X152253414Y-109631937D01*
X152364467Y-109900042D01*
X152525691Y-110141330D01*
X152730890Y-110346529D01*
X152741379Y-110353538D01*
X152556271Y-110538646D01*
X152399356Y-110773487D01*
X152291271Y-111034427D01*
X152236170Y-111311440D01*
X152236170Y-111593880D01*
X152291271Y-111870893D01*
X152399356Y-112131833D01*
X152556271Y-112366674D01*
X152755986Y-112566389D01*
X152990827Y-112723304D01*
X153251767Y-112831389D01*
X153528780Y-112886490D01*
X153811220Y-112886490D01*
X154088233Y-112831389D01*
X154349173Y-112723304D01*
X154584014Y-112566389D01*
X154783729Y-112366674D01*
X154855311Y-112259542D01*
X158905907Y-112259542D01*
X159918400Y-113272035D01*
X160930893Y-112259542D01*
X160825534Y-111987012D01*
X160522369Y-111838181D01*
X160195993Y-111751355D01*
X159858950Y-111729870D01*
X159524192Y-111774552D01*
X159204583Y-111883683D01*
X159011266Y-111987012D01*
X158905907Y-112259542D01*
X154855311Y-112259542D01*
X154940644Y-112131833D01*
X155048729Y-111870893D01*
X155103830Y-111593880D01*
X155103830Y-111311440D01*
X155048729Y-111034427D01*
X154940644Y-110773487D01*
X154783729Y-110538646D01*
X154598621Y-110353538D01*
X154609110Y-110346529D01*
X154814309Y-110141330D01*
X154975533Y-109900042D01*
X155086586Y-109631937D01*
X155143200Y-109347318D01*
X155143200Y-109082522D01*
X169976800Y-109082522D01*
X169976800Y-109372718D01*
X170033414Y-109657337D01*
X170144467Y-109925442D01*
X170305691Y-110166730D01*
X170510890Y-110371929D01*
X170521379Y-110378938D01*
X170336271Y-110564046D01*
X170179356Y-110798887D01*
X170071271Y-111059827D01*
X170016170Y-111336840D01*
X170016170Y-111619280D01*
X170071271Y-111896293D01*
X170179356Y-112157233D01*
X170336271Y-112392074D01*
X170535986Y-112591789D01*
X170770827Y-112748704D01*
X171031767Y-112856789D01*
X171308780Y-112911890D01*
X171591220Y-112911890D01*
X171868233Y-112856789D01*
X172129173Y-112748704D01*
X172364014Y-112591789D01*
X172563729Y-112392074D01*
X172635311Y-112284942D01*
X176685907Y-112284942D01*
X177698400Y-113297435D01*
X178710893Y-112284942D01*
X178605534Y-112012412D01*
X178302369Y-111863581D01*
X177975993Y-111776755D01*
X177638950Y-111755270D01*
X177304192Y-111799952D01*
X176984583Y-111909083D01*
X176791266Y-112012412D01*
X176685907Y-112284942D01*
X172635311Y-112284942D01*
X172720644Y-112157233D01*
X172828729Y-111896293D01*
X172883830Y-111619280D01*
X172883830Y-111336840D01*
X172828729Y-111059827D01*
X172720644Y-110798887D01*
X172563729Y-110564046D01*
X172378621Y-110378938D01*
X172389110Y-110371929D01*
X172594309Y-110166730D01*
X172755533Y-109925442D01*
X172866586Y-109657337D01*
X172923200Y-109372718D01*
X172923200Y-109082522D01*
X172920674Y-109069822D01*
X187731400Y-109069822D01*
X187731400Y-109360018D01*
X187788014Y-109644637D01*
X187899067Y-109912742D01*
X188060291Y-110154030D01*
X188265490Y-110359229D01*
X188275979Y-110366238D01*
X188090871Y-110551346D01*
X187933956Y-110786187D01*
X187825871Y-111047127D01*
X187770770Y-111324140D01*
X187770770Y-111606580D01*
X187825871Y-111883593D01*
X187933956Y-112144533D01*
X188090871Y-112379374D01*
X188290586Y-112579089D01*
X188525427Y-112736004D01*
X188786367Y-112844089D01*
X189063380Y-112899190D01*
X189345820Y-112899190D01*
X189622833Y-112844089D01*
X189883773Y-112736004D01*
X190118614Y-112579089D01*
X190318329Y-112379374D01*
X190389911Y-112272242D01*
X194440507Y-112272242D01*
X195453000Y-113284735D01*
X196465493Y-112272242D01*
X196360134Y-111999712D01*
X196056969Y-111850881D01*
X195730593Y-111764055D01*
X195393550Y-111742570D01*
X195058792Y-111787252D01*
X194739183Y-111896383D01*
X194545866Y-111999712D01*
X194440507Y-112272242D01*
X190389911Y-112272242D01*
X190475244Y-112144533D01*
X190583329Y-111883593D01*
X190638430Y-111606580D01*
X190638430Y-111324140D01*
X190583329Y-111047127D01*
X190475244Y-110786187D01*
X190318329Y-110551346D01*
X190133221Y-110366238D01*
X190143710Y-110359229D01*
X190348909Y-110154030D01*
X190510133Y-109912742D01*
X190621186Y-109644637D01*
X190677800Y-109360018D01*
X190677800Y-109082522D01*
X205536800Y-109082522D01*
X205536800Y-109372718D01*
X205593414Y-109657337D01*
X205704467Y-109925442D01*
X205865691Y-110166730D01*
X206070890Y-110371929D01*
X206081379Y-110378938D01*
X205896271Y-110564046D01*
X205739356Y-110798887D01*
X205631271Y-111059827D01*
X205576170Y-111336840D01*
X205576170Y-111619280D01*
X205631271Y-111896293D01*
X205739356Y-112157233D01*
X205896271Y-112392074D01*
X206095986Y-112591789D01*
X206330827Y-112748704D01*
X206591767Y-112856789D01*
X206868780Y-112911890D01*
X207151220Y-112911890D01*
X207428233Y-112856789D01*
X207689173Y-112748704D01*
X207924014Y-112591789D01*
X208123729Y-112392074D01*
X208195311Y-112284942D01*
X212245907Y-112284942D01*
X213258400Y-113297435D01*
X214270893Y-112284942D01*
X214165534Y-112012412D01*
X213862369Y-111863581D01*
X213535993Y-111776755D01*
X213198950Y-111755270D01*
X212864192Y-111799952D01*
X212544583Y-111909083D01*
X212351266Y-112012412D01*
X212245907Y-112284942D01*
X208195311Y-112284942D01*
X208280644Y-112157233D01*
X208388729Y-111896293D01*
X208443830Y-111619280D01*
X208443830Y-111336840D01*
X208388729Y-111059827D01*
X208280644Y-110798887D01*
X208123729Y-110564046D01*
X207938621Y-110378938D01*
X207949110Y-110371929D01*
X208154309Y-110166730D01*
X208315533Y-109925442D01*
X208426586Y-109657337D01*
X208483200Y-109372718D01*
X208483200Y-109082522D01*
X208426586Y-108797903D01*
X208315533Y-108529798D01*
X208154309Y-108288510D01*
X207949110Y-108083311D01*
X207707822Y-107922087D01*
X207439717Y-107811034D01*
X207155098Y-107754420D01*
X206864902Y-107754420D01*
X206580283Y-107811034D01*
X206312178Y-107922087D01*
X206070890Y-108083311D01*
X205865691Y-108288510D01*
X205704467Y-108529798D01*
X205593414Y-108797903D01*
X205536800Y-109082522D01*
X190677800Y-109082522D01*
X190677800Y-109069822D01*
X190621186Y-108785203D01*
X190510133Y-108517098D01*
X190348909Y-108275810D01*
X190143710Y-108070611D01*
X189902422Y-107909387D01*
X189634317Y-107798334D01*
X189349698Y-107741720D01*
X189059502Y-107741720D01*
X188774883Y-107798334D01*
X188506778Y-107909387D01*
X188265490Y-108070611D01*
X188060291Y-108275810D01*
X187899067Y-108517098D01*
X187788014Y-108785203D01*
X187731400Y-109069822D01*
X172920674Y-109069822D01*
X172866586Y-108797903D01*
X172755533Y-108529798D01*
X172594309Y-108288510D01*
X172389110Y-108083311D01*
X172147822Y-107922087D01*
X171879717Y-107811034D01*
X171595098Y-107754420D01*
X171304902Y-107754420D01*
X171020283Y-107811034D01*
X170752178Y-107922087D01*
X170510890Y-108083311D01*
X170305691Y-108288510D01*
X170144467Y-108529798D01*
X170033414Y-108797903D01*
X169976800Y-109082522D01*
X155143200Y-109082522D01*
X155143200Y-109057122D01*
X155086586Y-108772503D01*
X154975533Y-108504398D01*
X154814309Y-108263110D01*
X154609110Y-108057911D01*
X154367822Y-107896687D01*
X154099717Y-107785634D01*
X153815098Y-107729020D01*
X153524902Y-107729020D01*
X153240283Y-107785634D01*
X152972178Y-107896687D01*
X152730890Y-108057911D01*
X152525691Y-108263110D01*
X152364467Y-108504398D01*
X152253414Y-108772503D01*
X152196800Y-109057122D01*
X121310000Y-109057122D01*
X121310000Y-106398021D01*
X129650000Y-106398021D01*
X129650000Y-106961978D01*
X129666785Y-107132399D01*
X129733115Y-107351059D01*
X129840829Y-107552578D01*
X129985788Y-107729212D01*
X130162421Y-107874171D01*
X130363940Y-107981885D01*
X130582600Y-108048215D01*
X130810000Y-108070612D01*
X131037399Y-108048215D01*
X131256059Y-107981885D01*
X131445000Y-107880894D01*
X131633940Y-107981885D01*
X131852600Y-108048215D01*
X132080000Y-108070612D01*
X132307399Y-108048215D01*
X132516098Y-107984907D01*
X132580820Y-108019502D01*
X132700518Y-108055812D01*
X132825000Y-108068072D01*
X133875000Y-108068072D01*
X133999482Y-108055812D01*
X134119180Y-108019502D01*
X134229494Y-107960537D01*
X134326185Y-107881185D01*
X134405537Y-107784494D01*
X134464502Y-107674180D01*
X134500812Y-107554482D01*
X134513072Y-107430000D01*
X134513072Y-105930000D01*
X134500812Y-105805518D01*
X134464502Y-105685820D01*
X134405537Y-105575506D01*
X134326185Y-105478815D01*
X134229494Y-105399463D01*
X134119180Y-105340498D01*
X133999482Y-105304188D01*
X133875000Y-105291928D01*
X132825000Y-105291928D01*
X132700518Y-105304188D01*
X132580820Y-105340498D01*
X132516098Y-105375093D01*
X132307400Y-105311785D01*
X132080000Y-105289388D01*
X131852601Y-105311785D01*
X131633941Y-105378115D01*
X131445000Y-105479106D01*
X131256060Y-105378115D01*
X131037400Y-105311785D01*
X130810000Y-105289388D01*
X130582601Y-105311785D01*
X130363941Y-105378115D01*
X130162422Y-105485829D01*
X129985789Y-105630788D01*
X129840830Y-105807421D01*
X129733115Y-106008940D01*
X129666785Y-106227600D01*
X129650000Y-106398021D01*
X121310000Y-106398021D01*
X121310000Y-104681872D01*
X144323000Y-104681872D01*
X144323000Y-105122128D01*
X144408890Y-105553925D01*
X144577369Y-105960669D01*
X144821962Y-106326729D01*
X145133271Y-106638038D01*
X145499331Y-106882631D01*
X145906075Y-107051110D01*
X146337872Y-107137000D01*
X146778128Y-107137000D01*
X147209925Y-107051110D01*
X147616669Y-106882631D01*
X147982729Y-106638038D01*
X148294038Y-106326729D01*
X148538631Y-105960669D01*
X148707110Y-105553925D01*
X148793000Y-105122128D01*
X148793000Y-104681872D01*
X148707110Y-104250075D01*
X148538631Y-103843331D01*
X148294038Y-103477271D01*
X147982729Y-103165962D01*
X147616669Y-102921369D01*
X147209925Y-102752890D01*
X146778128Y-102667000D01*
X146337872Y-102667000D01*
X145906075Y-102752890D01*
X145499331Y-102921369D01*
X145133271Y-103165962D01*
X144821962Y-103477271D01*
X144577369Y-103843331D01*
X144408890Y-104250075D01*
X144323000Y-104681872D01*
X121310000Y-104681872D01*
X121310000Y-77314896D01*
X122885200Y-77314896D01*
X122885200Y-77625104D01*
X122945718Y-77929352D01*
X123064430Y-78215948D01*
X123236773Y-78473877D01*
X123456123Y-78693227D01*
X123526124Y-78740000D01*
X123456123Y-78786773D01*
X123236773Y-79006123D01*
X123064430Y-79264052D01*
X122945718Y-79550648D01*
X122885200Y-79854896D01*
X122885200Y-80165104D01*
X122945718Y-80469352D01*
X123064430Y-80755948D01*
X123236773Y-81013877D01*
X123456123Y-81233227D01*
X123526124Y-81280000D01*
X123456123Y-81326773D01*
X123236773Y-81546123D01*
X123064430Y-81804052D01*
X122945718Y-82090648D01*
X122885200Y-82394896D01*
X122885200Y-82705104D01*
X122945718Y-83009352D01*
X123064430Y-83295948D01*
X123236773Y-83553877D01*
X123456123Y-83773227D01*
X123526124Y-83820000D01*
X123456123Y-83866773D01*
X123236773Y-84086123D01*
X123064430Y-84344052D01*
X122945718Y-84630648D01*
X122885200Y-84934896D01*
X122885200Y-85245104D01*
X122945718Y-85549352D01*
X123064430Y-85835948D01*
X123236773Y-86093877D01*
X123456123Y-86313227D01*
X123526124Y-86360000D01*
X123456123Y-86406773D01*
X123236773Y-86626123D01*
X123064430Y-86884052D01*
X122945718Y-87170648D01*
X122885200Y-87474896D01*
X122885200Y-87785104D01*
X122945718Y-88089352D01*
X123064430Y-88375948D01*
X123236773Y-88633877D01*
X123456123Y-88853227D01*
X123526124Y-88900000D01*
X123456123Y-88946773D01*
X123236773Y-89166123D01*
X123064430Y-89424052D01*
X122945718Y-89710648D01*
X122885200Y-90014896D01*
X122885200Y-90325104D01*
X122945718Y-90629352D01*
X123064430Y-90915948D01*
X123236773Y-91173877D01*
X123456123Y-91393227D01*
X123526124Y-91440000D01*
X123456123Y-91486773D01*
X123236773Y-91706123D01*
X123064430Y-91964052D01*
X122945718Y-92250648D01*
X122885200Y-92554896D01*
X122885200Y-92865104D01*
X122945718Y-93169352D01*
X123064430Y-93455948D01*
X123236773Y-93713877D01*
X123456123Y-93933227D01*
X123526124Y-93980000D01*
X123456123Y-94026773D01*
X123236773Y-94246123D01*
X123064430Y-94504052D01*
X122945718Y-94790648D01*
X122885200Y-95094896D01*
X122885200Y-95405104D01*
X122945718Y-95709352D01*
X123064430Y-95995948D01*
X123236773Y-96253877D01*
X123456123Y-96473227D01*
X123526124Y-96520000D01*
X123456123Y-96566773D01*
X123236773Y-96786123D01*
X123064430Y-97044052D01*
X122945718Y-97330648D01*
X122885200Y-97634896D01*
X122885200Y-97945104D01*
X122945718Y-98249352D01*
X123064430Y-98535948D01*
X123236773Y-98793877D01*
X123456123Y-99013227D01*
X123526124Y-99060000D01*
X123456123Y-99106773D01*
X123236773Y-99326123D01*
X123064430Y-99584052D01*
X122945718Y-99870648D01*
X122885200Y-100174896D01*
X122885200Y-100485104D01*
X122945718Y-100789352D01*
X123064430Y-101075948D01*
X123236773Y-101333877D01*
X123456123Y-101553227D01*
X123714052Y-101725570D01*
X124000648Y-101844282D01*
X124304896Y-101904800D01*
X124615104Y-101904800D01*
X124919352Y-101844282D01*
X125205948Y-101725570D01*
X125463877Y-101553227D01*
X125683227Y-101333877D01*
X125855570Y-101075948D01*
X125974282Y-100789352D01*
X126034800Y-100485104D01*
X126034800Y-100174896D01*
X125974282Y-99870648D01*
X125855570Y-99584052D01*
X125683227Y-99326123D01*
X125463877Y-99106773D01*
X125393876Y-99060000D01*
X125463877Y-99013227D01*
X125683227Y-98793877D01*
X125855570Y-98535948D01*
X125974282Y-98249352D01*
X126034800Y-97945104D01*
X126034800Y-97634896D01*
X125974282Y-97330648D01*
X125855570Y-97044052D01*
X125683227Y-96786123D01*
X125463877Y-96566773D01*
X125393876Y-96520000D01*
X125463877Y-96473227D01*
X125683227Y-96253877D01*
X125855570Y-95995948D01*
X125974282Y-95709352D01*
X126034800Y-95405104D01*
X126034800Y-95094896D01*
X125974282Y-94790648D01*
X125855570Y-94504052D01*
X125683227Y-94246123D01*
X125463877Y-94026773D01*
X125393876Y-93980000D01*
X125463877Y-93933227D01*
X125683227Y-93713877D01*
X125855570Y-93455948D01*
X125974282Y-93169352D01*
X126034800Y-92865104D01*
X126034800Y-92554896D01*
X125974282Y-92250648D01*
X125855570Y-91964052D01*
X125683227Y-91706123D01*
X125463877Y-91486773D01*
X125393876Y-91440000D01*
X125463877Y-91393227D01*
X125683227Y-91173877D01*
X125855570Y-90915948D01*
X125974282Y-90629352D01*
X126034800Y-90325104D01*
X126034800Y-90014896D01*
X125974282Y-89710648D01*
X125855570Y-89424052D01*
X125683227Y-89166123D01*
X125463877Y-88946773D01*
X125393876Y-88900000D01*
X125463877Y-88853227D01*
X125683227Y-88633877D01*
X125855570Y-88375948D01*
X125974282Y-88089352D01*
X126034800Y-87785104D01*
X126034800Y-87474896D01*
X125974282Y-87170648D01*
X125855570Y-86884052D01*
X125683227Y-86626123D01*
X125463877Y-86406773D01*
X125393876Y-86360000D01*
X125463877Y-86313227D01*
X125683227Y-86093877D01*
X125855570Y-85835948D01*
X125974282Y-85549352D01*
X126034800Y-85245104D01*
X126034800Y-84934896D01*
X125974282Y-84630648D01*
X125855570Y-84344052D01*
X125683227Y-84086123D01*
X125463877Y-83866773D01*
X125393876Y-83820000D01*
X125463877Y-83773227D01*
X125683227Y-83553877D01*
X125855570Y-83295948D01*
X125974282Y-83009352D01*
X126034800Y-82705104D01*
X126034800Y-82394896D01*
X125974282Y-82090648D01*
X125855570Y-81804052D01*
X125683227Y-81546123D01*
X125463877Y-81326773D01*
X125393876Y-81280000D01*
X125463877Y-81233227D01*
X125683227Y-81013877D01*
X125855570Y-80755948D01*
X125974282Y-80469352D01*
X126034800Y-80165104D01*
X126034800Y-79854896D01*
X125974282Y-79550648D01*
X125855570Y-79264052D01*
X125683227Y-79006123D01*
X125463877Y-78786773D01*
X125393876Y-78740000D01*
X125463877Y-78693227D01*
X125683227Y-78473877D01*
X125855570Y-78215948D01*
X125974282Y-77929352D01*
X126034800Y-77625104D01*
X126034800Y-77314896D01*
X125974282Y-77010648D01*
X125855570Y-76724052D01*
X125683227Y-76466123D01*
X125463877Y-76246773D01*
X125327286Y-76155505D01*
X125372871Y-76022476D01*
X124460000Y-75109605D01*
X123547129Y-76022476D01*
X123592714Y-76155505D01*
X123456123Y-76246773D01*
X123236773Y-76466123D01*
X123064430Y-76724052D01*
X122945718Y-77010648D01*
X122885200Y-77314896D01*
X121310000Y-77314896D01*
X121310000Y-74994977D01*
X122878916Y-74994977D01*
X122921973Y-75302184D01*
X123024135Y-75595086D01*
X123109277Y-75754377D01*
X123367524Y-75842871D01*
X124280395Y-74930000D01*
X124639605Y-74930000D01*
X125552476Y-75842871D01*
X125810723Y-75754377D01*
X125945597Y-75475024D01*
X126023381Y-75174725D01*
X126041084Y-74865023D01*
X125998027Y-74557816D01*
X125895865Y-74264914D01*
X125810723Y-74105623D01*
X125552476Y-74017129D01*
X124639605Y-74930000D01*
X124280395Y-74930000D01*
X123367524Y-74017129D01*
X123109277Y-74105623D01*
X122974403Y-74384976D01*
X122896619Y-74685275D01*
X122878916Y-74994977D01*
X121310000Y-74994977D01*
X121310000Y-72234896D01*
X122885200Y-72234896D01*
X122885200Y-72545104D01*
X122945718Y-72849352D01*
X123064430Y-73135948D01*
X123236773Y-73393877D01*
X123456123Y-73613227D01*
X123592714Y-73704495D01*
X123547129Y-73837524D01*
X124460000Y-74750395D01*
X125372871Y-73837524D01*
X125327286Y-73704495D01*
X125463877Y-73613227D01*
X125683227Y-73393877D01*
X125855570Y-73135948D01*
X125974282Y-72849352D01*
X126034800Y-72545104D01*
X126034800Y-72234896D01*
X125974282Y-71930648D01*
X125855570Y-71644052D01*
X125683227Y-71386123D01*
X125463877Y-71166773D01*
X125205948Y-70994430D01*
X124919352Y-70875718D01*
X124615104Y-70815200D01*
X124304896Y-70815200D01*
X124000648Y-70875718D01*
X123714052Y-70994430D01*
X123456123Y-71166773D01*
X123236773Y-71386123D01*
X123064430Y-71644052D01*
X122945718Y-71930648D01*
X122885200Y-72234896D01*
X121310000Y-72234896D01*
X121310000Y-50579872D01*
X123495000Y-50579872D01*
X123495000Y-51020128D01*
X123580890Y-51451925D01*
X123749369Y-51858669D01*
X123993962Y-52224729D01*
X124305271Y-52536038D01*
X124671331Y-52780631D01*
X125078075Y-52949110D01*
X125509872Y-53035000D01*
X125950128Y-53035000D01*
X126381925Y-52949110D01*
X126404403Y-52939799D01*
X137671523Y-52939799D01*
X137675200Y-52977132D01*
X137675199Y-85659783D01*
X137671523Y-85697105D01*
X137675199Y-85734427D01*
X137675199Y-85734437D01*
X137686196Y-85846090D01*
X137711809Y-85930525D01*
X137729653Y-85989351D01*
X137800225Y-86121381D01*
X137840070Y-86169931D01*
X137895198Y-86237106D01*
X137924201Y-86260908D01*
X138401728Y-86738436D01*
X138304430Y-86884052D01*
X138185718Y-87170648D01*
X138125200Y-87474896D01*
X138125200Y-87785104D01*
X138185718Y-88089352D01*
X138304430Y-88375948D01*
X138476773Y-88633877D01*
X138696123Y-88853227D01*
X138766124Y-88900000D01*
X138696123Y-88946773D01*
X138476773Y-89166123D01*
X138304430Y-89424052D01*
X138185718Y-89710648D01*
X138125200Y-90014896D01*
X138125200Y-90325104D01*
X138185718Y-90629352D01*
X138304430Y-90915948D01*
X138476773Y-91173877D01*
X138696123Y-91393227D01*
X138766124Y-91440000D01*
X138696123Y-91486773D01*
X138476773Y-91706123D01*
X138304430Y-91964052D01*
X138185718Y-92250648D01*
X138125200Y-92554896D01*
X138125200Y-92865104D01*
X138185718Y-93169352D01*
X138304430Y-93455948D01*
X138476773Y-93713877D01*
X138696123Y-93933227D01*
X138766124Y-93980000D01*
X138696123Y-94026773D01*
X138476773Y-94246123D01*
X138304430Y-94504052D01*
X138185718Y-94790648D01*
X138125200Y-95094896D01*
X138125200Y-95405104D01*
X138185718Y-95709352D01*
X138304430Y-95995948D01*
X138476773Y-96253877D01*
X138696123Y-96473227D01*
X138766124Y-96520000D01*
X138696123Y-96566773D01*
X138476773Y-96786123D01*
X138304430Y-97044052D01*
X138185718Y-97330648D01*
X138125200Y-97634896D01*
X138125200Y-97945104D01*
X138185718Y-98249352D01*
X138304430Y-98535948D01*
X138476773Y-98793877D01*
X138696123Y-99013227D01*
X138766124Y-99060000D01*
X138696123Y-99106773D01*
X138476773Y-99326123D01*
X138304430Y-99584052D01*
X138185718Y-99870648D01*
X138125200Y-100174896D01*
X138125200Y-100485104D01*
X138185718Y-100789352D01*
X138304430Y-101075948D01*
X138476773Y-101333877D01*
X138696123Y-101553227D01*
X138954052Y-101725570D01*
X139240648Y-101844282D01*
X139544896Y-101904800D01*
X139855104Y-101904800D01*
X140159352Y-101844282D01*
X140445948Y-101725570D01*
X140703877Y-101553227D01*
X140923227Y-101333877D01*
X141095570Y-101075948D01*
X141214282Y-100789352D01*
X141274800Y-100485104D01*
X141274800Y-100174896D01*
X141214282Y-99870648D01*
X141095570Y-99584052D01*
X140923227Y-99326123D01*
X140703877Y-99106773D01*
X140633876Y-99060000D01*
X140703877Y-99013227D01*
X140923227Y-98793877D01*
X141095570Y-98535948D01*
X141214282Y-98249352D01*
X141274800Y-97945104D01*
X141274800Y-97634896D01*
X141214282Y-97330648D01*
X141095570Y-97044052D01*
X140923227Y-96786123D01*
X140703877Y-96566773D01*
X140633876Y-96520000D01*
X140703877Y-96473227D01*
X140923227Y-96253877D01*
X141095570Y-95995948D01*
X141214282Y-95709352D01*
X141274800Y-95405104D01*
X141274800Y-95094896D01*
X141214282Y-94790648D01*
X141095570Y-94504052D01*
X140923227Y-94246123D01*
X140703877Y-94026773D01*
X140633876Y-93980000D01*
X140703877Y-93933227D01*
X140923227Y-93713877D01*
X141095570Y-93455948D01*
X141214282Y-93169352D01*
X141274800Y-92865104D01*
X141274800Y-92554896D01*
X141214282Y-92250648D01*
X141095570Y-91964052D01*
X140923227Y-91706123D01*
X140703877Y-91486773D01*
X140633876Y-91440000D01*
X140703877Y-91393227D01*
X140923227Y-91173877D01*
X141095570Y-90915948D01*
X141214282Y-90629352D01*
X141274800Y-90325104D01*
X141274800Y-90014896D01*
X141214282Y-89710648D01*
X141095570Y-89424052D01*
X140923227Y-89166123D01*
X140703877Y-88946773D01*
X140633876Y-88900000D01*
X140703877Y-88853227D01*
X140923227Y-88633877D01*
X141095570Y-88375948D01*
X141138767Y-88271662D01*
X160205108Y-107338004D01*
X160228906Y-107367002D01*
X160257904Y-107390800D01*
X160344630Y-107461975D01*
X160476660Y-107532547D01*
X160619921Y-107576004D01*
X160731574Y-107587001D01*
X160731584Y-107587001D01*
X160768907Y-107590677D01*
X160806230Y-107587001D01*
X205555677Y-107587001D01*
X205592999Y-107590677D01*
X205630321Y-107587001D01*
X205630332Y-107587001D01*
X205741985Y-107576004D01*
X205885246Y-107532547D01*
X206017275Y-107461975D01*
X206133000Y-107367002D01*
X206156803Y-107337998D01*
X208319802Y-105175000D01*
X208381939Y-105175000D01*
X208581898Y-105135226D01*
X208770256Y-105057205D01*
X208939774Y-104943937D01*
X209083937Y-104799774D01*
X209197205Y-104630256D01*
X209275226Y-104441898D01*
X209315000Y-104241939D01*
X209315000Y-104038061D01*
X209275226Y-103838102D01*
X209197205Y-103649744D01*
X209083937Y-103480226D01*
X208939774Y-103336063D01*
X208836084Y-103266780D01*
X212596453Y-103266780D01*
X212385962Y-103477271D01*
X212141369Y-103843331D01*
X211972890Y-104250075D01*
X211887000Y-104681872D01*
X211887000Y-105122128D01*
X211972890Y-105553925D01*
X212141369Y-105960669D01*
X212385962Y-106326729D01*
X212697271Y-106638038D01*
X213063331Y-106882631D01*
X213470075Y-107051110D01*
X213901872Y-107137000D01*
X214342128Y-107137000D01*
X214773925Y-107051110D01*
X215180669Y-106882631D01*
X215546729Y-106638038D01*
X215858038Y-106326729D01*
X216102631Y-105960669D01*
X216271110Y-105553925D01*
X216357000Y-105122128D01*
X216357000Y-104681872D01*
X216271110Y-104250075D01*
X216102631Y-103843331D01*
X215858038Y-103477271D01*
X215647547Y-103266780D01*
X224796013Y-103266780D01*
X224915691Y-103445890D01*
X225120890Y-103651089D01*
X225362178Y-103812313D01*
X225630283Y-103923366D01*
X225914902Y-103979980D01*
X226205098Y-103979980D01*
X226489717Y-103923366D01*
X226757822Y-103812313D01*
X226999110Y-103651089D01*
X227204309Y-103445890D01*
X227365533Y-103204602D01*
X227476586Y-102936497D01*
X227533200Y-102651878D01*
X227533200Y-102361682D01*
X227476586Y-102077063D01*
X227365533Y-101808958D01*
X227204309Y-101567670D01*
X226999110Y-101362471D01*
X226988621Y-101355462D01*
X227173729Y-101170354D01*
X227330644Y-100935513D01*
X227438729Y-100674573D01*
X227493830Y-100397560D01*
X227493830Y-100115120D01*
X227438729Y-99838107D01*
X227330644Y-99577167D01*
X227173729Y-99342326D01*
X226974014Y-99142611D01*
X226786562Y-99017360D01*
X230767441Y-99017360D01*
X230789030Y-99069480D01*
X230976661Y-99350290D01*
X231215470Y-99589099D01*
X231496280Y-99776730D01*
X231808299Y-99905973D01*
X232139536Y-99971860D01*
X232477264Y-99971860D01*
X232808501Y-99905973D01*
X233120520Y-99776730D01*
X233401330Y-99589099D01*
X233640139Y-99350290D01*
X233827770Y-99069480D01*
X233957013Y-98757461D01*
X234022900Y-98426224D01*
X234022900Y-98088496D01*
X233957013Y-97757259D01*
X233827770Y-97445240D01*
X233640139Y-97164430D01*
X233401330Y-96925621D01*
X233120520Y-96737990D01*
X232808501Y-96608747D01*
X232477264Y-96542860D01*
X232139536Y-96542860D01*
X231808299Y-96608747D01*
X231496280Y-96737990D01*
X231215470Y-96925621D01*
X230976661Y-97164430D01*
X230789030Y-97445240D01*
X230767441Y-97497360D01*
X221927584Y-97497360D01*
X221890261Y-97493684D01*
X221852938Y-97497360D01*
X221852929Y-97497360D01*
X221741276Y-97508357D01*
X221598015Y-97551814D01*
X221465986Y-97622386D01*
X221419984Y-97660139D01*
X221330970Y-97445240D01*
X221143339Y-97164430D01*
X220904530Y-96925621D01*
X220623720Y-96737990D01*
X220311701Y-96608747D01*
X219980464Y-96542860D01*
X219642736Y-96542860D01*
X219311499Y-96608747D01*
X218999480Y-96737990D01*
X218718670Y-96925621D01*
X218479861Y-97164430D01*
X218292230Y-97445240D01*
X218162987Y-97757259D01*
X218097100Y-98088496D01*
X218097100Y-98426224D01*
X218162987Y-98757461D01*
X218222800Y-98901861D01*
X204701663Y-98901861D01*
X198889578Y-93089776D01*
X218097100Y-93089776D01*
X218097100Y-93427504D01*
X218162987Y-93758741D01*
X218292230Y-94070760D01*
X218479861Y-94351570D01*
X218718670Y-94590379D01*
X218999480Y-94778010D01*
X219311499Y-94907253D01*
X219642736Y-94973140D01*
X219980464Y-94973140D01*
X220311701Y-94907253D01*
X220623720Y-94778010D01*
X220904530Y-94590379D01*
X221044171Y-94450738D01*
X231295907Y-94450738D01*
X231401266Y-94723268D01*
X231704431Y-94872099D01*
X232030807Y-94958925D01*
X232367850Y-94980410D01*
X232702608Y-94935728D01*
X233022217Y-94826597D01*
X233215534Y-94723268D01*
X233320893Y-94450738D01*
X232308400Y-93438245D01*
X231295907Y-94450738D01*
X221044171Y-94450738D01*
X221143339Y-94351570D01*
X221330970Y-94070760D01*
X221460213Y-93758741D01*
X221526100Y-93427504D01*
X221526100Y-93318090D01*
X230586630Y-93318090D01*
X230631312Y-93652848D01*
X230740443Y-93972457D01*
X230843772Y-94165774D01*
X231116302Y-94271133D01*
X232128795Y-93258640D01*
X232488005Y-93258640D01*
X233500498Y-94271133D01*
X233773028Y-94165774D01*
X233921859Y-93862609D01*
X234008685Y-93536233D01*
X234030170Y-93199190D01*
X233985488Y-92864432D01*
X233876357Y-92544823D01*
X233773028Y-92351506D01*
X233500498Y-92246147D01*
X232488005Y-93258640D01*
X232128795Y-93258640D01*
X231116302Y-92246147D01*
X230843772Y-92351506D01*
X230694941Y-92654671D01*
X230608115Y-92981047D01*
X230586630Y-93318090D01*
X221526100Y-93318090D01*
X221526100Y-93089776D01*
X221460213Y-92758539D01*
X221330970Y-92446520D01*
X221143339Y-92165710D01*
X220904530Y-91926901D01*
X220623720Y-91739270D01*
X220311701Y-91610027D01*
X219980464Y-91544140D01*
X219642736Y-91544140D01*
X219311499Y-91610027D01*
X218999480Y-91739270D01*
X218718670Y-91926901D01*
X218479861Y-92165710D01*
X218292230Y-92446520D01*
X218162987Y-92758539D01*
X218097100Y-93089776D01*
X198889578Y-93089776D01*
X194663924Y-88864122D01*
X224586800Y-88864122D01*
X224586800Y-89154318D01*
X224643414Y-89438937D01*
X224754467Y-89707042D01*
X224915691Y-89948330D01*
X225120890Y-90153529D01*
X225131379Y-90160538D01*
X224946271Y-90345646D01*
X224789356Y-90580487D01*
X224681271Y-90841427D01*
X224626170Y-91118440D01*
X224626170Y-91400880D01*
X224681271Y-91677893D01*
X224789356Y-91938833D01*
X224946271Y-92173674D01*
X225145986Y-92373389D01*
X225380827Y-92530304D01*
X225641767Y-92638389D01*
X225918780Y-92693490D01*
X226201220Y-92693490D01*
X226478233Y-92638389D01*
X226739173Y-92530304D01*
X226974014Y-92373389D01*
X227173729Y-92173674D01*
X227245311Y-92066542D01*
X231295907Y-92066542D01*
X232308400Y-93079035D01*
X233320893Y-92066542D01*
X233215534Y-91794012D01*
X232912369Y-91645181D01*
X232585993Y-91558355D01*
X232248950Y-91536870D01*
X231914192Y-91581552D01*
X231594583Y-91690683D01*
X231401266Y-91794012D01*
X231295907Y-92066542D01*
X227245311Y-92066542D01*
X227330644Y-91938833D01*
X227438729Y-91677893D01*
X227493830Y-91400880D01*
X227493830Y-91118440D01*
X227438729Y-90841427D01*
X227330644Y-90580487D01*
X227173729Y-90345646D01*
X226988621Y-90160538D01*
X226999110Y-90153529D01*
X227204309Y-89948330D01*
X227365533Y-89707042D01*
X227476586Y-89438937D01*
X227533200Y-89154318D01*
X227533200Y-88864122D01*
X227476586Y-88579503D01*
X227365533Y-88311398D01*
X227204309Y-88070110D01*
X226999110Y-87864911D01*
X226757822Y-87703687D01*
X226489717Y-87592634D01*
X226205098Y-87536020D01*
X225914902Y-87536020D01*
X225630283Y-87592634D01*
X225362178Y-87703687D01*
X225120890Y-87864911D01*
X224915691Y-88070110D01*
X224754467Y-88311398D01*
X224643414Y-88579503D01*
X224586800Y-88864122D01*
X194663924Y-88864122D01*
X187924609Y-82124808D01*
X188016528Y-82133861D01*
X188016538Y-82133861D01*
X188053861Y-82137537D01*
X188091184Y-82133861D01*
X220448439Y-82133861D01*
X220485761Y-82137537D01*
X220523083Y-82133861D01*
X220523094Y-82133861D01*
X220634747Y-82122864D01*
X220778008Y-82079407D01*
X220910037Y-82008835D01*
X221025762Y-81913862D01*
X221049565Y-81884858D01*
X222205064Y-80729360D01*
X225333438Y-80729360D01*
X225145986Y-80854611D01*
X224946271Y-81054326D01*
X224789356Y-81289167D01*
X224681271Y-81550107D01*
X224626170Y-81827120D01*
X224626170Y-82109560D01*
X224681271Y-82386573D01*
X224789356Y-82647513D01*
X224946271Y-82882354D01*
X225131379Y-83067462D01*
X225120890Y-83074471D01*
X224915691Y-83279670D01*
X224754467Y-83520958D01*
X224643414Y-83789063D01*
X224586800Y-84073682D01*
X224586800Y-84363878D01*
X224643414Y-84648497D01*
X224754467Y-84916602D01*
X224915691Y-85157890D01*
X225120890Y-85363089D01*
X225362178Y-85524313D01*
X225630283Y-85635366D01*
X225914902Y-85691980D01*
X226205098Y-85691980D01*
X226489717Y-85635366D01*
X226757822Y-85524313D01*
X226999110Y-85363089D01*
X227204309Y-85157890D01*
X227365533Y-84916602D01*
X227476586Y-84648497D01*
X227533200Y-84363878D01*
X227533200Y-84073682D01*
X227476586Y-83789063D01*
X227365533Y-83520958D01*
X227204309Y-83279670D01*
X226999110Y-83074471D01*
X226988621Y-83067462D01*
X227173729Y-82882354D01*
X227330644Y-82647513D01*
X227438729Y-82386573D01*
X227493830Y-82109560D01*
X227493830Y-81827120D01*
X227438729Y-81550107D01*
X227330644Y-81289167D01*
X227173729Y-81054326D01*
X226974014Y-80854611D01*
X226786562Y-80729360D01*
X230767441Y-80729360D01*
X230789030Y-80781480D01*
X230976661Y-81062290D01*
X231215470Y-81301099D01*
X231496280Y-81488730D01*
X231808299Y-81617973D01*
X232139536Y-81683860D01*
X232477264Y-81683860D01*
X232808501Y-81617973D01*
X233120520Y-81488730D01*
X233401330Y-81301099D01*
X233640139Y-81062290D01*
X233827770Y-80781480D01*
X233957013Y-80469461D01*
X234022900Y-80138224D01*
X234022900Y-79800496D01*
X233957013Y-79469259D01*
X233827770Y-79157240D01*
X233640139Y-78876430D01*
X233401330Y-78637621D01*
X233120520Y-78449990D01*
X232808501Y-78320747D01*
X232477264Y-78254860D01*
X232139536Y-78254860D01*
X231808299Y-78320747D01*
X231496280Y-78449990D01*
X231215470Y-78637621D01*
X230976661Y-78876430D01*
X230789030Y-79157240D01*
X230767441Y-79209360D01*
X221927584Y-79209360D01*
X221890261Y-79205684D01*
X221852938Y-79209360D01*
X221852929Y-79209360D01*
X221741276Y-79220357D01*
X221598015Y-79263814D01*
X221465986Y-79334386D01*
X221419984Y-79372139D01*
X221330970Y-79157240D01*
X221143339Y-78876430D01*
X220904530Y-78637621D01*
X220623720Y-78449990D01*
X220311701Y-78320747D01*
X219980464Y-78254860D01*
X219642736Y-78254860D01*
X219311499Y-78320747D01*
X218999480Y-78449990D01*
X218718670Y-78637621D01*
X218479861Y-78876430D01*
X218292230Y-79157240D01*
X218162987Y-79469259D01*
X218097100Y-79800496D01*
X218097100Y-80138224D01*
X218162987Y-80469461D01*
X218222800Y-80613861D01*
X188368663Y-80613861D01*
X182556578Y-74801776D01*
X218097100Y-74801776D01*
X218097100Y-75139504D01*
X218162987Y-75470741D01*
X218292230Y-75782760D01*
X218479861Y-76063570D01*
X218718670Y-76302379D01*
X218999480Y-76490010D01*
X219311499Y-76619253D01*
X219642736Y-76685140D01*
X219980464Y-76685140D01*
X220311701Y-76619253D01*
X220623720Y-76490010D01*
X220904530Y-76302379D01*
X221044171Y-76162738D01*
X231295907Y-76162738D01*
X231401266Y-76435268D01*
X231704431Y-76584099D01*
X232030807Y-76670925D01*
X232367850Y-76692410D01*
X232702608Y-76647728D01*
X233022217Y-76538597D01*
X233215534Y-76435268D01*
X233320893Y-76162738D01*
X232308400Y-75150245D01*
X231295907Y-76162738D01*
X221044171Y-76162738D01*
X221143339Y-76063570D01*
X221330970Y-75782760D01*
X221460213Y-75470741D01*
X221526100Y-75139504D01*
X221526100Y-75030090D01*
X230586630Y-75030090D01*
X230631312Y-75364848D01*
X230740443Y-75684457D01*
X230843772Y-75877774D01*
X231116302Y-75983133D01*
X232128795Y-74970640D01*
X232488005Y-74970640D01*
X233500498Y-75983133D01*
X233773028Y-75877774D01*
X233921859Y-75574609D01*
X234008685Y-75248233D01*
X234030170Y-74911190D01*
X233985488Y-74576432D01*
X233876357Y-74256823D01*
X233773028Y-74063506D01*
X233500498Y-73958147D01*
X232488005Y-74970640D01*
X232128795Y-74970640D01*
X231116302Y-73958147D01*
X230843772Y-74063506D01*
X230694941Y-74366671D01*
X230608115Y-74693047D01*
X230586630Y-75030090D01*
X221526100Y-75030090D01*
X221526100Y-74801776D01*
X221460213Y-74470539D01*
X221330970Y-74158520D01*
X221143339Y-73877710D01*
X220904530Y-73638901D01*
X220623720Y-73451270D01*
X220311701Y-73322027D01*
X219980464Y-73256140D01*
X219642736Y-73256140D01*
X219311499Y-73322027D01*
X218999480Y-73451270D01*
X218718670Y-73638901D01*
X218479861Y-73877710D01*
X218292230Y-74158520D01*
X218162987Y-74470539D01*
X218097100Y-74801776D01*
X182556578Y-74801776D01*
X178330924Y-70576122D01*
X224586800Y-70576122D01*
X224586800Y-70866318D01*
X224643414Y-71150937D01*
X224754467Y-71419042D01*
X224915691Y-71660330D01*
X225120890Y-71865529D01*
X225131379Y-71872538D01*
X224946271Y-72057646D01*
X224789356Y-72292487D01*
X224681271Y-72553427D01*
X224626170Y-72830440D01*
X224626170Y-73112880D01*
X224681271Y-73389893D01*
X224789356Y-73650833D01*
X224946271Y-73885674D01*
X225145986Y-74085389D01*
X225380827Y-74242304D01*
X225641767Y-74350389D01*
X225918780Y-74405490D01*
X226201220Y-74405490D01*
X226478233Y-74350389D01*
X226739173Y-74242304D01*
X226974014Y-74085389D01*
X227173729Y-73885674D01*
X227245311Y-73778542D01*
X231295907Y-73778542D01*
X232308400Y-74791035D01*
X233320893Y-73778542D01*
X233215534Y-73506012D01*
X232912369Y-73357181D01*
X232585993Y-73270355D01*
X232248950Y-73248870D01*
X231914192Y-73293552D01*
X231594583Y-73402683D01*
X231401266Y-73506012D01*
X231295907Y-73778542D01*
X227245311Y-73778542D01*
X227330644Y-73650833D01*
X227438729Y-73389893D01*
X227493830Y-73112880D01*
X227493830Y-72830440D01*
X227438729Y-72553427D01*
X227330644Y-72292487D01*
X227173729Y-72057646D01*
X226988621Y-71872538D01*
X226999110Y-71865529D01*
X227204309Y-71660330D01*
X227365533Y-71419042D01*
X227476586Y-71150937D01*
X227533200Y-70866318D01*
X227533200Y-70576122D01*
X227476586Y-70291503D01*
X227365533Y-70023398D01*
X227204309Y-69782110D01*
X226999110Y-69576911D01*
X226757822Y-69415687D01*
X226489717Y-69304634D01*
X226205098Y-69248020D01*
X225914902Y-69248020D01*
X225630283Y-69304634D01*
X225362178Y-69415687D01*
X225120890Y-69576911D01*
X224915691Y-69782110D01*
X224754467Y-70023398D01*
X224643414Y-70291503D01*
X224586800Y-70576122D01*
X178330924Y-70576122D01*
X174655001Y-66900200D01*
X174655001Y-66560444D01*
X174688966Y-66578599D01*
X174968889Y-66663513D01*
X175187050Y-66685000D01*
X175332950Y-66685000D01*
X175551111Y-66663513D01*
X175831034Y-66578599D01*
X176089014Y-66440706D01*
X176315134Y-66255134D01*
X176500706Y-66029014D01*
X176530000Y-65974209D01*
X176559294Y-66029014D01*
X176744866Y-66255134D01*
X176970986Y-66440706D01*
X177228966Y-66578599D01*
X177508889Y-66663513D01*
X177727050Y-66685000D01*
X177872950Y-66685000D01*
X178091111Y-66663513D01*
X178371034Y-66578599D01*
X178629014Y-66440706D01*
X178855134Y-66255134D01*
X179040706Y-66029014D01*
X179070000Y-65974209D01*
X179099294Y-66029014D01*
X179284866Y-66255134D01*
X179510986Y-66440706D01*
X179768966Y-66578599D01*
X180048889Y-66663513D01*
X180267050Y-66685000D01*
X180412950Y-66685000D01*
X180631111Y-66663513D01*
X180911034Y-66578599D01*
X181169014Y-66440706D01*
X181395134Y-66255134D01*
X181580706Y-66029014D01*
X181610000Y-65974209D01*
X181639294Y-66029014D01*
X181824866Y-66255134D01*
X182050986Y-66440706D01*
X182308966Y-66578599D01*
X182588889Y-66663513D01*
X182807050Y-66685000D01*
X182952950Y-66685000D01*
X183171111Y-66663513D01*
X183451034Y-66578599D01*
X183709014Y-66440706D01*
X183935134Y-66255134D01*
X184120706Y-66029014D01*
X184150000Y-65974209D01*
X184179294Y-66029014D01*
X184364866Y-66255134D01*
X184590986Y-66440706D01*
X184848966Y-66578599D01*
X185128889Y-66663513D01*
X185347050Y-66685000D01*
X185492950Y-66685000D01*
X185711111Y-66663513D01*
X185991034Y-66578599D01*
X186249014Y-66440706D01*
X186475134Y-66255134D01*
X186499607Y-66225313D01*
X186520498Y-66294180D01*
X186579463Y-66404494D01*
X186658815Y-66501185D01*
X186755506Y-66580537D01*
X186865820Y-66639502D01*
X186985518Y-66675812D01*
X187110000Y-66688072D01*
X187674250Y-66685000D01*
X187833000Y-66526250D01*
X187833000Y-65327000D01*
X188087000Y-65327000D01*
X188087000Y-66526250D01*
X188245750Y-66685000D01*
X188810000Y-66688072D01*
X188934482Y-66675812D01*
X189054180Y-66639502D01*
X189164494Y-66580537D01*
X189261185Y-66501185D01*
X189340537Y-66404494D01*
X189399502Y-66294180D01*
X189435812Y-66174482D01*
X189448072Y-66050000D01*
X189445000Y-65485750D01*
X189286250Y-65327000D01*
X188087000Y-65327000D01*
X187833000Y-65327000D01*
X187813000Y-65327000D01*
X187813000Y-65073000D01*
X187833000Y-65073000D01*
X187833000Y-63873750D01*
X188087000Y-63873750D01*
X188087000Y-65073000D01*
X189286250Y-65073000D01*
X189445000Y-64914250D01*
X189448072Y-64350000D01*
X189435812Y-64225518D01*
X189399502Y-64105820D01*
X189340537Y-63995506D01*
X189261185Y-63898815D01*
X189164494Y-63819463D01*
X189054180Y-63760498D01*
X188934482Y-63724188D01*
X188810000Y-63711928D01*
X188245750Y-63715000D01*
X188087000Y-63873750D01*
X187833000Y-63873750D01*
X187674250Y-63715000D01*
X187110000Y-63711928D01*
X186985518Y-63724188D01*
X186865820Y-63760498D01*
X186755506Y-63819463D01*
X186658815Y-63898815D01*
X186579463Y-63995506D01*
X186520498Y-64105820D01*
X186499607Y-64174687D01*
X186475134Y-64144866D01*
X186249014Y-63959294D01*
X185991034Y-63821401D01*
X185711111Y-63736487D01*
X185492950Y-63715000D01*
X185347050Y-63715000D01*
X185128889Y-63736487D01*
X184848966Y-63821401D01*
X184590986Y-63959294D01*
X184364866Y-64144866D01*
X184179294Y-64370986D01*
X184150000Y-64425791D01*
X184120706Y-64370986D01*
X183935134Y-64144866D01*
X183709014Y-63959294D01*
X183451034Y-63821401D01*
X183171111Y-63736487D01*
X182952950Y-63715000D01*
X182807050Y-63715000D01*
X182588889Y-63736487D01*
X182308966Y-63821401D01*
X182050986Y-63959294D01*
X181824866Y-64144866D01*
X181639294Y-64370986D01*
X181610000Y-64425791D01*
X181580706Y-64370986D01*
X181395134Y-64144866D01*
X181169014Y-63959294D01*
X180911034Y-63821401D01*
X180631111Y-63736487D01*
X180412950Y-63715000D01*
X180267050Y-63715000D01*
X180048889Y-63736487D01*
X179768966Y-63821401D01*
X179510986Y-63959294D01*
X179284866Y-64144866D01*
X179099294Y-64370986D01*
X179070000Y-64425791D01*
X179040706Y-64370986D01*
X178855134Y-64144866D01*
X178629014Y-63959294D01*
X178371034Y-63821401D01*
X178091111Y-63736487D01*
X177872950Y-63715000D01*
X177727050Y-63715000D01*
X177508889Y-63736487D01*
X177228966Y-63821401D01*
X176970986Y-63959294D01*
X176744866Y-64144866D01*
X176559294Y-64370986D01*
X176530000Y-64425791D01*
X176500706Y-64370986D01*
X176315134Y-64144866D01*
X176089014Y-63959294D01*
X175831034Y-63821401D01*
X175551111Y-63736487D01*
X175332950Y-63715000D01*
X175187050Y-63715000D01*
X174968889Y-63736487D01*
X174688966Y-63821401D01*
X174430986Y-63959294D01*
X174355252Y-64021448D01*
X170783803Y-60450000D01*
X171412678Y-60450000D01*
X171450000Y-60453676D01*
X171487322Y-60450000D01*
X171487333Y-60450000D01*
X171598986Y-60439003D01*
X171742247Y-60395546D01*
X171874276Y-60324974D01*
X171990001Y-60230001D01*
X172013804Y-60200997D01*
X173664094Y-58550708D01*
X173708691Y-58564236D01*
X173919508Y-58585000D01*
X174060492Y-58585000D01*
X174271309Y-58564236D01*
X174541808Y-58482182D01*
X174791101Y-58348932D01*
X175009608Y-58169608D01*
X175188932Y-57951101D01*
X175260000Y-57818142D01*
X175331068Y-57951101D01*
X175510392Y-58169608D01*
X175728899Y-58348932D01*
X175978192Y-58482182D01*
X176248691Y-58564236D01*
X176459508Y-58585000D01*
X176600492Y-58585000D01*
X176811309Y-58564236D01*
X177081808Y-58482182D01*
X177331101Y-58348932D01*
X177549608Y-58169608D01*
X177728932Y-57951101D01*
X177862182Y-57701808D01*
X177944236Y-57431309D01*
X177971943Y-57150000D01*
X177944236Y-56868691D01*
X177862182Y-56598192D01*
X177728932Y-56348899D01*
X177549608Y-56130392D01*
X177331101Y-55951068D01*
X177081808Y-55817818D01*
X176811309Y-55735764D01*
X176600492Y-55715000D01*
X176459508Y-55715000D01*
X176248691Y-55735764D01*
X175978192Y-55817818D01*
X175728899Y-55951068D01*
X175510392Y-56130392D01*
X175331068Y-56348899D01*
X175260000Y-56481858D01*
X175188932Y-56348899D01*
X175009608Y-56130392D01*
X174791101Y-55951068D01*
X174541808Y-55817818D01*
X174271309Y-55735764D01*
X174060492Y-55715000D01*
X173919508Y-55715000D01*
X173708691Y-55735764D01*
X173438192Y-55817818D01*
X173188899Y-55951068D01*
X172970392Y-56130392D01*
X172791068Y-56348899D01*
X172720000Y-56481858D01*
X172648932Y-56348899D01*
X172469608Y-56130392D01*
X172251101Y-55951068D01*
X172001808Y-55817818D01*
X171731309Y-55735764D01*
X171520492Y-55715000D01*
X171379508Y-55715000D01*
X171168691Y-55735764D01*
X170898192Y-55817818D01*
X170648899Y-55951068D01*
X170430392Y-56130392D01*
X170251068Y-56348899D01*
X170180000Y-56481858D01*
X170108932Y-56348899D01*
X169929608Y-56130392D01*
X169711101Y-55951068D01*
X169461808Y-55817818D01*
X169191309Y-55735764D01*
X168980492Y-55715000D01*
X168839508Y-55715000D01*
X168628691Y-55735764D01*
X168358192Y-55817818D01*
X168108899Y-55951068D01*
X167890392Y-56130392D01*
X167711068Y-56348899D01*
X167637421Y-56486682D01*
X167522385Y-56294869D01*
X167333414Y-56086481D01*
X167107420Y-55918963D01*
X166853087Y-55798754D01*
X166719039Y-55758096D01*
X166497000Y-55880085D01*
X166497000Y-57023000D01*
X166517000Y-57023000D01*
X166517000Y-57277000D01*
X166497000Y-57277000D01*
X166497000Y-57297000D01*
X166243000Y-57297000D01*
X166243000Y-57277000D01*
X166223000Y-57277000D01*
X166223000Y-57023000D01*
X166243000Y-57023000D01*
X166243000Y-55880085D01*
X166020961Y-55758096D01*
X165886913Y-55798754D01*
X165632580Y-55918963D01*
X165463843Y-56044039D01*
X163519803Y-54100000D01*
X175578789Y-54100000D01*
X184219791Y-62741003D01*
X184243589Y-62770001D01*
X184272587Y-62793799D01*
X184359314Y-62864974D01*
X184491343Y-62935546D01*
X184634604Y-62979003D01*
X184783590Y-62993677D01*
X184820923Y-62990000D01*
X205685458Y-62990000D01*
X205722780Y-62993676D01*
X205760102Y-62990000D01*
X205760113Y-62990000D01*
X205871766Y-62979003D01*
X206015027Y-62935546D01*
X206147056Y-62864974D01*
X206262781Y-62770001D01*
X206286584Y-62740997D01*
X206618626Y-62408955D01*
X206829902Y-62450980D01*
X207120098Y-62450980D01*
X207404717Y-62394366D01*
X207672822Y-62283313D01*
X207914110Y-62122089D01*
X208119309Y-61916890D01*
X208280533Y-61675602D01*
X208391586Y-61407497D01*
X208448200Y-61122878D01*
X208448200Y-60832682D01*
X208391586Y-60548063D01*
X208280533Y-60279958D01*
X208119309Y-60038670D01*
X207914110Y-59833471D01*
X207903621Y-59826462D01*
X208088729Y-59641354D01*
X208245644Y-59406513D01*
X208353729Y-59145573D01*
X208408830Y-58868560D01*
X208408830Y-58586120D01*
X208353729Y-58309107D01*
X208245644Y-58048167D01*
X208088729Y-57813326D01*
X207889014Y-57613611D01*
X207654173Y-57456696D01*
X207393233Y-57348611D01*
X207116220Y-57293510D01*
X206833780Y-57293510D01*
X206556767Y-57348611D01*
X206295827Y-57456696D01*
X206060986Y-57613611D01*
X205861271Y-57813326D01*
X205704356Y-58048167D01*
X205596271Y-58309107D01*
X205541170Y-58586120D01*
X205541170Y-58868560D01*
X205596271Y-59145573D01*
X205704356Y-59406513D01*
X205861271Y-59641354D01*
X205913948Y-59694031D01*
X205802591Y-59805388D01*
X205731416Y-59892114D01*
X205660844Y-60024144D01*
X205617388Y-60167405D01*
X205602714Y-60316390D01*
X205612639Y-60417154D01*
X205558414Y-60548063D01*
X205501800Y-60832682D01*
X205501800Y-61122878D01*
X205543825Y-61334154D01*
X205407979Y-61470000D01*
X190611902Y-61470000D01*
X190634486Y-61415477D01*
X190691100Y-61130858D01*
X190691100Y-60840662D01*
X190634486Y-60556043D01*
X190523433Y-60287938D01*
X190362209Y-60046650D01*
X190157010Y-59841451D01*
X190146521Y-59834442D01*
X190331629Y-59649334D01*
X190488544Y-59414493D01*
X190596629Y-59153553D01*
X190651730Y-58876540D01*
X190651730Y-58594100D01*
X190596629Y-58317087D01*
X190488544Y-58056147D01*
X190331629Y-57821306D01*
X190131914Y-57621591D01*
X189897073Y-57464676D01*
X189636133Y-57356591D01*
X189359120Y-57301490D01*
X189076680Y-57301490D01*
X188799667Y-57356591D01*
X188538727Y-57464676D01*
X188303886Y-57621591D01*
X188104171Y-57821306D01*
X187947256Y-58056147D01*
X187839171Y-58317087D01*
X187784070Y-58594100D01*
X187784070Y-58876540D01*
X187839171Y-59153553D01*
X187947256Y-59414493D01*
X188104171Y-59649334D01*
X188289279Y-59834442D01*
X188278790Y-59841451D01*
X188073591Y-60046650D01*
X187912367Y-60287938D01*
X187801314Y-60556043D01*
X187744700Y-60840662D01*
X187744700Y-61130858D01*
X187801314Y-61415477D01*
X187823898Y-61470000D01*
X185098392Y-61470000D01*
X179633391Y-56005000D01*
X181416670Y-56005000D01*
X181320887Y-56236239D01*
X181255000Y-56567476D01*
X181255000Y-56905204D01*
X181320887Y-57236441D01*
X181450130Y-57548460D01*
X181637761Y-57829270D01*
X181876570Y-58068079D01*
X182157380Y-58255710D01*
X182469399Y-58384953D01*
X182800636Y-58450840D01*
X183138364Y-58450840D01*
X183469601Y-58384953D01*
X183781620Y-58255710D01*
X184062430Y-58068079D01*
X184301239Y-57829270D01*
X184488870Y-57548460D01*
X184618113Y-57236441D01*
X184684000Y-56905204D01*
X184684000Y-56567476D01*
X184618113Y-56236239D01*
X184522330Y-56005000D01*
X193913470Y-56005000D01*
X193817687Y-56236239D01*
X193751800Y-56567476D01*
X193751800Y-56905204D01*
X193817687Y-57236441D01*
X193946930Y-57548460D01*
X194134561Y-57829270D01*
X194373370Y-58068079D01*
X194654180Y-58255710D01*
X194966199Y-58384953D01*
X195297436Y-58450840D01*
X195635164Y-58450840D01*
X195966401Y-58384953D01*
X196278420Y-58255710D01*
X196559230Y-58068079D01*
X196798039Y-57829270D01*
X196985670Y-57548460D01*
X197114913Y-57236441D01*
X197180800Y-56905204D01*
X197180800Y-56567476D01*
X197114913Y-56236239D01*
X197019130Y-56005000D01*
X199170464Y-56005000D01*
X199077987Y-56228259D01*
X199012100Y-56559496D01*
X199012100Y-56897224D01*
X199077987Y-57228461D01*
X199207230Y-57540480D01*
X199394861Y-57821290D01*
X199633670Y-58060099D01*
X199914480Y-58247730D01*
X200226499Y-58376973D01*
X200557736Y-58442860D01*
X200895464Y-58442860D01*
X201226701Y-58376973D01*
X201538720Y-58247730D01*
X201819530Y-58060099D01*
X202058339Y-57821290D01*
X202245970Y-57540480D01*
X202375213Y-57228461D01*
X202441100Y-56897224D01*
X202441100Y-56559496D01*
X202375213Y-56228259D01*
X202282736Y-56005000D01*
X211425239Y-56005000D01*
X211596376Y-56176138D01*
X211574787Y-56228259D01*
X211508900Y-56559496D01*
X211508900Y-56897224D01*
X211574787Y-57228461D01*
X211704030Y-57540480D01*
X211891661Y-57821290D01*
X212130470Y-58060099D01*
X212411280Y-58247730D01*
X212723299Y-58376973D01*
X213054536Y-58442860D01*
X213392264Y-58442860D01*
X213723501Y-58376973D01*
X214035520Y-58247730D01*
X214316330Y-58060099D01*
X214555139Y-57821290D01*
X214742770Y-57540480D01*
X214872013Y-57228461D01*
X214937900Y-56897224D01*
X214937900Y-56559496D01*
X214872013Y-56228259D01*
X214742770Y-55916240D01*
X214555139Y-55635430D01*
X214316330Y-55396621D01*
X214035520Y-55208990D01*
X213723501Y-55079747D01*
X213392264Y-55013860D01*
X213054536Y-55013860D01*
X212723299Y-55079747D01*
X212671178Y-55101336D01*
X212303844Y-54734003D01*
X212280041Y-54704999D01*
X212164316Y-54610026D01*
X212032287Y-54539454D01*
X211889026Y-54495997D01*
X211777373Y-54485000D01*
X211777362Y-54485000D01*
X211740040Y-54481324D01*
X211702718Y-54485000D01*
X192674013Y-54485000D01*
X192687205Y-54465256D01*
X192765226Y-54276898D01*
X192805000Y-54076939D01*
X192805000Y-53873061D01*
X192765226Y-53673102D01*
X192687205Y-53484744D01*
X192573937Y-53315226D01*
X192429774Y-53171063D01*
X192260256Y-53057795D01*
X192071898Y-52979774D01*
X191871939Y-52940000D01*
X191809801Y-52940000D01*
X191799519Y-52929718D01*
X194453807Y-52929718D01*
X194559166Y-53202248D01*
X194862331Y-53351079D01*
X195188707Y-53437905D01*
X195525750Y-53459390D01*
X195860508Y-53414708D01*
X196180117Y-53305577D01*
X196373434Y-53202248D01*
X196478793Y-52929718D01*
X195466300Y-51917225D01*
X194453807Y-52929718D01*
X191799519Y-52929718D01*
X191500924Y-52631123D01*
X191477122Y-52602120D01*
X191361397Y-52507147D01*
X191229368Y-52436575D01*
X191086107Y-52393118D01*
X190974454Y-52382121D01*
X190974443Y-52382121D01*
X190937121Y-52378445D01*
X190899799Y-52382121D01*
X184558300Y-52382121D01*
X184618113Y-52237721D01*
X184684000Y-51906484D01*
X184684000Y-51797070D01*
X193744530Y-51797070D01*
X193789212Y-52131828D01*
X193898343Y-52451437D01*
X194001672Y-52644754D01*
X194274202Y-52750113D01*
X195286695Y-51737620D01*
X195645905Y-51737620D01*
X196658398Y-52750113D01*
X196930928Y-52644754D01*
X197079759Y-52341589D01*
X197166585Y-52015213D01*
X197188070Y-51678170D01*
X197172401Y-51560776D01*
X199012100Y-51560776D01*
X199012100Y-51898504D01*
X199077987Y-52229741D01*
X199207230Y-52541760D01*
X199394861Y-52822570D01*
X199633670Y-53061379D01*
X199914480Y-53249010D01*
X200226499Y-53378253D01*
X200557736Y-53444140D01*
X200895464Y-53444140D01*
X201226701Y-53378253D01*
X201538720Y-53249010D01*
X201819530Y-53061379D01*
X201959171Y-52921738D01*
X212210907Y-52921738D01*
X212316266Y-53194268D01*
X212619431Y-53343099D01*
X212945807Y-53429925D01*
X213282850Y-53451410D01*
X213617608Y-53406728D01*
X213937217Y-53297597D01*
X214130534Y-53194268D01*
X214235893Y-52921738D01*
X213223400Y-51909245D01*
X212210907Y-52921738D01*
X201959171Y-52921738D01*
X202058339Y-52822570D01*
X202245970Y-52541760D01*
X202375213Y-52229741D01*
X202441100Y-51898504D01*
X202441100Y-51789090D01*
X211501630Y-51789090D01*
X211546312Y-52123848D01*
X211655443Y-52443457D01*
X211758772Y-52636774D01*
X212031302Y-52742133D01*
X213043795Y-51729640D01*
X213403005Y-51729640D01*
X214415498Y-52742133D01*
X214688028Y-52636774D01*
X214836859Y-52333609D01*
X214923685Y-52007233D01*
X214945170Y-51670190D01*
X214900488Y-51335432D01*
X214791357Y-51015823D01*
X214688028Y-50822506D01*
X214415498Y-50717147D01*
X213403005Y-51729640D01*
X213043795Y-51729640D01*
X212031302Y-50717147D01*
X211758772Y-50822506D01*
X211609941Y-51125671D01*
X211523115Y-51452047D01*
X211501630Y-51789090D01*
X202441100Y-51789090D01*
X202441100Y-51560776D01*
X202375213Y-51229539D01*
X202245970Y-50917520D01*
X202058339Y-50636710D01*
X201819530Y-50397901D01*
X201538720Y-50210270D01*
X201226701Y-50081027D01*
X200895464Y-50015140D01*
X200557736Y-50015140D01*
X200226499Y-50081027D01*
X199914480Y-50210270D01*
X199633670Y-50397901D01*
X199394861Y-50636710D01*
X199207230Y-50917520D01*
X199077987Y-51229539D01*
X199012100Y-51560776D01*
X197172401Y-51560776D01*
X197143388Y-51343412D01*
X197034257Y-51023803D01*
X196930928Y-50830486D01*
X196658398Y-50725127D01*
X195645905Y-51737620D01*
X195286695Y-51737620D01*
X194274202Y-50725127D01*
X194001672Y-50830486D01*
X193852841Y-51133651D01*
X193766015Y-51460027D01*
X193744530Y-51797070D01*
X184684000Y-51797070D01*
X184684000Y-51568756D01*
X184618113Y-51237519D01*
X184488870Y-50925500D01*
X184301239Y-50644690D01*
X184062430Y-50405881D01*
X183781620Y-50218250D01*
X183469601Y-50089007D01*
X183138364Y-50023120D01*
X182800636Y-50023120D01*
X182469399Y-50089007D01*
X182157380Y-50218250D01*
X181876570Y-50405881D01*
X181637761Y-50644690D01*
X181450130Y-50925500D01*
X181320887Y-51237519D01*
X181255000Y-51568756D01*
X181255000Y-51906484D01*
X181320887Y-52237721D01*
X181380700Y-52382121D01*
X177919743Y-52382121D01*
X177096623Y-51559002D01*
X177096619Y-51558997D01*
X176360749Y-50823128D01*
X176403000Y-50799915D01*
X176403000Y-49657000D01*
X176657000Y-49657000D01*
X176657000Y-50799915D01*
X176879039Y-50921904D01*
X177013087Y-50881246D01*
X177267420Y-50761037D01*
X177493414Y-50593519D01*
X177682385Y-50385131D01*
X177827070Y-50143881D01*
X177921909Y-49879040D01*
X177800624Y-49657000D01*
X176657000Y-49657000D01*
X176403000Y-49657000D01*
X174117000Y-49657000D01*
X174117000Y-49677000D01*
X173863000Y-49677000D01*
X173863000Y-49657000D01*
X171577000Y-49657000D01*
X171577000Y-49677000D01*
X171323000Y-49677000D01*
X171323000Y-49657000D01*
X171303000Y-49657000D01*
X171303000Y-49403000D01*
X171323000Y-49403000D01*
X171323000Y-48260085D01*
X171577000Y-48260085D01*
X171577000Y-49403000D01*
X173863000Y-49403000D01*
X173863000Y-48260085D01*
X174117000Y-48260085D01*
X174117000Y-49403000D01*
X176403000Y-49403000D01*
X176403000Y-48260085D01*
X176657000Y-48260085D01*
X176657000Y-49403000D01*
X177800624Y-49403000D01*
X177921909Y-49180960D01*
X177827070Y-48916119D01*
X177682385Y-48674869D01*
X177493414Y-48466481D01*
X177267420Y-48298963D01*
X177013087Y-48178754D01*
X176879039Y-48138096D01*
X176657000Y-48260085D01*
X176403000Y-48260085D01*
X176180961Y-48138096D01*
X176046913Y-48178754D01*
X175792580Y-48298963D01*
X175566586Y-48466481D01*
X175377615Y-48674869D01*
X175260000Y-48870982D01*
X175142385Y-48674869D01*
X174953414Y-48466481D01*
X174727420Y-48298963D01*
X174473087Y-48178754D01*
X174339039Y-48138096D01*
X174117000Y-48260085D01*
X173863000Y-48260085D01*
X173640961Y-48138096D01*
X173506913Y-48178754D01*
X173252580Y-48298963D01*
X173026586Y-48466481D01*
X172837615Y-48674869D01*
X172720000Y-48870982D01*
X172602385Y-48674869D01*
X172413414Y-48466481D01*
X172187420Y-48298963D01*
X171933087Y-48178754D01*
X171799039Y-48138096D01*
X171577000Y-48260085D01*
X171323000Y-48260085D01*
X171100961Y-48138096D01*
X170966913Y-48178754D01*
X170712580Y-48298963D01*
X170486586Y-48466481D01*
X170297615Y-48674869D01*
X170182579Y-48866682D01*
X170108932Y-48728899D01*
X169929608Y-48510392D01*
X169711101Y-48331068D01*
X169461808Y-48197818D01*
X169191309Y-48115764D01*
X168980492Y-48095000D01*
X168839508Y-48095000D01*
X168628691Y-48115764D01*
X168358192Y-48197818D01*
X168108899Y-48331068D01*
X167890392Y-48510392D01*
X167711068Y-48728899D01*
X167640000Y-48861858D01*
X167568932Y-48728899D01*
X167389608Y-48510392D01*
X167171101Y-48331068D01*
X166921808Y-48197818D01*
X166651309Y-48115764D01*
X166440492Y-48095000D01*
X166299508Y-48095000D01*
X166088691Y-48115764D01*
X165818192Y-48197818D01*
X165568899Y-48331068D01*
X165350392Y-48510392D01*
X165171068Y-48728899D01*
X165100000Y-48861858D01*
X165028932Y-48728899D01*
X164849608Y-48510392D01*
X164631101Y-48331068D01*
X164381808Y-48197818D01*
X164111309Y-48115764D01*
X163900492Y-48095000D01*
X163759508Y-48095000D01*
X163548691Y-48115764D01*
X163278192Y-48197818D01*
X163028899Y-48331068D01*
X162810392Y-48510392D01*
X162631068Y-48728899D01*
X162560000Y-48861858D01*
X162488932Y-48728899D01*
X162309608Y-48510392D01*
X162091101Y-48331068D01*
X161841808Y-48197818D01*
X161571309Y-48115764D01*
X161360492Y-48095000D01*
X161219508Y-48095000D01*
X161008691Y-48115764D01*
X160738192Y-48197818D01*
X160488899Y-48331068D01*
X160270392Y-48510392D01*
X160091068Y-48728899D01*
X160020000Y-48861858D01*
X159948932Y-48728899D01*
X159769608Y-48510392D01*
X159551101Y-48331068D01*
X159301808Y-48197818D01*
X159031309Y-48115764D01*
X158820492Y-48095000D01*
X158679508Y-48095000D01*
X158468691Y-48115764D01*
X158198192Y-48197818D01*
X157948899Y-48331068D01*
X157730392Y-48510392D01*
X157551068Y-48728899D01*
X157480000Y-48861858D01*
X157408932Y-48728899D01*
X157229608Y-48510392D01*
X157011101Y-48331068D01*
X156761808Y-48197818D01*
X156491309Y-48115764D01*
X156280492Y-48095000D01*
X156139508Y-48095000D01*
X155928691Y-48115764D01*
X155658192Y-48197818D01*
X155408899Y-48331068D01*
X155190392Y-48510392D01*
X155011068Y-48728899D01*
X154940000Y-48861858D01*
X154868932Y-48728899D01*
X154689608Y-48510392D01*
X154471101Y-48331068D01*
X154221808Y-48197818D01*
X153951309Y-48115764D01*
X153740492Y-48095000D01*
X153599508Y-48095000D01*
X153388691Y-48115764D01*
X153118192Y-48197818D01*
X152868899Y-48331068D01*
X152650392Y-48510392D01*
X152471068Y-48728899D01*
X152400000Y-48861858D01*
X152328932Y-48728899D01*
X152149608Y-48510392D01*
X151931101Y-48331068D01*
X151681808Y-48197818D01*
X151411309Y-48115764D01*
X151200492Y-48095000D01*
X151059508Y-48095000D01*
X150848691Y-48115764D01*
X150578192Y-48197818D01*
X150328899Y-48331068D01*
X150110392Y-48510392D01*
X149931068Y-48728899D01*
X149860000Y-48861858D01*
X149788932Y-48728899D01*
X149609608Y-48510392D01*
X149391101Y-48331068D01*
X149141808Y-48197818D01*
X148871309Y-48115764D01*
X148660492Y-48095000D01*
X148519508Y-48095000D01*
X148308691Y-48115764D01*
X148264093Y-48129292D01*
X148028803Y-47894002D01*
X148005000Y-47864998D01*
X147889275Y-47770025D01*
X147757246Y-47699453D01*
X147613985Y-47655996D01*
X147502332Y-47644999D01*
X147502321Y-47644999D01*
X147464999Y-47641323D01*
X147427677Y-47644999D01*
X143007324Y-47644999D01*
X142969999Y-47641323D01*
X142932674Y-47644999D01*
X142932666Y-47644999D01*
X142821013Y-47655996D01*
X142677752Y-47699453D01*
X142545723Y-47770025D01*
X142429998Y-47864998D01*
X142406200Y-47893996D01*
X137924197Y-52376000D01*
X137895199Y-52399798D01*
X137871401Y-52428796D01*
X137871400Y-52428797D01*
X137800225Y-52515523D01*
X137729653Y-52647553D01*
X137708331Y-52717845D01*
X137686197Y-52790813D01*
X137683069Y-52822570D01*
X137671523Y-52939799D01*
X126404403Y-52939799D01*
X126788669Y-52780631D01*
X127154729Y-52536038D01*
X127466038Y-52224729D01*
X127710631Y-51858669D01*
X127879110Y-51451925D01*
X127965000Y-51020128D01*
X127965000Y-50579872D01*
X127879110Y-50148075D01*
X127710631Y-49741331D01*
X127466038Y-49375271D01*
X127154729Y-49063962D01*
X126788669Y-48819369D01*
X126381925Y-48650890D01*
X125950128Y-48565000D01*
X125509872Y-48565000D01*
X125078075Y-48650890D01*
X124671331Y-48819369D01*
X124305271Y-49063962D01*
X123993962Y-49375271D01*
X123749369Y-49741331D01*
X123580890Y-50148075D01*
X123495000Y-50579872D01*
X121310000Y-50579872D01*
X121310000Y-46380000D01*
X188242681Y-46380000D01*
X188073591Y-46549090D01*
X188073591Y-46549090D01*
G37*
X188073591Y-46549090D02*
X187912367Y-46790378D01*
X187801314Y-47058483D01*
X187744700Y-47343102D01*
X187744700Y-47633298D01*
X187801314Y-47917917D01*
X187912367Y-48186022D01*
X188073591Y-48427310D01*
X188278790Y-48632509D01*
X188289279Y-48639518D01*
X188104171Y-48824626D01*
X187947256Y-49059467D01*
X187839171Y-49320407D01*
X187784070Y-49597420D01*
X187784070Y-49879860D01*
X187839171Y-50156873D01*
X187947256Y-50417813D01*
X188104171Y-50652654D01*
X188303886Y-50852369D01*
X188538727Y-51009284D01*
X188799667Y-51117369D01*
X189076680Y-51172470D01*
X189359120Y-51172470D01*
X189636133Y-51117369D01*
X189897073Y-51009284D01*
X190131914Y-50852369D01*
X190331629Y-50652654D01*
X190403211Y-50545522D01*
X194453807Y-50545522D01*
X195466300Y-51558015D01*
X196478793Y-50545522D01*
X196373434Y-50272992D01*
X196070269Y-50124161D01*
X195743893Y-50037335D01*
X195406850Y-50015850D01*
X195072092Y-50060532D01*
X194752483Y-50169663D01*
X194559166Y-50272992D01*
X194453807Y-50545522D01*
X190403211Y-50545522D01*
X190488544Y-50417813D01*
X190596629Y-50156873D01*
X190651730Y-49879860D01*
X190651730Y-49597420D01*
X190596629Y-49320407D01*
X190488544Y-49059467D01*
X190331629Y-48824626D01*
X190146521Y-48639518D01*
X190157010Y-48632509D01*
X190362209Y-48427310D01*
X190523433Y-48186022D01*
X190634486Y-47917917D01*
X190691100Y-47633298D01*
X190691100Y-47343102D01*
X190634486Y-47058483D01*
X190523433Y-46790378D01*
X190362209Y-46549090D01*
X190193119Y-46380000D01*
X205991801Y-46380000D01*
X205830691Y-46541110D01*
X205669467Y-46782398D01*
X205558414Y-47050503D01*
X205501800Y-47335122D01*
X205501800Y-47625318D01*
X205558414Y-47909937D01*
X205669467Y-48178042D01*
X205830691Y-48419330D01*
X206035890Y-48624529D01*
X206046379Y-48631538D01*
X205861271Y-48816646D01*
X205704356Y-49051487D01*
X205596271Y-49312427D01*
X205541170Y-49589440D01*
X205541170Y-49871880D01*
X205596271Y-50148893D01*
X205704356Y-50409833D01*
X205861271Y-50644674D01*
X206060986Y-50844389D01*
X206295827Y-51001304D01*
X206556767Y-51109389D01*
X206833780Y-51164490D01*
X207116220Y-51164490D01*
X207393233Y-51109389D01*
X207654173Y-51001304D01*
X207889014Y-50844389D01*
X208088729Y-50644674D01*
X208160311Y-50537542D01*
X212210907Y-50537542D01*
X213223400Y-51550035D01*
X214193563Y-50579872D01*
X227635000Y-50579872D01*
X227635000Y-51020128D01*
X227720890Y-51451925D01*
X227889369Y-51858669D01*
X228133962Y-52224729D01*
X228445271Y-52536038D01*
X228811331Y-52780631D01*
X229218075Y-52949110D01*
X229649872Y-53035000D01*
X230090128Y-53035000D01*
X230521925Y-52949110D01*
X230928669Y-52780631D01*
X231294729Y-52536038D01*
X231606038Y-52224729D01*
X231850631Y-51858669D01*
X232019110Y-51451925D01*
X232105000Y-51020128D01*
X232105000Y-50579872D01*
X232019110Y-50148075D01*
X231850631Y-49741331D01*
X231606038Y-49375271D01*
X231294729Y-49063962D01*
X230928669Y-48819369D01*
X230521925Y-48650890D01*
X230090128Y-48565000D01*
X229649872Y-48565000D01*
X229218075Y-48650890D01*
X228811331Y-48819369D01*
X228445271Y-49063962D01*
X228133962Y-49375271D01*
X227889369Y-49741331D01*
X227720890Y-50148075D01*
X227635000Y-50579872D01*
X214193563Y-50579872D01*
X214235893Y-50537542D01*
X214130534Y-50265012D01*
X213827369Y-50116181D01*
X213500993Y-50029355D01*
X213163950Y-50007870D01*
X212829192Y-50052552D01*
X212509583Y-50161683D01*
X212316266Y-50265012D01*
X212210907Y-50537542D01*
X208160311Y-50537542D01*
X208245644Y-50409833D01*
X208353729Y-50148893D01*
X208408830Y-49871880D01*
X208408830Y-49589440D01*
X208353729Y-49312427D01*
X208245644Y-49051487D01*
X208088729Y-48816646D01*
X207903621Y-48631538D01*
X207914110Y-48624529D01*
X208119309Y-48419330D01*
X208280533Y-48178042D01*
X208391586Y-47909937D01*
X208448200Y-47625318D01*
X208448200Y-47335122D01*
X208391586Y-47050503D01*
X208280533Y-46782398D01*
X208119309Y-46541110D01*
X207958199Y-46380000D01*
X234290000Y-46380000D01*
X234290001Y-123800000D01*
X208018599Y-123800000D01*
X208154309Y-123664290D01*
X208315533Y-123423002D01*
X208426586Y-123154897D01*
X208483200Y-122870278D01*
X208483200Y-122580082D01*
X208426586Y-122295463D01*
X208315533Y-122027358D01*
X208154309Y-121786070D01*
X207949110Y-121580871D01*
X207938621Y-121573862D01*
X208123729Y-121388754D01*
X208280644Y-121153913D01*
X208388729Y-120892973D01*
X208443830Y-120615960D01*
X208443830Y-120333520D01*
X208388729Y-120056507D01*
X208280644Y-119795567D01*
X208123729Y-119560726D01*
X207924014Y-119361011D01*
X207689173Y-119204096D01*
X207428233Y-119096011D01*
X207151220Y-119040910D01*
X206868780Y-119040910D01*
X206591767Y-119096011D01*
X206330827Y-119204096D01*
X206095986Y-119361011D01*
X205896271Y-119560726D01*
X205739356Y-119795567D01*
X205631271Y-120056507D01*
X205576170Y-120333520D01*
X205576170Y-120615960D01*
X205631271Y-120892973D01*
X205739356Y-121153913D01*
X205896271Y-121388754D01*
X206081379Y-121573862D01*
X206070890Y-121580871D01*
X205865691Y-121786070D01*
X205704467Y-122027358D01*
X205593414Y-122295463D01*
X205536800Y-122580082D01*
X205536800Y-122870278D01*
X205593414Y-123154897D01*
X205704467Y-123423002D01*
X205865691Y-123664290D01*
X206001401Y-123800000D01*
X190200499Y-123800000D01*
X190348909Y-123651590D01*
X190510133Y-123410302D01*
X190621186Y-123142197D01*
X190677800Y-122857578D01*
X190677800Y-122567382D01*
X190621186Y-122282763D01*
X190510133Y-122014658D01*
X190348909Y-121773370D01*
X190143710Y-121568171D01*
X190133221Y-121561162D01*
X190318329Y-121376054D01*
X190475244Y-121141213D01*
X190583329Y-120880273D01*
X190638430Y-120603260D01*
X190638430Y-120320820D01*
X190583329Y-120043807D01*
X190475244Y-119782867D01*
X190318329Y-119548026D01*
X190118614Y-119348311D01*
X189883773Y-119191396D01*
X189622833Y-119083311D01*
X189345820Y-119028210D01*
X189063380Y-119028210D01*
X188786367Y-119083311D01*
X188525427Y-119191396D01*
X188290586Y-119348311D01*
X188090871Y-119548026D01*
X187933956Y-119782867D01*
X187825871Y-120043807D01*
X187770770Y-120320820D01*
X187770770Y-120603260D01*
X187825871Y-120880273D01*
X187933956Y-121141213D01*
X188090871Y-121376054D01*
X188275979Y-121561162D01*
X188265490Y-121568171D01*
X188060291Y-121773370D01*
X187899067Y-122014658D01*
X187788014Y-122282763D01*
X187731400Y-122567382D01*
X187731400Y-122857578D01*
X187788014Y-123142197D01*
X187899067Y-123410302D01*
X188060291Y-123651590D01*
X188208701Y-123800000D01*
X172458599Y-123800000D01*
X172594309Y-123664290D01*
X172755533Y-123423002D01*
X172866586Y-123154897D01*
X172923200Y-122870278D01*
X172923200Y-122580082D01*
X172866586Y-122295463D01*
X172755533Y-122027358D01*
X172594309Y-121786070D01*
X172389110Y-121580871D01*
X172378621Y-121573862D01*
X172563729Y-121388754D01*
X172720644Y-121153913D01*
X172828729Y-120892973D01*
X172883830Y-120615960D01*
X172883830Y-120333520D01*
X172828729Y-120056507D01*
X172720644Y-119795567D01*
X172563729Y-119560726D01*
X172364014Y-119361011D01*
X172129173Y-119204096D01*
X171868233Y-119096011D01*
X171591220Y-119040910D01*
X171308780Y-119040910D01*
X171031767Y-119096011D01*
X170770827Y-119204096D01*
X170535986Y-119361011D01*
X170336271Y-119560726D01*
X170179356Y-119795567D01*
X170071271Y-120056507D01*
X170016170Y-120333520D01*
X170016170Y-120615960D01*
X170071271Y-120892973D01*
X170179356Y-121153913D01*
X170336271Y-121388754D01*
X170521379Y-121573862D01*
X170510890Y-121580871D01*
X170305691Y-121786070D01*
X170144467Y-122027358D01*
X170033414Y-122295463D01*
X169976800Y-122580082D01*
X169976800Y-122870278D01*
X170033414Y-123154897D01*
X170144467Y-123423002D01*
X170305691Y-123664290D01*
X170441401Y-123800000D01*
X154653199Y-123800000D01*
X154814309Y-123638890D01*
X154975533Y-123397602D01*
X155086586Y-123129497D01*
X155143200Y-122844878D01*
X155143200Y-122554682D01*
X155086586Y-122270063D01*
X154975533Y-122001958D01*
X154814309Y-121760670D01*
X154609110Y-121555471D01*
X154598621Y-121548462D01*
X154783729Y-121363354D01*
X154940644Y-121128513D01*
X155048729Y-120867573D01*
X155103830Y-120590560D01*
X155103830Y-120308120D01*
X155048729Y-120031107D01*
X154940644Y-119770167D01*
X154783729Y-119535326D01*
X154584014Y-119335611D01*
X154349173Y-119178696D01*
X154088233Y-119070611D01*
X153811220Y-119015510D01*
X153528780Y-119015510D01*
X153251767Y-119070611D01*
X152990827Y-119178696D01*
X152755986Y-119335611D01*
X152556271Y-119535326D01*
X152399356Y-119770167D01*
X152291271Y-120031107D01*
X152236170Y-120308120D01*
X152236170Y-120590560D01*
X152291271Y-120867573D01*
X152399356Y-121128513D01*
X152556271Y-121363354D01*
X152741379Y-121548462D01*
X152730890Y-121555471D01*
X152525691Y-121760670D01*
X152364467Y-122001958D01*
X152253414Y-122270063D01*
X152196800Y-122554682D01*
X152196800Y-122844878D01*
X152253414Y-123129497D01*
X152364467Y-123397602D01*
X152525691Y-123638890D01*
X152686801Y-123800000D01*
X121310000Y-123800000D01*
X121310000Y-119159872D01*
X123495000Y-119159872D01*
X123495000Y-119600128D01*
X123580890Y-120031925D01*
X123749369Y-120438669D01*
X123993962Y-120804729D01*
X124305271Y-121116038D01*
X124671331Y-121360631D01*
X125078075Y-121529110D01*
X125509872Y-121615000D01*
X125950128Y-121615000D01*
X126381925Y-121529110D01*
X126788669Y-121360631D01*
X127154729Y-121116038D01*
X127466038Y-120804729D01*
X127710631Y-120438669D01*
X127879110Y-120031925D01*
X127965000Y-119600128D01*
X127965000Y-119159872D01*
X127879110Y-118728075D01*
X127710631Y-118321331D01*
X127684015Y-118281496D01*
X145707100Y-118281496D01*
X145707100Y-118619224D01*
X145772987Y-118950461D01*
X145902230Y-119262480D01*
X146089861Y-119543290D01*
X146328670Y-119782099D01*
X146609480Y-119969730D01*
X146921499Y-120098973D01*
X147252736Y-120164860D01*
X147590464Y-120164860D01*
X147921701Y-120098973D01*
X148233720Y-119969730D01*
X148514530Y-119782099D01*
X148753339Y-119543290D01*
X148940970Y-119262480D01*
X149070213Y-118950461D01*
X149136100Y-118619224D01*
X149136100Y-118281496D01*
X158203900Y-118281496D01*
X158203900Y-118619224D01*
X158269787Y-118950461D01*
X158399030Y-119262480D01*
X158586661Y-119543290D01*
X158825470Y-119782099D01*
X159106280Y-119969730D01*
X159418299Y-120098973D01*
X159749536Y-120164860D01*
X160087264Y-120164860D01*
X160418501Y-120098973D01*
X160730520Y-119969730D01*
X161011330Y-119782099D01*
X161250139Y-119543290D01*
X161437770Y-119262480D01*
X161567013Y-118950461D01*
X161632900Y-118619224D01*
X161632900Y-118306896D01*
X163487100Y-118306896D01*
X163487100Y-118644624D01*
X163552987Y-118975861D01*
X163682230Y-119287880D01*
X163869861Y-119568690D01*
X164108670Y-119807499D01*
X164389480Y-119995130D01*
X164701499Y-120124373D01*
X165032736Y-120190260D01*
X165370464Y-120190260D01*
X165701701Y-120124373D01*
X166013720Y-119995130D01*
X166294530Y-119807499D01*
X166533339Y-119568690D01*
X166720970Y-119287880D01*
X166850213Y-118975861D01*
X166916100Y-118644624D01*
X166916100Y-118306896D01*
X175983900Y-118306896D01*
X175983900Y-118644624D01*
X176049787Y-118975861D01*
X176179030Y-119287880D01*
X176366661Y-119568690D01*
X176605470Y-119807499D01*
X176886280Y-119995130D01*
X177198299Y-120124373D01*
X177529536Y-120190260D01*
X177867264Y-120190260D01*
X178198501Y-120124373D01*
X178510520Y-119995130D01*
X178791330Y-119807499D01*
X179030139Y-119568690D01*
X179217770Y-119287880D01*
X179347013Y-118975861D01*
X179412900Y-118644624D01*
X179412900Y-118306896D01*
X179410374Y-118294196D01*
X181241700Y-118294196D01*
X181241700Y-118631924D01*
X181307587Y-118963161D01*
X181436830Y-119275180D01*
X181624461Y-119555990D01*
X181863270Y-119794799D01*
X182144080Y-119982430D01*
X182456099Y-120111673D01*
X182787336Y-120177560D01*
X183125064Y-120177560D01*
X183456301Y-120111673D01*
X183768320Y-119982430D01*
X184049130Y-119794799D01*
X184287939Y-119555990D01*
X184475570Y-119275180D01*
X184604813Y-118963161D01*
X184670700Y-118631924D01*
X184670700Y-118294196D01*
X193738500Y-118294196D01*
X193738500Y-118631924D01*
X193804387Y-118963161D01*
X193933630Y-119275180D01*
X194121261Y-119555990D01*
X194360070Y-119794799D01*
X194640880Y-119982430D01*
X194952899Y-120111673D01*
X195284136Y-120177560D01*
X195621864Y-120177560D01*
X195953101Y-120111673D01*
X196265120Y-119982430D01*
X196545930Y-119794799D01*
X196784739Y-119555990D01*
X196972370Y-119275180D01*
X197101613Y-118963161D01*
X197167500Y-118631924D01*
X197167500Y-118306896D01*
X199047100Y-118306896D01*
X199047100Y-118644624D01*
X199112987Y-118975861D01*
X199242230Y-119287880D01*
X199429861Y-119568690D01*
X199668670Y-119807499D01*
X199949480Y-119995130D01*
X200261499Y-120124373D01*
X200592736Y-120190260D01*
X200930464Y-120190260D01*
X201261701Y-120124373D01*
X201573720Y-119995130D01*
X201854530Y-119807499D01*
X202093339Y-119568690D01*
X202280970Y-119287880D01*
X202410213Y-118975861D01*
X202476100Y-118644624D01*
X202476100Y-118306896D01*
X211543900Y-118306896D01*
X211543900Y-118644624D01*
X211609787Y-118975861D01*
X211739030Y-119287880D01*
X211926661Y-119568690D01*
X212165470Y-119807499D01*
X212446280Y-119995130D01*
X212758299Y-120124373D01*
X213089536Y-120190260D01*
X213427264Y-120190260D01*
X213758501Y-120124373D01*
X214070520Y-119995130D01*
X214351330Y-119807499D01*
X214590139Y-119568690D01*
X214777770Y-119287880D01*
X214830792Y-119159872D01*
X227635000Y-119159872D01*
X227635000Y-119600128D01*
X227720890Y-120031925D01*
X227889369Y-120438669D01*
X228133962Y-120804729D01*
X228445271Y-121116038D01*
X228811331Y-121360631D01*
X229218075Y-121529110D01*
X229649872Y-121615000D01*
X230090128Y-121615000D01*
X230521925Y-121529110D01*
X230928669Y-121360631D01*
X231294729Y-121116038D01*
X231606038Y-120804729D01*
X231850631Y-120438669D01*
X232019110Y-120031925D01*
X232105000Y-119600128D01*
X232105000Y-119159872D01*
X232019110Y-118728075D01*
X231850631Y-118321331D01*
X231606038Y-117955271D01*
X231294729Y-117643962D01*
X230928669Y-117399369D01*
X230521925Y-117230890D01*
X230090128Y-117145000D01*
X229649872Y-117145000D01*
X229218075Y-117230890D01*
X228811331Y-117399369D01*
X228445271Y-117643962D01*
X228133962Y-117955271D01*
X227889369Y-118321331D01*
X227720890Y-118728075D01*
X227635000Y-119159872D01*
X214830792Y-119159872D01*
X214907013Y-118975861D01*
X214972900Y-118644624D01*
X214972900Y-118306896D01*
X214907013Y-117975659D01*
X214777770Y-117663640D01*
X214590139Y-117382830D01*
X214351330Y-117144021D01*
X214070520Y-116956390D01*
X213758501Y-116827147D01*
X213427264Y-116761260D01*
X213089536Y-116761260D01*
X212758299Y-116827147D01*
X212446280Y-116956390D01*
X212165470Y-117144021D01*
X211926661Y-117382830D01*
X211739030Y-117663640D01*
X211609787Y-117975659D01*
X211543900Y-118306896D01*
X202476100Y-118306896D01*
X202410213Y-117975659D01*
X202280970Y-117663640D01*
X202093339Y-117382830D01*
X201854530Y-117144021D01*
X201573720Y-116956390D01*
X201261701Y-116827147D01*
X200930464Y-116761260D01*
X200592736Y-116761260D01*
X200261499Y-116827147D01*
X199949480Y-116956390D01*
X199668670Y-117144021D01*
X199429861Y-117382830D01*
X199242230Y-117663640D01*
X199112987Y-117975659D01*
X199047100Y-118306896D01*
X197167500Y-118306896D01*
X197167500Y-118294196D01*
X197101613Y-117962959D01*
X196972370Y-117650940D01*
X196784739Y-117370130D01*
X196545930Y-117131321D01*
X196265120Y-116943690D01*
X195953101Y-116814447D01*
X195621864Y-116748560D01*
X195284136Y-116748560D01*
X194952899Y-116814447D01*
X194640880Y-116943690D01*
X194360070Y-117131321D01*
X194121261Y-117370130D01*
X193933630Y-117650940D01*
X193804387Y-117962959D01*
X193738500Y-118294196D01*
X184670700Y-118294196D01*
X184604813Y-117962959D01*
X184475570Y-117650940D01*
X184287939Y-117370130D01*
X184049130Y-117131321D01*
X183768320Y-116943690D01*
X183456301Y-116814447D01*
X183125064Y-116748560D01*
X182787336Y-116748560D01*
X182456099Y-116814447D01*
X182144080Y-116943690D01*
X181863270Y-117131321D01*
X181624461Y-117370130D01*
X181436830Y-117650940D01*
X181307587Y-117962959D01*
X181241700Y-118294196D01*
X179410374Y-118294196D01*
X179347013Y-117975659D01*
X179217770Y-117663640D01*
X179030139Y-117382830D01*
X178791330Y-117144021D01*
X178510520Y-116956390D01*
X178198501Y-116827147D01*
X177867264Y-116761260D01*
X177529536Y-116761260D01*
X177198299Y-116827147D01*
X176886280Y-116956390D01*
X176605470Y-117144021D01*
X176366661Y-117382830D01*
X176179030Y-117663640D01*
X176049787Y-117975659D01*
X175983900Y-118306896D01*
X166916100Y-118306896D01*
X166850213Y-117975659D01*
X166720970Y-117663640D01*
X166533339Y-117382830D01*
X166294530Y-117144021D01*
X166013720Y-116956390D01*
X165701701Y-116827147D01*
X165370464Y-116761260D01*
X165032736Y-116761260D01*
X164701499Y-116827147D01*
X164389480Y-116956390D01*
X164108670Y-117144021D01*
X163869861Y-117382830D01*
X163682230Y-117663640D01*
X163552987Y-117975659D01*
X163487100Y-118306896D01*
X161632900Y-118306896D01*
X161632900Y-118281496D01*
X161567013Y-117950259D01*
X161437770Y-117638240D01*
X161250139Y-117357430D01*
X161011330Y-117118621D01*
X160730520Y-116930990D01*
X160418501Y-116801747D01*
X160087264Y-116735860D01*
X159749536Y-116735860D01*
X159418299Y-116801747D01*
X159106280Y-116930990D01*
X158825470Y-117118621D01*
X158586661Y-117357430D01*
X158399030Y-117638240D01*
X158269787Y-117950259D01*
X158203900Y-118281496D01*
X149136100Y-118281496D01*
X149070213Y-117950259D01*
X148940970Y-117638240D01*
X148753339Y-117357430D01*
X148514530Y-117118621D01*
X148233720Y-116930990D01*
X147921701Y-116801747D01*
X147590464Y-116735860D01*
X147252736Y-116735860D01*
X146921499Y-116801747D01*
X146609480Y-116930990D01*
X146328670Y-117118621D01*
X146089861Y-117357430D01*
X145902230Y-117638240D01*
X145772987Y-117950259D01*
X145707100Y-118281496D01*
X127684015Y-118281496D01*
X127466038Y-117955271D01*
X127154729Y-117643962D01*
X126788669Y-117399369D01*
X126381925Y-117230890D01*
X125950128Y-117145000D01*
X125509872Y-117145000D01*
X125078075Y-117230890D01*
X124671331Y-117399369D01*
X124305271Y-117643962D01*
X123993962Y-117955271D01*
X123749369Y-118321331D01*
X123580890Y-118728075D01*
X123495000Y-119159872D01*
X121310000Y-119159872D01*
X121310000Y-113282776D01*
X145707100Y-113282776D01*
X145707100Y-113620504D01*
X145772987Y-113951741D01*
X145902230Y-114263760D01*
X146089861Y-114544570D01*
X146328670Y-114783379D01*
X146609480Y-114971010D01*
X146921499Y-115100253D01*
X147252736Y-115166140D01*
X147590464Y-115166140D01*
X147921701Y-115100253D01*
X148233720Y-114971010D01*
X148514530Y-114783379D01*
X148654171Y-114643738D01*
X158905907Y-114643738D01*
X159011266Y-114916268D01*
X159314431Y-115065099D01*
X159640807Y-115151925D01*
X159977850Y-115173410D01*
X160312608Y-115128728D01*
X160632217Y-115019597D01*
X160825534Y-114916268D01*
X160930893Y-114643738D01*
X159918400Y-113631245D01*
X158905907Y-114643738D01*
X148654171Y-114643738D01*
X148753339Y-114544570D01*
X148940970Y-114263760D01*
X149070213Y-113951741D01*
X149136100Y-113620504D01*
X149136100Y-113511090D01*
X158196630Y-113511090D01*
X158241312Y-113845848D01*
X158350443Y-114165457D01*
X158453772Y-114358774D01*
X158726302Y-114464133D01*
X159738795Y-113451640D01*
X160098005Y-113451640D01*
X161110498Y-114464133D01*
X161383028Y-114358774D01*
X161531859Y-114055609D01*
X161618685Y-113729233D01*
X161640170Y-113392190D01*
X161628957Y-113308176D01*
X163487100Y-113308176D01*
X163487100Y-113645904D01*
X163552987Y-113977141D01*
X163682230Y-114289160D01*
X163869861Y-114569970D01*
X164108670Y-114808779D01*
X164389480Y-114996410D01*
X164701499Y-115125653D01*
X165032736Y-115191540D01*
X165370464Y-115191540D01*
X165701701Y-115125653D01*
X166013720Y-114996410D01*
X166294530Y-114808779D01*
X166434171Y-114669138D01*
X176685907Y-114669138D01*
X176791266Y-114941668D01*
X177094431Y-115090499D01*
X177420807Y-115177325D01*
X177757850Y-115198810D01*
X178092608Y-115154128D01*
X178412217Y-115044997D01*
X178605534Y-114941668D01*
X178710893Y-114669138D01*
X177698400Y-113656645D01*
X176685907Y-114669138D01*
X166434171Y-114669138D01*
X166533339Y-114569970D01*
X166720970Y-114289160D01*
X166850213Y-113977141D01*
X166916100Y-113645904D01*
X166916100Y-113536490D01*
X175976630Y-113536490D01*
X176021312Y-113871248D01*
X176130443Y-114190857D01*
X176233772Y-114384174D01*
X176506302Y-114489533D01*
X177518795Y-113477040D01*
X177878005Y-113477040D01*
X178890498Y-114489533D01*
X179163028Y-114384174D01*
X179311859Y-114081009D01*
X179398685Y-113754633D01*
X179420170Y-113417590D01*
X179403871Y-113295476D01*
X181241700Y-113295476D01*
X181241700Y-113633204D01*
X181307587Y-113964441D01*
X181436830Y-114276460D01*
X181624461Y-114557270D01*
X181863270Y-114796079D01*
X182144080Y-114983710D01*
X182456099Y-115112953D01*
X182787336Y-115178840D01*
X183125064Y-115178840D01*
X183456301Y-115112953D01*
X183768320Y-114983710D01*
X184049130Y-114796079D01*
X184188771Y-114656438D01*
X194440507Y-114656438D01*
X194545866Y-114928968D01*
X194849031Y-115077799D01*
X195175407Y-115164625D01*
X195512450Y-115186110D01*
X195847208Y-115141428D01*
X196166817Y-115032297D01*
X196360134Y-114928968D01*
X196465493Y-114656438D01*
X195453000Y-113643945D01*
X194440507Y-114656438D01*
X184188771Y-114656438D01*
X184287939Y-114557270D01*
X184475570Y-114276460D01*
X184604813Y-113964441D01*
X184670700Y-113633204D01*
X184670700Y-113523790D01*
X193731230Y-113523790D01*
X193775912Y-113858548D01*
X193885043Y-114178157D01*
X193988372Y-114371474D01*
X194260902Y-114476833D01*
X195273395Y-113464340D01*
X195632605Y-113464340D01*
X196645098Y-114476833D01*
X196917628Y-114371474D01*
X197066459Y-114068309D01*
X197153285Y-113741933D01*
X197174770Y-113404890D01*
X197161862Y-113308176D01*
X199047100Y-113308176D01*
X199047100Y-113645904D01*
X199112987Y-113977141D01*
X199242230Y-114289160D01*
X199429861Y-114569970D01*
X199668670Y-114808779D01*
X199949480Y-114996410D01*
X200261499Y-115125653D01*
X200592736Y-115191540D01*
X200930464Y-115191540D01*
X201261701Y-115125653D01*
X201573720Y-114996410D01*
X201854530Y-114808779D01*
X201994171Y-114669138D01*
X212245907Y-114669138D01*
X212351266Y-114941668D01*
X212654431Y-115090499D01*
X212980807Y-115177325D01*
X213317850Y-115198810D01*
X213652608Y-115154128D01*
X213972217Y-115044997D01*
X214165534Y-114941668D01*
X214270893Y-114669138D01*
X213258400Y-113656645D01*
X212245907Y-114669138D01*
X201994171Y-114669138D01*
X202093339Y-114569970D01*
X202280970Y-114289160D01*
X202410213Y-113977141D01*
X202476100Y-113645904D01*
X202476100Y-113536490D01*
X211536630Y-113536490D01*
X211581312Y-113871248D01*
X211690443Y-114190857D01*
X211793772Y-114384174D01*
X212066302Y-114489533D01*
X213078795Y-113477040D01*
X213438005Y-113477040D01*
X214450498Y-114489533D01*
X214723028Y-114384174D01*
X214871859Y-114081009D01*
X214958685Y-113754633D01*
X214980170Y-113417590D01*
X214935488Y-113082832D01*
X214826357Y-112763223D01*
X214723028Y-112569906D01*
X214450498Y-112464547D01*
X213438005Y-113477040D01*
X213078795Y-113477040D01*
X212066302Y-112464547D01*
X211793772Y-112569906D01*
X211644941Y-112873071D01*
X211558115Y-113199447D01*
X211536630Y-113536490D01*
X202476100Y-113536490D01*
X202476100Y-113308176D01*
X202410213Y-112976939D01*
X202280970Y-112664920D01*
X202093339Y-112384110D01*
X201854530Y-112145301D01*
X201573720Y-111957670D01*
X201261701Y-111828427D01*
X200930464Y-111762540D01*
X200592736Y-111762540D01*
X200261499Y-111828427D01*
X199949480Y-111957670D01*
X199668670Y-112145301D01*
X199429861Y-112384110D01*
X199242230Y-112664920D01*
X199112987Y-112976939D01*
X199047100Y-113308176D01*
X197161862Y-113308176D01*
X197130088Y-113070132D01*
X197020957Y-112750523D01*
X196917628Y-112557206D01*
X196645098Y-112451847D01*
X195632605Y-113464340D01*
X195273395Y-113464340D01*
X194260902Y-112451847D01*
X193988372Y-112557206D01*
X193839541Y-112860371D01*
X193752715Y-113186747D01*
X193731230Y-113523790D01*
X184670700Y-113523790D01*
X184670700Y-113295476D01*
X184604813Y-112964239D01*
X184475570Y-112652220D01*
X184287939Y-112371410D01*
X184049130Y-112132601D01*
X183768320Y-111944970D01*
X183456301Y-111815727D01*
X183125064Y-111749840D01*
X182787336Y-111749840D01*
X182456099Y-111815727D01*
X182144080Y-111944970D01*
X181863270Y-112132601D01*
X181624461Y-112371410D01*
X181436830Y-112652220D01*
X181307587Y-112964239D01*
X181241700Y-113295476D01*
X179403871Y-113295476D01*
X179375488Y-113082832D01*
X179266357Y-112763223D01*
X179163028Y-112569906D01*
X178890498Y-112464547D01*
X177878005Y-113477040D01*
X177518795Y-113477040D01*
X176506302Y-112464547D01*
X176233772Y-112569906D01*
X176084941Y-112873071D01*
X175998115Y-113199447D01*
X175976630Y-113536490D01*
X166916100Y-113536490D01*
X166916100Y-113308176D01*
X166850213Y-112976939D01*
X166720970Y-112664920D01*
X166533339Y-112384110D01*
X166294530Y-112145301D01*
X166013720Y-111957670D01*
X165701701Y-111828427D01*
X165370464Y-111762540D01*
X165032736Y-111762540D01*
X164701499Y-111828427D01*
X164389480Y-111957670D01*
X164108670Y-112145301D01*
X163869861Y-112384110D01*
X163682230Y-112664920D01*
X163552987Y-112976939D01*
X163487100Y-113308176D01*
X161628957Y-113308176D01*
X161595488Y-113057432D01*
X161486357Y-112737823D01*
X161383028Y-112544506D01*
X161110498Y-112439147D01*
X160098005Y-113451640D01*
X159738795Y-113451640D01*
X158726302Y-112439147D01*
X158453772Y-112544506D01*
X158304941Y-112847671D01*
X158218115Y-113174047D01*
X158196630Y-113511090D01*
X149136100Y-113511090D01*
X149136100Y-113282776D01*
X149070213Y-112951539D01*
X148940970Y-112639520D01*
X148753339Y-112358710D01*
X148514530Y-112119901D01*
X148233720Y-111932270D01*
X147921701Y-111803027D01*
X147590464Y-111737140D01*
X147252736Y-111737140D01*
X146921499Y-111803027D01*
X146609480Y-111932270D01*
X146328670Y-112119901D01*
X146089861Y-112358710D01*
X145902230Y-112639520D01*
X145772987Y-112951539D01*
X145707100Y-113282776D01*
X121310000Y-113282776D01*
X121310000Y-109057122D01*
X152196800Y-109057122D01*
X152196800Y-109347318D01*
X152253414Y-109631937D01*
X152364467Y-109900042D01*
X152525691Y-110141330D01*
X152730890Y-110346529D01*
X152741379Y-110353538D01*
X152556271Y-110538646D01*
X152399356Y-110773487D01*
X152291271Y-111034427D01*
X152236170Y-111311440D01*
X152236170Y-111593880D01*
X152291271Y-111870893D01*
X152399356Y-112131833D01*
X152556271Y-112366674D01*
X152755986Y-112566389D01*
X152990827Y-112723304D01*
X153251767Y-112831389D01*
X153528780Y-112886490D01*
X153811220Y-112886490D01*
X154088233Y-112831389D01*
X154349173Y-112723304D01*
X154584014Y-112566389D01*
X154783729Y-112366674D01*
X154855311Y-112259542D01*
X158905907Y-112259542D01*
X159918400Y-113272035D01*
X160930893Y-112259542D01*
X160825534Y-111987012D01*
X160522369Y-111838181D01*
X160195993Y-111751355D01*
X159858950Y-111729870D01*
X159524192Y-111774552D01*
X159204583Y-111883683D01*
X159011266Y-111987012D01*
X158905907Y-112259542D01*
X154855311Y-112259542D01*
X154940644Y-112131833D01*
X155048729Y-111870893D01*
X155103830Y-111593880D01*
X155103830Y-111311440D01*
X155048729Y-111034427D01*
X154940644Y-110773487D01*
X154783729Y-110538646D01*
X154598621Y-110353538D01*
X154609110Y-110346529D01*
X154814309Y-110141330D01*
X154975533Y-109900042D01*
X155086586Y-109631937D01*
X155143200Y-109347318D01*
X155143200Y-109082522D01*
X169976800Y-109082522D01*
X169976800Y-109372718D01*
X170033414Y-109657337D01*
X170144467Y-109925442D01*
X170305691Y-110166730D01*
X170510890Y-110371929D01*
X170521379Y-110378938D01*
X170336271Y-110564046D01*
X170179356Y-110798887D01*
X170071271Y-111059827D01*
X170016170Y-111336840D01*
X170016170Y-111619280D01*
X170071271Y-111896293D01*
X170179356Y-112157233D01*
X170336271Y-112392074D01*
X170535986Y-112591789D01*
X170770827Y-112748704D01*
X171031767Y-112856789D01*
X171308780Y-112911890D01*
X171591220Y-112911890D01*
X171868233Y-112856789D01*
X172129173Y-112748704D01*
X172364014Y-112591789D01*
X172563729Y-112392074D01*
X172635311Y-112284942D01*
X176685907Y-112284942D01*
X177698400Y-113297435D01*
X178710893Y-112284942D01*
X178605534Y-112012412D01*
X178302369Y-111863581D01*
X177975993Y-111776755D01*
X177638950Y-111755270D01*
X177304192Y-111799952D01*
X176984583Y-111909083D01*
X176791266Y-112012412D01*
X176685907Y-112284942D01*
X172635311Y-112284942D01*
X172720644Y-112157233D01*
X172828729Y-111896293D01*
X172883830Y-111619280D01*
X172883830Y-111336840D01*
X172828729Y-111059827D01*
X172720644Y-110798887D01*
X172563729Y-110564046D01*
X172378621Y-110378938D01*
X172389110Y-110371929D01*
X172594309Y-110166730D01*
X172755533Y-109925442D01*
X172866586Y-109657337D01*
X172923200Y-109372718D01*
X172923200Y-109082522D01*
X172920674Y-109069822D01*
X187731400Y-109069822D01*
X187731400Y-109360018D01*
X187788014Y-109644637D01*
X187899067Y-109912742D01*
X188060291Y-110154030D01*
X188265490Y-110359229D01*
X188275979Y-110366238D01*
X188090871Y-110551346D01*
X187933956Y-110786187D01*
X187825871Y-111047127D01*
X187770770Y-111324140D01*
X187770770Y-111606580D01*
X187825871Y-111883593D01*
X187933956Y-112144533D01*
X188090871Y-112379374D01*
X188290586Y-112579089D01*
X188525427Y-112736004D01*
X188786367Y-112844089D01*
X189063380Y-112899190D01*
X189345820Y-112899190D01*
X189622833Y-112844089D01*
X189883773Y-112736004D01*
X190118614Y-112579089D01*
X190318329Y-112379374D01*
X190389911Y-112272242D01*
X194440507Y-112272242D01*
X195453000Y-113284735D01*
X196465493Y-112272242D01*
X196360134Y-111999712D01*
X196056969Y-111850881D01*
X195730593Y-111764055D01*
X195393550Y-111742570D01*
X195058792Y-111787252D01*
X194739183Y-111896383D01*
X194545866Y-111999712D01*
X194440507Y-112272242D01*
X190389911Y-112272242D01*
X190475244Y-112144533D01*
X190583329Y-111883593D01*
X190638430Y-111606580D01*
X190638430Y-111324140D01*
X190583329Y-111047127D01*
X190475244Y-110786187D01*
X190318329Y-110551346D01*
X190133221Y-110366238D01*
X190143710Y-110359229D01*
X190348909Y-110154030D01*
X190510133Y-109912742D01*
X190621186Y-109644637D01*
X190677800Y-109360018D01*
X190677800Y-109082522D01*
X205536800Y-109082522D01*
X205536800Y-109372718D01*
X205593414Y-109657337D01*
X205704467Y-109925442D01*
X205865691Y-110166730D01*
X206070890Y-110371929D01*
X206081379Y-110378938D01*
X205896271Y-110564046D01*
X205739356Y-110798887D01*
X205631271Y-111059827D01*
X205576170Y-111336840D01*
X205576170Y-111619280D01*
X205631271Y-111896293D01*
X205739356Y-112157233D01*
X205896271Y-112392074D01*
X206095986Y-112591789D01*
X206330827Y-112748704D01*
X206591767Y-112856789D01*
X206868780Y-112911890D01*
X207151220Y-112911890D01*
X207428233Y-112856789D01*
X207689173Y-112748704D01*
X207924014Y-112591789D01*
X208123729Y-112392074D01*
X208195311Y-112284942D01*
X212245907Y-112284942D01*
X213258400Y-113297435D01*
X214270893Y-112284942D01*
X214165534Y-112012412D01*
X213862369Y-111863581D01*
X213535993Y-111776755D01*
X213198950Y-111755270D01*
X212864192Y-111799952D01*
X212544583Y-111909083D01*
X212351266Y-112012412D01*
X212245907Y-112284942D01*
X208195311Y-112284942D01*
X208280644Y-112157233D01*
X208388729Y-111896293D01*
X208443830Y-111619280D01*
X208443830Y-111336840D01*
X208388729Y-111059827D01*
X208280644Y-110798887D01*
X208123729Y-110564046D01*
X207938621Y-110378938D01*
X207949110Y-110371929D01*
X208154309Y-110166730D01*
X208315533Y-109925442D01*
X208426586Y-109657337D01*
X208483200Y-109372718D01*
X208483200Y-109082522D01*
X208426586Y-108797903D01*
X208315533Y-108529798D01*
X208154309Y-108288510D01*
X207949110Y-108083311D01*
X207707822Y-107922087D01*
X207439717Y-107811034D01*
X207155098Y-107754420D01*
X206864902Y-107754420D01*
X206580283Y-107811034D01*
X206312178Y-107922087D01*
X206070890Y-108083311D01*
X205865691Y-108288510D01*
X205704467Y-108529798D01*
X205593414Y-108797903D01*
X205536800Y-109082522D01*
X190677800Y-109082522D01*
X190677800Y-109069822D01*
X190621186Y-108785203D01*
X190510133Y-108517098D01*
X190348909Y-108275810D01*
X190143710Y-108070611D01*
X189902422Y-107909387D01*
X189634317Y-107798334D01*
X189349698Y-107741720D01*
X189059502Y-107741720D01*
X188774883Y-107798334D01*
X188506778Y-107909387D01*
X188265490Y-108070611D01*
X188060291Y-108275810D01*
X187899067Y-108517098D01*
X187788014Y-108785203D01*
X187731400Y-109069822D01*
X172920674Y-109069822D01*
X172866586Y-108797903D01*
X172755533Y-108529798D01*
X172594309Y-108288510D01*
X172389110Y-108083311D01*
X172147822Y-107922087D01*
X171879717Y-107811034D01*
X171595098Y-107754420D01*
X171304902Y-107754420D01*
X171020283Y-107811034D01*
X170752178Y-107922087D01*
X170510890Y-108083311D01*
X170305691Y-108288510D01*
X170144467Y-108529798D01*
X170033414Y-108797903D01*
X169976800Y-109082522D01*
X155143200Y-109082522D01*
X155143200Y-109057122D01*
X155086586Y-108772503D01*
X154975533Y-108504398D01*
X154814309Y-108263110D01*
X154609110Y-108057911D01*
X154367822Y-107896687D01*
X154099717Y-107785634D01*
X153815098Y-107729020D01*
X153524902Y-107729020D01*
X153240283Y-107785634D01*
X152972178Y-107896687D01*
X152730890Y-108057911D01*
X152525691Y-108263110D01*
X152364467Y-108504398D01*
X152253414Y-108772503D01*
X152196800Y-109057122D01*
X121310000Y-109057122D01*
X121310000Y-106398021D01*
X129650000Y-106398021D01*
X129650000Y-106961978D01*
X129666785Y-107132399D01*
X129733115Y-107351059D01*
X129840829Y-107552578D01*
X129985788Y-107729212D01*
X130162421Y-107874171D01*
X130363940Y-107981885D01*
X130582600Y-108048215D01*
X130810000Y-108070612D01*
X131037399Y-108048215D01*
X131256059Y-107981885D01*
X131445000Y-107880894D01*
X131633940Y-107981885D01*
X131852600Y-108048215D01*
X132080000Y-108070612D01*
X132307399Y-108048215D01*
X132516098Y-107984907D01*
X132580820Y-108019502D01*
X132700518Y-108055812D01*
X132825000Y-108068072D01*
X133875000Y-108068072D01*
X133999482Y-108055812D01*
X134119180Y-108019502D01*
X134229494Y-107960537D01*
X134326185Y-107881185D01*
X134405537Y-107784494D01*
X134464502Y-107674180D01*
X134500812Y-107554482D01*
X134513072Y-107430000D01*
X134513072Y-105930000D01*
X134500812Y-105805518D01*
X134464502Y-105685820D01*
X134405537Y-105575506D01*
X134326185Y-105478815D01*
X134229494Y-105399463D01*
X134119180Y-105340498D01*
X133999482Y-105304188D01*
X133875000Y-105291928D01*
X132825000Y-105291928D01*
X132700518Y-105304188D01*
X132580820Y-105340498D01*
X132516098Y-105375093D01*
X132307400Y-105311785D01*
X132080000Y-105289388D01*
X131852601Y-105311785D01*
X131633941Y-105378115D01*
X131445000Y-105479106D01*
X131256060Y-105378115D01*
X131037400Y-105311785D01*
X130810000Y-105289388D01*
X130582601Y-105311785D01*
X130363941Y-105378115D01*
X130162422Y-105485829D01*
X129985789Y-105630788D01*
X129840830Y-105807421D01*
X129733115Y-106008940D01*
X129666785Y-106227600D01*
X129650000Y-106398021D01*
X121310000Y-106398021D01*
X121310000Y-104681872D01*
X144323000Y-104681872D01*
X144323000Y-105122128D01*
X144408890Y-105553925D01*
X144577369Y-105960669D01*
X144821962Y-106326729D01*
X145133271Y-106638038D01*
X145499331Y-106882631D01*
X145906075Y-107051110D01*
X146337872Y-107137000D01*
X146778128Y-107137000D01*
X147209925Y-107051110D01*
X147616669Y-106882631D01*
X147982729Y-106638038D01*
X148294038Y-106326729D01*
X148538631Y-105960669D01*
X148707110Y-105553925D01*
X148793000Y-105122128D01*
X148793000Y-104681872D01*
X148707110Y-104250075D01*
X148538631Y-103843331D01*
X148294038Y-103477271D01*
X147982729Y-103165962D01*
X147616669Y-102921369D01*
X147209925Y-102752890D01*
X146778128Y-102667000D01*
X146337872Y-102667000D01*
X145906075Y-102752890D01*
X145499331Y-102921369D01*
X145133271Y-103165962D01*
X144821962Y-103477271D01*
X144577369Y-103843331D01*
X144408890Y-104250075D01*
X144323000Y-104681872D01*
X121310000Y-104681872D01*
X121310000Y-77314896D01*
X122885200Y-77314896D01*
X122885200Y-77625104D01*
X122945718Y-77929352D01*
X123064430Y-78215948D01*
X123236773Y-78473877D01*
X123456123Y-78693227D01*
X123526124Y-78740000D01*
X123456123Y-78786773D01*
X123236773Y-79006123D01*
X123064430Y-79264052D01*
X122945718Y-79550648D01*
X122885200Y-79854896D01*
X122885200Y-80165104D01*
X122945718Y-80469352D01*
X123064430Y-80755948D01*
X123236773Y-81013877D01*
X123456123Y-81233227D01*
X123526124Y-81280000D01*
X123456123Y-81326773D01*
X123236773Y-81546123D01*
X123064430Y-81804052D01*
X122945718Y-82090648D01*
X122885200Y-82394896D01*
X122885200Y-82705104D01*
X122945718Y-83009352D01*
X123064430Y-83295948D01*
X123236773Y-83553877D01*
X123456123Y-83773227D01*
X123526124Y-83820000D01*
X123456123Y-83866773D01*
X123236773Y-84086123D01*
X123064430Y-84344052D01*
X122945718Y-84630648D01*
X122885200Y-84934896D01*
X122885200Y-85245104D01*
X122945718Y-85549352D01*
X123064430Y-85835948D01*
X123236773Y-86093877D01*
X123456123Y-86313227D01*
X123526124Y-86360000D01*
X123456123Y-86406773D01*
X123236773Y-86626123D01*
X123064430Y-86884052D01*
X122945718Y-87170648D01*
X122885200Y-87474896D01*
X122885200Y-87785104D01*
X122945718Y-88089352D01*
X123064430Y-88375948D01*
X123236773Y-88633877D01*
X123456123Y-88853227D01*
X123526124Y-88900000D01*
X123456123Y-88946773D01*
X123236773Y-89166123D01*
X123064430Y-89424052D01*
X122945718Y-89710648D01*
X122885200Y-90014896D01*
X122885200Y-90325104D01*
X122945718Y-90629352D01*
X123064430Y-90915948D01*
X123236773Y-91173877D01*
X123456123Y-91393227D01*
X123526124Y-91440000D01*
X123456123Y-91486773D01*
X123236773Y-91706123D01*
X123064430Y-91964052D01*
X122945718Y-92250648D01*
X122885200Y-92554896D01*
X122885200Y-92865104D01*
X122945718Y-93169352D01*
X123064430Y-93455948D01*
X123236773Y-93713877D01*
X123456123Y-93933227D01*
X123526124Y-93980000D01*
X123456123Y-94026773D01*
X123236773Y-94246123D01*
X123064430Y-94504052D01*
X122945718Y-94790648D01*
X122885200Y-95094896D01*
X122885200Y-95405104D01*
X122945718Y-95709352D01*
X123064430Y-95995948D01*
X123236773Y-96253877D01*
X123456123Y-96473227D01*
X123526124Y-96520000D01*
X123456123Y-96566773D01*
X123236773Y-96786123D01*
X123064430Y-97044052D01*
X122945718Y-97330648D01*
X122885200Y-97634896D01*
X122885200Y-97945104D01*
X122945718Y-98249352D01*
X123064430Y-98535948D01*
X123236773Y-98793877D01*
X123456123Y-99013227D01*
X123526124Y-99060000D01*
X123456123Y-99106773D01*
X123236773Y-99326123D01*
X123064430Y-99584052D01*
X122945718Y-99870648D01*
X122885200Y-100174896D01*
X122885200Y-100485104D01*
X122945718Y-100789352D01*
X123064430Y-101075948D01*
X123236773Y-101333877D01*
X123456123Y-101553227D01*
X123714052Y-101725570D01*
X124000648Y-101844282D01*
X124304896Y-101904800D01*
X124615104Y-101904800D01*
X124919352Y-101844282D01*
X125205948Y-101725570D01*
X125463877Y-101553227D01*
X125683227Y-101333877D01*
X125855570Y-101075948D01*
X125974282Y-100789352D01*
X126034800Y-100485104D01*
X126034800Y-100174896D01*
X125974282Y-99870648D01*
X125855570Y-99584052D01*
X125683227Y-99326123D01*
X125463877Y-99106773D01*
X125393876Y-99060000D01*
X125463877Y-99013227D01*
X125683227Y-98793877D01*
X125855570Y-98535948D01*
X125974282Y-98249352D01*
X126034800Y-97945104D01*
X126034800Y-97634896D01*
X125974282Y-97330648D01*
X125855570Y-97044052D01*
X125683227Y-96786123D01*
X125463877Y-96566773D01*
X125393876Y-96520000D01*
X125463877Y-96473227D01*
X125683227Y-96253877D01*
X125855570Y-95995948D01*
X125974282Y-95709352D01*
X126034800Y-95405104D01*
X126034800Y-95094896D01*
X125974282Y-94790648D01*
X125855570Y-94504052D01*
X125683227Y-94246123D01*
X125463877Y-94026773D01*
X125393876Y-93980000D01*
X125463877Y-93933227D01*
X125683227Y-93713877D01*
X125855570Y-93455948D01*
X125974282Y-93169352D01*
X126034800Y-92865104D01*
X126034800Y-92554896D01*
X125974282Y-92250648D01*
X125855570Y-91964052D01*
X125683227Y-91706123D01*
X125463877Y-91486773D01*
X125393876Y-91440000D01*
X125463877Y-91393227D01*
X125683227Y-91173877D01*
X125855570Y-90915948D01*
X125974282Y-90629352D01*
X126034800Y-90325104D01*
X126034800Y-90014896D01*
X125974282Y-89710648D01*
X125855570Y-89424052D01*
X125683227Y-89166123D01*
X125463877Y-88946773D01*
X125393876Y-88900000D01*
X125463877Y-88853227D01*
X125683227Y-88633877D01*
X125855570Y-88375948D01*
X125974282Y-88089352D01*
X126034800Y-87785104D01*
X126034800Y-87474896D01*
X125974282Y-87170648D01*
X125855570Y-86884052D01*
X125683227Y-86626123D01*
X125463877Y-86406773D01*
X125393876Y-86360000D01*
X125463877Y-86313227D01*
X125683227Y-86093877D01*
X125855570Y-85835948D01*
X125974282Y-85549352D01*
X126034800Y-85245104D01*
X126034800Y-84934896D01*
X125974282Y-84630648D01*
X125855570Y-84344052D01*
X125683227Y-84086123D01*
X125463877Y-83866773D01*
X125393876Y-83820000D01*
X125463877Y-83773227D01*
X125683227Y-83553877D01*
X125855570Y-83295948D01*
X125974282Y-83009352D01*
X126034800Y-82705104D01*
X126034800Y-82394896D01*
X125974282Y-82090648D01*
X125855570Y-81804052D01*
X125683227Y-81546123D01*
X125463877Y-81326773D01*
X125393876Y-81280000D01*
X125463877Y-81233227D01*
X125683227Y-81013877D01*
X125855570Y-80755948D01*
X125974282Y-80469352D01*
X126034800Y-80165104D01*
X126034800Y-79854896D01*
X125974282Y-79550648D01*
X125855570Y-79264052D01*
X125683227Y-79006123D01*
X125463877Y-78786773D01*
X125393876Y-78740000D01*
X125463877Y-78693227D01*
X125683227Y-78473877D01*
X125855570Y-78215948D01*
X125974282Y-77929352D01*
X126034800Y-77625104D01*
X126034800Y-77314896D01*
X125974282Y-77010648D01*
X125855570Y-76724052D01*
X125683227Y-76466123D01*
X125463877Y-76246773D01*
X125327286Y-76155505D01*
X125372871Y-76022476D01*
X124460000Y-75109605D01*
X123547129Y-76022476D01*
X123592714Y-76155505D01*
X123456123Y-76246773D01*
X123236773Y-76466123D01*
X123064430Y-76724052D01*
X122945718Y-77010648D01*
X122885200Y-77314896D01*
X121310000Y-77314896D01*
X121310000Y-74994977D01*
X122878916Y-74994977D01*
X122921973Y-75302184D01*
X123024135Y-75595086D01*
X123109277Y-75754377D01*
X123367524Y-75842871D01*
X124280395Y-74930000D01*
X124639605Y-74930000D01*
X125552476Y-75842871D01*
X125810723Y-75754377D01*
X125945597Y-75475024D01*
X126023381Y-75174725D01*
X126041084Y-74865023D01*
X125998027Y-74557816D01*
X125895865Y-74264914D01*
X125810723Y-74105623D01*
X125552476Y-74017129D01*
X124639605Y-74930000D01*
X124280395Y-74930000D01*
X123367524Y-74017129D01*
X123109277Y-74105623D01*
X122974403Y-74384976D01*
X122896619Y-74685275D01*
X122878916Y-74994977D01*
X121310000Y-74994977D01*
X121310000Y-72234896D01*
X122885200Y-72234896D01*
X122885200Y-72545104D01*
X122945718Y-72849352D01*
X123064430Y-73135948D01*
X123236773Y-73393877D01*
X123456123Y-73613227D01*
X123592714Y-73704495D01*
X123547129Y-73837524D01*
X124460000Y-74750395D01*
X125372871Y-73837524D01*
X125327286Y-73704495D01*
X125463877Y-73613227D01*
X125683227Y-73393877D01*
X125855570Y-73135948D01*
X125974282Y-72849352D01*
X126034800Y-72545104D01*
X126034800Y-72234896D01*
X125974282Y-71930648D01*
X125855570Y-71644052D01*
X125683227Y-71386123D01*
X125463877Y-71166773D01*
X125205948Y-70994430D01*
X124919352Y-70875718D01*
X124615104Y-70815200D01*
X124304896Y-70815200D01*
X124000648Y-70875718D01*
X123714052Y-70994430D01*
X123456123Y-71166773D01*
X123236773Y-71386123D01*
X123064430Y-71644052D01*
X122945718Y-71930648D01*
X122885200Y-72234896D01*
X121310000Y-72234896D01*
X121310000Y-50579872D01*
X123495000Y-50579872D01*
X123495000Y-51020128D01*
X123580890Y-51451925D01*
X123749369Y-51858669D01*
X123993962Y-52224729D01*
X124305271Y-52536038D01*
X124671331Y-52780631D01*
X125078075Y-52949110D01*
X125509872Y-53035000D01*
X125950128Y-53035000D01*
X126381925Y-52949110D01*
X126404403Y-52939799D01*
X137671523Y-52939799D01*
X137675200Y-52977132D01*
X137675199Y-85659783D01*
X137671523Y-85697105D01*
X137675199Y-85734427D01*
X137675199Y-85734437D01*
X137686196Y-85846090D01*
X137711809Y-85930525D01*
X137729653Y-85989351D01*
X137800225Y-86121381D01*
X137840070Y-86169931D01*
X137895198Y-86237106D01*
X137924201Y-86260908D01*
X138401728Y-86738436D01*
X138304430Y-86884052D01*
X138185718Y-87170648D01*
X138125200Y-87474896D01*
X138125200Y-87785104D01*
X138185718Y-88089352D01*
X138304430Y-88375948D01*
X138476773Y-88633877D01*
X138696123Y-88853227D01*
X138766124Y-88900000D01*
X138696123Y-88946773D01*
X138476773Y-89166123D01*
X138304430Y-89424052D01*
X138185718Y-89710648D01*
X138125200Y-90014896D01*
X138125200Y-90325104D01*
X138185718Y-90629352D01*
X138304430Y-90915948D01*
X138476773Y-91173877D01*
X138696123Y-91393227D01*
X138766124Y-91440000D01*
X138696123Y-91486773D01*
X138476773Y-91706123D01*
X138304430Y-91964052D01*
X138185718Y-92250648D01*
X138125200Y-92554896D01*
X138125200Y-92865104D01*
X138185718Y-93169352D01*
X138304430Y-93455948D01*
X138476773Y-93713877D01*
X138696123Y-93933227D01*
X138766124Y-93980000D01*
X138696123Y-94026773D01*
X138476773Y-94246123D01*
X138304430Y-94504052D01*
X138185718Y-94790648D01*
X138125200Y-95094896D01*
X138125200Y-95405104D01*
X138185718Y-95709352D01*
X138304430Y-95995948D01*
X138476773Y-96253877D01*
X138696123Y-96473227D01*
X138766124Y-96520000D01*
X138696123Y-96566773D01*
X138476773Y-96786123D01*
X138304430Y-97044052D01*
X138185718Y-97330648D01*
X138125200Y-97634896D01*
X138125200Y-97945104D01*
X138185718Y-98249352D01*
X138304430Y-98535948D01*
X138476773Y-98793877D01*
X138696123Y-99013227D01*
X138766124Y-99060000D01*
X138696123Y-99106773D01*
X138476773Y-99326123D01*
X138304430Y-99584052D01*
X138185718Y-99870648D01*
X138125200Y-100174896D01*
X138125200Y-100485104D01*
X138185718Y-100789352D01*
X138304430Y-101075948D01*
X138476773Y-101333877D01*
X138696123Y-101553227D01*
X138954052Y-101725570D01*
X139240648Y-101844282D01*
X139544896Y-101904800D01*
X139855104Y-101904800D01*
X140159352Y-101844282D01*
X140445948Y-101725570D01*
X140703877Y-101553227D01*
X140923227Y-101333877D01*
X141095570Y-101075948D01*
X141214282Y-100789352D01*
X141274800Y-100485104D01*
X141274800Y-100174896D01*
X141214282Y-99870648D01*
X141095570Y-99584052D01*
X140923227Y-99326123D01*
X140703877Y-99106773D01*
X140633876Y-99060000D01*
X140703877Y-99013227D01*
X140923227Y-98793877D01*
X141095570Y-98535948D01*
X141214282Y-98249352D01*
X141274800Y-97945104D01*
X141274800Y-97634896D01*
X141214282Y-97330648D01*
X141095570Y-97044052D01*
X140923227Y-96786123D01*
X140703877Y-96566773D01*
X140633876Y-96520000D01*
X140703877Y-96473227D01*
X140923227Y-96253877D01*
X141095570Y-95995948D01*
X141214282Y-95709352D01*
X141274800Y-95405104D01*
X141274800Y-95094896D01*
X141214282Y-94790648D01*
X141095570Y-94504052D01*
X140923227Y-94246123D01*
X140703877Y-94026773D01*
X140633876Y-93980000D01*
X140703877Y-93933227D01*
X140923227Y-93713877D01*
X141095570Y-93455948D01*
X141214282Y-93169352D01*
X141274800Y-92865104D01*
X141274800Y-92554896D01*
X141214282Y-92250648D01*
X141095570Y-91964052D01*
X140923227Y-91706123D01*
X140703877Y-91486773D01*
X140633876Y-91440000D01*
X140703877Y-91393227D01*
X140923227Y-91173877D01*
X141095570Y-90915948D01*
X141214282Y-90629352D01*
X141274800Y-90325104D01*
X141274800Y-90014896D01*
X141214282Y-89710648D01*
X141095570Y-89424052D01*
X140923227Y-89166123D01*
X140703877Y-88946773D01*
X140633876Y-88900000D01*
X140703877Y-88853227D01*
X140923227Y-88633877D01*
X141095570Y-88375948D01*
X141138767Y-88271662D01*
X160205108Y-107338004D01*
X160228906Y-107367002D01*
X160257904Y-107390800D01*
X160344630Y-107461975D01*
X160476660Y-107532547D01*
X160619921Y-107576004D01*
X160731574Y-107587001D01*
X160731584Y-107587001D01*
X160768907Y-107590677D01*
X160806230Y-107587001D01*
X205555677Y-107587001D01*
X205592999Y-107590677D01*
X205630321Y-107587001D01*
X205630332Y-107587001D01*
X205741985Y-107576004D01*
X205885246Y-107532547D01*
X206017275Y-107461975D01*
X206133000Y-107367002D01*
X206156803Y-107337998D01*
X208319802Y-105175000D01*
X208381939Y-105175000D01*
X208581898Y-105135226D01*
X208770256Y-105057205D01*
X208939774Y-104943937D01*
X209083937Y-104799774D01*
X209197205Y-104630256D01*
X209275226Y-104441898D01*
X209315000Y-104241939D01*
X209315000Y-104038061D01*
X209275226Y-103838102D01*
X209197205Y-103649744D01*
X209083937Y-103480226D01*
X208939774Y-103336063D01*
X208836084Y-103266780D01*
X212596453Y-103266780D01*
X212385962Y-103477271D01*
X212141369Y-103843331D01*
X211972890Y-104250075D01*
X211887000Y-104681872D01*
X211887000Y-105122128D01*
X211972890Y-105553925D01*
X212141369Y-105960669D01*
X212385962Y-106326729D01*
X212697271Y-106638038D01*
X213063331Y-106882631D01*
X213470075Y-107051110D01*
X213901872Y-107137000D01*
X214342128Y-107137000D01*
X214773925Y-107051110D01*
X215180669Y-106882631D01*
X215546729Y-106638038D01*
X215858038Y-106326729D01*
X216102631Y-105960669D01*
X216271110Y-105553925D01*
X216357000Y-105122128D01*
X216357000Y-104681872D01*
X216271110Y-104250075D01*
X216102631Y-103843331D01*
X215858038Y-103477271D01*
X215647547Y-103266780D01*
X224796013Y-103266780D01*
X224915691Y-103445890D01*
X225120890Y-103651089D01*
X225362178Y-103812313D01*
X225630283Y-103923366D01*
X225914902Y-103979980D01*
X226205098Y-103979980D01*
X226489717Y-103923366D01*
X226757822Y-103812313D01*
X226999110Y-103651089D01*
X227204309Y-103445890D01*
X227365533Y-103204602D01*
X227476586Y-102936497D01*
X227533200Y-102651878D01*
X227533200Y-102361682D01*
X227476586Y-102077063D01*
X227365533Y-101808958D01*
X227204309Y-101567670D01*
X226999110Y-101362471D01*
X226988621Y-101355462D01*
X227173729Y-101170354D01*
X227330644Y-100935513D01*
X227438729Y-100674573D01*
X227493830Y-100397560D01*
X227493830Y-100115120D01*
X227438729Y-99838107D01*
X227330644Y-99577167D01*
X227173729Y-99342326D01*
X226974014Y-99142611D01*
X226786562Y-99017360D01*
X230767441Y-99017360D01*
X230789030Y-99069480D01*
X230976661Y-99350290D01*
X231215470Y-99589099D01*
X231496280Y-99776730D01*
X231808299Y-99905973D01*
X232139536Y-99971860D01*
X232477264Y-99971860D01*
X232808501Y-99905973D01*
X233120520Y-99776730D01*
X233401330Y-99589099D01*
X233640139Y-99350290D01*
X233827770Y-99069480D01*
X233957013Y-98757461D01*
X234022900Y-98426224D01*
X234022900Y-98088496D01*
X233957013Y-97757259D01*
X233827770Y-97445240D01*
X233640139Y-97164430D01*
X233401330Y-96925621D01*
X233120520Y-96737990D01*
X232808501Y-96608747D01*
X232477264Y-96542860D01*
X232139536Y-96542860D01*
X231808299Y-96608747D01*
X231496280Y-96737990D01*
X231215470Y-96925621D01*
X230976661Y-97164430D01*
X230789030Y-97445240D01*
X230767441Y-97497360D01*
X221927584Y-97497360D01*
X221890261Y-97493684D01*
X221852938Y-97497360D01*
X221852929Y-97497360D01*
X221741276Y-97508357D01*
X221598015Y-97551814D01*
X221465986Y-97622386D01*
X221419984Y-97660139D01*
X221330970Y-97445240D01*
X221143339Y-97164430D01*
X220904530Y-96925621D01*
X220623720Y-96737990D01*
X220311701Y-96608747D01*
X219980464Y-96542860D01*
X219642736Y-96542860D01*
X219311499Y-96608747D01*
X218999480Y-96737990D01*
X218718670Y-96925621D01*
X218479861Y-97164430D01*
X218292230Y-97445240D01*
X218162987Y-97757259D01*
X218097100Y-98088496D01*
X218097100Y-98426224D01*
X218162987Y-98757461D01*
X218222800Y-98901861D01*
X204701663Y-98901861D01*
X198889578Y-93089776D01*
X218097100Y-93089776D01*
X218097100Y-93427504D01*
X218162987Y-93758741D01*
X218292230Y-94070760D01*
X218479861Y-94351570D01*
X218718670Y-94590379D01*
X218999480Y-94778010D01*
X219311499Y-94907253D01*
X219642736Y-94973140D01*
X219980464Y-94973140D01*
X220311701Y-94907253D01*
X220623720Y-94778010D01*
X220904530Y-94590379D01*
X221044171Y-94450738D01*
X231295907Y-94450738D01*
X231401266Y-94723268D01*
X231704431Y-94872099D01*
X232030807Y-94958925D01*
X232367850Y-94980410D01*
X232702608Y-94935728D01*
X233022217Y-94826597D01*
X233215534Y-94723268D01*
X233320893Y-94450738D01*
X232308400Y-93438245D01*
X231295907Y-94450738D01*
X221044171Y-94450738D01*
X221143339Y-94351570D01*
X221330970Y-94070760D01*
X221460213Y-93758741D01*
X221526100Y-93427504D01*
X221526100Y-93318090D01*
X230586630Y-93318090D01*
X230631312Y-93652848D01*
X230740443Y-93972457D01*
X230843772Y-94165774D01*
X231116302Y-94271133D01*
X232128795Y-93258640D01*
X232488005Y-93258640D01*
X233500498Y-94271133D01*
X233773028Y-94165774D01*
X233921859Y-93862609D01*
X234008685Y-93536233D01*
X234030170Y-93199190D01*
X233985488Y-92864432D01*
X233876357Y-92544823D01*
X233773028Y-92351506D01*
X233500498Y-92246147D01*
X232488005Y-93258640D01*
X232128795Y-93258640D01*
X231116302Y-92246147D01*
X230843772Y-92351506D01*
X230694941Y-92654671D01*
X230608115Y-92981047D01*
X230586630Y-93318090D01*
X221526100Y-93318090D01*
X221526100Y-93089776D01*
X221460213Y-92758539D01*
X221330970Y-92446520D01*
X221143339Y-92165710D01*
X220904530Y-91926901D01*
X220623720Y-91739270D01*
X220311701Y-91610027D01*
X219980464Y-91544140D01*
X219642736Y-91544140D01*
X219311499Y-91610027D01*
X218999480Y-91739270D01*
X218718670Y-91926901D01*
X218479861Y-92165710D01*
X218292230Y-92446520D01*
X218162987Y-92758539D01*
X218097100Y-93089776D01*
X198889578Y-93089776D01*
X194663924Y-88864122D01*
X224586800Y-88864122D01*
X224586800Y-89154318D01*
X224643414Y-89438937D01*
X224754467Y-89707042D01*
X224915691Y-89948330D01*
X225120890Y-90153529D01*
X225131379Y-90160538D01*
X224946271Y-90345646D01*
X224789356Y-90580487D01*
X224681271Y-90841427D01*
X224626170Y-91118440D01*
X224626170Y-91400880D01*
X224681271Y-91677893D01*
X224789356Y-91938833D01*
X224946271Y-92173674D01*
X225145986Y-92373389D01*
X225380827Y-92530304D01*
X225641767Y-92638389D01*
X225918780Y-92693490D01*
X226201220Y-92693490D01*
X226478233Y-92638389D01*
X226739173Y-92530304D01*
X226974014Y-92373389D01*
X227173729Y-92173674D01*
X227245311Y-92066542D01*
X231295907Y-92066542D01*
X232308400Y-93079035D01*
X233320893Y-92066542D01*
X233215534Y-91794012D01*
X232912369Y-91645181D01*
X232585993Y-91558355D01*
X232248950Y-91536870D01*
X231914192Y-91581552D01*
X231594583Y-91690683D01*
X231401266Y-91794012D01*
X231295907Y-92066542D01*
X227245311Y-92066542D01*
X227330644Y-91938833D01*
X227438729Y-91677893D01*
X227493830Y-91400880D01*
X227493830Y-91118440D01*
X227438729Y-90841427D01*
X227330644Y-90580487D01*
X227173729Y-90345646D01*
X226988621Y-90160538D01*
X226999110Y-90153529D01*
X227204309Y-89948330D01*
X227365533Y-89707042D01*
X227476586Y-89438937D01*
X227533200Y-89154318D01*
X227533200Y-88864122D01*
X227476586Y-88579503D01*
X227365533Y-88311398D01*
X227204309Y-88070110D01*
X226999110Y-87864911D01*
X226757822Y-87703687D01*
X226489717Y-87592634D01*
X226205098Y-87536020D01*
X225914902Y-87536020D01*
X225630283Y-87592634D01*
X225362178Y-87703687D01*
X225120890Y-87864911D01*
X224915691Y-88070110D01*
X224754467Y-88311398D01*
X224643414Y-88579503D01*
X224586800Y-88864122D01*
X194663924Y-88864122D01*
X187924609Y-82124808D01*
X188016528Y-82133861D01*
X188016538Y-82133861D01*
X188053861Y-82137537D01*
X188091184Y-82133861D01*
X220448439Y-82133861D01*
X220485761Y-82137537D01*
X220523083Y-82133861D01*
X220523094Y-82133861D01*
X220634747Y-82122864D01*
X220778008Y-82079407D01*
X220910037Y-82008835D01*
X221025762Y-81913862D01*
X221049565Y-81884858D01*
X222205064Y-80729360D01*
X225333438Y-80729360D01*
X225145986Y-80854611D01*
X224946271Y-81054326D01*
X224789356Y-81289167D01*
X224681271Y-81550107D01*
X224626170Y-81827120D01*
X224626170Y-82109560D01*
X224681271Y-82386573D01*
X224789356Y-82647513D01*
X224946271Y-82882354D01*
X225131379Y-83067462D01*
X225120890Y-83074471D01*
X224915691Y-83279670D01*
X224754467Y-83520958D01*
X224643414Y-83789063D01*
X224586800Y-84073682D01*
X224586800Y-84363878D01*
X224643414Y-84648497D01*
X224754467Y-84916602D01*
X224915691Y-85157890D01*
X225120890Y-85363089D01*
X225362178Y-85524313D01*
X225630283Y-85635366D01*
X225914902Y-85691980D01*
X226205098Y-85691980D01*
X226489717Y-85635366D01*
X226757822Y-85524313D01*
X226999110Y-85363089D01*
X227204309Y-85157890D01*
X227365533Y-84916602D01*
X227476586Y-84648497D01*
X227533200Y-84363878D01*
X227533200Y-84073682D01*
X227476586Y-83789063D01*
X227365533Y-83520958D01*
X227204309Y-83279670D01*
X226999110Y-83074471D01*
X226988621Y-83067462D01*
X227173729Y-82882354D01*
X227330644Y-82647513D01*
X227438729Y-82386573D01*
X227493830Y-82109560D01*
X227493830Y-81827120D01*
X227438729Y-81550107D01*
X227330644Y-81289167D01*
X227173729Y-81054326D01*
X226974014Y-80854611D01*
X226786562Y-80729360D01*
X230767441Y-80729360D01*
X230789030Y-80781480D01*
X230976661Y-81062290D01*
X231215470Y-81301099D01*
X231496280Y-81488730D01*
X231808299Y-81617973D01*
X232139536Y-81683860D01*
X232477264Y-81683860D01*
X232808501Y-81617973D01*
X233120520Y-81488730D01*
X233401330Y-81301099D01*
X233640139Y-81062290D01*
X233827770Y-80781480D01*
X233957013Y-80469461D01*
X234022900Y-80138224D01*
X234022900Y-79800496D01*
X233957013Y-79469259D01*
X233827770Y-79157240D01*
X233640139Y-78876430D01*
X233401330Y-78637621D01*
X233120520Y-78449990D01*
X232808501Y-78320747D01*
X232477264Y-78254860D01*
X232139536Y-78254860D01*
X231808299Y-78320747D01*
X231496280Y-78449990D01*
X231215470Y-78637621D01*
X230976661Y-78876430D01*
X230789030Y-79157240D01*
X230767441Y-79209360D01*
X221927584Y-79209360D01*
X221890261Y-79205684D01*
X221852938Y-79209360D01*
X221852929Y-79209360D01*
X221741276Y-79220357D01*
X221598015Y-79263814D01*
X221465986Y-79334386D01*
X221419984Y-79372139D01*
X221330970Y-79157240D01*
X221143339Y-78876430D01*
X220904530Y-78637621D01*
X220623720Y-78449990D01*
X220311701Y-78320747D01*
X219980464Y-78254860D01*
X219642736Y-78254860D01*
X219311499Y-78320747D01*
X218999480Y-78449990D01*
X218718670Y-78637621D01*
X218479861Y-78876430D01*
X218292230Y-79157240D01*
X218162987Y-79469259D01*
X218097100Y-79800496D01*
X218097100Y-80138224D01*
X218162987Y-80469461D01*
X218222800Y-80613861D01*
X188368663Y-80613861D01*
X182556578Y-74801776D01*
X218097100Y-74801776D01*
X218097100Y-75139504D01*
X218162987Y-75470741D01*
X218292230Y-75782760D01*
X218479861Y-76063570D01*
X218718670Y-76302379D01*
X218999480Y-76490010D01*
X219311499Y-76619253D01*
X219642736Y-76685140D01*
X219980464Y-76685140D01*
X220311701Y-76619253D01*
X220623720Y-76490010D01*
X220904530Y-76302379D01*
X221044171Y-76162738D01*
X231295907Y-76162738D01*
X231401266Y-76435268D01*
X231704431Y-76584099D01*
X232030807Y-76670925D01*
X232367850Y-76692410D01*
X232702608Y-76647728D01*
X233022217Y-76538597D01*
X233215534Y-76435268D01*
X233320893Y-76162738D01*
X232308400Y-75150245D01*
X231295907Y-76162738D01*
X221044171Y-76162738D01*
X221143339Y-76063570D01*
X221330970Y-75782760D01*
X221460213Y-75470741D01*
X221526100Y-75139504D01*
X221526100Y-75030090D01*
X230586630Y-75030090D01*
X230631312Y-75364848D01*
X230740443Y-75684457D01*
X230843772Y-75877774D01*
X231116302Y-75983133D01*
X232128795Y-74970640D01*
X232488005Y-74970640D01*
X233500498Y-75983133D01*
X233773028Y-75877774D01*
X233921859Y-75574609D01*
X234008685Y-75248233D01*
X234030170Y-74911190D01*
X233985488Y-74576432D01*
X233876357Y-74256823D01*
X233773028Y-74063506D01*
X233500498Y-73958147D01*
X232488005Y-74970640D01*
X232128795Y-74970640D01*
X231116302Y-73958147D01*
X230843772Y-74063506D01*
X230694941Y-74366671D01*
X230608115Y-74693047D01*
X230586630Y-75030090D01*
X221526100Y-75030090D01*
X221526100Y-74801776D01*
X221460213Y-74470539D01*
X221330970Y-74158520D01*
X221143339Y-73877710D01*
X220904530Y-73638901D01*
X220623720Y-73451270D01*
X220311701Y-73322027D01*
X219980464Y-73256140D01*
X219642736Y-73256140D01*
X219311499Y-73322027D01*
X218999480Y-73451270D01*
X218718670Y-73638901D01*
X218479861Y-73877710D01*
X218292230Y-74158520D01*
X218162987Y-74470539D01*
X218097100Y-74801776D01*
X182556578Y-74801776D01*
X178330924Y-70576122D01*
X224586800Y-70576122D01*
X224586800Y-70866318D01*
X224643414Y-71150937D01*
X224754467Y-71419042D01*
X224915691Y-71660330D01*
X225120890Y-71865529D01*
X225131379Y-71872538D01*
X224946271Y-72057646D01*
X224789356Y-72292487D01*
X224681271Y-72553427D01*
X224626170Y-72830440D01*
X224626170Y-73112880D01*
X224681271Y-73389893D01*
X224789356Y-73650833D01*
X224946271Y-73885674D01*
X225145986Y-74085389D01*
X225380827Y-74242304D01*
X225641767Y-74350389D01*
X225918780Y-74405490D01*
X226201220Y-74405490D01*
X226478233Y-74350389D01*
X226739173Y-74242304D01*
X226974014Y-74085389D01*
X227173729Y-73885674D01*
X227245311Y-73778542D01*
X231295907Y-73778542D01*
X232308400Y-74791035D01*
X233320893Y-73778542D01*
X233215534Y-73506012D01*
X232912369Y-73357181D01*
X232585993Y-73270355D01*
X232248950Y-73248870D01*
X231914192Y-73293552D01*
X231594583Y-73402683D01*
X231401266Y-73506012D01*
X231295907Y-73778542D01*
X227245311Y-73778542D01*
X227330644Y-73650833D01*
X227438729Y-73389893D01*
X227493830Y-73112880D01*
X227493830Y-72830440D01*
X227438729Y-72553427D01*
X227330644Y-72292487D01*
X227173729Y-72057646D01*
X226988621Y-71872538D01*
X226999110Y-71865529D01*
X227204309Y-71660330D01*
X227365533Y-71419042D01*
X227476586Y-71150937D01*
X227533200Y-70866318D01*
X227533200Y-70576122D01*
X227476586Y-70291503D01*
X227365533Y-70023398D01*
X227204309Y-69782110D01*
X226999110Y-69576911D01*
X226757822Y-69415687D01*
X226489717Y-69304634D01*
X226205098Y-69248020D01*
X225914902Y-69248020D01*
X225630283Y-69304634D01*
X225362178Y-69415687D01*
X225120890Y-69576911D01*
X224915691Y-69782110D01*
X224754467Y-70023398D01*
X224643414Y-70291503D01*
X224586800Y-70576122D01*
X178330924Y-70576122D01*
X174655001Y-66900200D01*
X174655001Y-66560444D01*
X174688966Y-66578599D01*
X174968889Y-66663513D01*
X175187050Y-66685000D01*
X175332950Y-66685000D01*
X175551111Y-66663513D01*
X175831034Y-66578599D01*
X176089014Y-66440706D01*
X176315134Y-66255134D01*
X176500706Y-66029014D01*
X176530000Y-65974209D01*
X176559294Y-66029014D01*
X176744866Y-66255134D01*
X176970986Y-66440706D01*
X177228966Y-66578599D01*
X177508889Y-66663513D01*
X177727050Y-66685000D01*
X177872950Y-66685000D01*
X178091111Y-66663513D01*
X178371034Y-66578599D01*
X178629014Y-66440706D01*
X178855134Y-66255134D01*
X179040706Y-66029014D01*
X179070000Y-65974209D01*
X179099294Y-66029014D01*
X179284866Y-66255134D01*
X179510986Y-66440706D01*
X179768966Y-66578599D01*
X180048889Y-66663513D01*
X180267050Y-66685000D01*
X180412950Y-66685000D01*
X180631111Y-66663513D01*
X180911034Y-66578599D01*
X181169014Y-66440706D01*
X181395134Y-66255134D01*
X181580706Y-66029014D01*
X181610000Y-65974209D01*
X181639294Y-66029014D01*
X181824866Y-66255134D01*
X182050986Y-66440706D01*
X182308966Y-66578599D01*
X182588889Y-66663513D01*
X182807050Y-66685000D01*
X182952950Y-66685000D01*
X183171111Y-66663513D01*
X183451034Y-66578599D01*
X183709014Y-66440706D01*
X183935134Y-66255134D01*
X184120706Y-66029014D01*
X184150000Y-65974209D01*
X184179294Y-66029014D01*
X184364866Y-66255134D01*
X184590986Y-66440706D01*
X184848966Y-66578599D01*
X185128889Y-66663513D01*
X185347050Y-66685000D01*
X185492950Y-66685000D01*
X185711111Y-66663513D01*
X185991034Y-66578599D01*
X186249014Y-66440706D01*
X186475134Y-66255134D01*
X186499607Y-66225313D01*
X186520498Y-66294180D01*
X186579463Y-66404494D01*
X186658815Y-66501185D01*
X186755506Y-66580537D01*
X186865820Y-66639502D01*
X186985518Y-66675812D01*
X187110000Y-66688072D01*
X187674250Y-66685000D01*
X187833000Y-66526250D01*
X187833000Y-65327000D01*
X188087000Y-65327000D01*
X188087000Y-66526250D01*
X188245750Y-66685000D01*
X188810000Y-66688072D01*
X188934482Y-66675812D01*
X189054180Y-66639502D01*
X189164494Y-66580537D01*
X189261185Y-66501185D01*
X189340537Y-66404494D01*
X189399502Y-66294180D01*
X189435812Y-66174482D01*
X189448072Y-66050000D01*
X189445000Y-65485750D01*
X189286250Y-65327000D01*
X188087000Y-65327000D01*
X187833000Y-65327000D01*
X187813000Y-65327000D01*
X187813000Y-65073000D01*
X187833000Y-65073000D01*
X187833000Y-63873750D01*
X188087000Y-63873750D01*
X188087000Y-65073000D01*
X189286250Y-65073000D01*
X189445000Y-64914250D01*
X189448072Y-64350000D01*
X189435812Y-64225518D01*
X189399502Y-64105820D01*
X189340537Y-63995506D01*
X189261185Y-63898815D01*
X189164494Y-63819463D01*
X189054180Y-63760498D01*
X188934482Y-63724188D01*
X188810000Y-63711928D01*
X188245750Y-63715000D01*
X188087000Y-63873750D01*
X187833000Y-63873750D01*
X187674250Y-63715000D01*
X187110000Y-63711928D01*
X186985518Y-63724188D01*
X186865820Y-63760498D01*
X186755506Y-63819463D01*
X186658815Y-63898815D01*
X186579463Y-63995506D01*
X186520498Y-64105820D01*
X186499607Y-64174687D01*
X186475134Y-64144866D01*
X186249014Y-63959294D01*
X185991034Y-63821401D01*
X185711111Y-63736487D01*
X185492950Y-63715000D01*
X185347050Y-63715000D01*
X185128889Y-63736487D01*
X184848966Y-63821401D01*
X184590986Y-63959294D01*
X184364866Y-64144866D01*
X184179294Y-64370986D01*
X184150000Y-64425791D01*
X184120706Y-64370986D01*
X183935134Y-64144866D01*
X183709014Y-63959294D01*
X183451034Y-63821401D01*
X183171111Y-63736487D01*
X182952950Y-63715000D01*
X182807050Y-63715000D01*
X182588889Y-63736487D01*
X182308966Y-63821401D01*
X182050986Y-63959294D01*
X181824866Y-64144866D01*
X181639294Y-64370986D01*
X181610000Y-64425791D01*
X181580706Y-64370986D01*
X181395134Y-64144866D01*
X181169014Y-63959294D01*
X180911034Y-63821401D01*
X180631111Y-63736487D01*
X180412950Y-63715000D01*
X180267050Y-63715000D01*
X180048889Y-63736487D01*
X179768966Y-63821401D01*
X179510986Y-63959294D01*
X179284866Y-64144866D01*
X179099294Y-64370986D01*
X179070000Y-64425791D01*
X179040706Y-64370986D01*
X178855134Y-64144866D01*
X178629014Y-63959294D01*
X178371034Y-63821401D01*
X178091111Y-63736487D01*
X177872950Y-63715000D01*
X177727050Y-63715000D01*
X177508889Y-63736487D01*
X177228966Y-63821401D01*
X176970986Y-63959294D01*
X176744866Y-64144866D01*
X176559294Y-64370986D01*
X176530000Y-64425791D01*
X176500706Y-64370986D01*
X176315134Y-64144866D01*
X176089014Y-63959294D01*
X175831034Y-63821401D01*
X175551111Y-63736487D01*
X175332950Y-63715000D01*
X175187050Y-63715000D01*
X174968889Y-63736487D01*
X174688966Y-63821401D01*
X174430986Y-63959294D01*
X174355252Y-64021448D01*
X170783803Y-60450000D01*
X171412678Y-60450000D01*
X171450000Y-60453676D01*
X171487322Y-60450000D01*
X171487333Y-60450000D01*
X171598986Y-60439003D01*
X171742247Y-60395546D01*
X171874276Y-60324974D01*
X171990001Y-60230001D01*
X172013804Y-60200997D01*
X173664094Y-58550708D01*
X173708691Y-58564236D01*
X173919508Y-58585000D01*
X174060492Y-58585000D01*
X174271309Y-58564236D01*
X174541808Y-58482182D01*
X174791101Y-58348932D01*
X175009608Y-58169608D01*
X175188932Y-57951101D01*
X175260000Y-57818142D01*
X175331068Y-57951101D01*
X175510392Y-58169608D01*
X175728899Y-58348932D01*
X175978192Y-58482182D01*
X176248691Y-58564236D01*
X176459508Y-58585000D01*
X176600492Y-58585000D01*
X176811309Y-58564236D01*
X177081808Y-58482182D01*
X177331101Y-58348932D01*
X177549608Y-58169608D01*
X177728932Y-57951101D01*
X177862182Y-57701808D01*
X177944236Y-57431309D01*
X177971943Y-57150000D01*
X177944236Y-56868691D01*
X177862182Y-56598192D01*
X177728932Y-56348899D01*
X177549608Y-56130392D01*
X177331101Y-55951068D01*
X177081808Y-55817818D01*
X176811309Y-55735764D01*
X176600492Y-55715000D01*
X176459508Y-55715000D01*
X176248691Y-55735764D01*
X175978192Y-55817818D01*
X175728899Y-55951068D01*
X175510392Y-56130392D01*
X175331068Y-56348899D01*
X175260000Y-56481858D01*
X175188932Y-56348899D01*
X175009608Y-56130392D01*
X174791101Y-55951068D01*
X174541808Y-55817818D01*
X174271309Y-55735764D01*
X174060492Y-55715000D01*
X173919508Y-55715000D01*
X173708691Y-55735764D01*
X173438192Y-55817818D01*
X173188899Y-55951068D01*
X172970392Y-56130392D01*
X172791068Y-56348899D01*
X172720000Y-56481858D01*
X172648932Y-56348899D01*
X172469608Y-56130392D01*
X172251101Y-55951068D01*
X172001808Y-55817818D01*
X171731309Y-55735764D01*
X171520492Y-55715000D01*
X171379508Y-55715000D01*
X171168691Y-55735764D01*
X170898192Y-55817818D01*
X170648899Y-55951068D01*
X170430392Y-56130392D01*
X170251068Y-56348899D01*
X170180000Y-56481858D01*
X170108932Y-56348899D01*
X169929608Y-56130392D01*
X169711101Y-55951068D01*
X169461808Y-55817818D01*
X169191309Y-55735764D01*
X168980492Y-55715000D01*
X168839508Y-55715000D01*
X168628691Y-55735764D01*
X168358192Y-55817818D01*
X168108899Y-55951068D01*
X167890392Y-56130392D01*
X167711068Y-56348899D01*
X167637421Y-56486682D01*
X167522385Y-56294869D01*
X167333414Y-56086481D01*
X167107420Y-55918963D01*
X166853087Y-55798754D01*
X166719039Y-55758096D01*
X166497000Y-55880085D01*
X166497000Y-57023000D01*
X166517000Y-57023000D01*
X166517000Y-57277000D01*
X166497000Y-57277000D01*
X166497000Y-57297000D01*
X166243000Y-57297000D01*
X166243000Y-57277000D01*
X166223000Y-57277000D01*
X166223000Y-57023000D01*
X166243000Y-57023000D01*
X166243000Y-55880085D01*
X166020961Y-55758096D01*
X165886913Y-55798754D01*
X165632580Y-55918963D01*
X165463843Y-56044039D01*
X163519803Y-54100000D01*
X175578789Y-54100000D01*
X184219791Y-62741003D01*
X184243589Y-62770001D01*
X184272587Y-62793799D01*
X184359314Y-62864974D01*
X184491343Y-62935546D01*
X184634604Y-62979003D01*
X184783590Y-62993677D01*
X184820923Y-62990000D01*
X205685458Y-62990000D01*
X205722780Y-62993676D01*
X205760102Y-62990000D01*
X205760113Y-62990000D01*
X205871766Y-62979003D01*
X206015027Y-62935546D01*
X206147056Y-62864974D01*
X206262781Y-62770001D01*
X206286584Y-62740997D01*
X206618626Y-62408955D01*
X206829902Y-62450980D01*
X207120098Y-62450980D01*
X207404717Y-62394366D01*
X207672822Y-62283313D01*
X207914110Y-62122089D01*
X208119309Y-61916890D01*
X208280533Y-61675602D01*
X208391586Y-61407497D01*
X208448200Y-61122878D01*
X208448200Y-60832682D01*
X208391586Y-60548063D01*
X208280533Y-60279958D01*
X208119309Y-60038670D01*
X207914110Y-59833471D01*
X207903621Y-59826462D01*
X208088729Y-59641354D01*
X208245644Y-59406513D01*
X208353729Y-59145573D01*
X208408830Y-58868560D01*
X208408830Y-58586120D01*
X208353729Y-58309107D01*
X208245644Y-58048167D01*
X208088729Y-57813326D01*
X207889014Y-57613611D01*
X207654173Y-57456696D01*
X207393233Y-57348611D01*
X207116220Y-57293510D01*
X206833780Y-57293510D01*
X206556767Y-57348611D01*
X206295827Y-57456696D01*
X206060986Y-57613611D01*
X205861271Y-57813326D01*
X205704356Y-58048167D01*
X205596271Y-58309107D01*
X205541170Y-58586120D01*
X205541170Y-58868560D01*
X205596271Y-59145573D01*
X205704356Y-59406513D01*
X205861271Y-59641354D01*
X205913948Y-59694031D01*
X205802591Y-59805388D01*
X205731416Y-59892114D01*
X205660844Y-60024144D01*
X205617388Y-60167405D01*
X205602714Y-60316390D01*
X205612639Y-60417154D01*
X205558414Y-60548063D01*
X205501800Y-60832682D01*
X205501800Y-61122878D01*
X205543825Y-61334154D01*
X205407979Y-61470000D01*
X190611902Y-61470000D01*
X190634486Y-61415477D01*
X190691100Y-61130858D01*
X190691100Y-60840662D01*
X190634486Y-60556043D01*
X190523433Y-60287938D01*
X190362209Y-60046650D01*
X190157010Y-59841451D01*
X190146521Y-59834442D01*
X190331629Y-59649334D01*
X190488544Y-59414493D01*
X190596629Y-59153553D01*
X190651730Y-58876540D01*
X190651730Y-58594100D01*
X190596629Y-58317087D01*
X190488544Y-58056147D01*
X190331629Y-57821306D01*
X190131914Y-57621591D01*
X189897073Y-57464676D01*
X189636133Y-57356591D01*
X189359120Y-57301490D01*
X189076680Y-57301490D01*
X188799667Y-57356591D01*
X188538727Y-57464676D01*
X188303886Y-57621591D01*
X188104171Y-57821306D01*
X187947256Y-58056147D01*
X187839171Y-58317087D01*
X187784070Y-58594100D01*
X187784070Y-58876540D01*
X187839171Y-59153553D01*
X187947256Y-59414493D01*
X188104171Y-59649334D01*
X188289279Y-59834442D01*
X188278790Y-59841451D01*
X188073591Y-60046650D01*
X187912367Y-60287938D01*
X187801314Y-60556043D01*
X187744700Y-60840662D01*
X187744700Y-61130858D01*
X187801314Y-61415477D01*
X187823898Y-61470000D01*
X185098392Y-61470000D01*
X179633391Y-56005000D01*
X181416670Y-56005000D01*
X181320887Y-56236239D01*
X181255000Y-56567476D01*
X181255000Y-56905204D01*
X181320887Y-57236441D01*
X181450130Y-57548460D01*
X181637761Y-57829270D01*
X181876570Y-58068079D01*
X182157380Y-58255710D01*
X182469399Y-58384953D01*
X182800636Y-58450840D01*
X183138364Y-58450840D01*
X183469601Y-58384953D01*
X183781620Y-58255710D01*
X184062430Y-58068079D01*
X184301239Y-57829270D01*
X184488870Y-57548460D01*
X184618113Y-57236441D01*
X184684000Y-56905204D01*
X184684000Y-56567476D01*
X184618113Y-56236239D01*
X184522330Y-56005000D01*
X193913470Y-56005000D01*
X193817687Y-56236239D01*
X193751800Y-56567476D01*
X193751800Y-56905204D01*
X193817687Y-57236441D01*
X193946930Y-57548460D01*
X194134561Y-57829270D01*
X194373370Y-58068079D01*
X194654180Y-58255710D01*
X194966199Y-58384953D01*
X195297436Y-58450840D01*
X195635164Y-58450840D01*
X195966401Y-58384953D01*
X196278420Y-58255710D01*
X196559230Y-58068079D01*
X196798039Y-57829270D01*
X196985670Y-57548460D01*
X197114913Y-57236441D01*
X197180800Y-56905204D01*
X197180800Y-56567476D01*
X197114913Y-56236239D01*
X197019130Y-56005000D01*
X199170464Y-56005000D01*
X199077987Y-56228259D01*
X199012100Y-56559496D01*
X199012100Y-56897224D01*
X199077987Y-57228461D01*
X199207230Y-57540480D01*
X199394861Y-57821290D01*
X199633670Y-58060099D01*
X199914480Y-58247730D01*
X200226499Y-58376973D01*
X200557736Y-58442860D01*
X200895464Y-58442860D01*
X201226701Y-58376973D01*
X201538720Y-58247730D01*
X201819530Y-58060099D01*
X202058339Y-57821290D01*
X202245970Y-57540480D01*
X202375213Y-57228461D01*
X202441100Y-56897224D01*
X202441100Y-56559496D01*
X202375213Y-56228259D01*
X202282736Y-56005000D01*
X211425239Y-56005000D01*
X211596376Y-56176138D01*
X211574787Y-56228259D01*
X211508900Y-56559496D01*
X211508900Y-56897224D01*
X211574787Y-57228461D01*
X211704030Y-57540480D01*
X211891661Y-57821290D01*
X212130470Y-58060099D01*
X212411280Y-58247730D01*
X212723299Y-58376973D01*
X213054536Y-58442860D01*
X213392264Y-58442860D01*
X213723501Y-58376973D01*
X214035520Y-58247730D01*
X214316330Y-58060099D01*
X214555139Y-57821290D01*
X214742770Y-57540480D01*
X214872013Y-57228461D01*
X214937900Y-56897224D01*
X214937900Y-56559496D01*
X214872013Y-56228259D01*
X214742770Y-55916240D01*
X214555139Y-55635430D01*
X214316330Y-55396621D01*
X214035520Y-55208990D01*
X213723501Y-55079747D01*
X213392264Y-55013860D01*
X213054536Y-55013860D01*
X212723299Y-55079747D01*
X212671178Y-55101336D01*
X212303844Y-54734003D01*
X212280041Y-54704999D01*
X212164316Y-54610026D01*
X212032287Y-54539454D01*
X211889026Y-54495997D01*
X211777373Y-54485000D01*
X211777362Y-54485000D01*
X211740040Y-54481324D01*
X211702718Y-54485000D01*
X192674013Y-54485000D01*
X192687205Y-54465256D01*
X192765226Y-54276898D01*
X192805000Y-54076939D01*
X192805000Y-53873061D01*
X192765226Y-53673102D01*
X192687205Y-53484744D01*
X192573937Y-53315226D01*
X192429774Y-53171063D01*
X192260256Y-53057795D01*
X192071898Y-52979774D01*
X191871939Y-52940000D01*
X191809801Y-52940000D01*
X191799519Y-52929718D01*
X194453807Y-52929718D01*
X194559166Y-53202248D01*
X194862331Y-53351079D01*
X195188707Y-53437905D01*
X195525750Y-53459390D01*
X195860508Y-53414708D01*
X196180117Y-53305577D01*
X196373434Y-53202248D01*
X196478793Y-52929718D01*
X195466300Y-51917225D01*
X194453807Y-52929718D01*
X191799519Y-52929718D01*
X191500924Y-52631123D01*
X191477122Y-52602120D01*
X191361397Y-52507147D01*
X191229368Y-52436575D01*
X191086107Y-52393118D01*
X190974454Y-52382121D01*
X190974443Y-52382121D01*
X190937121Y-52378445D01*
X190899799Y-52382121D01*
X184558300Y-52382121D01*
X184618113Y-52237721D01*
X184684000Y-51906484D01*
X184684000Y-51797070D01*
X193744530Y-51797070D01*
X193789212Y-52131828D01*
X193898343Y-52451437D01*
X194001672Y-52644754D01*
X194274202Y-52750113D01*
X195286695Y-51737620D01*
X195645905Y-51737620D01*
X196658398Y-52750113D01*
X196930928Y-52644754D01*
X197079759Y-52341589D01*
X197166585Y-52015213D01*
X197188070Y-51678170D01*
X197172401Y-51560776D01*
X199012100Y-51560776D01*
X199012100Y-51898504D01*
X199077987Y-52229741D01*
X199207230Y-52541760D01*
X199394861Y-52822570D01*
X199633670Y-53061379D01*
X199914480Y-53249010D01*
X200226499Y-53378253D01*
X200557736Y-53444140D01*
X200895464Y-53444140D01*
X201226701Y-53378253D01*
X201538720Y-53249010D01*
X201819530Y-53061379D01*
X201959171Y-52921738D01*
X212210907Y-52921738D01*
X212316266Y-53194268D01*
X212619431Y-53343099D01*
X212945807Y-53429925D01*
X213282850Y-53451410D01*
X213617608Y-53406728D01*
X213937217Y-53297597D01*
X214130534Y-53194268D01*
X214235893Y-52921738D01*
X213223400Y-51909245D01*
X212210907Y-52921738D01*
X201959171Y-52921738D01*
X202058339Y-52822570D01*
X202245970Y-52541760D01*
X202375213Y-52229741D01*
X202441100Y-51898504D01*
X202441100Y-51789090D01*
X211501630Y-51789090D01*
X211546312Y-52123848D01*
X211655443Y-52443457D01*
X211758772Y-52636774D01*
X212031302Y-52742133D01*
X213043795Y-51729640D01*
X213403005Y-51729640D01*
X214415498Y-52742133D01*
X214688028Y-52636774D01*
X214836859Y-52333609D01*
X214923685Y-52007233D01*
X214945170Y-51670190D01*
X214900488Y-51335432D01*
X214791357Y-51015823D01*
X214688028Y-50822506D01*
X214415498Y-50717147D01*
X213403005Y-51729640D01*
X213043795Y-51729640D01*
X212031302Y-50717147D01*
X211758772Y-50822506D01*
X211609941Y-51125671D01*
X211523115Y-51452047D01*
X211501630Y-51789090D01*
X202441100Y-51789090D01*
X202441100Y-51560776D01*
X202375213Y-51229539D01*
X202245970Y-50917520D01*
X202058339Y-50636710D01*
X201819530Y-50397901D01*
X201538720Y-50210270D01*
X201226701Y-50081027D01*
X200895464Y-50015140D01*
X200557736Y-50015140D01*
X200226499Y-50081027D01*
X199914480Y-50210270D01*
X199633670Y-50397901D01*
X199394861Y-50636710D01*
X199207230Y-50917520D01*
X199077987Y-51229539D01*
X199012100Y-51560776D01*
X197172401Y-51560776D01*
X197143388Y-51343412D01*
X197034257Y-51023803D01*
X196930928Y-50830486D01*
X196658398Y-50725127D01*
X195645905Y-51737620D01*
X195286695Y-51737620D01*
X194274202Y-50725127D01*
X194001672Y-50830486D01*
X193852841Y-51133651D01*
X193766015Y-51460027D01*
X193744530Y-51797070D01*
X184684000Y-51797070D01*
X184684000Y-51568756D01*
X184618113Y-51237519D01*
X184488870Y-50925500D01*
X184301239Y-50644690D01*
X184062430Y-50405881D01*
X183781620Y-50218250D01*
X183469601Y-50089007D01*
X183138364Y-50023120D01*
X182800636Y-50023120D01*
X182469399Y-50089007D01*
X182157380Y-50218250D01*
X181876570Y-50405881D01*
X181637761Y-50644690D01*
X181450130Y-50925500D01*
X181320887Y-51237519D01*
X181255000Y-51568756D01*
X181255000Y-51906484D01*
X181320887Y-52237721D01*
X181380700Y-52382121D01*
X177919743Y-52382121D01*
X177096623Y-51559002D01*
X177096619Y-51558997D01*
X176360749Y-50823128D01*
X176403000Y-50799915D01*
X176403000Y-49657000D01*
X176657000Y-49657000D01*
X176657000Y-50799915D01*
X176879039Y-50921904D01*
X177013087Y-50881246D01*
X177267420Y-50761037D01*
X177493414Y-50593519D01*
X177682385Y-50385131D01*
X177827070Y-50143881D01*
X177921909Y-49879040D01*
X177800624Y-49657000D01*
X176657000Y-49657000D01*
X176403000Y-49657000D01*
X174117000Y-49657000D01*
X174117000Y-49677000D01*
X173863000Y-49677000D01*
X173863000Y-49657000D01*
X171577000Y-49657000D01*
X171577000Y-49677000D01*
X171323000Y-49677000D01*
X171323000Y-49657000D01*
X171303000Y-49657000D01*
X171303000Y-49403000D01*
X171323000Y-49403000D01*
X171323000Y-48260085D01*
X171577000Y-48260085D01*
X171577000Y-49403000D01*
X173863000Y-49403000D01*
X173863000Y-48260085D01*
X174117000Y-48260085D01*
X174117000Y-49403000D01*
X176403000Y-49403000D01*
X176403000Y-48260085D01*
X176657000Y-48260085D01*
X176657000Y-49403000D01*
X177800624Y-49403000D01*
X177921909Y-49180960D01*
X177827070Y-48916119D01*
X177682385Y-48674869D01*
X177493414Y-48466481D01*
X177267420Y-48298963D01*
X177013087Y-48178754D01*
X176879039Y-48138096D01*
X176657000Y-48260085D01*
X176403000Y-48260085D01*
X176180961Y-48138096D01*
X176046913Y-48178754D01*
X175792580Y-48298963D01*
X175566586Y-48466481D01*
X175377615Y-48674869D01*
X175260000Y-48870982D01*
X175142385Y-48674869D01*
X174953414Y-48466481D01*
X174727420Y-48298963D01*
X174473087Y-48178754D01*
X174339039Y-48138096D01*
X174117000Y-48260085D01*
X173863000Y-48260085D01*
X173640961Y-48138096D01*
X173506913Y-48178754D01*
X173252580Y-48298963D01*
X173026586Y-48466481D01*
X172837615Y-48674869D01*
X172720000Y-48870982D01*
X172602385Y-48674869D01*
X172413414Y-48466481D01*
X172187420Y-48298963D01*
X171933087Y-48178754D01*
X171799039Y-48138096D01*
X171577000Y-48260085D01*
X171323000Y-48260085D01*
X171100961Y-48138096D01*
X170966913Y-48178754D01*
X170712580Y-48298963D01*
X170486586Y-48466481D01*
X170297615Y-48674869D01*
X170182579Y-48866682D01*
X170108932Y-48728899D01*
X169929608Y-48510392D01*
X169711101Y-48331068D01*
X169461808Y-48197818D01*
X169191309Y-48115764D01*
X168980492Y-48095000D01*
X168839508Y-48095000D01*
X168628691Y-48115764D01*
X168358192Y-48197818D01*
X168108899Y-48331068D01*
X167890392Y-48510392D01*
X167711068Y-48728899D01*
X167640000Y-48861858D01*
X167568932Y-48728899D01*
X167389608Y-48510392D01*
X167171101Y-48331068D01*
X166921808Y-48197818D01*
X166651309Y-48115764D01*
X166440492Y-48095000D01*
X166299508Y-48095000D01*
X166088691Y-48115764D01*
X165818192Y-48197818D01*
X165568899Y-48331068D01*
X165350392Y-48510392D01*
X165171068Y-48728899D01*
X165100000Y-48861858D01*
X165028932Y-48728899D01*
X164849608Y-48510392D01*
X164631101Y-48331068D01*
X164381808Y-48197818D01*
X164111309Y-48115764D01*
X163900492Y-48095000D01*
X163759508Y-48095000D01*
X163548691Y-48115764D01*
X163278192Y-48197818D01*
X163028899Y-48331068D01*
X162810392Y-48510392D01*
X162631068Y-48728899D01*
X162560000Y-48861858D01*
X162488932Y-48728899D01*
X162309608Y-48510392D01*
X162091101Y-48331068D01*
X161841808Y-48197818D01*
X161571309Y-48115764D01*
X161360492Y-48095000D01*
X161219508Y-48095000D01*
X161008691Y-48115764D01*
X160738192Y-48197818D01*
X160488899Y-48331068D01*
X160270392Y-48510392D01*
X160091068Y-48728899D01*
X160020000Y-48861858D01*
X159948932Y-48728899D01*
X159769608Y-48510392D01*
X159551101Y-48331068D01*
X159301808Y-48197818D01*
X159031309Y-48115764D01*
X158820492Y-48095000D01*
X158679508Y-48095000D01*
X158468691Y-48115764D01*
X158198192Y-48197818D01*
X157948899Y-48331068D01*
X157730392Y-48510392D01*
X157551068Y-48728899D01*
X157480000Y-48861858D01*
X157408932Y-48728899D01*
X157229608Y-48510392D01*
X157011101Y-48331068D01*
X156761808Y-48197818D01*
X156491309Y-48115764D01*
X156280492Y-48095000D01*
X156139508Y-48095000D01*
X155928691Y-48115764D01*
X155658192Y-48197818D01*
X155408899Y-48331068D01*
X155190392Y-48510392D01*
X155011068Y-48728899D01*
X154940000Y-48861858D01*
X154868932Y-48728899D01*
X154689608Y-48510392D01*
X154471101Y-48331068D01*
X154221808Y-48197818D01*
X153951309Y-48115764D01*
X153740492Y-48095000D01*
X153599508Y-48095000D01*
X153388691Y-48115764D01*
X153118192Y-48197818D01*
X152868899Y-48331068D01*
X152650392Y-48510392D01*
X152471068Y-48728899D01*
X152400000Y-48861858D01*
X152328932Y-48728899D01*
X152149608Y-48510392D01*
X151931101Y-48331068D01*
X151681808Y-48197818D01*
X151411309Y-48115764D01*
X151200492Y-48095000D01*
X151059508Y-48095000D01*
X150848691Y-48115764D01*
X150578192Y-48197818D01*
X150328899Y-48331068D01*
X150110392Y-48510392D01*
X149931068Y-48728899D01*
X149860000Y-48861858D01*
X149788932Y-48728899D01*
X149609608Y-48510392D01*
X149391101Y-48331068D01*
X149141808Y-48197818D01*
X148871309Y-48115764D01*
X148660492Y-48095000D01*
X148519508Y-48095000D01*
X148308691Y-48115764D01*
X148264093Y-48129292D01*
X148028803Y-47894002D01*
X148005000Y-47864998D01*
X147889275Y-47770025D01*
X147757246Y-47699453D01*
X147613985Y-47655996D01*
X147502332Y-47644999D01*
X147502321Y-47644999D01*
X147464999Y-47641323D01*
X147427677Y-47644999D01*
X143007324Y-47644999D01*
X142969999Y-47641323D01*
X142932674Y-47644999D01*
X142932666Y-47644999D01*
X142821013Y-47655996D01*
X142677752Y-47699453D01*
X142545723Y-47770025D01*
X142429998Y-47864998D01*
X142406200Y-47893996D01*
X137924197Y-52376000D01*
X137895199Y-52399798D01*
X137871401Y-52428796D01*
X137871400Y-52428797D01*
X137800225Y-52515523D01*
X137729653Y-52647553D01*
X137708331Y-52717845D01*
X137686197Y-52790813D01*
X137683069Y-52822570D01*
X137671523Y-52939799D01*
X126404403Y-52939799D01*
X126788669Y-52780631D01*
X127154729Y-52536038D01*
X127466038Y-52224729D01*
X127710631Y-51858669D01*
X127879110Y-51451925D01*
X127965000Y-51020128D01*
X127965000Y-50579872D01*
X127879110Y-50148075D01*
X127710631Y-49741331D01*
X127466038Y-49375271D01*
X127154729Y-49063962D01*
X126788669Y-48819369D01*
X126381925Y-48650890D01*
X125950128Y-48565000D01*
X125509872Y-48565000D01*
X125078075Y-48650890D01*
X124671331Y-48819369D01*
X124305271Y-49063962D01*
X123993962Y-49375271D01*
X123749369Y-49741331D01*
X123580890Y-50148075D01*
X123495000Y-50579872D01*
X121310000Y-50579872D01*
X121310000Y-46380000D01*
X188242681Y-46380000D01*
X188073591Y-46549090D01*
M02*
