G04 #@! TF.GenerationSoftware,KiCad,Pcbnew,(5.1.4-0)*
G04 #@! TF.CreationDate,2020-05-08T12:10:25+02:00*
G04 #@! TF.ProjectId,RPi_Teleco_PCB,5250695f-5465-46c6-9563-6f5f5043422e,rev?*
G04 #@! TF.SameCoordinates,Original*
G04 #@! TF.FileFunction,Soldermask,Top*
G04 #@! TF.FilePolarity,Negative*
%FSLAX46Y46*%
G04 Gerber Fmt 4.6, Leading zero omitted, Abs format (unit mm)*
G04 Created by KiCad (PCBNEW (5.1.4-0)) date 2020-05-08 12:10:25*
%MOMM*%
%LPD*%
G04 APERTURE LIST*
%ADD10C,0.100000*%
G04 APERTURE END LIST*
D10*
G36*
X207220282Y-121808796D02*
G01*
X207284129Y-121821496D01*
X207393838Y-121866939D01*
X207424502Y-121879640D01*
X207455162Y-121892340D01*
X207609087Y-121995190D01*
X207739990Y-122126093D01*
X207842840Y-122280018D01*
X207908424Y-122438351D01*
X207913684Y-122451052D01*
X207947274Y-122619916D01*
X207949800Y-122632618D01*
X207949800Y-122817742D01*
X207918737Y-122973908D01*
X207913684Y-122999308D01*
X207848101Y-123157642D01*
X207842840Y-123170342D01*
X207739990Y-123324267D01*
X207609087Y-123455170D01*
X207455162Y-123558020D01*
X207284129Y-123628864D01*
X207230256Y-123639580D01*
X207102564Y-123664980D01*
X206917436Y-123664980D01*
X206789744Y-123639580D01*
X206735871Y-123628864D01*
X206564838Y-123558020D01*
X206410913Y-123455170D01*
X206280010Y-123324267D01*
X206177160Y-123170342D01*
X206171900Y-123157642D01*
X206106316Y-122999308D01*
X206101264Y-122973908D01*
X206070200Y-122817742D01*
X206070200Y-122632618D01*
X206072727Y-122619916D01*
X206106316Y-122451052D01*
X206111577Y-122438351D01*
X206177160Y-122280018D01*
X206280010Y-122126093D01*
X206410913Y-121995190D01*
X206564838Y-121892340D01*
X206595499Y-121879640D01*
X206626162Y-121866939D01*
X206735871Y-121821496D01*
X206799718Y-121808796D01*
X206917436Y-121785380D01*
X207102564Y-121785380D01*
X207220282Y-121808796D01*
X207220282Y-121808796D01*
G37*
G36*
X171660282Y-121808796D02*
G01*
X171724129Y-121821496D01*
X171833838Y-121866939D01*
X171864502Y-121879640D01*
X171895162Y-121892340D01*
X172049087Y-121995190D01*
X172179990Y-122126093D01*
X172282840Y-122280018D01*
X172348424Y-122438351D01*
X172353684Y-122451052D01*
X172387274Y-122619916D01*
X172389800Y-122632618D01*
X172389800Y-122817742D01*
X172358737Y-122973908D01*
X172353684Y-122999308D01*
X172288101Y-123157642D01*
X172282840Y-123170342D01*
X172179990Y-123324267D01*
X172049087Y-123455170D01*
X171895162Y-123558020D01*
X171724129Y-123628864D01*
X171670256Y-123639580D01*
X171542564Y-123664980D01*
X171357436Y-123664980D01*
X171229744Y-123639580D01*
X171175871Y-123628864D01*
X171004838Y-123558020D01*
X170850913Y-123455170D01*
X170720010Y-123324267D01*
X170617160Y-123170342D01*
X170611900Y-123157642D01*
X170546316Y-122999308D01*
X170541264Y-122973908D01*
X170510200Y-122817742D01*
X170510200Y-122632618D01*
X170512727Y-122619916D01*
X170546316Y-122451052D01*
X170551577Y-122438351D01*
X170617160Y-122280018D01*
X170720010Y-122126093D01*
X170850913Y-121995190D01*
X171004838Y-121892340D01*
X171035499Y-121879640D01*
X171066162Y-121866939D01*
X171175871Y-121821496D01*
X171239718Y-121808796D01*
X171357436Y-121785380D01*
X171542564Y-121785380D01*
X171660282Y-121808796D01*
X171660282Y-121808796D01*
G37*
G36*
X189414882Y-121796096D02*
G01*
X189478729Y-121808796D01*
X189599665Y-121858889D01*
X189619102Y-121866940D01*
X189649762Y-121879640D01*
X189784680Y-121969790D01*
X189803687Y-121982490D01*
X189934590Y-122113393D01*
X190037441Y-122267320D01*
X190042701Y-122280020D01*
X190103024Y-122425651D01*
X190108284Y-122438352D01*
X190144400Y-122619916D01*
X190144400Y-122805044D01*
X190120323Y-122926087D01*
X190108284Y-122986609D01*
X190058191Y-123107545D01*
X190042701Y-123144942D01*
X190037440Y-123157642D01*
X189934590Y-123311567D01*
X189803687Y-123442470D01*
X189649762Y-123545320D01*
X189649761Y-123545321D01*
X189649760Y-123545321D01*
X189619099Y-123558021D01*
X189478729Y-123616164D01*
X189418207Y-123628203D01*
X189297164Y-123652280D01*
X189112036Y-123652280D01*
X188990993Y-123628203D01*
X188930471Y-123616164D01*
X188790101Y-123558021D01*
X188759440Y-123545321D01*
X188759439Y-123545321D01*
X188759438Y-123545320D01*
X188605513Y-123442470D01*
X188474610Y-123311567D01*
X188371760Y-123157642D01*
X188366500Y-123144942D01*
X188351009Y-123107545D01*
X188300916Y-122986609D01*
X188288877Y-122926087D01*
X188264800Y-122805044D01*
X188264800Y-122619916D01*
X188300916Y-122438352D01*
X188306177Y-122425651D01*
X188366499Y-122280020D01*
X188371759Y-122267320D01*
X188474610Y-122113393D01*
X188605513Y-121982490D01*
X188624520Y-121969790D01*
X188759438Y-121879640D01*
X188790099Y-121866940D01*
X188809535Y-121858889D01*
X188930471Y-121808796D01*
X188994318Y-121796096D01*
X189112036Y-121772680D01*
X189297164Y-121772680D01*
X189414882Y-121796096D01*
X189414882Y-121796096D01*
G37*
G36*
X153883607Y-121784057D02*
G01*
X153944129Y-121796096D01*
X154115162Y-121866940D01*
X154269087Y-121969790D01*
X154399990Y-122100693D01*
X154502841Y-122254620D01*
X154508101Y-122267320D01*
X154573684Y-122425651D01*
X154585723Y-122486173D01*
X154609800Y-122607216D01*
X154609800Y-122792344D01*
X154585723Y-122913387D01*
X154573684Y-122973909D01*
X154502840Y-123144942D01*
X154399990Y-123298867D01*
X154269087Y-123429770D01*
X154115162Y-123532620D01*
X154115161Y-123532621D01*
X154115160Y-123532621D01*
X154084499Y-123545321D01*
X153944129Y-123603464D01*
X153883607Y-123615503D01*
X153762564Y-123639580D01*
X153577436Y-123639580D01*
X153456393Y-123615503D01*
X153395871Y-123603464D01*
X153255501Y-123545321D01*
X153224840Y-123532621D01*
X153224839Y-123532621D01*
X153224838Y-123532620D01*
X153070913Y-123429770D01*
X152940010Y-123298867D01*
X152837160Y-123144942D01*
X152766316Y-122973909D01*
X152754277Y-122913387D01*
X152730200Y-122792344D01*
X152730200Y-122607216D01*
X152754277Y-122486173D01*
X152766316Y-122425651D01*
X152831899Y-122267320D01*
X152837159Y-122254620D01*
X152940010Y-122100693D01*
X153070913Y-121969790D01*
X153224838Y-121866940D01*
X153395871Y-121796096D01*
X153456393Y-121784057D01*
X153577436Y-121759980D01*
X153762564Y-121759980D01*
X153883607Y-121784057D01*
X153883607Y-121784057D01*
G37*
G36*
X207272646Y-119608912D02*
G01*
X207436512Y-119676788D01*
X207436514Y-119676789D01*
X207583991Y-119775330D01*
X207709410Y-119900749D01*
X207799465Y-120035526D01*
X207807952Y-120048228D01*
X207875828Y-120212094D01*
X207910430Y-120386054D01*
X207910430Y-120563426D01*
X207875828Y-120737386D01*
X207807952Y-120901252D01*
X207807951Y-120901254D01*
X207709410Y-121048731D01*
X207583991Y-121174150D01*
X207436514Y-121272691D01*
X207436513Y-121272692D01*
X207436512Y-121272692D01*
X207272646Y-121340568D01*
X207098686Y-121375170D01*
X206921314Y-121375170D01*
X206747354Y-121340568D01*
X206583488Y-121272692D01*
X206583487Y-121272692D01*
X206583486Y-121272691D01*
X206436009Y-121174150D01*
X206310590Y-121048731D01*
X206212049Y-120901254D01*
X206212048Y-120901252D01*
X206144172Y-120737386D01*
X206109570Y-120563426D01*
X206109570Y-120386054D01*
X206144172Y-120212094D01*
X206212048Y-120048228D01*
X206220535Y-120035526D01*
X206310590Y-119900749D01*
X206436009Y-119775330D01*
X206583486Y-119676789D01*
X206583488Y-119676788D01*
X206747354Y-119608912D01*
X206921314Y-119574310D01*
X207098686Y-119574310D01*
X207272646Y-119608912D01*
X207272646Y-119608912D01*
G37*
G36*
X171712646Y-119608912D02*
G01*
X171876512Y-119676788D01*
X171876514Y-119676789D01*
X172023991Y-119775330D01*
X172149410Y-119900749D01*
X172239465Y-120035526D01*
X172247952Y-120048228D01*
X172315828Y-120212094D01*
X172350430Y-120386054D01*
X172350430Y-120563426D01*
X172315828Y-120737386D01*
X172247952Y-120901252D01*
X172247951Y-120901254D01*
X172149410Y-121048731D01*
X172023991Y-121174150D01*
X171876514Y-121272691D01*
X171876513Y-121272692D01*
X171876512Y-121272692D01*
X171712646Y-121340568D01*
X171538686Y-121375170D01*
X171361314Y-121375170D01*
X171187354Y-121340568D01*
X171023488Y-121272692D01*
X171023487Y-121272692D01*
X171023486Y-121272691D01*
X170876009Y-121174150D01*
X170750590Y-121048731D01*
X170652049Y-120901254D01*
X170652048Y-120901252D01*
X170584172Y-120737386D01*
X170549570Y-120563426D01*
X170549570Y-120386054D01*
X170584172Y-120212094D01*
X170652048Y-120048228D01*
X170660535Y-120035526D01*
X170750590Y-119900749D01*
X170876009Y-119775330D01*
X171023486Y-119676789D01*
X171023488Y-119676788D01*
X171187354Y-119608912D01*
X171361314Y-119574310D01*
X171538686Y-119574310D01*
X171712646Y-119608912D01*
X171712646Y-119608912D01*
G37*
G36*
X189467246Y-119596212D02*
G01*
X189613662Y-119656860D01*
X189631114Y-119664089D01*
X189778591Y-119762630D01*
X189904010Y-119888049D01*
X189904011Y-119888051D01*
X190002552Y-120035528D01*
X190070428Y-120199394D01*
X190105030Y-120373354D01*
X190105030Y-120550726D01*
X190070428Y-120724686D01*
X190002552Y-120888552D01*
X190002551Y-120888554D01*
X189904010Y-121036031D01*
X189778591Y-121161450D01*
X189631114Y-121259991D01*
X189631113Y-121259992D01*
X189631112Y-121259992D01*
X189467246Y-121327868D01*
X189293286Y-121362470D01*
X189115914Y-121362470D01*
X188941954Y-121327868D01*
X188778088Y-121259992D01*
X188778087Y-121259992D01*
X188778086Y-121259991D01*
X188630609Y-121161450D01*
X188505190Y-121036031D01*
X188406649Y-120888554D01*
X188406648Y-120888552D01*
X188338772Y-120724686D01*
X188304170Y-120550726D01*
X188304170Y-120373354D01*
X188338772Y-120199394D01*
X188406648Y-120035528D01*
X188505189Y-119888051D01*
X188505190Y-119888049D01*
X188630609Y-119762630D01*
X188778086Y-119664089D01*
X188795538Y-119656860D01*
X188941954Y-119596212D01*
X189115914Y-119561610D01*
X189293286Y-119561610D01*
X189467246Y-119596212D01*
X189467246Y-119596212D01*
G37*
G36*
X153932646Y-119583512D02*
G01*
X154079062Y-119644160D01*
X154096514Y-119651389D01*
X154243991Y-119749930D01*
X154369410Y-119875349D01*
X154386383Y-119900751D01*
X154467952Y-120022828D01*
X154535828Y-120186694D01*
X154570430Y-120360654D01*
X154570430Y-120538026D01*
X154535828Y-120711986D01*
X154481519Y-120843098D01*
X154467951Y-120875854D01*
X154369410Y-121023331D01*
X154243991Y-121148750D01*
X154096514Y-121247291D01*
X154096513Y-121247292D01*
X154096512Y-121247292D01*
X153932646Y-121315168D01*
X153758686Y-121349770D01*
X153581314Y-121349770D01*
X153407354Y-121315168D01*
X153243488Y-121247292D01*
X153243487Y-121247292D01*
X153243486Y-121247291D01*
X153096009Y-121148750D01*
X152970590Y-121023331D01*
X152872049Y-120875854D01*
X152858481Y-120843098D01*
X152804172Y-120711986D01*
X152769570Y-120538026D01*
X152769570Y-120360654D01*
X152804172Y-120186694D01*
X152872048Y-120022828D01*
X152953617Y-119900751D01*
X152970590Y-119875349D01*
X153096009Y-119749930D01*
X153243486Y-119651389D01*
X153260938Y-119644160D01*
X153407354Y-119583512D01*
X153581314Y-119548910D01*
X153758686Y-119548910D01*
X153932646Y-119583512D01*
X153932646Y-119583512D01*
G37*
G36*
X230245256Y-117771298D02*
G01*
X230351579Y-117792447D01*
X230564037Y-117880450D01*
X230650582Y-117916298D01*
X230652042Y-117916903D01*
X230922451Y-118097585D01*
X231152415Y-118327549D01*
X231329176Y-118592090D01*
X231333098Y-118597960D01*
X231457553Y-118898422D01*
X231521000Y-119217389D01*
X231521000Y-119542611D01*
X231496836Y-119664089D01*
X231457553Y-119861579D01*
X231333097Y-120162042D01*
X231152415Y-120432451D01*
X230922451Y-120662415D01*
X230652042Y-120843097D01*
X230351579Y-120967553D01*
X230245256Y-120988702D01*
X230032611Y-121031000D01*
X229707389Y-121031000D01*
X229494744Y-120988702D01*
X229388421Y-120967553D01*
X229087958Y-120843097D01*
X228817549Y-120662415D01*
X228587585Y-120432451D01*
X228406903Y-120162042D01*
X228282447Y-119861579D01*
X228243164Y-119664089D01*
X228219000Y-119542611D01*
X228219000Y-119217389D01*
X228282447Y-118898422D01*
X228406902Y-118597960D01*
X228410824Y-118592090D01*
X228587585Y-118327549D01*
X228817549Y-118097585D01*
X229087958Y-117916903D01*
X229089419Y-117916298D01*
X229175963Y-117880450D01*
X229388421Y-117792447D01*
X229494744Y-117771298D01*
X229707389Y-117729000D01*
X230032611Y-117729000D01*
X230245256Y-117771298D01*
X230245256Y-117771298D01*
G37*
G36*
X126105256Y-117771298D02*
G01*
X126211579Y-117792447D01*
X126424037Y-117880450D01*
X126510582Y-117916298D01*
X126512042Y-117916903D01*
X126782451Y-118097585D01*
X127012415Y-118327549D01*
X127189176Y-118592090D01*
X127193098Y-118597960D01*
X127317553Y-118898422D01*
X127381000Y-119217389D01*
X127381000Y-119542611D01*
X127356836Y-119664089D01*
X127317553Y-119861579D01*
X127193097Y-120162042D01*
X127012415Y-120432451D01*
X126782451Y-120662415D01*
X126512042Y-120843097D01*
X126211579Y-120967553D01*
X126105256Y-120988702D01*
X125892611Y-121031000D01*
X125567389Y-121031000D01*
X125354744Y-120988702D01*
X125248421Y-120967553D01*
X124947958Y-120843097D01*
X124677549Y-120662415D01*
X124447585Y-120432451D01*
X124266903Y-120162042D01*
X124142447Y-119861579D01*
X124103164Y-119664089D01*
X124079000Y-119542611D01*
X124079000Y-119217389D01*
X124142447Y-118898422D01*
X124266902Y-118597960D01*
X124270824Y-118592090D01*
X124447585Y-118327549D01*
X124677549Y-118097585D01*
X124947958Y-117916903D01*
X124949419Y-117916298D01*
X125035963Y-117880450D01*
X125248421Y-117792447D01*
X125354744Y-117771298D01*
X125567389Y-117729000D01*
X125892611Y-117729000D01*
X126105256Y-117771298D01*
X126105256Y-117771298D01*
G37*
G36*
X178042913Y-117340048D02*
G01*
X178257862Y-117429083D01*
X178451305Y-117558337D01*
X178615823Y-117722855D01*
X178745077Y-117916298D01*
X178834112Y-118131247D01*
X178879500Y-118359430D01*
X178879500Y-118592090D01*
X178834112Y-118820273D01*
X178745077Y-119035222D01*
X178615823Y-119228665D01*
X178451305Y-119393183D01*
X178257862Y-119522437D01*
X178042913Y-119611472D01*
X177814730Y-119656860D01*
X177582070Y-119656860D01*
X177353887Y-119611472D01*
X177138938Y-119522437D01*
X176945495Y-119393183D01*
X176780977Y-119228665D01*
X176651723Y-119035222D01*
X176562688Y-118820273D01*
X176517300Y-118592090D01*
X176517300Y-118359430D01*
X176562688Y-118131247D01*
X176651723Y-117916298D01*
X176780977Y-117722855D01*
X176945495Y-117558337D01*
X177138938Y-117429083D01*
X177353887Y-117340048D01*
X177582070Y-117294660D01*
X177814730Y-117294660D01*
X178042913Y-117340048D01*
X178042913Y-117340048D01*
G37*
G36*
X213602913Y-117340048D02*
G01*
X213817862Y-117429083D01*
X214011305Y-117558337D01*
X214175823Y-117722855D01*
X214305077Y-117916298D01*
X214394112Y-118131247D01*
X214439500Y-118359430D01*
X214439500Y-118592090D01*
X214394112Y-118820273D01*
X214305077Y-119035222D01*
X214175823Y-119228665D01*
X214011305Y-119393183D01*
X213817862Y-119522437D01*
X213602913Y-119611472D01*
X213374730Y-119656860D01*
X213142070Y-119656860D01*
X212913887Y-119611472D01*
X212698938Y-119522437D01*
X212505495Y-119393183D01*
X212340977Y-119228665D01*
X212211723Y-119035222D01*
X212122688Y-118820273D01*
X212077300Y-118592090D01*
X212077300Y-118359430D01*
X212122688Y-118131247D01*
X212211723Y-117916298D01*
X212340977Y-117722855D01*
X212505495Y-117558337D01*
X212698938Y-117429083D01*
X212913887Y-117340048D01*
X213142070Y-117294660D01*
X213374730Y-117294660D01*
X213602913Y-117340048D01*
X213602913Y-117340048D01*
G37*
G36*
X201106113Y-117340048D02*
G01*
X201321062Y-117429083D01*
X201514505Y-117558337D01*
X201679023Y-117722855D01*
X201808277Y-117916298D01*
X201897312Y-118131247D01*
X201942700Y-118359430D01*
X201942700Y-118592090D01*
X201897312Y-118820273D01*
X201808277Y-119035222D01*
X201679023Y-119228665D01*
X201514505Y-119393183D01*
X201321062Y-119522437D01*
X201106113Y-119611472D01*
X200877930Y-119656860D01*
X200645270Y-119656860D01*
X200417087Y-119611472D01*
X200202138Y-119522437D01*
X200008695Y-119393183D01*
X199844177Y-119228665D01*
X199714923Y-119035222D01*
X199625888Y-118820273D01*
X199580500Y-118592090D01*
X199580500Y-118359430D01*
X199625888Y-118131247D01*
X199714923Y-117916298D01*
X199844177Y-117722855D01*
X200008695Y-117558337D01*
X200202138Y-117429083D01*
X200417087Y-117340048D01*
X200645270Y-117294660D01*
X200877930Y-117294660D01*
X201106113Y-117340048D01*
X201106113Y-117340048D01*
G37*
G36*
X165546113Y-117340048D02*
G01*
X165761062Y-117429083D01*
X165954505Y-117558337D01*
X166119023Y-117722855D01*
X166248277Y-117916298D01*
X166337312Y-118131247D01*
X166382700Y-118359430D01*
X166382700Y-118592090D01*
X166337312Y-118820273D01*
X166248277Y-119035222D01*
X166119023Y-119228665D01*
X165954505Y-119393183D01*
X165761062Y-119522437D01*
X165546113Y-119611472D01*
X165317930Y-119656860D01*
X165085270Y-119656860D01*
X164857087Y-119611472D01*
X164642138Y-119522437D01*
X164448695Y-119393183D01*
X164284177Y-119228665D01*
X164154923Y-119035222D01*
X164065888Y-118820273D01*
X164020500Y-118592090D01*
X164020500Y-118359430D01*
X164065888Y-118131247D01*
X164154923Y-117916298D01*
X164284177Y-117722855D01*
X164448695Y-117558337D01*
X164642138Y-117429083D01*
X164857087Y-117340048D01*
X165085270Y-117294660D01*
X165317930Y-117294660D01*
X165546113Y-117340048D01*
X165546113Y-117340048D01*
G37*
G36*
X195797513Y-117327348D02*
G01*
X196012462Y-117416383D01*
X196205905Y-117545637D01*
X196370423Y-117710155D01*
X196499677Y-117903598D01*
X196588712Y-118118547D01*
X196634100Y-118346730D01*
X196634100Y-118579390D01*
X196588712Y-118807573D01*
X196499677Y-119022522D01*
X196370423Y-119215965D01*
X196205905Y-119380483D01*
X196012462Y-119509737D01*
X195797513Y-119598772D01*
X195569330Y-119644160D01*
X195336670Y-119644160D01*
X195108487Y-119598772D01*
X194893538Y-119509737D01*
X194700095Y-119380483D01*
X194535577Y-119215965D01*
X194406323Y-119022522D01*
X194317288Y-118807573D01*
X194271900Y-118579390D01*
X194271900Y-118346730D01*
X194317288Y-118118547D01*
X194406323Y-117903598D01*
X194535577Y-117710155D01*
X194700095Y-117545637D01*
X194893538Y-117416383D01*
X195108487Y-117327348D01*
X195336670Y-117281960D01*
X195569330Y-117281960D01*
X195797513Y-117327348D01*
X195797513Y-117327348D01*
G37*
G36*
X183300713Y-117327348D02*
G01*
X183515662Y-117416383D01*
X183709105Y-117545637D01*
X183873623Y-117710155D01*
X184002877Y-117903598D01*
X184091912Y-118118547D01*
X184137300Y-118346730D01*
X184137300Y-118579390D01*
X184091912Y-118807573D01*
X184002877Y-119022522D01*
X183873623Y-119215965D01*
X183709105Y-119380483D01*
X183515662Y-119509737D01*
X183300713Y-119598772D01*
X183072530Y-119644160D01*
X182839870Y-119644160D01*
X182611687Y-119598772D01*
X182396738Y-119509737D01*
X182203295Y-119380483D01*
X182038777Y-119215965D01*
X181909523Y-119022522D01*
X181820488Y-118807573D01*
X181775100Y-118579390D01*
X181775100Y-118346730D01*
X181820488Y-118118547D01*
X181909523Y-117903598D01*
X182038777Y-117710155D01*
X182203295Y-117545637D01*
X182396738Y-117416383D01*
X182611687Y-117327348D01*
X182839870Y-117281960D01*
X183072530Y-117281960D01*
X183300713Y-117327348D01*
X183300713Y-117327348D01*
G37*
G36*
X160262913Y-117314648D02*
G01*
X160477862Y-117403683D01*
X160671305Y-117532937D01*
X160835823Y-117697455D01*
X160965077Y-117890898D01*
X161054112Y-118105847D01*
X161099500Y-118334030D01*
X161099500Y-118566690D01*
X161054112Y-118794873D01*
X160965077Y-119009822D01*
X160835823Y-119203265D01*
X160671305Y-119367783D01*
X160477862Y-119497037D01*
X160262913Y-119586072D01*
X160034730Y-119631460D01*
X159802070Y-119631460D01*
X159573887Y-119586072D01*
X159358938Y-119497037D01*
X159165495Y-119367783D01*
X159000977Y-119203265D01*
X158871723Y-119009822D01*
X158782688Y-118794873D01*
X158737300Y-118566690D01*
X158737300Y-118334030D01*
X158782688Y-118105847D01*
X158871723Y-117890898D01*
X159000977Y-117697455D01*
X159165495Y-117532937D01*
X159358938Y-117403683D01*
X159573887Y-117314648D01*
X159802070Y-117269260D01*
X160034730Y-117269260D01*
X160262913Y-117314648D01*
X160262913Y-117314648D01*
G37*
G36*
X147766113Y-117314648D02*
G01*
X147981062Y-117403683D01*
X148174505Y-117532937D01*
X148339023Y-117697455D01*
X148468277Y-117890898D01*
X148557312Y-118105847D01*
X148602700Y-118334030D01*
X148602700Y-118566690D01*
X148557312Y-118794873D01*
X148468277Y-119009822D01*
X148339023Y-119203265D01*
X148174505Y-119367783D01*
X147981062Y-119497037D01*
X147766113Y-119586072D01*
X147537930Y-119631460D01*
X147305270Y-119631460D01*
X147077087Y-119586072D01*
X146862138Y-119497037D01*
X146668695Y-119367783D01*
X146504177Y-119203265D01*
X146374923Y-119009822D01*
X146285888Y-118794873D01*
X146240500Y-118566690D01*
X146240500Y-118334030D01*
X146285888Y-118105847D01*
X146374923Y-117890898D01*
X146504177Y-117697455D01*
X146668695Y-117532937D01*
X146862138Y-117403683D01*
X147077087Y-117314648D01*
X147305270Y-117269260D01*
X147537930Y-117269260D01*
X147766113Y-117314648D01*
X147766113Y-117314648D01*
G37*
G36*
X165546113Y-112341328D02*
G01*
X165761062Y-112430363D01*
X165954505Y-112559617D01*
X166119023Y-112724135D01*
X166248277Y-112917578D01*
X166337312Y-113132527D01*
X166382700Y-113360710D01*
X166382700Y-113593370D01*
X166337312Y-113821553D01*
X166248277Y-114036502D01*
X166119023Y-114229945D01*
X165954505Y-114394463D01*
X165761062Y-114523717D01*
X165546113Y-114612752D01*
X165317930Y-114658140D01*
X165085270Y-114658140D01*
X164857087Y-114612752D01*
X164642138Y-114523717D01*
X164448695Y-114394463D01*
X164284177Y-114229945D01*
X164154923Y-114036502D01*
X164065888Y-113821553D01*
X164020500Y-113593370D01*
X164020500Y-113360710D01*
X164065888Y-113132527D01*
X164154923Y-112917578D01*
X164284177Y-112724135D01*
X164448695Y-112559617D01*
X164642138Y-112430363D01*
X164857087Y-112341328D01*
X165085270Y-112295940D01*
X165317930Y-112295940D01*
X165546113Y-112341328D01*
X165546113Y-112341328D01*
G37*
G36*
X178042913Y-112341328D02*
G01*
X178257862Y-112430363D01*
X178451305Y-112559617D01*
X178615823Y-112724135D01*
X178745077Y-112917578D01*
X178834112Y-113132527D01*
X178879500Y-113360710D01*
X178879500Y-113593370D01*
X178834112Y-113821553D01*
X178745077Y-114036502D01*
X178615823Y-114229945D01*
X178451305Y-114394463D01*
X178257862Y-114523717D01*
X178042913Y-114612752D01*
X177814730Y-114658140D01*
X177582070Y-114658140D01*
X177353887Y-114612752D01*
X177138938Y-114523717D01*
X176945495Y-114394463D01*
X176780977Y-114229945D01*
X176651723Y-114036502D01*
X176562688Y-113821553D01*
X176517300Y-113593370D01*
X176517300Y-113360710D01*
X176562688Y-113132527D01*
X176651723Y-112917578D01*
X176780977Y-112724135D01*
X176945495Y-112559617D01*
X177138938Y-112430363D01*
X177353887Y-112341328D01*
X177582070Y-112295940D01*
X177814730Y-112295940D01*
X178042913Y-112341328D01*
X178042913Y-112341328D01*
G37*
G36*
X213602913Y-112341328D02*
G01*
X213817862Y-112430363D01*
X214011305Y-112559617D01*
X214175823Y-112724135D01*
X214305077Y-112917578D01*
X214394112Y-113132527D01*
X214439500Y-113360710D01*
X214439500Y-113593370D01*
X214394112Y-113821553D01*
X214305077Y-114036502D01*
X214175823Y-114229945D01*
X214011305Y-114394463D01*
X213817862Y-114523717D01*
X213602913Y-114612752D01*
X213374730Y-114658140D01*
X213142070Y-114658140D01*
X212913887Y-114612752D01*
X212698938Y-114523717D01*
X212505495Y-114394463D01*
X212340977Y-114229945D01*
X212211723Y-114036502D01*
X212122688Y-113821553D01*
X212077300Y-113593370D01*
X212077300Y-113360710D01*
X212122688Y-113132527D01*
X212211723Y-112917578D01*
X212340977Y-112724135D01*
X212505495Y-112559617D01*
X212698938Y-112430363D01*
X212913887Y-112341328D01*
X213142070Y-112295940D01*
X213374730Y-112295940D01*
X213602913Y-112341328D01*
X213602913Y-112341328D01*
G37*
G36*
X201106113Y-112341328D02*
G01*
X201321062Y-112430363D01*
X201514505Y-112559617D01*
X201679023Y-112724135D01*
X201808277Y-112917578D01*
X201897312Y-113132527D01*
X201942700Y-113360710D01*
X201942700Y-113593370D01*
X201897312Y-113821553D01*
X201808277Y-114036502D01*
X201679023Y-114229945D01*
X201514505Y-114394463D01*
X201321062Y-114523717D01*
X201106113Y-114612752D01*
X200877930Y-114658140D01*
X200645270Y-114658140D01*
X200417087Y-114612752D01*
X200202138Y-114523717D01*
X200008695Y-114394463D01*
X199844177Y-114229945D01*
X199714923Y-114036502D01*
X199625888Y-113821553D01*
X199580500Y-113593370D01*
X199580500Y-113360710D01*
X199625888Y-113132527D01*
X199714923Y-112917578D01*
X199844177Y-112724135D01*
X200008695Y-112559617D01*
X200202138Y-112430363D01*
X200417087Y-112341328D01*
X200645270Y-112295940D01*
X200877930Y-112295940D01*
X201106113Y-112341328D01*
X201106113Y-112341328D01*
G37*
G36*
X183300713Y-112328628D02*
G01*
X183515662Y-112417663D01*
X183709105Y-112546917D01*
X183873623Y-112711435D01*
X184002877Y-112904878D01*
X184091912Y-113119827D01*
X184137300Y-113348010D01*
X184137300Y-113580670D01*
X184091912Y-113808853D01*
X184002877Y-114023802D01*
X183873623Y-114217245D01*
X183709105Y-114381763D01*
X183515662Y-114511017D01*
X183300713Y-114600052D01*
X183072530Y-114645440D01*
X182839870Y-114645440D01*
X182611687Y-114600052D01*
X182396738Y-114511017D01*
X182203295Y-114381763D01*
X182038777Y-114217245D01*
X181909523Y-114023802D01*
X181820488Y-113808853D01*
X181775100Y-113580670D01*
X181775100Y-113348010D01*
X181820488Y-113119827D01*
X181909523Y-112904878D01*
X182038777Y-112711435D01*
X182203295Y-112546917D01*
X182396738Y-112417663D01*
X182611687Y-112328628D01*
X182839870Y-112283240D01*
X183072530Y-112283240D01*
X183300713Y-112328628D01*
X183300713Y-112328628D01*
G37*
G36*
X195797513Y-112328628D02*
G01*
X196012462Y-112417663D01*
X196205905Y-112546917D01*
X196370423Y-112711435D01*
X196499677Y-112904878D01*
X196588712Y-113119827D01*
X196634100Y-113348010D01*
X196634100Y-113580670D01*
X196588712Y-113808853D01*
X196499677Y-114023802D01*
X196370423Y-114217245D01*
X196205905Y-114381763D01*
X196012462Y-114511017D01*
X195797513Y-114600052D01*
X195569330Y-114645440D01*
X195336670Y-114645440D01*
X195108487Y-114600052D01*
X194893538Y-114511017D01*
X194700095Y-114381763D01*
X194535577Y-114217245D01*
X194406323Y-114023802D01*
X194317288Y-113808853D01*
X194271900Y-113580670D01*
X194271900Y-113348010D01*
X194317288Y-113119827D01*
X194406323Y-112904878D01*
X194535577Y-112711435D01*
X194700095Y-112546917D01*
X194893538Y-112417663D01*
X195108487Y-112328628D01*
X195336670Y-112283240D01*
X195569330Y-112283240D01*
X195797513Y-112328628D01*
X195797513Y-112328628D01*
G37*
G36*
X160262913Y-112315928D02*
G01*
X160477862Y-112404963D01*
X160671305Y-112534217D01*
X160835823Y-112698735D01*
X160965077Y-112892178D01*
X161054112Y-113107127D01*
X161099500Y-113335310D01*
X161099500Y-113567970D01*
X161054112Y-113796153D01*
X160965077Y-114011102D01*
X160835823Y-114204545D01*
X160671305Y-114369063D01*
X160477862Y-114498317D01*
X160262913Y-114587352D01*
X160034730Y-114632740D01*
X159802070Y-114632740D01*
X159573887Y-114587352D01*
X159358938Y-114498317D01*
X159165495Y-114369063D01*
X159000977Y-114204545D01*
X158871723Y-114011102D01*
X158782688Y-113796153D01*
X158737300Y-113567970D01*
X158737300Y-113335310D01*
X158782688Y-113107127D01*
X158871723Y-112892178D01*
X159000977Y-112698735D01*
X159165495Y-112534217D01*
X159358938Y-112404963D01*
X159573887Y-112315928D01*
X159802070Y-112270540D01*
X160034730Y-112270540D01*
X160262913Y-112315928D01*
X160262913Y-112315928D01*
G37*
G36*
X147766113Y-112315928D02*
G01*
X147981062Y-112404963D01*
X148174505Y-112534217D01*
X148339023Y-112698735D01*
X148468277Y-112892178D01*
X148557312Y-113107127D01*
X148602700Y-113335310D01*
X148602700Y-113567970D01*
X148557312Y-113796153D01*
X148468277Y-114011102D01*
X148339023Y-114204545D01*
X148174505Y-114369063D01*
X147981062Y-114498317D01*
X147766113Y-114587352D01*
X147537930Y-114632740D01*
X147305270Y-114632740D01*
X147077087Y-114587352D01*
X146862138Y-114498317D01*
X146668695Y-114369063D01*
X146504177Y-114204545D01*
X146374923Y-114011102D01*
X146285888Y-113796153D01*
X146240500Y-113567970D01*
X146240500Y-113335310D01*
X146285888Y-113107127D01*
X146374923Y-112892178D01*
X146504177Y-112698735D01*
X146668695Y-112534217D01*
X146862138Y-112404963D01*
X147077087Y-112315928D01*
X147305270Y-112270540D01*
X147537930Y-112270540D01*
X147766113Y-112315928D01*
X147766113Y-112315928D01*
G37*
G36*
X207272646Y-110612232D02*
G01*
X207436512Y-110680108D01*
X207436514Y-110680109D01*
X207583991Y-110778650D01*
X207709410Y-110904069D01*
X207799465Y-111038846D01*
X207807952Y-111051548D01*
X207875828Y-111215414D01*
X207910430Y-111389374D01*
X207910430Y-111566746D01*
X207875828Y-111740706D01*
X207807952Y-111904572D01*
X207807951Y-111904574D01*
X207709410Y-112052051D01*
X207583991Y-112177470D01*
X207436514Y-112276011D01*
X207436513Y-112276012D01*
X207436512Y-112276012D01*
X207272646Y-112343888D01*
X207098686Y-112378490D01*
X206921314Y-112378490D01*
X206747354Y-112343888D01*
X206583488Y-112276012D01*
X206583487Y-112276012D01*
X206583486Y-112276011D01*
X206436009Y-112177470D01*
X206310590Y-112052051D01*
X206212049Y-111904574D01*
X206212048Y-111904572D01*
X206144172Y-111740706D01*
X206109570Y-111566746D01*
X206109570Y-111389374D01*
X206144172Y-111215414D01*
X206212048Y-111051548D01*
X206220535Y-111038846D01*
X206310590Y-110904069D01*
X206436009Y-110778650D01*
X206583486Y-110680109D01*
X206583488Y-110680108D01*
X206747354Y-110612232D01*
X206921314Y-110577630D01*
X207098686Y-110577630D01*
X207272646Y-110612232D01*
X207272646Y-110612232D01*
G37*
G36*
X171712646Y-110612232D02*
G01*
X171876512Y-110680108D01*
X171876514Y-110680109D01*
X172023991Y-110778650D01*
X172149410Y-110904069D01*
X172239465Y-111038846D01*
X172247952Y-111051548D01*
X172315828Y-111215414D01*
X172350430Y-111389374D01*
X172350430Y-111566746D01*
X172315828Y-111740706D01*
X172247952Y-111904572D01*
X172247951Y-111904574D01*
X172149410Y-112052051D01*
X172023991Y-112177470D01*
X171876514Y-112276011D01*
X171876513Y-112276012D01*
X171876512Y-112276012D01*
X171712646Y-112343888D01*
X171538686Y-112378490D01*
X171361314Y-112378490D01*
X171187354Y-112343888D01*
X171023488Y-112276012D01*
X171023487Y-112276012D01*
X171023486Y-112276011D01*
X170876009Y-112177470D01*
X170750590Y-112052051D01*
X170652049Y-111904574D01*
X170652048Y-111904572D01*
X170584172Y-111740706D01*
X170549570Y-111566746D01*
X170549570Y-111389374D01*
X170584172Y-111215414D01*
X170652048Y-111051548D01*
X170660535Y-111038846D01*
X170750590Y-110904069D01*
X170876009Y-110778650D01*
X171023486Y-110680109D01*
X171023488Y-110680108D01*
X171187354Y-110612232D01*
X171361314Y-110577630D01*
X171538686Y-110577630D01*
X171712646Y-110612232D01*
X171712646Y-110612232D01*
G37*
G36*
X189467246Y-110599532D02*
G01*
X189631112Y-110667408D01*
X189631114Y-110667409D01*
X189778591Y-110765950D01*
X189904010Y-110891369D01*
X189904011Y-110891371D01*
X190002552Y-111038848D01*
X190070428Y-111202714D01*
X190105030Y-111376674D01*
X190105030Y-111554046D01*
X190070428Y-111728006D01*
X190002552Y-111891872D01*
X190002551Y-111891874D01*
X189904010Y-112039351D01*
X189778591Y-112164770D01*
X189631114Y-112263311D01*
X189631113Y-112263312D01*
X189631112Y-112263312D01*
X189467246Y-112331188D01*
X189293286Y-112365790D01*
X189115914Y-112365790D01*
X188941954Y-112331188D01*
X188778088Y-112263312D01*
X188778087Y-112263312D01*
X188778086Y-112263311D01*
X188630609Y-112164770D01*
X188505190Y-112039351D01*
X188406649Y-111891874D01*
X188406648Y-111891872D01*
X188338772Y-111728006D01*
X188304170Y-111554046D01*
X188304170Y-111376674D01*
X188338772Y-111202714D01*
X188406648Y-111038848D01*
X188505189Y-110891371D01*
X188505190Y-110891369D01*
X188630609Y-110765950D01*
X188778086Y-110667409D01*
X188778088Y-110667408D01*
X188941954Y-110599532D01*
X189115914Y-110564930D01*
X189293286Y-110564930D01*
X189467246Y-110599532D01*
X189467246Y-110599532D01*
G37*
G36*
X153932646Y-110586832D02*
G01*
X154096512Y-110654708D01*
X154096514Y-110654709D01*
X154243991Y-110753250D01*
X154369410Y-110878669D01*
X154386383Y-110904071D01*
X154467952Y-111026148D01*
X154535828Y-111190014D01*
X154570430Y-111363974D01*
X154570430Y-111541346D01*
X154535828Y-111715306D01*
X154467952Y-111879172D01*
X154467951Y-111879174D01*
X154369410Y-112026651D01*
X154243991Y-112152070D01*
X154096514Y-112250611D01*
X154096513Y-112250612D01*
X154096512Y-112250612D01*
X153932646Y-112318488D01*
X153758686Y-112353090D01*
X153581314Y-112353090D01*
X153407354Y-112318488D01*
X153243488Y-112250612D01*
X153243487Y-112250612D01*
X153243486Y-112250611D01*
X153096009Y-112152070D01*
X152970590Y-112026651D01*
X152872049Y-111879174D01*
X152872048Y-111879172D01*
X152804172Y-111715306D01*
X152769570Y-111541346D01*
X152769570Y-111363974D01*
X152804172Y-111190014D01*
X152872048Y-111026148D01*
X152953617Y-110904071D01*
X152970590Y-110878669D01*
X153096009Y-110753250D01*
X153243486Y-110654709D01*
X153243488Y-110654708D01*
X153407354Y-110586832D01*
X153581314Y-110552230D01*
X153758686Y-110552230D01*
X153932646Y-110586832D01*
X153932646Y-110586832D01*
G37*
G36*
X171660282Y-108311236D02*
G01*
X171724129Y-108323936D01*
X171833838Y-108369379D01*
X171864502Y-108382080D01*
X171895162Y-108394780D01*
X172049087Y-108497630D01*
X172179990Y-108628533D01*
X172282840Y-108782458D01*
X172348424Y-108940791D01*
X172353684Y-108953492D01*
X172387274Y-109122356D01*
X172389800Y-109135058D01*
X172389800Y-109320182D01*
X172358737Y-109476348D01*
X172353684Y-109501748D01*
X172288101Y-109660082D01*
X172282840Y-109672782D01*
X172179990Y-109826707D01*
X172049087Y-109957610D01*
X171895162Y-110060460D01*
X171724129Y-110131304D01*
X171670256Y-110142020D01*
X171542564Y-110167420D01*
X171357436Y-110167420D01*
X171229744Y-110142020D01*
X171175871Y-110131304D01*
X171004838Y-110060460D01*
X170850913Y-109957610D01*
X170720010Y-109826707D01*
X170617160Y-109672782D01*
X170611900Y-109660082D01*
X170546316Y-109501748D01*
X170541264Y-109476348D01*
X170510200Y-109320182D01*
X170510200Y-109135058D01*
X170512727Y-109122356D01*
X170546316Y-108953492D01*
X170551577Y-108940791D01*
X170617160Y-108782458D01*
X170720010Y-108628533D01*
X170850913Y-108497630D01*
X171004838Y-108394780D01*
X171035499Y-108382080D01*
X171066162Y-108369379D01*
X171175871Y-108323936D01*
X171239718Y-108311236D01*
X171357436Y-108287820D01*
X171542564Y-108287820D01*
X171660282Y-108311236D01*
X171660282Y-108311236D01*
G37*
G36*
X207220282Y-108311236D02*
G01*
X207284129Y-108323936D01*
X207393838Y-108369379D01*
X207424502Y-108382080D01*
X207455162Y-108394780D01*
X207609087Y-108497630D01*
X207739990Y-108628533D01*
X207842840Y-108782458D01*
X207908424Y-108940791D01*
X207913684Y-108953492D01*
X207947274Y-109122356D01*
X207949800Y-109135058D01*
X207949800Y-109320182D01*
X207918737Y-109476348D01*
X207913684Y-109501748D01*
X207848101Y-109660082D01*
X207842840Y-109672782D01*
X207739990Y-109826707D01*
X207609087Y-109957610D01*
X207455162Y-110060460D01*
X207284129Y-110131304D01*
X207230256Y-110142020D01*
X207102564Y-110167420D01*
X206917436Y-110167420D01*
X206789744Y-110142020D01*
X206735871Y-110131304D01*
X206564838Y-110060460D01*
X206410913Y-109957610D01*
X206280010Y-109826707D01*
X206177160Y-109672782D01*
X206171900Y-109660082D01*
X206106316Y-109501748D01*
X206101264Y-109476348D01*
X206070200Y-109320182D01*
X206070200Y-109135058D01*
X206072727Y-109122356D01*
X206106316Y-108953492D01*
X206111577Y-108940791D01*
X206177160Y-108782458D01*
X206280010Y-108628533D01*
X206410913Y-108497630D01*
X206564838Y-108394780D01*
X206595499Y-108382080D01*
X206626162Y-108369379D01*
X206735871Y-108323936D01*
X206799718Y-108311236D01*
X206917436Y-108287820D01*
X207102564Y-108287820D01*
X207220282Y-108311236D01*
X207220282Y-108311236D01*
G37*
G36*
X189414882Y-108298536D02*
G01*
X189478729Y-108311236D01*
X189599665Y-108361329D01*
X189619102Y-108369380D01*
X189649762Y-108382080D01*
X189784680Y-108472230D01*
X189803687Y-108484930D01*
X189934590Y-108615833D01*
X190037441Y-108769760D01*
X190042701Y-108782460D01*
X190103024Y-108928091D01*
X190108284Y-108940792D01*
X190144400Y-109122356D01*
X190144400Y-109307484D01*
X190120323Y-109428527D01*
X190108284Y-109489049D01*
X190058191Y-109609985D01*
X190042701Y-109647382D01*
X190037440Y-109660082D01*
X189934590Y-109814007D01*
X189803687Y-109944910D01*
X189649762Y-110047760D01*
X189649761Y-110047761D01*
X189649760Y-110047761D01*
X189619099Y-110060461D01*
X189478729Y-110118604D01*
X189418207Y-110130643D01*
X189297164Y-110154720D01*
X189112036Y-110154720D01*
X188990993Y-110130643D01*
X188930471Y-110118604D01*
X188790101Y-110060461D01*
X188759440Y-110047761D01*
X188759439Y-110047761D01*
X188759438Y-110047760D01*
X188605513Y-109944910D01*
X188474610Y-109814007D01*
X188371760Y-109660082D01*
X188366500Y-109647382D01*
X188351009Y-109609985D01*
X188300916Y-109489049D01*
X188288877Y-109428527D01*
X188264800Y-109307484D01*
X188264800Y-109122356D01*
X188300916Y-108940792D01*
X188306177Y-108928091D01*
X188366499Y-108782460D01*
X188371759Y-108769760D01*
X188474610Y-108615833D01*
X188605513Y-108484930D01*
X188624520Y-108472230D01*
X188759438Y-108382080D01*
X188790099Y-108369380D01*
X188809535Y-108361329D01*
X188930471Y-108311236D01*
X188994318Y-108298536D01*
X189112036Y-108275120D01*
X189297164Y-108275120D01*
X189414882Y-108298536D01*
X189414882Y-108298536D01*
G37*
G36*
X153883607Y-108286497D02*
G01*
X153944129Y-108298536D01*
X154115162Y-108369380D01*
X154269087Y-108472230D01*
X154399990Y-108603133D01*
X154502841Y-108757060D01*
X154508101Y-108769760D01*
X154573684Y-108928091D01*
X154585723Y-108988613D01*
X154609800Y-109109656D01*
X154609800Y-109294784D01*
X154585723Y-109415827D01*
X154573684Y-109476349D01*
X154502840Y-109647382D01*
X154399990Y-109801307D01*
X154269087Y-109932210D01*
X154115162Y-110035060D01*
X154115161Y-110035061D01*
X154115160Y-110035061D01*
X154084499Y-110047761D01*
X153944129Y-110105904D01*
X153883607Y-110117943D01*
X153762564Y-110142020D01*
X153577436Y-110142020D01*
X153456393Y-110117943D01*
X153395871Y-110105904D01*
X153255501Y-110047761D01*
X153224840Y-110035061D01*
X153224839Y-110035061D01*
X153224838Y-110035060D01*
X153070913Y-109932210D01*
X152940010Y-109801307D01*
X152837160Y-109647382D01*
X152766316Y-109476349D01*
X152754277Y-109415827D01*
X152730200Y-109294784D01*
X152730200Y-109109656D01*
X152754277Y-108988613D01*
X152766316Y-108928091D01*
X152831899Y-108769760D01*
X152837159Y-108757060D01*
X152940010Y-108603133D01*
X153070913Y-108472230D01*
X153224838Y-108369380D01*
X153395871Y-108298536D01*
X153456393Y-108286497D01*
X153577436Y-108262420D01*
X153762564Y-108262420D01*
X153883607Y-108286497D01*
X153883607Y-108286497D01*
G37*
G36*
X132192916Y-105887334D02*
G01*
X132301492Y-105920271D01*
X132301495Y-105920272D01*
X132337601Y-105939571D01*
X132401557Y-105973756D01*
X132489264Y-106045736D01*
X132552383Y-106122646D01*
X132569702Y-106139965D01*
X132590077Y-106153579D01*
X132612716Y-106162957D01*
X132636749Y-106167737D01*
X132661253Y-106167737D01*
X132685286Y-106162957D01*
X132707925Y-106153579D01*
X132728299Y-106139966D01*
X132745626Y-106122639D01*
X132759240Y-106102264D01*
X132768618Y-106079625D01*
X132773398Y-106055592D01*
X132774000Y-106043340D01*
X132774000Y-105879000D01*
X133926000Y-105879000D01*
X133926000Y-107481000D01*
X132774000Y-107481000D01*
X132774000Y-107316660D01*
X132771598Y-107292274D01*
X132764485Y-107268825D01*
X132752934Y-107247214D01*
X132737389Y-107228272D01*
X132718447Y-107212727D01*
X132696836Y-107201176D01*
X132673387Y-107194063D01*
X132649001Y-107191661D01*
X132624615Y-107194063D01*
X132601166Y-107201176D01*
X132579555Y-107212727D01*
X132552381Y-107237356D01*
X132489264Y-107314264D01*
X132401556Y-107386244D01*
X132337600Y-107420429D01*
X132301494Y-107439728D01*
X132301491Y-107439729D01*
X132192915Y-107472666D01*
X132080000Y-107483787D01*
X131967084Y-107472666D01*
X131858508Y-107439729D01*
X131858505Y-107439728D01*
X131822399Y-107420429D01*
X131758443Y-107386244D01*
X131670736Y-107314264D01*
X131598756Y-107226556D01*
X131555239Y-107145140D01*
X131541625Y-107124766D01*
X131524298Y-107107439D01*
X131503924Y-107093825D01*
X131481285Y-107084448D01*
X131457251Y-107079668D01*
X131432747Y-107079668D01*
X131408714Y-107084449D01*
X131386075Y-107093826D01*
X131365701Y-107107440D01*
X131348374Y-107124767D01*
X131334762Y-107145140D01*
X131291244Y-107226557D01*
X131219264Y-107314264D01*
X131131556Y-107386244D01*
X131067600Y-107420429D01*
X131031494Y-107439728D01*
X131031491Y-107439729D01*
X130922915Y-107472666D01*
X130810000Y-107483787D01*
X130697084Y-107472666D01*
X130588508Y-107439729D01*
X130588505Y-107439728D01*
X130552399Y-107420429D01*
X130488443Y-107386244D01*
X130400736Y-107314264D01*
X130328756Y-107226556D01*
X130285239Y-107145140D01*
X130275272Y-107126494D01*
X130269492Y-107107440D01*
X130242334Y-107017915D01*
X130234000Y-106933297D01*
X130234000Y-106426702D01*
X130242334Y-106342084D01*
X130275271Y-106233508D01*
X130275272Y-106233505D01*
X130328756Y-106133445D01*
X130328757Y-106133443D01*
X130400737Y-106045736D01*
X130488444Y-105973756D01*
X130552400Y-105939571D01*
X130588506Y-105920272D01*
X130588509Y-105920271D01*
X130697085Y-105887334D01*
X130810000Y-105876213D01*
X130922916Y-105887334D01*
X131031492Y-105920271D01*
X131031495Y-105920272D01*
X131067601Y-105939571D01*
X131131557Y-105973756D01*
X131219264Y-106045736D01*
X131291244Y-106133443D01*
X131318489Y-106184416D01*
X131334761Y-106214859D01*
X131348375Y-106235234D01*
X131365702Y-106252561D01*
X131386076Y-106266174D01*
X131408715Y-106275552D01*
X131432748Y-106280332D01*
X131457252Y-106280332D01*
X131481285Y-106275552D01*
X131503924Y-106266174D01*
X131524299Y-106252560D01*
X131541626Y-106235233D01*
X131555239Y-106214859D01*
X131598756Y-106133445D01*
X131598757Y-106133443D01*
X131670737Y-106045736D01*
X131758444Y-105973756D01*
X131822400Y-105939571D01*
X131858506Y-105920272D01*
X131858509Y-105920271D01*
X131967085Y-105887334D01*
X132080000Y-105876213D01*
X132192916Y-105887334D01*
X132192916Y-105887334D01*
G37*
G36*
X214497256Y-103293298D02*
G01*
X214603579Y-103314447D01*
X214904042Y-103438903D01*
X215174451Y-103619585D01*
X215404415Y-103849549D01*
X215585097Y-104119958D01*
X215709553Y-104420421D01*
X215773000Y-104739391D01*
X215773000Y-105064609D01*
X215709553Y-105383579D01*
X215585097Y-105684042D01*
X215404415Y-105954451D01*
X215174451Y-106184415D01*
X214904042Y-106365097D01*
X214603579Y-106489553D01*
X214497256Y-106510702D01*
X214284611Y-106553000D01*
X213959389Y-106553000D01*
X213746744Y-106510702D01*
X213640421Y-106489553D01*
X213339958Y-106365097D01*
X213069549Y-106184415D01*
X212839585Y-105954451D01*
X212658903Y-105684042D01*
X212534447Y-105383579D01*
X212471000Y-105064609D01*
X212471000Y-104739391D01*
X212534447Y-104420421D01*
X212658903Y-104119958D01*
X212839585Y-103849549D01*
X213069549Y-103619585D01*
X213339958Y-103438903D01*
X213640421Y-103314447D01*
X213746744Y-103293298D01*
X213959389Y-103251000D01*
X214284611Y-103251000D01*
X214497256Y-103293298D01*
X214497256Y-103293298D01*
G37*
G36*
X146933256Y-103293298D02*
G01*
X147039579Y-103314447D01*
X147340042Y-103438903D01*
X147610451Y-103619585D01*
X147840415Y-103849549D01*
X148021097Y-104119958D01*
X148145553Y-104420421D01*
X148209000Y-104739391D01*
X148209000Y-105064609D01*
X148145553Y-105383579D01*
X148021097Y-105684042D01*
X147840415Y-105954451D01*
X147610451Y-106184415D01*
X147340042Y-106365097D01*
X147039579Y-106489553D01*
X146933256Y-106510702D01*
X146720611Y-106553000D01*
X146395389Y-106553000D01*
X146182744Y-106510702D01*
X146076421Y-106489553D01*
X145775958Y-106365097D01*
X145505549Y-106184415D01*
X145275585Y-105954451D01*
X145094903Y-105684042D01*
X144970447Y-105383579D01*
X144907000Y-105064609D01*
X144907000Y-104739391D01*
X144970447Y-104420421D01*
X145094903Y-104119958D01*
X145275585Y-103849549D01*
X145505549Y-103619585D01*
X145775958Y-103438903D01*
X146076421Y-103314447D01*
X146182744Y-103293298D01*
X146395389Y-103251000D01*
X146720611Y-103251000D01*
X146933256Y-103293298D01*
X146933256Y-103293298D01*
G37*
G36*
X226273607Y-101591057D02*
G01*
X226334129Y-101603096D01*
X226505162Y-101673940D01*
X226659087Y-101776790D01*
X226789990Y-101907693D01*
X226892840Y-102061618D01*
X226963684Y-102232651D01*
X226999800Y-102414218D01*
X226999800Y-102599342D01*
X226963684Y-102780909D01*
X226892840Y-102951942D01*
X226789990Y-103105867D01*
X226659087Y-103236770D01*
X226505162Y-103339620D01*
X226334129Y-103410464D01*
X226273607Y-103422503D01*
X226152564Y-103446580D01*
X225967436Y-103446580D01*
X225846393Y-103422503D01*
X225785871Y-103410464D01*
X225614838Y-103339620D01*
X225460913Y-103236770D01*
X225330010Y-103105867D01*
X225227160Y-102951942D01*
X225156316Y-102780909D01*
X225120200Y-102599342D01*
X225120200Y-102414218D01*
X225156316Y-102232651D01*
X225227160Y-102061618D01*
X225330010Y-101907693D01*
X225460913Y-101776790D01*
X225614838Y-101673940D01*
X225785871Y-101603096D01*
X225846393Y-101591057D01*
X225967436Y-101566980D01*
X226152564Y-101566980D01*
X226273607Y-101591057D01*
X226273607Y-101591057D01*
G37*
G36*
X124763765Y-99328620D02*
G01*
X124919364Y-99393071D01*
X124953288Y-99407123D01*
X125123854Y-99521092D01*
X125268908Y-99666146D01*
X125279736Y-99682351D01*
X125382878Y-99836714D01*
X125461380Y-100026235D01*
X125501400Y-100227430D01*
X125501400Y-100432570D01*
X125461380Y-100633765D01*
X125441048Y-100682852D01*
X125382877Y-100823288D01*
X125268908Y-100993854D01*
X125123854Y-101138908D01*
X124953288Y-101252877D01*
X124953287Y-101252878D01*
X124953286Y-101252878D01*
X124763765Y-101331380D01*
X124562570Y-101371400D01*
X124357430Y-101371400D01*
X124156235Y-101331380D01*
X123966714Y-101252878D01*
X123966713Y-101252878D01*
X123966712Y-101252877D01*
X123796146Y-101138908D01*
X123651092Y-100993854D01*
X123537123Y-100823288D01*
X123478953Y-100682852D01*
X123458620Y-100633765D01*
X123418600Y-100432570D01*
X123418600Y-100227430D01*
X123458620Y-100026235D01*
X123537122Y-99836714D01*
X123640264Y-99682351D01*
X123651092Y-99666146D01*
X123796146Y-99521092D01*
X123966712Y-99407123D01*
X124000637Y-99393071D01*
X124156235Y-99328620D01*
X124357430Y-99288600D01*
X124562570Y-99288600D01*
X124763765Y-99328620D01*
X124763765Y-99328620D01*
G37*
G36*
X140003765Y-99328620D02*
G01*
X140159364Y-99393071D01*
X140193288Y-99407123D01*
X140363854Y-99521092D01*
X140508908Y-99666146D01*
X140519736Y-99682351D01*
X140622878Y-99836714D01*
X140701380Y-100026235D01*
X140741400Y-100227430D01*
X140741400Y-100432570D01*
X140701380Y-100633765D01*
X140681048Y-100682852D01*
X140622877Y-100823288D01*
X140508908Y-100993854D01*
X140363854Y-101138908D01*
X140193288Y-101252877D01*
X140193287Y-101252878D01*
X140193286Y-101252878D01*
X140003765Y-101331380D01*
X139802570Y-101371400D01*
X139597430Y-101371400D01*
X139396235Y-101331380D01*
X139206714Y-101252878D01*
X139206713Y-101252878D01*
X139206712Y-101252877D01*
X139036146Y-101138908D01*
X138891092Y-100993854D01*
X138777123Y-100823288D01*
X138718953Y-100682852D01*
X138698620Y-100633765D01*
X138658600Y-100432570D01*
X138658600Y-100227430D01*
X138698620Y-100026235D01*
X138777122Y-99836714D01*
X138880264Y-99682351D01*
X138891092Y-99666146D01*
X139036146Y-99521092D01*
X139206712Y-99407123D01*
X139240637Y-99393071D01*
X139396235Y-99328620D01*
X139597430Y-99288600D01*
X139802570Y-99288600D01*
X140003765Y-99328620D01*
X140003765Y-99328620D01*
G37*
G36*
X226322646Y-99390512D02*
G01*
X226486512Y-99458388D01*
X226486514Y-99458389D01*
X226633991Y-99556930D01*
X226759410Y-99682349D01*
X226759411Y-99682351D01*
X226857952Y-99829828D01*
X226925828Y-99993694D01*
X226960430Y-100167654D01*
X226960430Y-100345026D01*
X226925828Y-100518986D01*
X226857952Y-100682852D01*
X226857951Y-100682854D01*
X226759410Y-100830331D01*
X226633991Y-100955750D01*
X226486514Y-101054291D01*
X226486513Y-101054292D01*
X226486512Y-101054292D01*
X226322646Y-101122168D01*
X226148686Y-101156770D01*
X225971314Y-101156770D01*
X225797354Y-101122168D01*
X225633488Y-101054292D01*
X225633487Y-101054292D01*
X225633486Y-101054291D01*
X225486009Y-100955750D01*
X225360590Y-100830331D01*
X225262049Y-100682854D01*
X225262048Y-100682852D01*
X225194172Y-100518986D01*
X225159570Y-100345026D01*
X225159570Y-100167654D01*
X225194172Y-99993694D01*
X225262048Y-99829828D01*
X225360589Y-99682351D01*
X225360590Y-99682349D01*
X225486009Y-99556930D01*
X225633486Y-99458389D01*
X225633488Y-99458388D01*
X225797354Y-99390512D01*
X225971314Y-99355910D01*
X226148686Y-99355910D01*
X226322646Y-99390512D01*
X226322646Y-99390512D01*
G37*
G36*
X220156113Y-97121648D02*
G01*
X220371062Y-97210683D01*
X220564505Y-97339937D01*
X220729023Y-97504455D01*
X220858277Y-97697898D01*
X220947312Y-97912847D01*
X220992700Y-98141030D01*
X220992700Y-98373690D01*
X220947312Y-98601873D01*
X220858277Y-98816822D01*
X220729023Y-99010265D01*
X220564505Y-99174783D01*
X220371062Y-99304037D01*
X220156113Y-99393072D01*
X219927930Y-99438460D01*
X219695270Y-99438460D01*
X219467087Y-99393072D01*
X219252138Y-99304037D01*
X219058695Y-99174783D01*
X218894177Y-99010265D01*
X218764923Y-98816822D01*
X218675888Y-98601873D01*
X218630500Y-98373690D01*
X218630500Y-98141030D01*
X218675888Y-97912847D01*
X218764923Y-97697898D01*
X218894177Y-97504455D01*
X219058695Y-97339937D01*
X219252138Y-97210683D01*
X219467087Y-97121648D01*
X219695270Y-97076260D01*
X219927930Y-97076260D01*
X220156113Y-97121648D01*
X220156113Y-97121648D01*
G37*
G36*
X232652913Y-97121648D02*
G01*
X232867862Y-97210683D01*
X233061305Y-97339937D01*
X233225823Y-97504455D01*
X233355077Y-97697898D01*
X233444112Y-97912847D01*
X233489500Y-98141030D01*
X233489500Y-98373690D01*
X233444112Y-98601873D01*
X233355077Y-98816822D01*
X233225823Y-99010265D01*
X233061305Y-99174783D01*
X232867862Y-99304037D01*
X232652913Y-99393072D01*
X232424730Y-99438460D01*
X232192070Y-99438460D01*
X231963887Y-99393072D01*
X231748938Y-99304037D01*
X231555495Y-99174783D01*
X231390977Y-99010265D01*
X231261723Y-98816822D01*
X231172688Y-98601873D01*
X231127300Y-98373690D01*
X231127300Y-98141030D01*
X231172688Y-97912847D01*
X231261723Y-97697898D01*
X231390977Y-97504455D01*
X231555495Y-97339937D01*
X231748938Y-97210683D01*
X231963887Y-97121648D01*
X232192070Y-97076260D01*
X232424730Y-97076260D01*
X232652913Y-97121648D01*
X232652913Y-97121648D01*
G37*
G36*
X124763765Y-96788620D02*
G01*
X124953288Y-96867123D01*
X125123854Y-96981092D01*
X125268908Y-97126146D01*
X125268909Y-97126148D01*
X125382878Y-97296714D01*
X125461380Y-97486235D01*
X125501400Y-97687430D01*
X125501400Y-97892570D01*
X125461380Y-98093765D01*
X125382877Y-98283288D01*
X125268908Y-98453854D01*
X125123854Y-98598908D01*
X124953288Y-98712877D01*
X124953287Y-98712878D01*
X124953286Y-98712878D01*
X124763765Y-98791380D01*
X124562570Y-98831400D01*
X124357430Y-98831400D01*
X124156235Y-98791380D01*
X123966714Y-98712878D01*
X123966713Y-98712878D01*
X123966712Y-98712877D01*
X123796146Y-98598908D01*
X123651092Y-98453854D01*
X123537123Y-98283288D01*
X123458620Y-98093765D01*
X123418600Y-97892570D01*
X123418600Y-97687430D01*
X123458620Y-97486235D01*
X123537122Y-97296714D01*
X123651091Y-97126148D01*
X123651092Y-97126146D01*
X123796146Y-96981092D01*
X123966712Y-96867123D01*
X124156235Y-96788620D01*
X124357430Y-96748600D01*
X124562570Y-96748600D01*
X124763765Y-96788620D01*
X124763765Y-96788620D01*
G37*
G36*
X140003765Y-96788620D02*
G01*
X140193288Y-96867123D01*
X140363854Y-96981092D01*
X140508908Y-97126146D01*
X140508909Y-97126148D01*
X140622878Y-97296714D01*
X140701380Y-97486235D01*
X140741400Y-97687430D01*
X140741400Y-97892570D01*
X140701380Y-98093765D01*
X140622877Y-98283288D01*
X140508908Y-98453854D01*
X140363854Y-98598908D01*
X140193288Y-98712877D01*
X140193287Y-98712878D01*
X140193286Y-98712878D01*
X140003765Y-98791380D01*
X139802570Y-98831400D01*
X139597430Y-98831400D01*
X139396235Y-98791380D01*
X139206714Y-98712878D01*
X139206713Y-98712878D01*
X139206712Y-98712877D01*
X139036146Y-98598908D01*
X138891092Y-98453854D01*
X138777123Y-98283288D01*
X138698620Y-98093765D01*
X138658600Y-97892570D01*
X138658600Y-97687430D01*
X138698620Y-97486235D01*
X138777122Y-97296714D01*
X138891091Y-97126148D01*
X138891092Y-97126146D01*
X139036146Y-96981092D01*
X139206712Y-96867123D01*
X139396235Y-96788620D01*
X139597430Y-96748600D01*
X139802570Y-96748600D01*
X140003765Y-96788620D01*
X140003765Y-96788620D01*
G37*
G36*
X140003765Y-94248620D02*
G01*
X140193288Y-94327123D01*
X140363854Y-94441092D01*
X140508908Y-94586146D01*
X140622877Y-94756712D01*
X140701380Y-94946235D01*
X140741400Y-95147431D01*
X140741400Y-95352569D01*
X140701380Y-95553765D01*
X140622877Y-95743288D01*
X140508908Y-95913854D01*
X140363854Y-96058908D01*
X140193288Y-96172877D01*
X140193287Y-96172878D01*
X140193286Y-96172878D01*
X140003765Y-96251380D01*
X139802570Y-96291400D01*
X139597430Y-96291400D01*
X139396235Y-96251380D01*
X139206714Y-96172878D01*
X139206713Y-96172878D01*
X139206712Y-96172877D01*
X139036146Y-96058908D01*
X138891092Y-95913854D01*
X138777123Y-95743288D01*
X138698620Y-95553765D01*
X138658600Y-95352569D01*
X138658600Y-95147431D01*
X138698620Y-94946235D01*
X138777123Y-94756712D01*
X138891092Y-94586146D01*
X139036146Y-94441092D01*
X139206712Y-94327123D01*
X139396235Y-94248620D01*
X139597430Y-94208600D01*
X139802570Y-94208600D01*
X140003765Y-94248620D01*
X140003765Y-94248620D01*
G37*
G36*
X124763765Y-94248620D02*
G01*
X124953288Y-94327123D01*
X125123854Y-94441092D01*
X125268908Y-94586146D01*
X125382877Y-94756712D01*
X125461380Y-94946235D01*
X125501400Y-95147431D01*
X125501400Y-95352569D01*
X125461380Y-95553765D01*
X125382877Y-95743288D01*
X125268908Y-95913854D01*
X125123854Y-96058908D01*
X124953288Y-96172877D01*
X124953287Y-96172878D01*
X124953286Y-96172878D01*
X124763765Y-96251380D01*
X124562570Y-96291400D01*
X124357430Y-96291400D01*
X124156235Y-96251380D01*
X123966714Y-96172878D01*
X123966713Y-96172878D01*
X123966712Y-96172877D01*
X123796146Y-96058908D01*
X123651092Y-95913854D01*
X123537123Y-95743288D01*
X123458620Y-95553765D01*
X123418600Y-95352569D01*
X123418600Y-95147431D01*
X123458620Y-94946235D01*
X123537123Y-94756712D01*
X123651092Y-94586146D01*
X123796146Y-94441092D01*
X123966712Y-94327123D01*
X124156235Y-94248620D01*
X124357430Y-94208600D01*
X124562570Y-94208600D01*
X124763765Y-94248620D01*
X124763765Y-94248620D01*
G37*
G36*
X220156113Y-92122928D02*
G01*
X220371062Y-92211963D01*
X220564505Y-92341217D01*
X220729023Y-92505735D01*
X220858277Y-92699178D01*
X220947312Y-92914127D01*
X220992700Y-93142310D01*
X220992700Y-93374970D01*
X220947312Y-93603153D01*
X220858277Y-93818102D01*
X220729023Y-94011545D01*
X220564505Y-94176063D01*
X220371062Y-94305317D01*
X220156113Y-94394352D01*
X219927930Y-94439740D01*
X219695270Y-94439740D01*
X219467087Y-94394352D01*
X219252138Y-94305317D01*
X219058695Y-94176063D01*
X218894177Y-94011545D01*
X218764923Y-93818102D01*
X218675888Y-93603153D01*
X218630500Y-93374970D01*
X218630500Y-93142310D01*
X218675888Y-92914127D01*
X218764923Y-92699178D01*
X218894177Y-92505735D01*
X219058695Y-92341217D01*
X219252138Y-92211963D01*
X219467087Y-92122928D01*
X219695270Y-92077540D01*
X219927930Y-92077540D01*
X220156113Y-92122928D01*
X220156113Y-92122928D01*
G37*
G36*
X232652913Y-92122928D02*
G01*
X232867862Y-92211963D01*
X233061305Y-92341217D01*
X233225823Y-92505735D01*
X233355077Y-92699178D01*
X233444112Y-92914127D01*
X233489500Y-93142310D01*
X233489500Y-93374970D01*
X233444112Y-93603153D01*
X233355077Y-93818102D01*
X233225823Y-94011545D01*
X233061305Y-94176063D01*
X232867862Y-94305317D01*
X232652913Y-94394352D01*
X232424730Y-94439740D01*
X232192070Y-94439740D01*
X231963887Y-94394352D01*
X231748938Y-94305317D01*
X231555495Y-94176063D01*
X231390977Y-94011545D01*
X231261723Y-93818102D01*
X231172688Y-93603153D01*
X231127300Y-93374970D01*
X231127300Y-93142310D01*
X231172688Y-92914127D01*
X231261723Y-92699178D01*
X231390977Y-92505735D01*
X231555495Y-92341217D01*
X231748938Y-92211963D01*
X231963887Y-92122928D01*
X232192070Y-92077540D01*
X232424730Y-92077540D01*
X232652913Y-92122928D01*
X232652913Y-92122928D01*
G37*
G36*
X140003765Y-91708620D02*
G01*
X140193288Y-91787123D01*
X140363854Y-91901092D01*
X140508908Y-92046146D01*
X140622877Y-92216712D01*
X140701380Y-92406235D01*
X140741400Y-92607431D01*
X140741400Y-92812569D01*
X140701380Y-93013765D01*
X140622877Y-93203288D01*
X140508908Y-93373854D01*
X140363854Y-93518908D01*
X140193288Y-93632877D01*
X140193287Y-93632878D01*
X140193286Y-93632878D01*
X140003765Y-93711380D01*
X139802570Y-93751400D01*
X139597430Y-93751400D01*
X139396235Y-93711380D01*
X139206714Y-93632878D01*
X139206713Y-93632878D01*
X139206712Y-93632877D01*
X139036146Y-93518908D01*
X138891092Y-93373854D01*
X138777123Y-93203288D01*
X138698620Y-93013765D01*
X138658600Y-92812569D01*
X138658600Y-92607431D01*
X138698620Y-92406235D01*
X138777123Y-92216712D01*
X138891092Y-92046146D01*
X139036146Y-91901092D01*
X139206712Y-91787123D01*
X139396235Y-91708620D01*
X139597430Y-91668600D01*
X139802570Y-91668600D01*
X140003765Y-91708620D01*
X140003765Y-91708620D01*
G37*
G36*
X124763765Y-91708620D02*
G01*
X124953288Y-91787123D01*
X125123854Y-91901092D01*
X125268908Y-92046146D01*
X125382877Y-92216712D01*
X125461380Y-92406235D01*
X125501400Y-92607431D01*
X125501400Y-92812569D01*
X125461380Y-93013765D01*
X125382877Y-93203288D01*
X125268908Y-93373854D01*
X125123854Y-93518908D01*
X124953288Y-93632877D01*
X124953287Y-93632878D01*
X124953286Y-93632878D01*
X124763765Y-93711380D01*
X124562570Y-93751400D01*
X124357430Y-93751400D01*
X124156235Y-93711380D01*
X123966714Y-93632878D01*
X123966713Y-93632878D01*
X123966712Y-93632877D01*
X123796146Y-93518908D01*
X123651092Y-93373854D01*
X123537123Y-93203288D01*
X123458620Y-93013765D01*
X123418600Y-92812569D01*
X123418600Y-92607431D01*
X123458620Y-92406235D01*
X123537123Y-92216712D01*
X123651092Y-92046146D01*
X123796146Y-91901092D01*
X123966712Y-91787123D01*
X124156235Y-91708620D01*
X124357430Y-91668600D01*
X124562570Y-91668600D01*
X124763765Y-91708620D01*
X124763765Y-91708620D01*
G37*
G36*
X226322646Y-90393832D02*
G01*
X226486512Y-90461708D01*
X226486514Y-90461709D01*
X226633991Y-90560250D01*
X226759410Y-90685669D01*
X226759411Y-90685671D01*
X226857952Y-90833148D01*
X226925828Y-90997014D01*
X226960430Y-91170974D01*
X226960430Y-91348346D01*
X226925828Y-91522306D01*
X226857952Y-91686172D01*
X226857951Y-91686174D01*
X226759410Y-91833651D01*
X226633991Y-91959070D01*
X226486514Y-92057611D01*
X226486513Y-92057612D01*
X226486512Y-92057612D01*
X226322646Y-92125488D01*
X226148686Y-92160090D01*
X225971314Y-92160090D01*
X225797354Y-92125488D01*
X225633488Y-92057612D01*
X225633487Y-92057612D01*
X225633486Y-92057611D01*
X225486009Y-91959070D01*
X225360590Y-91833651D01*
X225262049Y-91686174D01*
X225262048Y-91686172D01*
X225194172Y-91522306D01*
X225159570Y-91348346D01*
X225159570Y-91170974D01*
X225194172Y-90997014D01*
X225262048Y-90833148D01*
X225360589Y-90685671D01*
X225360590Y-90685669D01*
X225486009Y-90560250D01*
X225633486Y-90461709D01*
X225633488Y-90461708D01*
X225797354Y-90393832D01*
X225971314Y-90359230D01*
X226148686Y-90359230D01*
X226322646Y-90393832D01*
X226322646Y-90393832D01*
G37*
G36*
X124763765Y-89168620D02*
G01*
X124953288Y-89247123D01*
X125123854Y-89361092D01*
X125268908Y-89506146D01*
X125382877Y-89676712D01*
X125461380Y-89866235D01*
X125501400Y-90067431D01*
X125501400Y-90272569D01*
X125461380Y-90473765D01*
X125382877Y-90663288D01*
X125268908Y-90833854D01*
X125123854Y-90978908D01*
X124953288Y-91092877D01*
X124953287Y-91092878D01*
X124953286Y-91092878D01*
X124763765Y-91171380D01*
X124562570Y-91211400D01*
X124357430Y-91211400D01*
X124156235Y-91171380D01*
X123966714Y-91092878D01*
X123966713Y-91092878D01*
X123966712Y-91092877D01*
X123796146Y-90978908D01*
X123651092Y-90833854D01*
X123537123Y-90663288D01*
X123458620Y-90473765D01*
X123418600Y-90272569D01*
X123418600Y-90067431D01*
X123458620Y-89866235D01*
X123537123Y-89676712D01*
X123651092Y-89506146D01*
X123796146Y-89361092D01*
X123966712Y-89247123D01*
X124156235Y-89168620D01*
X124357430Y-89128600D01*
X124562570Y-89128600D01*
X124763765Y-89168620D01*
X124763765Y-89168620D01*
G37*
G36*
X140003765Y-89168620D02*
G01*
X140193288Y-89247123D01*
X140363854Y-89361092D01*
X140508908Y-89506146D01*
X140622877Y-89676712D01*
X140701380Y-89866235D01*
X140741400Y-90067431D01*
X140741400Y-90272569D01*
X140701380Y-90473765D01*
X140622877Y-90663288D01*
X140508908Y-90833854D01*
X140363854Y-90978908D01*
X140193288Y-91092877D01*
X140193287Y-91092878D01*
X140193286Y-91092878D01*
X140003765Y-91171380D01*
X139802570Y-91211400D01*
X139597430Y-91211400D01*
X139396235Y-91171380D01*
X139206714Y-91092878D01*
X139206713Y-91092878D01*
X139206712Y-91092877D01*
X139036146Y-90978908D01*
X138891092Y-90833854D01*
X138777123Y-90663288D01*
X138698620Y-90473765D01*
X138658600Y-90272569D01*
X138658600Y-90067431D01*
X138698620Y-89866235D01*
X138777123Y-89676712D01*
X138891092Y-89506146D01*
X139036146Y-89361092D01*
X139206712Y-89247123D01*
X139396235Y-89168620D01*
X139597430Y-89128600D01*
X139802570Y-89128600D01*
X140003765Y-89168620D01*
X140003765Y-89168620D01*
G37*
G36*
X226273607Y-88093497D02*
G01*
X226334129Y-88105536D01*
X226505162Y-88176380D01*
X226659087Y-88279230D01*
X226789990Y-88410133D01*
X226892840Y-88564058D01*
X226963684Y-88735091D01*
X226999800Y-88916658D01*
X226999800Y-89101782D01*
X226963684Y-89283349D01*
X226892840Y-89454382D01*
X226789990Y-89608307D01*
X226659087Y-89739210D01*
X226505162Y-89842060D01*
X226334129Y-89912904D01*
X226273607Y-89924943D01*
X226152564Y-89949020D01*
X225967436Y-89949020D01*
X225846393Y-89924943D01*
X225785871Y-89912904D01*
X225614838Y-89842060D01*
X225460913Y-89739210D01*
X225330010Y-89608307D01*
X225227160Y-89454382D01*
X225156316Y-89283349D01*
X225120200Y-89101782D01*
X225120200Y-88916658D01*
X225156316Y-88735091D01*
X225227160Y-88564058D01*
X225330010Y-88410133D01*
X225460913Y-88279230D01*
X225614838Y-88176380D01*
X225785871Y-88105536D01*
X225846393Y-88093497D01*
X225967436Y-88069420D01*
X226152564Y-88069420D01*
X226273607Y-88093497D01*
X226273607Y-88093497D01*
G37*
G36*
X140003765Y-86628620D02*
G01*
X140193288Y-86707123D01*
X140363854Y-86821092D01*
X140508908Y-86966146D01*
X140622877Y-87136712D01*
X140701380Y-87326235D01*
X140741400Y-87527431D01*
X140741400Y-87732569D01*
X140701380Y-87933765D01*
X140622877Y-88123288D01*
X140508908Y-88293854D01*
X140363854Y-88438908D01*
X140193288Y-88552877D01*
X140193287Y-88552878D01*
X140193286Y-88552878D01*
X140003765Y-88631380D01*
X139802570Y-88671400D01*
X139597430Y-88671400D01*
X139396235Y-88631380D01*
X139206714Y-88552878D01*
X139206713Y-88552878D01*
X139206712Y-88552877D01*
X139036146Y-88438908D01*
X138891092Y-88293854D01*
X138777123Y-88123288D01*
X138698620Y-87933765D01*
X138658600Y-87732569D01*
X138658600Y-87527431D01*
X138698620Y-87326235D01*
X138777123Y-87136712D01*
X138891092Y-86966146D01*
X139036146Y-86821092D01*
X139206712Y-86707123D01*
X139396235Y-86628620D01*
X139597430Y-86588600D01*
X139802570Y-86588600D01*
X140003765Y-86628620D01*
X140003765Y-86628620D01*
G37*
G36*
X124763765Y-86628620D02*
G01*
X124953288Y-86707123D01*
X125123854Y-86821092D01*
X125268908Y-86966146D01*
X125382877Y-87136712D01*
X125461380Y-87326235D01*
X125501400Y-87527431D01*
X125501400Y-87732569D01*
X125461380Y-87933765D01*
X125382877Y-88123288D01*
X125268908Y-88293854D01*
X125123854Y-88438908D01*
X124953288Y-88552877D01*
X124953287Y-88552878D01*
X124953286Y-88552878D01*
X124763765Y-88631380D01*
X124562570Y-88671400D01*
X124357430Y-88671400D01*
X124156235Y-88631380D01*
X123966714Y-88552878D01*
X123966713Y-88552878D01*
X123966712Y-88552877D01*
X123796146Y-88438908D01*
X123651092Y-88293854D01*
X123537123Y-88123288D01*
X123458620Y-87933765D01*
X123418600Y-87732569D01*
X123418600Y-87527431D01*
X123458620Y-87326235D01*
X123537123Y-87136712D01*
X123651092Y-86966146D01*
X123796146Y-86821092D01*
X123966712Y-86707123D01*
X124156235Y-86628620D01*
X124357430Y-86588600D01*
X124562570Y-86588600D01*
X124763765Y-86628620D01*
X124763765Y-86628620D01*
G37*
G36*
X124763765Y-84088620D02*
G01*
X124953288Y-84167123D01*
X125123854Y-84281092D01*
X125268908Y-84426146D01*
X125382877Y-84596712D01*
X125461380Y-84786235D01*
X125501400Y-84987431D01*
X125501400Y-85192569D01*
X125461380Y-85393765D01*
X125382877Y-85583288D01*
X125268908Y-85753854D01*
X125123854Y-85898908D01*
X124953288Y-86012877D01*
X124953287Y-86012878D01*
X124953286Y-86012878D01*
X124763765Y-86091380D01*
X124562570Y-86131400D01*
X124357430Y-86131400D01*
X124156235Y-86091380D01*
X123966714Y-86012878D01*
X123966713Y-86012878D01*
X123966712Y-86012877D01*
X123796146Y-85898908D01*
X123651092Y-85753854D01*
X123537123Y-85583288D01*
X123458620Y-85393765D01*
X123418600Y-85192569D01*
X123418600Y-84987431D01*
X123458620Y-84786235D01*
X123537123Y-84596712D01*
X123651092Y-84426146D01*
X123796146Y-84281092D01*
X123966712Y-84167123D01*
X124156235Y-84088620D01*
X124357430Y-84048600D01*
X124562570Y-84048600D01*
X124763765Y-84088620D01*
X124763765Y-84088620D01*
G37*
G36*
X140003765Y-84088620D02*
G01*
X140193288Y-84167123D01*
X140363854Y-84281092D01*
X140508908Y-84426146D01*
X140622877Y-84596712D01*
X140701380Y-84786235D01*
X140741400Y-84987431D01*
X140741400Y-85192569D01*
X140701380Y-85393765D01*
X140622877Y-85583288D01*
X140508908Y-85753854D01*
X140363854Y-85898908D01*
X140193288Y-86012877D01*
X140193287Y-86012878D01*
X140193286Y-86012878D01*
X140003765Y-86091380D01*
X139802570Y-86131400D01*
X139597430Y-86131400D01*
X139396235Y-86091380D01*
X139206714Y-86012878D01*
X139206713Y-86012878D01*
X139206712Y-86012877D01*
X139036146Y-85898908D01*
X138891092Y-85753854D01*
X138777123Y-85583288D01*
X138698620Y-85393765D01*
X138658600Y-85192569D01*
X138658600Y-84987431D01*
X138698620Y-84786235D01*
X138777123Y-84596712D01*
X138891092Y-84426146D01*
X139036146Y-84281092D01*
X139206712Y-84167123D01*
X139396235Y-84088620D01*
X139597430Y-84048600D01*
X139802570Y-84048600D01*
X140003765Y-84088620D01*
X140003765Y-84088620D01*
G37*
G36*
X226273607Y-83303057D02*
G01*
X226334129Y-83315096D01*
X226505162Y-83385940D01*
X226635272Y-83472877D01*
X226659087Y-83488790D01*
X226789990Y-83619693D01*
X226892841Y-83773620D01*
X226963684Y-83944652D01*
X226992322Y-84088620D01*
X226999800Y-84126218D01*
X226999800Y-84311342D01*
X226963684Y-84492909D01*
X226892840Y-84663942D01*
X226789990Y-84817867D01*
X226659087Y-84948770D01*
X226505162Y-85051620D01*
X226334129Y-85122464D01*
X226273607Y-85134503D01*
X226152564Y-85158580D01*
X225967436Y-85158580D01*
X225846393Y-85134503D01*
X225785871Y-85122464D01*
X225614838Y-85051620D01*
X225460913Y-84948770D01*
X225330010Y-84817867D01*
X225227160Y-84663942D01*
X225156316Y-84492909D01*
X225120200Y-84311342D01*
X225120200Y-84126218D01*
X225127679Y-84088620D01*
X225156316Y-83944652D01*
X225227159Y-83773620D01*
X225330010Y-83619693D01*
X225460913Y-83488790D01*
X225484728Y-83472877D01*
X225614838Y-83385940D01*
X225785871Y-83315096D01*
X225846393Y-83303057D01*
X225967436Y-83278980D01*
X226152564Y-83278980D01*
X226273607Y-83303057D01*
X226273607Y-83303057D01*
G37*
G36*
X139969609Y-81541826D02*
G01*
X140003765Y-81548620D01*
X140193288Y-81627123D01*
X140363854Y-81741092D01*
X140508908Y-81886146D01*
X140508909Y-81886148D01*
X140622878Y-82056714D01*
X140701380Y-82246235D01*
X140741400Y-82447430D01*
X140741400Y-82652570D01*
X140718779Y-82766292D01*
X140701380Y-82853765D01*
X140622877Y-83043288D01*
X140508908Y-83213854D01*
X140363854Y-83358908D01*
X140193288Y-83472877D01*
X140193287Y-83472878D01*
X140193286Y-83472878D01*
X140003765Y-83551380D01*
X139802570Y-83591400D01*
X139597430Y-83591400D01*
X139396235Y-83551380D01*
X139206714Y-83472878D01*
X139206713Y-83472878D01*
X139206712Y-83472877D01*
X139036146Y-83358908D01*
X138891092Y-83213854D01*
X138777123Y-83043288D01*
X138698620Y-82853765D01*
X138681221Y-82766292D01*
X138658600Y-82652570D01*
X138658600Y-82447430D01*
X138698620Y-82246235D01*
X138777122Y-82056714D01*
X138891091Y-81886148D01*
X138891092Y-81886146D01*
X139036146Y-81741092D01*
X139206712Y-81627123D01*
X139396235Y-81548620D01*
X139430391Y-81541826D01*
X139597430Y-81508600D01*
X139802570Y-81508600D01*
X139969609Y-81541826D01*
X139969609Y-81541826D01*
G37*
G36*
X124729609Y-81541826D02*
G01*
X124763765Y-81548620D01*
X124953288Y-81627123D01*
X125123854Y-81741092D01*
X125268908Y-81886146D01*
X125268909Y-81886148D01*
X125382878Y-82056714D01*
X125461380Y-82246235D01*
X125501400Y-82447430D01*
X125501400Y-82652570D01*
X125478779Y-82766292D01*
X125461380Y-82853765D01*
X125382877Y-83043288D01*
X125268908Y-83213854D01*
X125123854Y-83358908D01*
X124953288Y-83472877D01*
X124953287Y-83472878D01*
X124953286Y-83472878D01*
X124763765Y-83551380D01*
X124562570Y-83591400D01*
X124357430Y-83591400D01*
X124156235Y-83551380D01*
X123966714Y-83472878D01*
X123966713Y-83472878D01*
X123966712Y-83472877D01*
X123796146Y-83358908D01*
X123651092Y-83213854D01*
X123537123Y-83043288D01*
X123458620Y-82853765D01*
X123441221Y-82766292D01*
X123418600Y-82652570D01*
X123418600Y-82447430D01*
X123458620Y-82246235D01*
X123537122Y-82056714D01*
X123651091Y-81886148D01*
X123651092Y-81886146D01*
X123796146Y-81741092D01*
X123966712Y-81627123D01*
X124156235Y-81548620D01*
X124190391Y-81541826D01*
X124357430Y-81508600D01*
X124562570Y-81508600D01*
X124729609Y-81541826D01*
X124729609Y-81541826D01*
G37*
G36*
X226322646Y-81102512D02*
G01*
X226486512Y-81170388D01*
X226486514Y-81170389D01*
X226633991Y-81268930D01*
X226759410Y-81394349D01*
X226759411Y-81394351D01*
X226857952Y-81541828D01*
X226925828Y-81705694D01*
X226960430Y-81879654D01*
X226960430Y-82057026D01*
X226925828Y-82230986D01*
X226857952Y-82394852D01*
X226857951Y-82394854D01*
X226759410Y-82542331D01*
X226633991Y-82667750D01*
X226486514Y-82766291D01*
X226486513Y-82766292D01*
X226486512Y-82766292D01*
X226322646Y-82834168D01*
X226148686Y-82868770D01*
X225971314Y-82868770D01*
X225797354Y-82834168D01*
X225633488Y-82766292D01*
X225633487Y-82766292D01*
X225633486Y-82766291D01*
X225486009Y-82667750D01*
X225360590Y-82542331D01*
X225262049Y-82394854D01*
X225262048Y-82394852D01*
X225194172Y-82230986D01*
X225159570Y-82057026D01*
X225159570Y-81879654D01*
X225194172Y-81705694D01*
X225262048Y-81541828D01*
X225360589Y-81394351D01*
X225360590Y-81394349D01*
X225486009Y-81268930D01*
X225633486Y-81170389D01*
X225633488Y-81170388D01*
X225797354Y-81102512D01*
X225971314Y-81067910D01*
X226148686Y-81067910D01*
X226322646Y-81102512D01*
X226322646Y-81102512D01*
G37*
G36*
X232652913Y-78833648D02*
G01*
X232867862Y-78922683D01*
X233061305Y-79051937D01*
X233225823Y-79216455D01*
X233355077Y-79409898D01*
X233444112Y-79624847D01*
X233489500Y-79853030D01*
X233489500Y-80085690D01*
X233444112Y-80313873D01*
X233355077Y-80528822D01*
X233225823Y-80722265D01*
X233061305Y-80886783D01*
X232867862Y-81016037D01*
X232652913Y-81105072D01*
X232424730Y-81150460D01*
X232192070Y-81150460D01*
X231963887Y-81105072D01*
X231748938Y-81016037D01*
X231555495Y-80886783D01*
X231390977Y-80722265D01*
X231261723Y-80528822D01*
X231172688Y-80313873D01*
X231127300Y-80085690D01*
X231127300Y-79853030D01*
X231172688Y-79624847D01*
X231261723Y-79409898D01*
X231390977Y-79216455D01*
X231555495Y-79051937D01*
X231748938Y-78922683D01*
X231963887Y-78833648D01*
X232192070Y-78788260D01*
X232424730Y-78788260D01*
X232652913Y-78833648D01*
X232652913Y-78833648D01*
G37*
G36*
X220156113Y-78833648D02*
G01*
X220371062Y-78922683D01*
X220564505Y-79051937D01*
X220729023Y-79216455D01*
X220858277Y-79409898D01*
X220947312Y-79624847D01*
X220992700Y-79853030D01*
X220992700Y-80085690D01*
X220947312Y-80313873D01*
X220858277Y-80528822D01*
X220729023Y-80722265D01*
X220564505Y-80886783D01*
X220371062Y-81016037D01*
X220156113Y-81105072D01*
X219927930Y-81150460D01*
X219695270Y-81150460D01*
X219467087Y-81105072D01*
X219252138Y-81016037D01*
X219058695Y-80886783D01*
X218894177Y-80722265D01*
X218764923Y-80528822D01*
X218675888Y-80313873D01*
X218630500Y-80085690D01*
X218630500Y-79853030D01*
X218675888Y-79624847D01*
X218764923Y-79409898D01*
X218894177Y-79216455D01*
X219058695Y-79051937D01*
X219252138Y-78922683D01*
X219467087Y-78833648D01*
X219695270Y-78788260D01*
X219927930Y-78788260D01*
X220156113Y-78833648D01*
X220156113Y-78833648D01*
G37*
G36*
X124763765Y-79008620D02*
G01*
X124868342Y-79051937D01*
X124953288Y-79087123D01*
X125123854Y-79201092D01*
X125268908Y-79346146D01*
X125382877Y-79516712D01*
X125382878Y-79516714D01*
X125461380Y-79706235D01*
X125490580Y-79853032D01*
X125501400Y-79907431D01*
X125501400Y-80112569D01*
X125461380Y-80313765D01*
X125382877Y-80503288D01*
X125268908Y-80673854D01*
X125123854Y-80818908D01*
X124953288Y-80932877D01*
X124953287Y-80932878D01*
X124953286Y-80932878D01*
X124763765Y-81011380D01*
X124562570Y-81051400D01*
X124357430Y-81051400D01*
X124156235Y-81011380D01*
X123966714Y-80932878D01*
X123966713Y-80932878D01*
X123966712Y-80932877D01*
X123796146Y-80818908D01*
X123651092Y-80673854D01*
X123537123Y-80503288D01*
X123458620Y-80313765D01*
X123418600Y-80112569D01*
X123418600Y-79907431D01*
X123429421Y-79853032D01*
X123458620Y-79706235D01*
X123537122Y-79516714D01*
X123537123Y-79516712D01*
X123651092Y-79346146D01*
X123796146Y-79201092D01*
X123966712Y-79087123D01*
X124051659Y-79051937D01*
X124156235Y-79008620D01*
X124357430Y-78968600D01*
X124562570Y-78968600D01*
X124763765Y-79008620D01*
X124763765Y-79008620D01*
G37*
G36*
X140003765Y-79008620D02*
G01*
X140108342Y-79051937D01*
X140193288Y-79087123D01*
X140363854Y-79201092D01*
X140508908Y-79346146D01*
X140622877Y-79516712D01*
X140622878Y-79516714D01*
X140701380Y-79706235D01*
X140730580Y-79853032D01*
X140741400Y-79907431D01*
X140741400Y-80112569D01*
X140701380Y-80313765D01*
X140622877Y-80503288D01*
X140508908Y-80673854D01*
X140363854Y-80818908D01*
X140193288Y-80932877D01*
X140193287Y-80932878D01*
X140193286Y-80932878D01*
X140003765Y-81011380D01*
X139802570Y-81051400D01*
X139597430Y-81051400D01*
X139396235Y-81011380D01*
X139206714Y-80932878D01*
X139206713Y-80932878D01*
X139206712Y-80932877D01*
X139036146Y-80818908D01*
X138891092Y-80673854D01*
X138777123Y-80503288D01*
X138698620Y-80313765D01*
X138658600Y-80112569D01*
X138658600Y-79907431D01*
X138669421Y-79853032D01*
X138698620Y-79706235D01*
X138777122Y-79516714D01*
X138777123Y-79516712D01*
X138891092Y-79346146D01*
X139036146Y-79201092D01*
X139206712Y-79087123D01*
X139291659Y-79051937D01*
X139396235Y-79008620D01*
X139597430Y-78968600D01*
X139802570Y-78968600D01*
X140003765Y-79008620D01*
X140003765Y-79008620D01*
G37*
G36*
X124763765Y-76468620D02*
G01*
X124953288Y-76547123D01*
X125123854Y-76661092D01*
X125268908Y-76806146D01*
X125382877Y-76976712D01*
X125461380Y-77166235D01*
X125501400Y-77367431D01*
X125501400Y-77572569D01*
X125461380Y-77773765D01*
X125382877Y-77963288D01*
X125268908Y-78133854D01*
X125123854Y-78278908D01*
X124953288Y-78392877D01*
X124953287Y-78392878D01*
X124953286Y-78392878D01*
X124763765Y-78471380D01*
X124562570Y-78511400D01*
X124357430Y-78511400D01*
X124156235Y-78471380D01*
X123966714Y-78392878D01*
X123966713Y-78392878D01*
X123966712Y-78392877D01*
X123796146Y-78278908D01*
X123651092Y-78133854D01*
X123537123Y-77963288D01*
X123458620Y-77773765D01*
X123418600Y-77572569D01*
X123418600Y-77367431D01*
X123458620Y-77166235D01*
X123537123Y-76976712D01*
X123651092Y-76806146D01*
X123796146Y-76661092D01*
X123966712Y-76547123D01*
X124156235Y-76468620D01*
X124357430Y-76428600D01*
X124562570Y-76428600D01*
X124763765Y-76468620D01*
X124763765Y-76468620D01*
G37*
G36*
X140003765Y-76468620D02*
G01*
X140193288Y-76547123D01*
X140363854Y-76661092D01*
X140508908Y-76806146D01*
X140622877Y-76976712D01*
X140701380Y-77166235D01*
X140741400Y-77367431D01*
X140741400Y-77572569D01*
X140701380Y-77773765D01*
X140622877Y-77963288D01*
X140508908Y-78133854D01*
X140363854Y-78278908D01*
X140193288Y-78392877D01*
X140193287Y-78392878D01*
X140193286Y-78392878D01*
X140003765Y-78471380D01*
X139802570Y-78511400D01*
X139597430Y-78511400D01*
X139396235Y-78471380D01*
X139206714Y-78392878D01*
X139206713Y-78392878D01*
X139206712Y-78392877D01*
X139036146Y-78278908D01*
X138891092Y-78133854D01*
X138777123Y-77963288D01*
X138698620Y-77773765D01*
X138658600Y-77572569D01*
X138658600Y-77367431D01*
X138698620Y-77166235D01*
X138777123Y-76976712D01*
X138891092Y-76806146D01*
X139036146Y-76661092D01*
X139206712Y-76547123D01*
X139396235Y-76468620D01*
X139597430Y-76428600D01*
X139802570Y-76428600D01*
X140003765Y-76468620D01*
X140003765Y-76468620D01*
G37*
G36*
X232652913Y-73834928D02*
G01*
X232867862Y-73923963D01*
X233061305Y-74053217D01*
X233225823Y-74217735D01*
X233355077Y-74411178D01*
X233444112Y-74626127D01*
X233489500Y-74854310D01*
X233489500Y-75086970D01*
X233444112Y-75315153D01*
X233355077Y-75530102D01*
X233225823Y-75723545D01*
X233061305Y-75888063D01*
X232867862Y-76017317D01*
X232652913Y-76106352D01*
X232424730Y-76151740D01*
X232192070Y-76151740D01*
X231963887Y-76106352D01*
X231748938Y-76017317D01*
X231555495Y-75888063D01*
X231390977Y-75723545D01*
X231261723Y-75530102D01*
X231172688Y-75315153D01*
X231127300Y-75086970D01*
X231127300Y-74854310D01*
X231172688Y-74626127D01*
X231261723Y-74411178D01*
X231390977Y-74217735D01*
X231555495Y-74053217D01*
X231748938Y-73923963D01*
X231963887Y-73834928D01*
X232192070Y-73789540D01*
X232424730Y-73789540D01*
X232652913Y-73834928D01*
X232652913Y-73834928D01*
G37*
G36*
X220156113Y-73834928D02*
G01*
X220371062Y-73923963D01*
X220564505Y-74053217D01*
X220729023Y-74217735D01*
X220858277Y-74411178D01*
X220947312Y-74626127D01*
X220992700Y-74854310D01*
X220992700Y-75086970D01*
X220947312Y-75315153D01*
X220858277Y-75530102D01*
X220729023Y-75723545D01*
X220564505Y-75888063D01*
X220371062Y-76017317D01*
X220156113Y-76106352D01*
X219927930Y-76151740D01*
X219695270Y-76151740D01*
X219467087Y-76106352D01*
X219252138Y-76017317D01*
X219058695Y-75888063D01*
X218894177Y-75723545D01*
X218764923Y-75530102D01*
X218675888Y-75315153D01*
X218630500Y-75086970D01*
X218630500Y-74854310D01*
X218675888Y-74626127D01*
X218764923Y-74411178D01*
X218894177Y-74217735D01*
X219058695Y-74053217D01*
X219252138Y-73923963D01*
X219467087Y-73834928D01*
X219695270Y-73789540D01*
X219927930Y-73789540D01*
X220156113Y-73834928D01*
X220156113Y-73834928D01*
G37*
G36*
X124763765Y-73928620D02*
G01*
X124953288Y-74007123D01*
X125123854Y-74121092D01*
X125268908Y-74266146D01*
X125365816Y-74411179D01*
X125382878Y-74436714D01*
X125461380Y-74626235D01*
X125501400Y-74827430D01*
X125501400Y-75032570D01*
X125490579Y-75086970D01*
X125461380Y-75233765D01*
X125382877Y-75423288D01*
X125268908Y-75593854D01*
X125123854Y-75738908D01*
X124953288Y-75852877D01*
X124953287Y-75852878D01*
X124953286Y-75852878D01*
X124763765Y-75931380D01*
X124562570Y-75971400D01*
X124357430Y-75971400D01*
X124156235Y-75931380D01*
X123966714Y-75852878D01*
X123966713Y-75852878D01*
X123966712Y-75852877D01*
X123796146Y-75738908D01*
X123651092Y-75593854D01*
X123537123Y-75423288D01*
X123458620Y-75233765D01*
X123429421Y-75086970D01*
X123418600Y-75032570D01*
X123418600Y-74827430D01*
X123458620Y-74626235D01*
X123537122Y-74436714D01*
X123554184Y-74411179D01*
X123651092Y-74266146D01*
X123796146Y-74121092D01*
X123966712Y-74007123D01*
X124156235Y-73928620D01*
X124357430Y-73888600D01*
X124562570Y-73888600D01*
X124763765Y-73928620D01*
X124763765Y-73928620D01*
G37*
G36*
X140003765Y-73928620D02*
G01*
X140193288Y-74007123D01*
X140363854Y-74121092D01*
X140508908Y-74266146D01*
X140605816Y-74411179D01*
X140622878Y-74436714D01*
X140701380Y-74626235D01*
X140741400Y-74827430D01*
X140741400Y-75032570D01*
X140730579Y-75086970D01*
X140701380Y-75233765D01*
X140622877Y-75423288D01*
X140508908Y-75593854D01*
X140363854Y-75738908D01*
X140193288Y-75852877D01*
X140193287Y-75852878D01*
X140193286Y-75852878D01*
X140003765Y-75931380D01*
X139802570Y-75971400D01*
X139597430Y-75971400D01*
X139396235Y-75931380D01*
X139206714Y-75852878D01*
X139206713Y-75852878D01*
X139206712Y-75852877D01*
X139036146Y-75738908D01*
X138891092Y-75593854D01*
X138777123Y-75423288D01*
X138698620Y-75233765D01*
X138669421Y-75086970D01*
X138658600Y-75032570D01*
X138658600Y-74827430D01*
X138698620Y-74626235D01*
X138777122Y-74436714D01*
X138794184Y-74411179D01*
X138891092Y-74266146D01*
X139036146Y-74121092D01*
X139206712Y-74007123D01*
X139396235Y-73928620D01*
X139597430Y-73888600D01*
X139802570Y-73888600D01*
X140003765Y-73928620D01*
X140003765Y-73928620D01*
G37*
G36*
X226322646Y-72105832D02*
G01*
X226486512Y-72173708D01*
X226486514Y-72173709D01*
X226633991Y-72272250D01*
X226759410Y-72397669D01*
X226857951Y-72545146D01*
X226857952Y-72545148D01*
X226925828Y-72709014D01*
X226960430Y-72882974D01*
X226960430Y-73060346D01*
X226925828Y-73234306D01*
X226893282Y-73312878D01*
X226857951Y-73398174D01*
X226759410Y-73545651D01*
X226633991Y-73671070D01*
X226486514Y-73769611D01*
X226486513Y-73769612D01*
X226486512Y-73769612D01*
X226322646Y-73837488D01*
X226148686Y-73872090D01*
X225971314Y-73872090D01*
X225797354Y-73837488D01*
X225633488Y-73769612D01*
X225633487Y-73769612D01*
X225633486Y-73769611D01*
X225486009Y-73671070D01*
X225360590Y-73545651D01*
X225262049Y-73398174D01*
X225226718Y-73312878D01*
X225194172Y-73234306D01*
X225159570Y-73060346D01*
X225159570Y-72882974D01*
X225194172Y-72709014D01*
X225262048Y-72545148D01*
X225262049Y-72545146D01*
X225360590Y-72397669D01*
X225486009Y-72272250D01*
X225633486Y-72173709D01*
X225633488Y-72173708D01*
X225797354Y-72105832D01*
X225971314Y-72071230D01*
X226148686Y-72071230D01*
X226322646Y-72105832D01*
X226322646Y-72105832D01*
G37*
G36*
X124763765Y-71388620D02*
G01*
X124953288Y-71467123D01*
X125123854Y-71581092D01*
X125268908Y-71726146D01*
X125268909Y-71726148D01*
X125382878Y-71896714D01*
X125461380Y-72086235D01*
X125501400Y-72287430D01*
X125501400Y-72492570D01*
X125461380Y-72693765D01*
X125382877Y-72883288D01*
X125268908Y-73053854D01*
X125123854Y-73198908D01*
X124953288Y-73312877D01*
X124953287Y-73312878D01*
X124953286Y-73312878D01*
X124763765Y-73391380D01*
X124562570Y-73431400D01*
X124357430Y-73431400D01*
X124156235Y-73391380D01*
X123966714Y-73312878D01*
X123966713Y-73312878D01*
X123966712Y-73312877D01*
X123796146Y-73198908D01*
X123651092Y-73053854D01*
X123537123Y-72883288D01*
X123458620Y-72693765D01*
X123418600Y-72492570D01*
X123418600Y-72287430D01*
X123458620Y-72086235D01*
X123537122Y-71896714D01*
X123651091Y-71726148D01*
X123651092Y-71726146D01*
X123796146Y-71581092D01*
X123966712Y-71467123D01*
X124156235Y-71388620D01*
X124357430Y-71348600D01*
X124562570Y-71348600D01*
X124763765Y-71388620D01*
X124763765Y-71388620D01*
G37*
G36*
X140003765Y-71388620D02*
G01*
X140193288Y-71467123D01*
X140363854Y-71581092D01*
X140508908Y-71726146D01*
X140508909Y-71726148D01*
X140622878Y-71896714D01*
X140701380Y-72086235D01*
X140741400Y-72287430D01*
X140741400Y-72492570D01*
X140701380Y-72693765D01*
X140622877Y-72883288D01*
X140508908Y-73053854D01*
X140363854Y-73198908D01*
X140193288Y-73312877D01*
X140193287Y-73312878D01*
X140193286Y-73312878D01*
X140003765Y-73391380D01*
X139802570Y-73431400D01*
X139597430Y-73431400D01*
X139396235Y-73391380D01*
X139206714Y-73312878D01*
X139206713Y-73312878D01*
X139206712Y-73312877D01*
X139036146Y-73198908D01*
X138891092Y-73053854D01*
X138777123Y-72883288D01*
X138698620Y-72693765D01*
X138658600Y-72492570D01*
X138658600Y-72287430D01*
X138698620Y-72086235D01*
X138777122Y-71896714D01*
X138891091Y-71726148D01*
X138891092Y-71726146D01*
X139036146Y-71581092D01*
X139206712Y-71467123D01*
X139396235Y-71388620D01*
X139597430Y-71348600D01*
X139802570Y-71348600D01*
X140003765Y-71388620D01*
X140003765Y-71388620D01*
G37*
G36*
X226273607Y-69805497D02*
G01*
X226334129Y-69817536D01*
X226505162Y-69888380D01*
X226659087Y-69991230D01*
X226789990Y-70122133D01*
X226892840Y-70276058D01*
X226963684Y-70447091D01*
X226999800Y-70628658D01*
X226999800Y-70813782D01*
X226963684Y-70995349D01*
X226892840Y-71166382D01*
X226789990Y-71320307D01*
X226659087Y-71451210D01*
X226505162Y-71554060D01*
X226334129Y-71624904D01*
X226273607Y-71636943D01*
X226152564Y-71661020D01*
X225967436Y-71661020D01*
X225846393Y-71636943D01*
X225785871Y-71624904D01*
X225614838Y-71554060D01*
X225460913Y-71451210D01*
X225330010Y-71320307D01*
X225227160Y-71166382D01*
X225156316Y-70995349D01*
X225120200Y-70813782D01*
X225120200Y-70628658D01*
X225156316Y-70447091D01*
X225227160Y-70276058D01*
X225330010Y-70122133D01*
X225460913Y-69991230D01*
X225614838Y-69888380D01*
X225785871Y-69817536D01*
X225846393Y-69805497D01*
X225967436Y-69781420D01*
X226152564Y-69781420D01*
X226273607Y-69805497D01*
X226273607Y-69805497D01*
G37*
G36*
X188861000Y-66101000D02*
G01*
X187059000Y-66101000D01*
X187059000Y-64299000D01*
X188861000Y-64299000D01*
X188861000Y-66101000D01*
X188861000Y-66101000D01*
G37*
G36*
X185530442Y-64305518D02*
G01*
X185596627Y-64312037D01*
X185766466Y-64363557D01*
X185922991Y-64447222D01*
X185958729Y-64476552D01*
X186060186Y-64559814D01*
X186143448Y-64661271D01*
X186172778Y-64697009D01*
X186256443Y-64853534D01*
X186307963Y-65023373D01*
X186325359Y-65200000D01*
X186307963Y-65376627D01*
X186256443Y-65546466D01*
X186172778Y-65702991D01*
X186143448Y-65738729D01*
X186060186Y-65840186D01*
X185958729Y-65923448D01*
X185922991Y-65952778D01*
X185766466Y-66036443D01*
X185596627Y-66087963D01*
X185530443Y-66094481D01*
X185464260Y-66101000D01*
X185375740Y-66101000D01*
X185309557Y-66094481D01*
X185243373Y-66087963D01*
X185073534Y-66036443D01*
X184917009Y-65952778D01*
X184881271Y-65923448D01*
X184779814Y-65840186D01*
X184696552Y-65738729D01*
X184667222Y-65702991D01*
X184583557Y-65546466D01*
X184532037Y-65376627D01*
X184514641Y-65200000D01*
X184532037Y-65023373D01*
X184583557Y-64853534D01*
X184667222Y-64697009D01*
X184696552Y-64661271D01*
X184779814Y-64559814D01*
X184881271Y-64476552D01*
X184917009Y-64447222D01*
X185073534Y-64363557D01*
X185243373Y-64312037D01*
X185309558Y-64305518D01*
X185375740Y-64299000D01*
X185464260Y-64299000D01*
X185530442Y-64305518D01*
X185530442Y-64305518D01*
G37*
G36*
X182990442Y-64305518D02*
G01*
X183056627Y-64312037D01*
X183226466Y-64363557D01*
X183382991Y-64447222D01*
X183418729Y-64476552D01*
X183520186Y-64559814D01*
X183603448Y-64661271D01*
X183632778Y-64697009D01*
X183716443Y-64853534D01*
X183767963Y-65023373D01*
X183785359Y-65200000D01*
X183767963Y-65376627D01*
X183716443Y-65546466D01*
X183632778Y-65702991D01*
X183603448Y-65738729D01*
X183520186Y-65840186D01*
X183418729Y-65923448D01*
X183382991Y-65952778D01*
X183226466Y-66036443D01*
X183056627Y-66087963D01*
X182990443Y-66094481D01*
X182924260Y-66101000D01*
X182835740Y-66101000D01*
X182769557Y-66094481D01*
X182703373Y-66087963D01*
X182533534Y-66036443D01*
X182377009Y-65952778D01*
X182341271Y-65923448D01*
X182239814Y-65840186D01*
X182156552Y-65738729D01*
X182127222Y-65702991D01*
X182043557Y-65546466D01*
X181992037Y-65376627D01*
X181974641Y-65200000D01*
X181992037Y-65023373D01*
X182043557Y-64853534D01*
X182127222Y-64697009D01*
X182156552Y-64661271D01*
X182239814Y-64559814D01*
X182341271Y-64476552D01*
X182377009Y-64447222D01*
X182533534Y-64363557D01*
X182703373Y-64312037D01*
X182769558Y-64305518D01*
X182835740Y-64299000D01*
X182924260Y-64299000D01*
X182990442Y-64305518D01*
X182990442Y-64305518D01*
G37*
G36*
X180450442Y-64305518D02*
G01*
X180516627Y-64312037D01*
X180686466Y-64363557D01*
X180842991Y-64447222D01*
X180878729Y-64476552D01*
X180980186Y-64559814D01*
X181063448Y-64661271D01*
X181092778Y-64697009D01*
X181176443Y-64853534D01*
X181227963Y-65023373D01*
X181245359Y-65200000D01*
X181227963Y-65376627D01*
X181176443Y-65546466D01*
X181092778Y-65702991D01*
X181063448Y-65738729D01*
X180980186Y-65840186D01*
X180878729Y-65923448D01*
X180842991Y-65952778D01*
X180686466Y-66036443D01*
X180516627Y-66087963D01*
X180450443Y-66094481D01*
X180384260Y-66101000D01*
X180295740Y-66101000D01*
X180229557Y-66094481D01*
X180163373Y-66087963D01*
X179993534Y-66036443D01*
X179837009Y-65952778D01*
X179801271Y-65923448D01*
X179699814Y-65840186D01*
X179616552Y-65738729D01*
X179587222Y-65702991D01*
X179503557Y-65546466D01*
X179452037Y-65376627D01*
X179434641Y-65200000D01*
X179452037Y-65023373D01*
X179503557Y-64853534D01*
X179587222Y-64697009D01*
X179616552Y-64661271D01*
X179699814Y-64559814D01*
X179801271Y-64476552D01*
X179837009Y-64447222D01*
X179993534Y-64363557D01*
X180163373Y-64312037D01*
X180229558Y-64305518D01*
X180295740Y-64299000D01*
X180384260Y-64299000D01*
X180450442Y-64305518D01*
X180450442Y-64305518D01*
G37*
G36*
X177910442Y-64305518D02*
G01*
X177976627Y-64312037D01*
X178146466Y-64363557D01*
X178302991Y-64447222D01*
X178338729Y-64476552D01*
X178440186Y-64559814D01*
X178523448Y-64661271D01*
X178552778Y-64697009D01*
X178636443Y-64853534D01*
X178687963Y-65023373D01*
X178705359Y-65200000D01*
X178687963Y-65376627D01*
X178636443Y-65546466D01*
X178552778Y-65702991D01*
X178523448Y-65738729D01*
X178440186Y-65840186D01*
X178338729Y-65923448D01*
X178302991Y-65952778D01*
X178146466Y-66036443D01*
X177976627Y-66087963D01*
X177910443Y-66094481D01*
X177844260Y-66101000D01*
X177755740Y-66101000D01*
X177689557Y-66094481D01*
X177623373Y-66087963D01*
X177453534Y-66036443D01*
X177297009Y-65952778D01*
X177261271Y-65923448D01*
X177159814Y-65840186D01*
X177076552Y-65738729D01*
X177047222Y-65702991D01*
X176963557Y-65546466D01*
X176912037Y-65376627D01*
X176894641Y-65200000D01*
X176912037Y-65023373D01*
X176963557Y-64853534D01*
X177047222Y-64697009D01*
X177076552Y-64661271D01*
X177159814Y-64559814D01*
X177261271Y-64476552D01*
X177297009Y-64447222D01*
X177453534Y-64363557D01*
X177623373Y-64312037D01*
X177689558Y-64305518D01*
X177755740Y-64299000D01*
X177844260Y-64299000D01*
X177910442Y-64305518D01*
X177910442Y-64305518D01*
G37*
G36*
X175370442Y-64305518D02*
G01*
X175436627Y-64312037D01*
X175606466Y-64363557D01*
X175762991Y-64447222D01*
X175798729Y-64476552D01*
X175900186Y-64559814D01*
X175983448Y-64661271D01*
X176012778Y-64697009D01*
X176096443Y-64853534D01*
X176147963Y-65023373D01*
X176165359Y-65200000D01*
X176147963Y-65376627D01*
X176096443Y-65546466D01*
X176012778Y-65702991D01*
X175983448Y-65738729D01*
X175900186Y-65840186D01*
X175798729Y-65923448D01*
X175762991Y-65952778D01*
X175606466Y-66036443D01*
X175436627Y-66087963D01*
X175370443Y-66094481D01*
X175304260Y-66101000D01*
X175215740Y-66101000D01*
X175149557Y-66094481D01*
X175083373Y-66087963D01*
X174913534Y-66036443D01*
X174757009Y-65952778D01*
X174721271Y-65923448D01*
X174619814Y-65840186D01*
X174536552Y-65738729D01*
X174507222Y-65702991D01*
X174423557Y-65546466D01*
X174372037Y-65376627D01*
X174354641Y-65200000D01*
X174372037Y-65023373D01*
X174423557Y-64853534D01*
X174507222Y-64697009D01*
X174536552Y-64661271D01*
X174619814Y-64559814D01*
X174721271Y-64476552D01*
X174757009Y-64447222D01*
X174913534Y-64363557D01*
X175083373Y-64312037D01*
X175149558Y-64305518D01*
X175215740Y-64299000D01*
X175304260Y-64299000D01*
X175370442Y-64305518D01*
X175370442Y-64305518D01*
G37*
G36*
X172830442Y-64305518D02*
G01*
X172896627Y-64312037D01*
X173066466Y-64363557D01*
X173222991Y-64447222D01*
X173258729Y-64476552D01*
X173360186Y-64559814D01*
X173443448Y-64661271D01*
X173472778Y-64697009D01*
X173556443Y-64853534D01*
X173607963Y-65023373D01*
X173625359Y-65200000D01*
X173607963Y-65376627D01*
X173556443Y-65546466D01*
X173472778Y-65702991D01*
X173443448Y-65738729D01*
X173360186Y-65840186D01*
X173258729Y-65923448D01*
X173222991Y-65952778D01*
X173066466Y-66036443D01*
X172896627Y-66087963D01*
X172830443Y-66094481D01*
X172764260Y-66101000D01*
X172675740Y-66101000D01*
X172609557Y-66094481D01*
X172543373Y-66087963D01*
X172373534Y-66036443D01*
X172217009Y-65952778D01*
X172181271Y-65923448D01*
X172079814Y-65840186D01*
X171996552Y-65738729D01*
X171967222Y-65702991D01*
X171883557Y-65546466D01*
X171832037Y-65376627D01*
X171814641Y-65200000D01*
X171832037Y-65023373D01*
X171883557Y-64853534D01*
X171967222Y-64697009D01*
X171996552Y-64661271D01*
X172079814Y-64559814D01*
X172181271Y-64476552D01*
X172217009Y-64447222D01*
X172373534Y-64363557D01*
X172543373Y-64312037D01*
X172609558Y-64305518D01*
X172675740Y-64299000D01*
X172764260Y-64299000D01*
X172830442Y-64305518D01*
X172830442Y-64305518D01*
G37*
G36*
X189431507Y-60070037D02*
G01*
X189492029Y-60082076D01*
X189663062Y-60152920D01*
X189816987Y-60255770D01*
X189947890Y-60386673D01*
X190050740Y-60540598D01*
X190118279Y-60703651D01*
X190121584Y-60711632D01*
X190156113Y-60885216D01*
X190157700Y-60893198D01*
X190157700Y-61078322D01*
X190123172Y-61251908D01*
X190121584Y-61259888D01*
X190054046Y-61422942D01*
X190050740Y-61430922D01*
X189947890Y-61584847D01*
X189816987Y-61715750D01*
X189663062Y-61818600D01*
X189492029Y-61889444D01*
X189431507Y-61901483D01*
X189310464Y-61925560D01*
X189125336Y-61925560D01*
X189004293Y-61901483D01*
X188943771Y-61889444D01*
X188772738Y-61818600D01*
X188618813Y-61715750D01*
X188487910Y-61584847D01*
X188385060Y-61430922D01*
X188381755Y-61422942D01*
X188314216Y-61259888D01*
X188312629Y-61251908D01*
X188278100Y-61078322D01*
X188278100Y-60893198D01*
X188279688Y-60885216D01*
X188314216Y-60711632D01*
X188317522Y-60703651D01*
X188385060Y-60540598D01*
X188487910Y-60386673D01*
X188618813Y-60255770D01*
X188772738Y-60152920D01*
X188943771Y-60082076D01*
X189004293Y-60070037D01*
X189125336Y-60045960D01*
X189310464Y-60045960D01*
X189431507Y-60070037D01*
X189431507Y-60070037D01*
G37*
G36*
X207188607Y-60062057D02*
G01*
X207249129Y-60074096D01*
X207420162Y-60144940D01*
X207574087Y-60247790D01*
X207704990Y-60378693D01*
X207807841Y-60532620D01*
X207811146Y-60540600D01*
X207878684Y-60703651D01*
X207890723Y-60764173D01*
X207914800Y-60885216D01*
X207914800Y-61070344D01*
X207890723Y-61191387D01*
X207878684Y-61251909D01*
X207807840Y-61422942D01*
X207704990Y-61576867D01*
X207574087Y-61707770D01*
X207420162Y-61810620D01*
X207249129Y-61881464D01*
X207209011Y-61889444D01*
X207067564Y-61917580D01*
X206882436Y-61917580D01*
X206740989Y-61889444D01*
X206700871Y-61881464D01*
X206529838Y-61810620D01*
X206375913Y-61707770D01*
X206245010Y-61576867D01*
X206142160Y-61422942D01*
X206071316Y-61251909D01*
X206059277Y-61191387D01*
X206035200Y-61070344D01*
X206035200Y-60885216D01*
X206059277Y-60764173D01*
X206071316Y-60703651D01*
X206138854Y-60540600D01*
X206142159Y-60532620D01*
X206245010Y-60378693D01*
X206375913Y-60247790D01*
X206529838Y-60144940D01*
X206700871Y-60074096D01*
X206761393Y-60062057D01*
X206882436Y-60037980D01*
X207067564Y-60037980D01*
X207188607Y-60062057D01*
X207188607Y-60062057D01*
G37*
G36*
X189480546Y-57869492D02*
G01*
X189644412Y-57937368D01*
X189644414Y-57937369D01*
X189791891Y-58035910D01*
X189917310Y-58161329D01*
X189917311Y-58161331D01*
X190015852Y-58308808D01*
X190083728Y-58472674D01*
X190118330Y-58646634D01*
X190118330Y-58824006D01*
X190083728Y-58997966D01*
X190015852Y-59161832D01*
X190015851Y-59161834D01*
X189917310Y-59309311D01*
X189791891Y-59434730D01*
X189644414Y-59533271D01*
X189644413Y-59533272D01*
X189644412Y-59533272D01*
X189480546Y-59601148D01*
X189306586Y-59635750D01*
X189129214Y-59635750D01*
X188955254Y-59601148D01*
X188791388Y-59533272D01*
X188791387Y-59533272D01*
X188791386Y-59533271D01*
X188643909Y-59434730D01*
X188518490Y-59309311D01*
X188419949Y-59161834D01*
X188419948Y-59161832D01*
X188352072Y-58997966D01*
X188317470Y-58824006D01*
X188317470Y-58646634D01*
X188352072Y-58472674D01*
X188419948Y-58308808D01*
X188518489Y-58161331D01*
X188518490Y-58161329D01*
X188643909Y-58035910D01*
X188791386Y-57937369D01*
X188791388Y-57937368D01*
X188955254Y-57869492D01*
X189129214Y-57834890D01*
X189306586Y-57834890D01*
X189480546Y-57869492D01*
X189480546Y-57869492D01*
G37*
G36*
X207237646Y-57861512D02*
G01*
X207401512Y-57929388D01*
X207401514Y-57929389D01*
X207548991Y-58027930D01*
X207674410Y-58153349D01*
X207674411Y-58153351D01*
X207772952Y-58300828D01*
X207840828Y-58464694D01*
X207875430Y-58638654D01*
X207875430Y-58816026D01*
X207840828Y-58989986D01*
X207772952Y-59153852D01*
X207772951Y-59153854D01*
X207674410Y-59301331D01*
X207548991Y-59426750D01*
X207401514Y-59525291D01*
X207401513Y-59525292D01*
X207401512Y-59525292D01*
X207237646Y-59593168D01*
X207063686Y-59627770D01*
X206886314Y-59627770D01*
X206712354Y-59593168D01*
X206548488Y-59525292D01*
X206548487Y-59525292D01*
X206548486Y-59525291D01*
X206401009Y-59426750D01*
X206275590Y-59301331D01*
X206177049Y-59153854D01*
X206177048Y-59153852D01*
X206109172Y-58989986D01*
X206074570Y-58816026D01*
X206074570Y-58638654D01*
X206109172Y-58464694D01*
X206177048Y-58300828D01*
X206275589Y-58153351D01*
X206275590Y-58153349D01*
X206401009Y-58027930D01*
X206548486Y-57929389D01*
X206548488Y-57929388D01*
X206712354Y-57861512D01*
X206886314Y-57826910D01*
X207063686Y-57826910D01*
X207237646Y-57861512D01*
X207237646Y-57861512D01*
G37*
G36*
X161456823Y-56311313D02*
G01*
X161617242Y-56359976D01*
X161749906Y-56430886D01*
X161765078Y-56438996D01*
X161894659Y-56545341D01*
X162001004Y-56674922D01*
X162001005Y-56674924D01*
X162080024Y-56822758D01*
X162128687Y-56983177D01*
X162145117Y-57150000D01*
X162128687Y-57316823D01*
X162080024Y-57477242D01*
X162073608Y-57489245D01*
X162001004Y-57625078D01*
X161894659Y-57754659D01*
X161765078Y-57861004D01*
X161764126Y-57861513D01*
X161617242Y-57940024D01*
X161456823Y-57988687D01*
X161331804Y-58001000D01*
X161248196Y-58001000D01*
X161123177Y-57988687D01*
X160962758Y-57940024D01*
X160815874Y-57861513D01*
X160814922Y-57861004D01*
X160685341Y-57754659D01*
X160578996Y-57625078D01*
X160506392Y-57489245D01*
X160499976Y-57477242D01*
X160451313Y-57316823D01*
X160434883Y-57150000D01*
X160451313Y-56983177D01*
X160499976Y-56822758D01*
X160578995Y-56674924D01*
X160578996Y-56674922D01*
X160685341Y-56545341D01*
X160814922Y-56438996D01*
X160830094Y-56430886D01*
X160962758Y-56359976D01*
X161123177Y-56311313D01*
X161248196Y-56299000D01*
X161331804Y-56299000D01*
X161456823Y-56311313D01*
X161456823Y-56311313D01*
G37*
G36*
X158916823Y-56311313D02*
G01*
X159077242Y-56359976D01*
X159209906Y-56430886D01*
X159225078Y-56438996D01*
X159354659Y-56545341D01*
X159461004Y-56674922D01*
X159461005Y-56674924D01*
X159540024Y-56822758D01*
X159588687Y-56983177D01*
X159605117Y-57150000D01*
X159588687Y-57316823D01*
X159540024Y-57477242D01*
X159533608Y-57489245D01*
X159461004Y-57625078D01*
X159354659Y-57754659D01*
X159225078Y-57861004D01*
X159224126Y-57861513D01*
X159077242Y-57940024D01*
X158916823Y-57988687D01*
X158791804Y-58001000D01*
X158708196Y-58001000D01*
X158583177Y-57988687D01*
X158422758Y-57940024D01*
X158275874Y-57861513D01*
X158274922Y-57861004D01*
X158145341Y-57754659D01*
X158038996Y-57625078D01*
X157966392Y-57489245D01*
X157959976Y-57477242D01*
X157911313Y-57316823D01*
X157894883Y-57150000D01*
X157911313Y-56983177D01*
X157959976Y-56822758D01*
X158038995Y-56674924D01*
X158038996Y-56674922D01*
X158145341Y-56545341D01*
X158274922Y-56438996D01*
X158290094Y-56430886D01*
X158422758Y-56359976D01*
X158583177Y-56311313D01*
X158708196Y-56299000D01*
X158791804Y-56299000D01*
X158916823Y-56311313D01*
X158916823Y-56311313D01*
G37*
G36*
X156376823Y-56311313D02*
G01*
X156537242Y-56359976D01*
X156669906Y-56430886D01*
X156685078Y-56438996D01*
X156814659Y-56545341D01*
X156921004Y-56674922D01*
X156921005Y-56674924D01*
X157000024Y-56822758D01*
X157048687Y-56983177D01*
X157065117Y-57150000D01*
X157048687Y-57316823D01*
X157000024Y-57477242D01*
X156993608Y-57489245D01*
X156921004Y-57625078D01*
X156814659Y-57754659D01*
X156685078Y-57861004D01*
X156684126Y-57861513D01*
X156537242Y-57940024D01*
X156376823Y-57988687D01*
X156251804Y-58001000D01*
X156168196Y-58001000D01*
X156043177Y-57988687D01*
X155882758Y-57940024D01*
X155735874Y-57861513D01*
X155734922Y-57861004D01*
X155605341Y-57754659D01*
X155498996Y-57625078D01*
X155426392Y-57489245D01*
X155419976Y-57477242D01*
X155371313Y-57316823D01*
X155354883Y-57150000D01*
X155371313Y-56983177D01*
X155419976Y-56822758D01*
X155498995Y-56674924D01*
X155498996Y-56674922D01*
X155605341Y-56545341D01*
X155734922Y-56438996D01*
X155750094Y-56430886D01*
X155882758Y-56359976D01*
X156043177Y-56311313D01*
X156168196Y-56299000D01*
X156251804Y-56299000D01*
X156376823Y-56311313D01*
X156376823Y-56311313D01*
G37*
G36*
X176696823Y-56311313D02*
G01*
X176857242Y-56359976D01*
X176989906Y-56430886D01*
X177005078Y-56438996D01*
X177134659Y-56545341D01*
X177241004Y-56674922D01*
X177241005Y-56674924D01*
X177320024Y-56822758D01*
X177368687Y-56983177D01*
X177385117Y-57150000D01*
X177368687Y-57316823D01*
X177320024Y-57477242D01*
X177313608Y-57489245D01*
X177241004Y-57625078D01*
X177134659Y-57754659D01*
X177005078Y-57861004D01*
X177004126Y-57861513D01*
X176857242Y-57940024D01*
X176696823Y-57988687D01*
X176571804Y-58001000D01*
X176488196Y-58001000D01*
X176363177Y-57988687D01*
X176202758Y-57940024D01*
X176055874Y-57861513D01*
X176054922Y-57861004D01*
X175925341Y-57754659D01*
X175818996Y-57625078D01*
X175746392Y-57489245D01*
X175739976Y-57477242D01*
X175691313Y-57316823D01*
X175674883Y-57150000D01*
X175691313Y-56983177D01*
X175739976Y-56822758D01*
X175818995Y-56674924D01*
X175818996Y-56674922D01*
X175925341Y-56545341D01*
X176054922Y-56438996D01*
X176070094Y-56430886D01*
X176202758Y-56359976D01*
X176363177Y-56311313D01*
X176488196Y-56299000D01*
X176571804Y-56299000D01*
X176696823Y-56311313D01*
X176696823Y-56311313D01*
G37*
G36*
X174156823Y-56311313D02*
G01*
X174317242Y-56359976D01*
X174449906Y-56430886D01*
X174465078Y-56438996D01*
X174594659Y-56545341D01*
X174701004Y-56674922D01*
X174701005Y-56674924D01*
X174780024Y-56822758D01*
X174828687Y-56983177D01*
X174845117Y-57150000D01*
X174828687Y-57316823D01*
X174780024Y-57477242D01*
X174773608Y-57489245D01*
X174701004Y-57625078D01*
X174594659Y-57754659D01*
X174465078Y-57861004D01*
X174464126Y-57861513D01*
X174317242Y-57940024D01*
X174156823Y-57988687D01*
X174031804Y-58001000D01*
X173948196Y-58001000D01*
X173823177Y-57988687D01*
X173662758Y-57940024D01*
X173515874Y-57861513D01*
X173514922Y-57861004D01*
X173385341Y-57754659D01*
X173278996Y-57625078D01*
X173206392Y-57489245D01*
X173199976Y-57477242D01*
X173151313Y-57316823D01*
X173134883Y-57150000D01*
X173151313Y-56983177D01*
X173199976Y-56822758D01*
X173278995Y-56674924D01*
X173278996Y-56674922D01*
X173385341Y-56545341D01*
X173514922Y-56438996D01*
X173530094Y-56430886D01*
X173662758Y-56359976D01*
X173823177Y-56311313D01*
X173948196Y-56299000D01*
X174031804Y-56299000D01*
X174156823Y-56311313D01*
X174156823Y-56311313D01*
G37*
G36*
X171616823Y-56311313D02*
G01*
X171777242Y-56359976D01*
X171909906Y-56430886D01*
X171925078Y-56438996D01*
X172054659Y-56545341D01*
X172161004Y-56674922D01*
X172161005Y-56674924D01*
X172240024Y-56822758D01*
X172288687Y-56983177D01*
X172305117Y-57150000D01*
X172288687Y-57316823D01*
X172240024Y-57477242D01*
X172233608Y-57489245D01*
X172161004Y-57625078D01*
X172054659Y-57754659D01*
X171925078Y-57861004D01*
X171924126Y-57861513D01*
X171777242Y-57940024D01*
X171616823Y-57988687D01*
X171491804Y-58001000D01*
X171408196Y-58001000D01*
X171283177Y-57988687D01*
X171122758Y-57940024D01*
X170975874Y-57861513D01*
X170974922Y-57861004D01*
X170845341Y-57754659D01*
X170738996Y-57625078D01*
X170666392Y-57489245D01*
X170659976Y-57477242D01*
X170611313Y-57316823D01*
X170594883Y-57150000D01*
X170611313Y-56983177D01*
X170659976Y-56822758D01*
X170738995Y-56674924D01*
X170738996Y-56674922D01*
X170845341Y-56545341D01*
X170974922Y-56438996D01*
X170990094Y-56430886D01*
X171122758Y-56359976D01*
X171283177Y-56311313D01*
X171408196Y-56299000D01*
X171491804Y-56299000D01*
X171616823Y-56311313D01*
X171616823Y-56311313D01*
G37*
G36*
X169076823Y-56311313D02*
G01*
X169237242Y-56359976D01*
X169369906Y-56430886D01*
X169385078Y-56438996D01*
X169514659Y-56545341D01*
X169621004Y-56674922D01*
X169621005Y-56674924D01*
X169700024Y-56822758D01*
X169748687Y-56983177D01*
X169765117Y-57150000D01*
X169748687Y-57316823D01*
X169700024Y-57477242D01*
X169693608Y-57489245D01*
X169621004Y-57625078D01*
X169514659Y-57754659D01*
X169385078Y-57861004D01*
X169384126Y-57861513D01*
X169237242Y-57940024D01*
X169076823Y-57988687D01*
X168951804Y-58001000D01*
X168868196Y-58001000D01*
X168743177Y-57988687D01*
X168582758Y-57940024D01*
X168435874Y-57861513D01*
X168434922Y-57861004D01*
X168305341Y-57754659D01*
X168198996Y-57625078D01*
X168126392Y-57489245D01*
X168119976Y-57477242D01*
X168071313Y-57316823D01*
X168054883Y-57150000D01*
X168071313Y-56983177D01*
X168119976Y-56822758D01*
X168198995Y-56674924D01*
X168198996Y-56674922D01*
X168305341Y-56545341D01*
X168434922Y-56438996D01*
X168450094Y-56430886D01*
X168582758Y-56359976D01*
X168743177Y-56311313D01*
X168868196Y-56299000D01*
X168951804Y-56299000D01*
X169076823Y-56311313D01*
X169076823Y-56311313D01*
G37*
G36*
X166536823Y-56311313D02*
G01*
X166697242Y-56359976D01*
X166829906Y-56430886D01*
X166845078Y-56438996D01*
X166974659Y-56545341D01*
X167081004Y-56674922D01*
X167081005Y-56674924D01*
X167160024Y-56822758D01*
X167208687Y-56983177D01*
X167225117Y-57150000D01*
X167208687Y-57316823D01*
X167160024Y-57477242D01*
X167153608Y-57489245D01*
X167081004Y-57625078D01*
X166974659Y-57754659D01*
X166845078Y-57861004D01*
X166844126Y-57861513D01*
X166697242Y-57940024D01*
X166536823Y-57988687D01*
X166411804Y-58001000D01*
X166328196Y-58001000D01*
X166203177Y-57988687D01*
X166042758Y-57940024D01*
X165895874Y-57861513D01*
X165894922Y-57861004D01*
X165765341Y-57754659D01*
X165658996Y-57625078D01*
X165586392Y-57489245D01*
X165579976Y-57477242D01*
X165531313Y-57316823D01*
X165514883Y-57150000D01*
X165531313Y-56983177D01*
X165579976Y-56822758D01*
X165658995Y-56674924D01*
X165658996Y-56674922D01*
X165765341Y-56545341D01*
X165894922Y-56438996D01*
X165910094Y-56430886D01*
X166042758Y-56359976D01*
X166203177Y-56311313D01*
X166328196Y-56299000D01*
X166411804Y-56299000D01*
X166536823Y-56311313D01*
X166536823Y-56311313D01*
G37*
G36*
X163996823Y-56311313D02*
G01*
X164157242Y-56359976D01*
X164289906Y-56430886D01*
X164305078Y-56438996D01*
X164434659Y-56545341D01*
X164541004Y-56674922D01*
X164541005Y-56674924D01*
X164620024Y-56822758D01*
X164668687Y-56983177D01*
X164685117Y-57150000D01*
X164668687Y-57316823D01*
X164620024Y-57477242D01*
X164613608Y-57489245D01*
X164541004Y-57625078D01*
X164434659Y-57754659D01*
X164305078Y-57861004D01*
X164304126Y-57861513D01*
X164157242Y-57940024D01*
X163996823Y-57988687D01*
X163871804Y-58001000D01*
X163788196Y-58001000D01*
X163663177Y-57988687D01*
X163502758Y-57940024D01*
X163355874Y-57861513D01*
X163354922Y-57861004D01*
X163225341Y-57754659D01*
X163118996Y-57625078D01*
X163046392Y-57489245D01*
X163039976Y-57477242D01*
X162991313Y-57316823D01*
X162974883Y-57150000D01*
X162991313Y-56983177D01*
X163039976Y-56822758D01*
X163118995Y-56674924D01*
X163118996Y-56674922D01*
X163225341Y-56545341D01*
X163354922Y-56438996D01*
X163370094Y-56430886D01*
X163502758Y-56359976D01*
X163663177Y-56311313D01*
X163788196Y-56299000D01*
X163871804Y-56299000D01*
X163996823Y-56311313D01*
X163996823Y-56311313D01*
G37*
G36*
X153836823Y-56311313D02*
G01*
X153997242Y-56359976D01*
X154129906Y-56430886D01*
X154145078Y-56438996D01*
X154274659Y-56545341D01*
X154381004Y-56674922D01*
X154381005Y-56674924D01*
X154460024Y-56822758D01*
X154508687Y-56983177D01*
X154525117Y-57150000D01*
X154508687Y-57316823D01*
X154460024Y-57477242D01*
X154453608Y-57489245D01*
X154381004Y-57625078D01*
X154274659Y-57754659D01*
X154145078Y-57861004D01*
X154144126Y-57861513D01*
X153997242Y-57940024D01*
X153836823Y-57988687D01*
X153711804Y-58001000D01*
X153628196Y-58001000D01*
X153503177Y-57988687D01*
X153342758Y-57940024D01*
X153195874Y-57861513D01*
X153194922Y-57861004D01*
X153065341Y-57754659D01*
X152958996Y-57625078D01*
X152886392Y-57489245D01*
X152879976Y-57477242D01*
X152831313Y-57316823D01*
X152814883Y-57150000D01*
X152831313Y-56983177D01*
X152879976Y-56822758D01*
X152958995Y-56674924D01*
X152958996Y-56674922D01*
X153065341Y-56545341D01*
X153194922Y-56438996D01*
X153210094Y-56430886D01*
X153342758Y-56359976D01*
X153503177Y-56311313D01*
X153628196Y-56299000D01*
X153711804Y-56299000D01*
X153836823Y-56311313D01*
X153836823Y-56311313D01*
G37*
G36*
X151296823Y-56311313D02*
G01*
X151457242Y-56359976D01*
X151589906Y-56430886D01*
X151605078Y-56438996D01*
X151734659Y-56545341D01*
X151841004Y-56674922D01*
X151841005Y-56674924D01*
X151920024Y-56822758D01*
X151968687Y-56983177D01*
X151985117Y-57150000D01*
X151968687Y-57316823D01*
X151920024Y-57477242D01*
X151913608Y-57489245D01*
X151841004Y-57625078D01*
X151734659Y-57754659D01*
X151605078Y-57861004D01*
X151604126Y-57861513D01*
X151457242Y-57940024D01*
X151296823Y-57988687D01*
X151171804Y-58001000D01*
X151088196Y-58001000D01*
X150963177Y-57988687D01*
X150802758Y-57940024D01*
X150655874Y-57861513D01*
X150654922Y-57861004D01*
X150525341Y-57754659D01*
X150418996Y-57625078D01*
X150346392Y-57489245D01*
X150339976Y-57477242D01*
X150291313Y-57316823D01*
X150274883Y-57150000D01*
X150291313Y-56983177D01*
X150339976Y-56822758D01*
X150418995Y-56674924D01*
X150418996Y-56674922D01*
X150525341Y-56545341D01*
X150654922Y-56438996D01*
X150670094Y-56430886D01*
X150802758Y-56359976D01*
X150963177Y-56311313D01*
X151088196Y-56299000D01*
X151171804Y-56299000D01*
X151296823Y-56311313D01*
X151296823Y-56311313D01*
G37*
G36*
X148756823Y-56311313D02*
G01*
X148917242Y-56359976D01*
X149049906Y-56430886D01*
X149065078Y-56438996D01*
X149194659Y-56545341D01*
X149301004Y-56674922D01*
X149301005Y-56674924D01*
X149380024Y-56822758D01*
X149428687Y-56983177D01*
X149445117Y-57150000D01*
X149428687Y-57316823D01*
X149380024Y-57477242D01*
X149373608Y-57489245D01*
X149301004Y-57625078D01*
X149194659Y-57754659D01*
X149065078Y-57861004D01*
X149064126Y-57861513D01*
X148917242Y-57940024D01*
X148756823Y-57988687D01*
X148631804Y-58001000D01*
X148548196Y-58001000D01*
X148423177Y-57988687D01*
X148262758Y-57940024D01*
X148115874Y-57861513D01*
X148114922Y-57861004D01*
X147985341Y-57754659D01*
X147878996Y-57625078D01*
X147806392Y-57489245D01*
X147799976Y-57477242D01*
X147751313Y-57316823D01*
X147734883Y-57150000D01*
X147751313Y-56983177D01*
X147799976Y-56822758D01*
X147878995Y-56674924D01*
X147878996Y-56674922D01*
X147985341Y-56545341D01*
X148114922Y-56438996D01*
X148130094Y-56430886D01*
X148262758Y-56359976D01*
X148423177Y-56311313D01*
X148548196Y-56299000D01*
X148631804Y-56299000D01*
X148756823Y-56311313D01*
X148756823Y-56311313D01*
G37*
G36*
X146216823Y-56311313D02*
G01*
X146377242Y-56359976D01*
X146509906Y-56430886D01*
X146525078Y-56438996D01*
X146654659Y-56545341D01*
X146761004Y-56674922D01*
X146761005Y-56674924D01*
X146840024Y-56822758D01*
X146888687Y-56983177D01*
X146905117Y-57150000D01*
X146888687Y-57316823D01*
X146840024Y-57477242D01*
X146833608Y-57489245D01*
X146761004Y-57625078D01*
X146654659Y-57754659D01*
X146525078Y-57861004D01*
X146524126Y-57861513D01*
X146377242Y-57940024D01*
X146216823Y-57988687D01*
X146091804Y-58001000D01*
X146008196Y-58001000D01*
X145883177Y-57988687D01*
X145722758Y-57940024D01*
X145575874Y-57861513D01*
X145574922Y-57861004D01*
X145445341Y-57754659D01*
X145338996Y-57625078D01*
X145266392Y-57489245D01*
X145259976Y-57477242D01*
X145211313Y-57316823D01*
X145194883Y-57150000D01*
X145211313Y-56983177D01*
X145259976Y-56822758D01*
X145338995Y-56674924D01*
X145338996Y-56674922D01*
X145445341Y-56545341D01*
X145574922Y-56438996D01*
X145590094Y-56430886D01*
X145722758Y-56359976D01*
X145883177Y-56311313D01*
X146008196Y-56299000D01*
X146091804Y-56299000D01*
X146216823Y-56311313D01*
X146216823Y-56311313D01*
G37*
G36*
X144361000Y-58001000D02*
G01*
X142659000Y-58001000D01*
X142659000Y-56299000D01*
X144361000Y-56299000D01*
X144361000Y-58001000D01*
X144361000Y-58001000D01*
G37*
G36*
X195810813Y-55600628D02*
G01*
X196025762Y-55689663D01*
X196219205Y-55818917D01*
X196383723Y-55983435D01*
X196512977Y-56176878D01*
X196602012Y-56391827D01*
X196647400Y-56620010D01*
X196647400Y-56852670D01*
X196602012Y-57080853D01*
X196512977Y-57295802D01*
X196383723Y-57489245D01*
X196219205Y-57653763D01*
X196025762Y-57783017D01*
X195810813Y-57872052D01*
X195582630Y-57917440D01*
X195349970Y-57917440D01*
X195121787Y-57872052D01*
X194906838Y-57783017D01*
X194713395Y-57653763D01*
X194548877Y-57489245D01*
X194419623Y-57295802D01*
X194330588Y-57080853D01*
X194285200Y-56852670D01*
X194285200Y-56620010D01*
X194330588Y-56391827D01*
X194419623Y-56176878D01*
X194548877Y-55983435D01*
X194713395Y-55818917D01*
X194906838Y-55689663D01*
X195121787Y-55600628D01*
X195349970Y-55555240D01*
X195582630Y-55555240D01*
X195810813Y-55600628D01*
X195810813Y-55600628D01*
G37*
G36*
X183314013Y-55600628D02*
G01*
X183528962Y-55689663D01*
X183722405Y-55818917D01*
X183886923Y-55983435D01*
X184016177Y-56176878D01*
X184105212Y-56391827D01*
X184150600Y-56620010D01*
X184150600Y-56852670D01*
X184105212Y-57080853D01*
X184016177Y-57295802D01*
X183886923Y-57489245D01*
X183722405Y-57653763D01*
X183528962Y-57783017D01*
X183314013Y-57872052D01*
X183085830Y-57917440D01*
X182853170Y-57917440D01*
X182624987Y-57872052D01*
X182410038Y-57783017D01*
X182216595Y-57653763D01*
X182052077Y-57489245D01*
X181922823Y-57295802D01*
X181833788Y-57080853D01*
X181788400Y-56852670D01*
X181788400Y-56620010D01*
X181833788Y-56391827D01*
X181922823Y-56176878D01*
X182052077Y-55983435D01*
X182216595Y-55818917D01*
X182410038Y-55689663D01*
X182624987Y-55600628D01*
X182853170Y-55555240D01*
X183085830Y-55555240D01*
X183314013Y-55600628D01*
X183314013Y-55600628D01*
G37*
G36*
X201071113Y-55592648D02*
G01*
X201286062Y-55681683D01*
X201479505Y-55810937D01*
X201644023Y-55975455D01*
X201773277Y-56168898D01*
X201862312Y-56383847D01*
X201907700Y-56612030D01*
X201907700Y-56844690D01*
X201862312Y-57072873D01*
X201773277Y-57287822D01*
X201644023Y-57481265D01*
X201479505Y-57645783D01*
X201286062Y-57775037D01*
X201071113Y-57864072D01*
X200842930Y-57909460D01*
X200610270Y-57909460D01*
X200382087Y-57864072D01*
X200167138Y-57775037D01*
X199973695Y-57645783D01*
X199809177Y-57481265D01*
X199679923Y-57287822D01*
X199590888Y-57072873D01*
X199545500Y-56844690D01*
X199545500Y-56612030D01*
X199590888Y-56383847D01*
X199679923Y-56168898D01*
X199809177Y-55975455D01*
X199973695Y-55810937D01*
X200167138Y-55681683D01*
X200382087Y-55592648D01*
X200610270Y-55547260D01*
X200842930Y-55547260D01*
X201071113Y-55592648D01*
X201071113Y-55592648D01*
G37*
G36*
X213567913Y-55592648D02*
G01*
X213782862Y-55681683D01*
X213976305Y-55810937D01*
X214140823Y-55975455D01*
X214270077Y-56168898D01*
X214359112Y-56383847D01*
X214404500Y-56612030D01*
X214404500Y-56844690D01*
X214359112Y-57072873D01*
X214270077Y-57287822D01*
X214140823Y-57481265D01*
X213976305Y-57645783D01*
X213782862Y-57775037D01*
X213567913Y-57864072D01*
X213339730Y-57909460D01*
X213107070Y-57909460D01*
X212878887Y-57864072D01*
X212663938Y-57775037D01*
X212470495Y-57645783D01*
X212305977Y-57481265D01*
X212176723Y-57287822D01*
X212087688Y-57072873D01*
X212042300Y-56844690D01*
X212042300Y-56612030D01*
X212087688Y-56383847D01*
X212176723Y-56168898D01*
X212305977Y-55975455D01*
X212470495Y-55810937D01*
X212663938Y-55681683D01*
X212878887Y-55592648D01*
X213107070Y-55547260D01*
X213339730Y-55547260D01*
X213567913Y-55592648D01*
X213567913Y-55592648D01*
G37*
G36*
X195810813Y-50601908D02*
G01*
X196025762Y-50690943D01*
X196219205Y-50820197D01*
X196383723Y-50984715D01*
X196512977Y-51178158D01*
X196602012Y-51393107D01*
X196647400Y-51621290D01*
X196647400Y-51853950D01*
X196602012Y-52082133D01*
X196512977Y-52297082D01*
X196383723Y-52490525D01*
X196219205Y-52655043D01*
X196025762Y-52784297D01*
X195810813Y-52873332D01*
X195582630Y-52918720D01*
X195349970Y-52918720D01*
X195121787Y-52873332D01*
X194906838Y-52784297D01*
X194713395Y-52655043D01*
X194548877Y-52490525D01*
X194419623Y-52297082D01*
X194330588Y-52082133D01*
X194285200Y-51853950D01*
X194285200Y-51621290D01*
X194330588Y-51393107D01*
X194419623Y-51178158D01*
X194548877Y-50984715D01*
X194713395Y-50820197D01*
X194906838Y-50690943D01*
X195121787Y-50601908D01*
X195349970Y-50556520D01*
X195582630Y-50556520D01*
X195810813Y-50601908D01*
X195810813Y-50601908D01*
G37*
G36*
X183314013Y-50601908D02*
G01*
X183528962Y-50690943D01*
X183722405Y-50820197D01*
X183886923Y-50984715D01*
X184016177Y-51178158D01*
X184105212Y-51393107D01*
X184150600Y-51621290D01*
X184150600Y-51853950D01*
X184105212Y-52082133D01*
X184016177Y-52297082D01*
X183886923Y-52490525D01*
X183722405Y-52655043D01*
X183528962Y-52784297D01*
X183314013Y-52873332D01*
X183085830Y-52918720D01*
X182853170Y-52918720D01*
X182624987Y-52873332D01*
X182410038Y-52784297D01*
X182216595Y-52655043D01*
X182052077Y-52490525D01*
X181922823Y-52297082D01*
X181833788Y-52082133D01*
X181788400Y-51853950D01*
X181788400Y-51621290D01*
X181833788Y-51393107D01*
X181922823Y-51178158D01*
X182052077Y-50984715D01*
X182216595Y-50820197D01*
X182410038Y-50690943D01*
X182624987Y-50601908D01*
X182853170Y-50556520D01*
X183085830Y-50556520D01*
X183314013Y-50601908D01*
X183314013Y-50601908D01*
G37*
G36*
X201071113Y-50593928D02*
G01*
X201286062Y-50682963D01*
X201479505Y-50812217D01*
X201644023Y-50976735D01*
X201773277Y-51170178D01*
X201862312Y-51385127D01*
X201907700Y-51613310D01*
X201907700Y-51845970D01*
X201862312Y-52074153D01*
X201773277Y-52289102D01*
X201644023Y-52482545D01*
X201479505Y-52647063D01*
X201286062Y-52776317D01*
X201071113Y-52865352D01*
X200842930Y-52910740D01*
X200610270Y-52910740D01*
X200382087Y-52865352D01*
X200167138Y-52776317D01*
X199973695Y-52647063D01*
X199809177Y-52482545D01*
X199679923Y-52289102D01*
X199590888Y-52074153D01*
X199545500Y-51845970D01*
X199545500Y-51613310D01*
X199590888Y-51385127D01*
X199679923Y-51170178D01*
X199809177Y-50976735D01*
X199973695Y-50812217D01*
X200167138Y-50682963D01*
X200382087Y-50593928D01*
X200610270Y-50548540D01*
X200842930Y-50548540D01*
X201071113Y-50593928D01*
X201071113Y-50593928D01*
G37*
G36*
X213567913Y-50593928D02*
G01*
X213782862Y-50682963D01*
X213976305Y-50812217D01*
X214140823Y-50976735D01*
X214270077Y-51170178D01*
X214359112Y-51385127D01*
X214404500Y-51613310D01*
X214404500Y-51845970D01*
X214359112Y-52074153D01*
X214270077Y-52289102D01*
X214140823Y-52482545D01*
X213976305Y-52647063D01*
X213782862Y-52776317D01*
X213567913Y-52865352D01*
X213339730Y-52910740D01*
X213107070Y-52910740D01*
X212878887Y-52865352D01*
X212663938Y-52776317D01*
X212470495Y-52647063D01*
X212305977Y-52482545D01*
X212176723Y-52289102D01*
X212087688Y-52074153D01*
X212042300Y-51845970D01*
X212042300Y-51613310D01*
X212087688Y-51385127D01*
X212176723Y-51170178D01*
X212305977Y-50976735D01*
X212470495Y-50812217D01*
X212663938Y-50682963D01*
X212878887Y-50593928D01*
X213107070Y-50548540D01*
X213339730Y-50548540D01*
X213567913Y-50593928D01*
X213567913Y-50593928D01*
G37*
G36*
X126105256Y-49191298D02*
G01*
X126211579Y-49212447D01*
X126512042Y-49336903D01*
X126782451Y-49517585D01*
X127012415Y-49747549D01*
X127193097Y-50017958D01*
X127317553Y-50318421D01*
X127330001Y-50381000D01*
X127381000Y-50637389D01*
X127381000Y-50962611D01*
X127376603Y-50984715D01*
X127317553Y-51281579D01*
X127193097Y-51582042D01*
X127012415Y-51852451D01*
X126782451Y-52082415D01*
X126512042Y-52263097D01*
X126512041Y-52263098D01*
X126512040Y-52263098D01*
X126429997Y-52297081D01*
X126211579Y-52387553D01*
X126105256Y-52408702D01*
X125892611Y-52451000D01*
X125567389Y-52451000D01*
X125354744Y-52408702D01*
X125248421Y-52387553D01*
X125030003Y-52297081D01*
X124947960Y-52263098D01*
X124947959Y-52263098D01*
X124947958Y-52263097D01*
X124677549Y-52082415D01*
X124447585Y-51852451D01*
X124266903Y-51582042D01*
X124142447Y-51281579D01*
X124083397Y-50984715D01*
X124079000Y-50962611D01*
X124079000Y-50637389D01*
X124129999Y-50381000D01*
X124142447Y-50318421D01*
X124266903Y-50017958D01*
X124447585Y-49747549D01*
X124677549Y-49517585D01*
X124947958Y-49336903D01*
X125248421Y-49212447D01*
X125354744Y-49191298D01*
X125567389Y-49149000D01*
X125892611Y-49149000D01*
X126105256Y-49191298D01*
X126105256Y-49191298D01*
G37*
G36*
X230245256Y-49191298D02*
G01*
X230351579Y-49212447D01*
X230652042Y-49336903D01*
X230922451Y-49517585D01*
X231152415Y-49747549D01*
X231333097Y-50017958D01*
X231457553Y-50318421D01*
X231470001Y-50381000D01*
X231521000Y-50637389D01*
X231521000Y-50962611D01*
X231516603Y-50984715D01*
X231457553Y-51281579D01*
X231333097Y-51582042D01*
X231152415Y-51852451D01*
X230922451Y-52082415D01*
X230652042Y-52263097D01*
X230652041Y-52263098D01*
X230652040Y-52263098D01*
X230569997Y-52297081D01*
X230351579Y-52387553D01*
X230245256Y-52408702D01*
X230032611Y-52451000D01*
X229707389Y-52451000D01*
X229494744Y-52408702D01*
X229388421Y-52387553D01*
X229170003Y-52297081D01*
X229087960Y-52263098D01*
X229087959Y-52263098D01*
X229087958Y-52263097D01*
X228817549Y-52082415D01*
X228587585Y-51852451D01*
X228406903Y-51582042D01*
X228282447Y-51281579D01*
X228223397Y-50984715D01*
X228219000Y-50962611D01*
X228219000Y-50637389D01*
X228269999Y-50381000D01*
X228282447Y-50318421D01*
X228406903Y-50017958D01*
X228587585Y-49747549D01*
X228817549Y-49517585D01*
X229087958Y-49336903D01*
X229388421Y-49212447D01*
X229494744Y-49191298D01*
X229707389Y-49149000D01*
X230032611Y-49149000D01*
X230245256Y-49191298D01*
X230245256Y-49191298D01*
G37*
G36*
X189480546Y-48872812D02*
G01*
X189644412Y-48940688D01*
X189644414Y-48940689D01*
X189791891Y-49039230D01*
X189917310Y-49164649D01*
X190010519Y-49304146D01*
X190015852Y-49312128D01*
X190083728Y-49475994D01*
X190118330Y-49649954D01*
X190118330Y-49827326D01*
X190083728Y-50001286D01*
X190015852Y-50165152D01*
X190015851Y-50165154D01*
X189917310Y-50312631D01*
X189791891Y-50438050D01*
X189644414Y-50536591D01*
X189644413Y-50536592D01*
X189644412Y-50536592D01*
X189480546Y-50604468D01*
X189306586Y-50639070D01*
X189129214Y-50639070D01*
X188955254Y-50604468D01*
X188791388Y-50536592D01*
X188791387Y-50536592D01*
X188791386Y-50536591D01*
X188643909Y-50438050D01*
X188518490Y-50312631D01*
X188419949Y-50165154D01*
X188419948Y-50165152D01*
X188352072Y-50001286D01*
X188317470Y-49827326D01*
X188317470Y-49649954D01*
X188352072Y-49475994D01*
X188419948Y-49312128D01*
X188425281Y-49304146D01*
X188518490Y-49164649D01*
X188643909Y-49039230D01*
X188791386Y-48940689D01*
X188791388Y-48940688D01*
X188955254Y-48872812D01*
X189129214Y-48838210D01*
X189306586Y-48838210D01*
X189480546Y-48872812D01*
X189480546Y-48872812D01*
G37*
G36*
X207237646Y-48864832D02*
G01*
X207401512Y-48932708D01*
X207401514Y-48932709D01*
X207548991Y-49031250D01*
X207674410Y-49156669D01*
X207772951Y-49304146D01*
X207772952Y-49304148D01*
X207840828Y-49468014D01*
X207875430Y-49641974D01*
X207875430Y-49819346D01*
X207840828Y-49993306D01*
X207782277Y-50134659D01*
X207772951Y-50157174D01*
X207674410Y-50304651D01*
X207548991Y-50430070D01*
X207401514Y-50528611D01*
X207401513Y-50528612D01*
X207401512Y-50528612D01*
X207237646Y-50596488D01*
X207063686Y-50631090D01*
X206886314Y-50631090D01*
X206712354Y-50596488D01*
X206548488Y-50528612D01*
X206548487Y-50528612D01*
X206548486Y-50528611D01*
X206401009Y-50430070D01*
X206275590Y-50304651D01*
X206177049Y-50157174D01*
X206167723Y-50134659D01*
X206109172Y-49993306D01*
X206074570Y-49819346D01*
X206074570Y-49641974D01*
X206109172Y-49468014D01*
X206177048Y-49304148D01*
X206177049Y-49304146D01*
X206275590Y-49156669D01*
X206401009Y-49031250D01*
X206548486Y-48932709D01*
X206548488Y-48932708D01*
X206712354Y-48864832D01*
X206886314Y-48830230D01*
X207063686Y-48830230D01*
X207237646Y-48864832D01*
X207237646Y-48864832D01*
G37*
G36*
X143676823Y-48691313D02*
G01*
X143837242Y-48739976D01*
X143969906Y-48810886D01*
X143985078Y-48818996D01*
X144114659Y-48925341D01*
X144221004Y-49054922D01*
X144221005Y-49054924D01*
X144300024Y-49202758D01*
X144348687Y-49363177D01*
X144365117Y-49530000D01*
X144348687Y-49696823D01*
X144300024Y-49857242D01*
X144229114Y-49989906D01*
X144221004Y-50005078D01*
X144114659Y-50134659D01*
X143985078Y-50241004D01*
X143985076Y-50241005D01*
X143837242Y-50320024D01*
X143676823Y-50368687D01*
X143551804Y-50381000D01*
X143468196Y-50381000D01*
X143343177Y-50368687D01*
X143182758Y-50320024D01*
X143034924Y-50241005D01*
X143034922Y-50241004D01*
X142905341Y-50134659D01*
X142798996Y-50005078D01*
X142790886Y-49989906D01*
X142719976Y-49857242D01*
X142671313Y-49696823D01*
X142654883Y-49530000D01*
X142671313Y-49363177D01*
X142719976Y-49202758D01*
X142798995Y-49054924D01*
X142798996Y-49054922D01*
X142905341Y-48925341D01*
X143034922Y-48818996D01*
X143050094Y-48810886D01*
X143182758Y-48739976D01*
X143343177Y-48691313D01*
X143468196Y-48679000D01*
X143551804Y-48679000D01*
X143676823Y-48691313D01*
X143676823Y-48691313D01*
G37*
G36*
X158916823Y-48691313D02*
G01*
X159077242Y-48739976D01*
X159209906Y-48810886D01*
X159225078Y-48818996D01*
X159354659Y-48925341D01*
X159461004Y-49054922D01*
X159461005Y-49054924D01*
X159540024Y-49202758D01*
X159588687Y-49363177D01*
X159605117Y-49530000D01*
X159588687Y-49696823D01*
X159540024Y-49857242D01*
X159469114Y-49989906D01*
X159461004Y-50005078D01*
X159354659Y-50134659D01*
X159225078Y-50241004D01*
X159225076Y-50241005D01*
X159077242Y-50320024D01*
X158916823Y-50368687D01*
X158791804Y-50381000D01*
X158708196Y-50381000D01*
X158583177Y-50368687D01*
X158422758Y-50320024D01*
X158274924Y-50241005D01*
X158274922Y-50241004D01*
X158145341Y-50134659D01*
X158038996Y-50005078D01*
X158030886Y-49989906D01*
X157959976Y-49857242D01*
X157911313Y-49696823D01*
X157894883Y-49530000D01*
X157911313Y-49363177D01*
X157959976Y-49202758D01*
X158038995Y-49054924D01*
X158038996Y-49054922D01*
X158145341Y-48925341D01*
X158274922Y-48818996D01*
X158290094Y-48810886D01*
X158422758Y-48739976D01*
X158583177Y-48691313D01*
X158708196Y-48679000D01*
X158791804Y-48679000D01*
X158916823Y-48691313D01*
X158916823Y-48691313D01*
G37*
G36*
X176696823Y-48691313D02*
G01*
X176857242Y-48739976D01*
X176989906Y-48810886D01*
X177005078Y-48818996D01*
X177134659Y-48925341D01*
X177241004Y-49054922D01*
X177241005Y-49054924D01*
X177320024Y-49202758D01*
X177368687Y-49363177D01*
X177385117Y-49530000D01*
X177368687Y-49696823D01*
X177320024Y-49857242D01*
X177249114Y-49989906D01*
X177241004Y-50005078D01*
X177134659Y-50134659D01*
X177005078Y-50241004D01*
X177005076Y-50241005D01*
X176857242Y-50320024D01*
X176696823Y-50368687D01*
X176571804Y-50381000D01*
X176488196Y-50381000D01*
X176363177Y-50368687D01*
X176202758Y-50320024D01*
X176054924Y-50241005D01*
X176054922Y-50241004D01*
X175925341Y-50134659D01*
X175818996Y-50005078D01*
X175810886Y-49989906D01*
X175739976Y-49857242D01*
X175691313Y-49696823D01*
X175674883Y-49530000D01*
X175691313Y-49363177D01*
X175739976Y-49202758D01*
X175818995Y-49054924D01*
X175818996Y-49054922D01*
X175925341Y-48925341D01*
X176054922Y-48818996D01*
X176070094Y-48810886D01*
X176202758Y-48739976D01*
X176363177Y-48691313D01*
X176488196Y-48679000D01*
X176571804Y-48679000D01*
X176696823Y-48691313D01*
X176696823Y-48691313D01*
G37*
G36*
X146216823Y-48691313D02*
G01*
X146377242Y-48739976D01*
X146509906Y-48810886D01*
X146525078Y-48818996D01*
X146654659Y-48925341D01*
X146761004Y-49054922D01*
X146761005Y-49054924D01*
X146840024Y-49202758D01*
X146888687Y-49363177D01*
X146905117Y-49530000D01*
X146888687Y-49696823D01*
X146840024Y-49857242D01*
X146769114Y-49989906D01*
X146761004Y-50005078D01*
X146654659Y-50134659D01*
X146525078Y-50241004D01*
X146525076Y-50241005D01*
X146377242Y-50320024D01*
X146216823Y-50368687D01*
X146091804Y-50381000D01*
X146008196Y-50381000D01*
X145883177Y-50368687D01*
X145722758Y-50320024D01*
X145574924Y-50241005D01*
X145574922Y-50241004D01*
X145445341Y-50134659D01*
X145338996Y-50005078D01*
X145330886Y-49989906D01*
X145259976Y-49857242D01*
X145211313Y-49696823D01*
X145194883Y-49530000D01*
X145211313Y-49363177D01*
X145259976Y-49202758D01*
X145338995Y-49054924D01*
X145338996Y-49054922D01*
X145445341Y-48925341D01*
X145574922Y-48818996D01*
X145590094Y-48810886D01*
X145722758Y-48739976D01*
X145883177Y-48691313D01*
X146008196Y-48679000D01*
X146091804Y-48679000D01*
X146216823Y-48691313D01*
X146216823Y-48691313D01*
G37*
G36*
X174156823Y-48691313D02*
G01*
X174317242Y-48739976D01*
X174449906Y-48810886D01*
X174465078Y-48818996D01*
X174594659Y-48925341D01*
X174701004Y-49054922D01*
X174701005Y-49054924D01*
X174780024Y-49202758D01*
X174828687Y-49363177D01*
X174845117Y-49530000D01*
X174828687Y-49696823D01*
X174780024Y-49857242D01*
X174709114Y-49989906D01*
X174701004Y-50005078D01*
X174594659Y-50134659D01*
X174465078Y-50241004D01*
X174465076Y-50241005D01*
X174317242Y-50320024D01*
X174156823Y-50368687D01*
X174031804Y-50381000D01*
X173948196Y-50381000D01*
X173823177Y-50368687D01*
X173662758Y-50320024D01*
X173514924Y-50241005D01*
X173514922Y-50241004D01*
X173385341Y-50134659D01*
X173278996Y-50005078D01*
X173270886Y-49989906D01*
X173199976Y-49857242D01*
X173151313Y-49696823D01*
X173134883Y-49530000D01*
X173151313Y-49363177D01*
X173199976Y-49202758D01*
X173278995Y-49054924D01*
X173278996Y-49054922D01*
X173385341Y-48925341D01*
X173514922Y-48818996D01*
X173530094Y-48810886D01*
X173662758Y-48739976D01*
X173823177Y-48691313D01*
X173948196Y-48679000D01*
X174031804Y-48679000D01*
X174156823Y-48691313D01*
X174156823Y-48691313D01*
G37*
G36*
X148756823Y-48691313D02*
G01*
X148917242Y-48739976D01*
X149049906Y-48810886D01*
X149065078Y-48818996D01*
X149194659Y-48925341D01*
X149301004Y-49054922D01*
X149301005Y-49054924D01*
X149380024Y-49202758D01*
X149428687Y-49363177D01*
X149445117Y-49530000D01*
X149428687Y-49696823D01*
X149380024Y-49857242D01*
X149309114Y-49989906D01*
X149301004Y-50005078D01*
X149194659Y-50134659D01*
X149065078Y-50241004D01*
X149065076Y-50241005D01*
X148917242Y-50320024D01*
X148756823Y-50368687D01*
X148631804Y-50381000D01*
X148548196Y-50381000D01*
X148423177Y-50368687D01*
X148262758Y-50320024D01*
X148114924Y-50241005D01*
X148114922Y-50241004D01*
X147985341Y-50134659D01*
X147878996Y-50005078D01*
X147870886Y-49989906D01*
X147799976Y-49857242D01*
X147751313Y-49696823D01*
X147734883Y-49530000D01*
X147751313Y-49363177D01*
X147799976Y-49202758D01*
X147878995Y-49054924D01*
X147878996Y-49054922D01*
X147985341Y-48925341D01*
X148114922Y-48818996D01*
X148130094Y-48810886D01*
X148262758Y-48739976D01*
X148423177Y-48691313D01*
X148548196Y-48679000D01*
X148631804Y-48679000D01*
X148756823Y-48691313D01*
X148756823Y-48691313D01*
G37*
G36*
X171616823Y-48691313D02*
G01*
X171777242Y-48739976D01*
X171909906Y-48810886D01*
X171925078Y-48818996D01*
X172054659Y-48925341D01*
X172161004Y-49054922D01*
X172161005Y-49054924D01*
X172240024Y-49202758D01*
X172288687Y-49363177D01*
X172305117Y-49530000D01*
X172288687Y-49696823D01*
X172240024Y-49857242D01*
X172169114Y-49989906D01*
X172161004Y-50005078D01*
X172054659Y-50134659D01*
X171925078Y-50241004D01*
X171925076Y-50241005D01*
X171777242Y-50320024D01*
X171616823Y-50368687D01*
X171491804Y-50381000D01*
X171408196Y-50381000D01*
X171283177Y-50368687D01*
X171122758Y-50320024D01*
X170974924Y-50241005D01*
X170974922Y-50241004D01*
X170845341Y-50134659D01*
X170738996Y-50005078D01*
X170730886Y-49989906D01*
X170659976Y-49857242D01*
X170611313Y-49696823D01*
X170594883Y-49530000D01*
X170611313Y-49363177D01*
X170659976Y-49202758D01*
X170738995Y-49054924D01*
X170738996Y-49054922D01*
X170845341Y-48925341D01*
X170974922Y-48818996D01*
X170990094Y-48810886D01*
X171122758Y-48739976D01*
X171283177Y-48691313D01*
X171408196Y-48679000D01*
X171491804Y-48679000D01*
X171616823Y-48691313D01*
X171616823Y-48691313D01*
G37*
G36*
X151296823Y-48691313D02*
G01*
X151457242Y-48739976D01*
X151589906Y-48810886D01*
X151605078Y-48818996D01*
X151734659Y-48925341D01*
X151841004Y-49054922D01*
X151841005Y-49054924D01*
X151920024Y-49202758D01*
X151968687Y-49363177D01*
X151985117Y-49530000D01*
X151968687Y-49696823D01*
X151920024Y-49857242D01*
X151849114Y-49989906D01*
X151841004Y-50005078D01*
X151734659Y-50134659D01*
X151605078Y-50241004D01*
X151605076Y-50241005D01*
X151457242Y-50320024D01*
X151296823Y-50368687D01*
X151171804Y-50381000D01*
X151088196Y-50381000D01*
X150963177Y-50368687D01*
X150802758Y-50320024D01*
X150654924Y-50241005D01*
X150654922Y-50241004D01*
X150525341Y-50134659D01*
X150418996Y-50005078D01*
X150410886Y-49989906D01*
X150339976Y-49857242D01*
X150291313Y-49696823D01*
X150274883Y-49530000D01*
X150291313Y-49363177D01*
X150339976Y-49202758D01*
X150418995Y-49054924D01*
X150418996Y-49054922D01*
X150525341Y-48925341D01*
X150654922Y-48818996D01*
X150670094Y-48810886D01*
X150802758Y-48739976D01*
X150963177Y-48691313D01*
X151088196Y-48679000D01*
X151171804Y-48679000D01*
X151296823Y-48691313D01*
X151296823Y-48691313D01*
G37*
G36*
X169076823Y-48691313D02*
G01*
X169237242Y-48739976D01*
X169369906Y-48810886D01*
X169385078Y-48818996D01*
X169514659Y-48925341D01*
X169621004Y-49054922D01*
X169621005Y-49054924D01*
X169700024Y-49202758D01*
X169748687Y-49363177D01*
X169765117Y-49530000D01*
X169748687Y-49696823D01*
X169700024Y-49857242D01*
X169629114Y-49989906D01*
X169621004Y-50005078D01*
X169514659Y-50134659D01*
X169385078Y-50241004D01*
X169385076Y-50241005D01*
X169237242Y-50320024D01*
X169076823Y-50368687D01*
X168951804Y-50381000D01*
X168868196Y-50381000D01*
X168743177Y-50368687D01*
X168582758Y-50320024D01*
X168434924Y-50241005D01*
X168434922Y-50241004D01*
X168305341Y-50134659D01*
X168198996Y-50005078D01*
X168190886Y-49989906D01*
X168119976Y-49857242D01*
X168071313Y-49696823D01*
X168054883Y-49530000D01*
X168071313Y-49363177D01*
X168119976Y-49202758D01*
X168198995Y-49054924D01*
X168198996Y-49054922D01*
X168305341Y-48925341D01*
X168434922Y-48818996D01*
X168450094Y-48810886D01*
X168582758Y-48739976D01*
X168743177Y-48691313D01*
X168868196Y-48679000D01*
X168951804Y-48679000D01*
X169076823Y-48691313D01*
X169076823Y-48691313D01*
G37*
G36*
X153836823Y-48691313D02*
G01*
X153997242Y-48739976D01*
X154129906Y-48810886D01*
X154145078Y-48818996D01*
X154274659Y-48925341D01*
X154381004Y-49054922D01*
X154381005Y-49054924D01*
X154460024Y-49202758D01*
X154508687Y-49363177D01*
X154525117Y-49530000D01*
X154508687Y-49696823D01*
X154460024Y-49857242D01*
X154389114Y-49989906D01*
X154381004Y-50005078D01*
X154274659Y-50134659D01*
X154145078Y-50241004D01*
X154145076Y-50241005D01*
X153997242Y-50320024D01*
X153836823Y-50368687D01*
X153711804Y-50381000D01*
X153628196Y-50381000D01*
X153503177Y-50368687D01*
X153342758Y-50320024D01*
X153194924Y-50241005D01*
X153194922Y-50241004D01*
X153065341Y-50134659D01*
X152958996Y-50005078D01*
X152950886Y-49989906D01*
X152879976Y-49857242D01*
X152831313Y-49696823D01*
X152814883Y-49530000D01*
X152831313Y-49363177D01*
X152879976Y-49202758D01*
X152958995Y-49054924D01*
X152958996Y-49054922D01*
X153065341Y-48925341D01*
X153194922Y-48818996D01*
X153210094Y-48810886D01*
X153342758Y-48739976D01*
X153503177Y-48691313D01*
X153628196Y-48679000D01*
X153711804Y-48679000D01*
X153836823Y-48691313D01*
X153836823Y-48691313D01*
G37*
G36*
X166536823Y-48691313D02*
G01*
X166697242Y-48739976D01*
X166829906Y-48810886D01*
X166845078Y-48818996D01*
X166974659Y-48925341D01*
X167081004Y-49054922D01*
X167081005Y-49054924D01*
X167160024Y-49202758D01*
X167208687Y-49363177D01*
X167225117Y-49530000D01*
X167208687Y-49696823D01*
X167160024Y-49857242D01*
X167089114Y-49989906D01*
X167081004Y-50005078D01*
X166974659Y-50134659D01*
X166845078Y-50241004D01*
X166845076Y-50241005D01*
X166697242Y-50320024D01*
X166536823Y-50368687D01*
X166411804Y-50381000D01*
X166328196Y-50381000D01*
X166203177Y-50368687D01*
X166042758Y-50320024D01*
X165894924Y-50241005D01*
X165894922Y-50241004D01*
X165765341Y-50134659D01*
X165658996Y-50005078D01*
X165650886Y-49989906D01*
X165579976Y-49857242D01*
X165531313Y-49696823D01*
X165514883Y-49530000D01*
X165531313Y-49363177D01*
X165579976Y-49202758D01*
X165658995Y-49054924D01*
X165658996Y-49054922D01*
X165765341Y-48925341D01*
X165894922Y-48818996D01*
X165910094Y-48810886D01*
X166042758Y-48739976D01*
X166203177Y-48691313D01*
X166328196Y-48679000D01*
X166411804Y-48679000D01*
X166536823Y-48691313D01*
X166536823Y-48691313D01*
G37*
G36*
X156376823Y-48691313D02*
G01*
X156537242Y-48739976D01*
X156669906Y-48810886D01*
X156685078Y-48818996D01*
X156814659Y-48925341D01*
X156921004Y-49054922D01*
X156921005Y-49054924D01*
X157000024Y-49202758D01*
X157048687Y-49363177D01*
X157065117Y-49530000D01*
X157048687Y-49696823D01*
X157000024Y-49857242D01*
X156929114Y-49989906D01*
X156921004Y-50005078D01*
X156814659Y-50134659D01*
X156685078Y-50241004D01*
X156685076Y-50241005D01*
X156537242Y-50320024D01*
X156376823Y-50368687D01*
X156251804Y-50381000D01*
X156168196Y-50381000D01*
X156043177Y-50368687D01*
X155882758Y-50320024D01*
X155734924Y-50241005D01*
X155734922Y-50241004D01*
X155605341Y-50134659D01*
X155498996Y-50005078D01*
X155490886Y-49989906D01*
X155419976Y-49857242D01*
X155371313Y-49696823D01*
X155354883Y-49530000D01*
X155371313Y-49363177D01*
X155419976Y-49202758D01*
X155498995Y-49054924D01*
X155498996Y-49054922D01*
X155605341Y-48925341D01*
X155734922Y-48818996D01*
X155750094Y-48810886D01*
X155882758Y-48739976D01*
X156043177Y-48691313D01*
X156168196Y-48679000D01*
X156251804Y-48679000D01*
X156376823Y-48691313D01*
X156376823Y-48691313D01*
G37*
G36*
X163996823Y-48691313D02*
G01*
X164157242Y-48739976D01*
X164289906Y-48810886D01*
X164305078Y-48818996D01*
X164434659Y-48925341D01*
X164541004Y-49054922D01*
X164541005Y-49054924D01*
X164620024Y-49202758D01*
X164668687Y-49363177D01*
X164685117Y-49530000D01*
X164668687Y-49696823D01*
X164620024Y-49857242D01*
X164549114Y-49989906D01*
X164541004Y-50005078D01*
X164434659Y-50134659D01*
X164305078Y-50241004D01*
X164305076Y-50241005D01*
X164157242Y-50320024D01*
X163996823Y-50368687D01*
X163871804Y-50381000D01*
X163788196Y-50381000D01*
X163663177Y-50368687D01*
X163502758Y-50320024D01*
X163354924Y-50241005D01*
X163354922Y-50241004D01*
X163225341Y-50134659D01*
X163118996Y-50005078D01*
X163110886Y-49989906D01*
X163039976Y-49857242D01*
X162991313Y-49696823D01*
X162974883Y-49530000D01*
X162991313Y-49363177D01*
X163039976Y-49202758D01*
X163118995Y-49054924D01*
X163118996Y-49054922D01*
X163225341Y-48925341D01*
X163354922Y-48818996D01*
X163370094Y-48810886D01*
X163502758Y-48739976D01*
X163663177Y-48691313D01*
X163788196Y-48679000D01*
X163871804Y-48679000D01*
X163996823Y-48691313D01*
X163996823Y-48691313D01*
G37*
G36*
X161456823Y-48691313D02*
G01*
X161617242Y-48739976D01*
X161749906Y-48810886D01*
X161765078Y-48818996D01*
X161894659Y-48925341D01*
X162001004Y-49054922D01*
X162001005Y-49054924D01*
X162080024Y-49202758D01*
X162128687Y-49363177D01*
X162145117Y-49530000D01*
X162128687Y-49696823D01*
X162080024Y-49857242D01*
X162009114Y-49989906D01*
X162001004Y-50005078D01*
X161894659Y-50134659D01*
X161765078Y-50241004D01*
X161765076Y-50241005D01*
X161617242Y-50320024D01*
X161456823Y-50368687D01*
X161331804Y-50381000D01*
X161248196Y-50381000D01*
X161123177Y-50368687D01*
X160962758Y-50320024D01*
X160814924Y-50241005D01*
X160814922Y-50241004D01*
X160685341Y-50134659D01*
X160578996Y-50005078D01*
X160570886Y-49989906D01*
X160499976Y-49857242D01*
X160451313Y-49696823D01*
X160434883Y-49530000D01*
X160451313Y-49363177D01*
X160499976Y-49202758D01*
X160578995Y-49054924D01*
X160578996Y-49054922D01*
X160685341Y-48925341D01*
X160814922Y-48818996D01*
X160830094Y-48810886D01*
X160962758Y-48739976D01*
X161123177Y-48691313D01*
X161248196Y-48679000D01*
X161331804Y-48679000D01*
X161456823Y-48691313D01*
X161456823Y-48691313D01*
G37*
G36*
X189431507Y-46572477D02*
G01*
X189492029Y-46584516D01*
X189663062Y-46655360D01*
X189816987Y-46758210D01*
X189947890Y-46889113D01*
X190050740Y-47043038D01*
X190118279Y-47206091D01*
X190121584Y-47214072D01*
X190156113Y-47387656D01*
X190157700Y-47395638D01*
X190157700Y-47580762D01*
X190123172Y-47754348D01*
X190121584Y-47762328D01*
X190054046Y-47925382D01*
X190050740Y-47933362D01*
X189947890Y-48087287D01*
X189816987Y-48218190D01*
X189663062Y-48321040D01*
X189492029Y-48391884D01*
X189431507Y-48403923D01*
X189310464Y-48428000D01*
X189125336Y-48428000D01*
X189004293Y-48403923D01*
X188943771Y-48391884D01*
X188772738Y-48321040D01*
X188618813Y-48218190D01*
X188487910Y-48087287D01*
X188385060Y-47933362D01*
X188381755Y-47925382D01*
X188314216Y-47762328D01*
X188312629Y-47754348D01*
X188278100Y-47580762D01*
X188278100Y-47395638D01*
X188279688Y-47387656D01*
X188314216Y-47214072D01*
X188317522Y-47206091D01*
X188385060Y-47043038D01*
X188487910Y-46889113D01*
X188618813Y-46758210D01*
X188772738Y-46655360D01*
X188943771Y-46584516D01*
X189004293Y-46572477D01*
X189125336Y-46548400D01*
X189310464Y-46548400D01*
X189431507Y-46572477D01*
X189431507Y-46572477D01*
G37*
G36*
X207188607Y-46564497D02*
G01*
X207249129Y-46576536D01*
X207420162Y-46647380D01*
X207574087Y-46750230D01*
X207704990Y-46881133D01*
X207807841Y-47035060D01*
X207811146Y-47043040D01*
X207878684Y-47206091D01*
X207890723Y-47266613D01*
X207914800Y-47387656D01*
X207914800Y-47572784D01*
X207890723Y-47693827D01*
X207878684Y-47754349D01*
X207807840Y-47925382D01*
X207704990Y-48079307D01*
X207574087Y-48210210D01*
X207420162Y-48313060D01*
X207249129Y-48383904D01*
X207209011Y-48391884D01*
X207067564Y-48420020D01*
X206882436Y-48420020D01*
X206740989Y-48391884D01*
X206700871Y-48383904D01*
X206529838Y-48313060D01*
X206375913Y-48210210D01*
X206245010Y-48079307D01*
X206142160Y-47925382D01*
X206071316Y-47754349D01*
X206059277Y-47693827D01*
X206035200Y-47572784D01*
X206035200Y-47387656D01*
X206059277Y-47266613D01*
X206071316Y-47206091D01*
X206138854Y-47043040D01*
X206142159Y-47035060D01*
X206245010Y-46881133D01*
X206375913Y-46750230D01*
X206529838Y-46647380D01*
X206700871Y-46576536D01*
X206761393Y-46564497D01*
X206882436Y-46540420D01*
X207067564Y-46540420D01*
X207188607Y-46564497D01*
X207188607Y-46564497D01*
G37*
M02*
