G04 #@! TF.GenerationSoftware,KiCad,Pcbnew,(5.1.4-0)*
G04 #@! TF.CreationDate,2020-05-08T12:10:25+02:00*
G04 #@! TF.ProjectId,RPi_Teleco_PCB,5250695f-5465-46c6-9563-6f5f5043422e,rev?*
G04 #@! TF.SameCoordinates,Original*
G04 #@! TF.FileFunction,Legend,Top*
G04 #@! TF.FilePolarity,Positive*
%FSLAX46Y46*%
G04 Gerber Fmt 4.6, Leading zero omitted, Abs format (unit mm)*
G04 Created by KiCad (PCBNEW (5.1.4-0)) date 2020-05-08 12:10:25*
%MOMM*%
%LPD*%
G04 APERTURE LIST*
%ADD10C,0.120000*%
%ADD11C,0.150000*%
%ADD12C,0.203200*%
%ADD13C,0.304800*%
%ADD14C,0.899160*%
%ADD15C,0.127000*%
%ADD16C,0.152400*%
%ADD17C,0.330200*%
G04 APERTURE END LIST*
D10*
X150780000Y-98500000D02*
X150780000Y-67500000D01*
X209780000Y-98500000D02*
X150780000Y-98500000D01*
X209780000Y-67500000D02*
X209780000Y-98500000D01*
X150780000Y-67500000D02*
X209780000Y-67500000D01*
D11*
X125222857Y-60289761D02*
X124556190Y-59337380D01*
X124080000Y-60289761D02*
X124080000Y-58289761D01*
X124841904Y-58289761D01*
X125032380Y-58385000D01*
X125127619Y-58480238D01*
X125222857Y-58670714D01*
X125222857Y-58956428D01*
X125127619Y-59146904D01*
X125032380Y-59242142D01*
X124841904Y-59337380D01*
X124080000Y-59337380D01*
X126080000Y-60289761D02*
X126080000Y-58289761D01*
X126841904Y-58289761D01*
X127032380Y-58385000D01*
X127127619Y-58480238D01*
X127222857Y-58670714D01*
X127222857Y-58956428D01*
X127127619Y-59146904D01*
X127032380Y-59242142D01*
X126841904Y-59337380D01*
X126080000Y-59337380D01*
X128080000Y-60289761D02*
X128080000Y-58956428D01*
X128080000Y-58289761D02*
X127984761Y-58385000D01*
X128080000Y-58480238D01*
X128175238Y-58385000D01*
X128080000Y-58289761D01*
X128080000Y-58480238D01*
X129032380Y-59527857D02*
X130556190Y-59527857D01*
X131222857Y-58289761D02*
X132365714Y-58289761D01*
X131794285Y-60289761D02*
X131794285Y-58289761D01*
X133794285Y-60194523D02*
X133603809Y-60289761D01*
X133222857Y-60289761D01*
X133032380Y-60194523D01*
X132937142Y-60004047D01*
X132937142Y-59242142D01*
X133032380Y-59051666D01*
X133222857Y-58956428D01*
X133603809Y-58956428D01*
X133794285Y-59051666D01*
X133889523Y-59242142D01*
X133889523Y-59432619D01*
X132937142Y-59623095D01*
X135032380Y-60289761D02*
X134841904Y-60194523D01*
X134746666Y-60004047D01*
X134746666Y-58289761D01*
X136556190Y-60194523D02*
X136365714Y-60289761D01*
X135984761Y-60289761D01*
X135794285Y-60194523D01*
X135699047Y-60004047D01*
X135699047Y-59242142D01*
X135794285Y-59051666D01*
X135984761Y-58956428D01*
X136365714Y-58956428D01*
X136556190Y-59051666D01*
X136651428Y-59242142D01*
X136651428Y-59432619D01*
X135699047Y-59623095D01*
X138365714Y-60194523D02*
X138175238Y-60289761D01*
X137794285Y-60289761D01*
X137603809Y-60194523D01*
X137508571Y-60099285D01*
X137413333Y-59908809D01*
X137413333Y-59337380D01*
X137508571Y-59146904D01*
X137603809Y-59051666D01*
X137794285Y-58956428D01*
X138175238Y-58956428D01*
X138365714Y-59051666D01*
X139508571Y-60289761D02*
X139318095Y-60194523D01*
X139222857Y-60099285D01*
X139127619Y-59908809D01*
X139127619Y-59337380D01*
X139222857Y-59146904D01*
X139318095Y-59051666D01*
X139508571Y-58956428D01*
X139794285Y-58956428D01*
X139984761Y-59051666D01*
X140080000Y-59146904D01*
X140175238Y-59337380D01*
X140175238Y-59908809D01*
X140080000Y-60099285D01*
X139984761Y-60194523D01*
X139794285Y-60289761D01*
X139508571Y-60289761D01*
X123889523Y-63439761D02*
X123889523Y-61439761D01*
X125032380Y-63439761D02*
X124175238Y-62296904D01*
X125032380Y-61439761D02*
X123889523Y-62582619D01*
X125699047Y-61439761D02*
X127032380Y-63439761D01*
X127032380Y-61439761D02*
X125699047Y-63439761D01*
X127794285Y-63439761D02*
X127794285Y-61439761D01*
X128937142Y-63439761D02*
X128080000Y-62296904D01*
X128937142Y-61439761D02*
X127794285Y-62582619D01*
X129794285Y-63439761D02*
X129794285Y-61439761D01*
X130460952Y-62868333D01*
X131127619Y-61439761D01*
X131127619Y-63439761D01*
X133508571Y-61630238D02*
X133603809Y-61535000D01*
X133794285Y-61439761D01*
X134270476Y-61439761D01*
X134460952Y-61535000D01*
X134556190Y-61630238D01*
X134651428Y-61820714D01*
X134651428Y-62011190D01*
X134556190Y-62296904D01*
X133413333Y-63439761D01*
X134651428Y-63439761D01*
X135889523Y-61439761D02*
X136080000Y-61439761D01*
X136270476Y-61535000D01*
X136365714Y-61630238D01*
X136460952Y-61820714D01*
X136556190Y-62201666D01*
X136556190Y-62677857D01*
X136460952Y-63058809D01*
X136365714Y-63249285D01*
X136270476Y-63344523D01*
X136080000Y-63439761D01*
X135889523Y-63439761D01*
X135699047Y-63344523D01*
X135603809Y-63249285D01*
X135508571Y-63058809D01*
X135413333Y-62677857D01*
X135413333Y-62201666D01*
X135508571Y-61820714D01*
X135603809Y-61630238D01*
X135699047Y-61535000D01*
X135889523Y-61439761D01*
X137318095Y-61630238D02*
X137413333Y-61535000D01*
X137603809Y-61439761D01*
X138080000Y-61439761D01*
X138270476Y-61535000D01*
X138365714Y-61630238D01*
X138460952Y-61820714D01*
X138460952Y-62011190D01*
X138365714Y-62296904D01*
X137222857Y-63439761D01*
X138460952Y-63439761D01*
X139699047Y-61439761D02*
X139889523Y-61439761D01*
X140080000Y-61535000D01*
X140175238Y-61630238D01*
X140270476Y-61820714D01*
X140365714Y-62201666D01*
X140365714Y-62677857D01*
X140270476Y-63058809D01*
X140175238Y-63249285D01*
X140080000Y-63344523D01*
X139889523Y-63439761D01*
X139699047Y-63439761D01*
X139508571Y-63344523D01*
X139413333Y-63249285D01*
X139318095Y-63058809D01*
X139222857Y-62677857D01*
X139222857Y-62201666D01*
X139318095Y-61820714D01*
X139413333Y-61630238D01*
X139508571Y-61535000D01*
X139699047Y-61439761D01*
X167742857Y-83721428D02*
X167814285Y-83650000D01*
X167957142Y-83578571D01*
X168314285Y-83578571D01*
X168457142Y-83650000D01*
X168528571Y-83721428D01*
X168600000Y-83864285D01*
X168600000Y-84007142D01*
X168528571Y-84221428D01*
X167671428Y-85078571D01*
X168600000Y-85078571D01*
X169242857Y-84935714D02*
X169314285Y-85007142D01*
X169242857Y-85078571D01*
X169171428Y-85007142D01*
X169242857Y-84935714D01*
X169242857Y-85078571D01*
X170600000Y-84078571D02*
X170600000Y-85078571D01*
X170242857Y-83507142D02*
X169885714Y-84578571D01*
X170814285Y-84578571D01*
X171314285Y-83721428D02*
X171385714Y-83650000D01*
X171528571Y-83578571D01*
X171885714Y-83578571D01*
X172028571Y-83650000D01*
X172100000Y-83721428D01*
X172171428Y-83864285D01*
X172171428Y-84007142D01*
X172100000Y-84221428D01*
X171242857Y-85078571D01*
X172171428Y-85078571D01*
X172885714Y-83578571D02*
X172885714Y-83650000D01*
X172814285Y-83792857D01*
X172742857Y-83864285D01*
X173600000Y-83578571D02*
X173600000Y-83650000D01*
X173528571Y-83792857D01*
X173457142Y-83864285D01*
X175671428Y-83578571D02*
X175957142Y-83578571D01*
X176100000Y-83650000D01*
X176242857Y-83792857D01*
X176314285Y-84078571D01*
X176314285Y-84578571D01*
X176242857Y-84864285D01*
X176100000Y-85007142D01*
X175957142Y-85078571D01*
X175671428Y-85078571D01*
X175528571Y-85007142D01*
X175385714Y-84864285D01*
X175314285Y-84578571D01*
X175314285Y-84078571D01*
X175385714Y-83792857D01*
X175528571Y-83650000D01*
X175671428Y-83578571D01*
X177671428Y-85078571D02*
X176957142Y-85078571D01*
X176957142Y-83578571D01*
X178171428Y-84292857D02*
X178671428Y-84292857D01*
X178885714Y-85078571D02*
X178171428Y-85078571D01*
X178171428Y-83578571D01*
X178885714Y-83578571D01*
X179528571Y-85078571D02*
X179528571Y-83578571D01*
X179885714Y-83578571D01*
X180100000Y-83650000D01*
X180242857Y-83792857D01*
X180314285Y-83935714D01*
X180385714Y-84221428D01*
X180385714Y-84435714D01*
X180314285Y-84721428D01*
X180242857Y-84864285D01*
X180100000Y-85007142D01*
X179885714Y-85078571D01*
X179528571Y-85078571D01*
X182171428Y-85078571D02*
X182171428Y-83578571D01*
X182528571Y-83578571D01*
X182742857Y-83650000D01*
X182885714Y-83792857D01*
X182957142Y-83935714D01*
X183028571Y-84221428D01*
X183028571Y-84435714D01*
X182957142Y-84721428D01*
X182885714Y-84864285D01*
X182742857Y-85007142D01*
X182528571Y-85078571D01*
X182171428Y-85078571D01*
X183671428Y-85078571D02*
X183671428Y-83578571D01*
X184314285Y-85007142D02*
X184528571Y-85078571D01*
X184885714Y-85078571D01*
X185028571Y-85007142D01*
X185100000Y-84935714D01*
X185171428Y-84792857D01*
X185171428Y-84650000D01*
X185100000Y-84507142D01*
X185028571Y-84435714D01*
X184885714Y-84364285D01*
X184600000Y-84292857D01*
X184457142Y-84221428D01*
X184385714Y-84150000D01*
X184314285Y-84007142D01*
X184314285Y-83864285D01*
X184385714Y-83721428D01*
X184457142Y-83650000D01*
X184600000Y-83578571D01*
X184957142Y-83578571D01*
X185171428Y-83650000D01*
X185814285Y-85078571D02*
X185814285Y-83578571D01*
X186385714Y-83578571D01*
X186528571Y-83650000D01*
X186600000Y-83721428D01*
X186671428Y-83864285D01*
X186671428Y-84078571D01*
X186600000Y-84221428D01*
X186528571Y-84292857D01*
X186385714Y-84364285D01*
X185814285Y-84364285D01*
X188028571Y-85078571D02*
X187314285Y-85078571D01*
X187314285Y-83578571D01*
X188457142Y-84650000D02*
X189171428Y-84650000D01*
X188314285Y-85078571D02*
X188814285Y-83578571D01*
X189314285Y-85078571D01*
X190100000Y-84364285D02*
X190100000Y-85078571D01*
X189600000Y-83578571D02*
X190100000Y-84364285D01*
X190600000Y-83578571D01*
D10*
X215900000Y-106680000D02*
X215900000Y-63500000D01*
X144780000Y-106680000D02*
X215900000Y-106680000D01*
X144780000Y-63500000D02*
X144780000Y-106680000D01*
X215900000Y-63500000D02*
X144780000Y-63500000D01*
D12*
X183218420Y-50239020D02*
X183218420Y-49388120D01*
X184369040Y-48237500D02*
X194066760Y-48237500D01*
X195217380Y-49388120D02*
X195217380Y-50239020D01*
X195217380Y-53238760D02*
X195217380Y-55235200D01*
X195217380Y-58234940D02*
X195217380Y-59085840D01*
X194066760Y-60236460D02*
X184369040Y-60236460D01*
X183218420Y-59085840D02*
X183218420Y-58234940D01*
X183218420Y-55235200D02*
X183218420Y-53238760D01*
X194066760Y-48237500D02*
X195217380Y-49388120D01*
X183218420Y-49388120D02*
X184369040Y-48237500D01*
X184369040Y-60236460D02*
X183218420Y-59085840D01*
X195217380Y-59085840D02*
X194066760Y-60236460D01*
X195217380Y-53238760D02*
X194216620Y-53238760D01*
X194216620Y-53238760D02*
X194216620Y-50239020D01*
X194216620Y-50239020D02*
X195217380Y-50239020D01*
X195217380Y-55235200D02*
X194216620Y-55235200D01*
X194216620Y-55235200D02*
X194216620Y-58234940D01*
X194216620Y-58234940D02*
X195217380Y-58234940D01*
D13*
X189852900Y-53601980D02*
X188582900Y-53601980D01*
X188582900Y-53601980D02*
X189217900Y-54871980D01*
X189217900Y-54871980D02*
X189852900Y-53601980D01*
X189852900Y-54871980D02*
X189217900Y-54871980D01*
X189217900Y-54871980D02*
X188582900Y-54871980D01*
D12*
X192715480Y-54236980D02*
G75*
G03X192715480Y-54236980I-3497580J0D01*
G01*
D14*
X185618720Y-50239020D02*
G75*
G03X185618720Y-50239020I-398780J0D01*
G01*
X193614640Y-50239020D02*
G75*
G03X193614640Y-50239020I-398780J0D01*
G01*
X193614640Y-58234940D02*
G75*
G03X193614640Y-58234940I-398780J0D01*
G01*
X185618720Y-58234940D02*
G75*
G03X185618720Y-58234940I-398780J0D01*
G01*
D12*
X183205120Y-111965740D02*
X183205120Y-111114840D01*
X184355740Y-109964220D02*
X194053460Y-109964220D01*
X195204080Y-111114840D02*
X195204080Y-111965740D01*
X195204080Y-114965480D02*
X195204080Y-116961920D01*
X195204080Y-119961660D02*
X195204080Y-120812560D01*
X194053460Y-121963180D02*
X184355740Y-121963180D01*
X183205120Y-120812560D02*
X183205120Y-119961660D01*
X183205120Y-116961920D02*
X183205120Y-114965480D01*
X194053460Y-109964220D02*
X195204080Y-111114840D01*
X183205120Y-111114840D02*
X184355740Y-109964220D01*
X184355740Y-121963180D02*
X183205120Y-120812560D01*
X195204080Y-120812560D02*
X194053460Y-121963180D01*
X195204080Y-114965480D02*
X194203320Y-114965480D01*
X194203320Y-114965480D02*
X194203320Y-111965740D01*
X194203320Y-111965740D02*
X195204080Y-111965740D01*
X195204080Y-116961920D02*
X194203320Y-116961920D01*
X194203320Y-116961920D02*
X194203320Y-119961660D01*
X194203320Y-119961660D02*
X195204080Y-119961660D01*
D13*
X189839600Y-115328700D02*
X188569600Y-115328700D01*
X188569600Y-115328700D02*
X189204600Y-116598700D01*
X189204600Y-116598700D02*
X189839600Y-115328700D01*
X189839600Y-116598700D02*
X189204600Y-116598700D01*
X189204600Y-116598700D02*
X188569600Y-116598700D01*
D12*
X192702180Y-115963700D02*
G75*
G03X192702180Y-115963700I-3497580J0D01*
G01*
D14*
X185605420Y-111965740D02*
G75*
G03X185605420Y-111965740I-398780J0D01*
G01*
X193601340Y-111965740D02*
G75*
G03X193601340Y-111965740I-398780J0D01*
G01*
X193601340Y-119961660D02*
G75*
G03X193601340Y-119961660I-398780J0D01*
G01*
X185605420Y-119961660D02*
G75*
G03X185605420Y-119961660I-398780J0D01*
G01*
D10*
X171390000Y-63870000D02*
X171390000Y-66530000D01*
X186690000Y-63870000D02*
X171390000Y-63870000D01*
X186690000Y-66530000D02*
X171390000Y-66530000D01*
X186690000Y-63870000D02*
X186690000Y-66530000D01*
X187960000Y-63870000D02*
X189290000Y-63870000D01*
X189290000Y-63870000D02*
X189290000Y-65200000D01*
X133880000Y-104830000D02*
X130280000Y-104830000D01*
X133918478Y-104841522D02*
G75*
G02X132080000Y-109280000I-1838478J-1838478D01*
G01*
X130241522Y-104841522D02*
G75*
G03X132080000Y-109280000I1838478J-1838478D01*
G01*
D12*
X147670520Y-111953040D02*
X147670520Y-111102140D01*
X148821140Y-109951520D02*
X158518860Y-109951520D01*
X159669480Y-111102140D02*
X159669480Y-111953040D01*
X159669480Y-114952780D02*
X159669480Y-116949220D01*
X159669480Y-119948960D02*
X159669480Y-120799860D01*
X158518860Y-121950480D02*
X148821140Y-121950480D01*
X147670520Y-120799860D02*
X147670520Y-119948960D01*
X147670520Y-116949220D02*
X147670520Y-114952780D01*
X158518860Y-109951520D02*
X159669480Y-111102140D01*
X147670520Y-111102140D02*
X148821140Y-109951520D01*
X148821140Y-121950480D02*
X147670520Y-120799860D01*
X159669480Y-120799860D02*
X158518860Y-121950480D01*
X159669480Y-114952780D02*
X158668720Y-114952780D01*
X158668720Y-114952780D02*
X158668720Y-111953040D01*
X158668720Y-111953040D02*
X159669480Y-111953040D01*
X159669480Y-116949220D02*
X158668720Y-116949220D01*
X158668720Y-116949220D02*
X158668720Y-119948960D01*
X158668720Y-119948960D02*
X159669480Y-119948960D01*
D13*
X154305000Y-115316000D02*
X153035000Y-115316000D01*
X153035000Y-115316000D02*
X153670000Y-116586000D01*
X153670000Y-116586000D02*
X154305000Y-115316000D01*
X154305000Y-116586000D02*
X153670000Y-116586000D01*
X153670000Y-116586000D02*
X153035000Y-116586000D01*
D12*
X157167580Y-115951000D02*
G75*
G03X157167580Y-115951000I-3497580J0D01*
G01*
D14*
X150070820Y-111953040D02*
G75*
G03X150070820Y-111953040I-398780J0D01*
G01*
X158066740Y-111953040D02*
G75*
G03X158066740Y-111953040I-398780J0D01*
G01*
X158066740Y-119948960D02*
G75*
G03X158066740Y-119948960I-398780J0D01*
G01*
X150070820Y-119948960D02*
G75*
G03X150070820Y-119948960I-398780J0D01*
G01*
X167850820Y-119974360D02*
G75*
G03X167850820Y-119974360I-398780J0D01*
G01*
X175846740Y-119974360D02*
G75*
G03X175846740Y-119974360I-398780J0D01*
G01*
X175846740Y-111978440D02*
G75*
G03X175846740Y-111978440I-398780J0D01*
G01*
X167850820Y-111978440D02*
G75*
G03X167850820Y-111978440I-398780J0D01*
G01*
D12*
X174947580Y-115976400D02*
G75*
G03X174947580Y-115976400I-3497580J0D01*
G01*
D13*
X171450000Y-116611400D02*
X170815000Y-116611400D01*
X172085000Y-116611400D02*
X171450000Y-116611400D01*
X171450000Y-116611400D02*
X172085000Y-115341400D01*
X170815000Y-115341400D02*
X171450000Y-116611400D01*
X172085000Y-115341400D02*
X170815000Y-115341400D01*
D12*
X176448720Y-119974360D02*
X177449480Y-119974360D01*
X176448720Y-116974620D02*
X176448720Y-119974360D01*
X177449480Y-116974620D02*
X176448720Y-116974620D01*
X176448720Y-111978440D02*
X177449480Y-111978440D01*
X176448720Y-114978180D02*
X176448720Y-111978440D01*
X177449480Y-114978180D02*
X176448720Y-114978180D01*
X177449480Y-120825260D02*
X176298860Y-121975880D01*
X166601140Y-121975880D02*
X165450520Y-120825260D01*
X165450520Y-111127540D02*
X166601140Y-109976920D01*
X176298860Y-109976920D02*
X177449480Y-111127540D01*
X165450520Y-116974620D02*
X165450520Y-114978180D01*
X165450520Y-120825260D02*
X165450520Y-119974360D01*
X176298860Y-121975880D02*
X166601140Y-121975880D01*
X177449480Y-119974360D02*
X177449480Y-120825260D01*
X177449480Y-114978180D02*
X177449480Y-116974620D01*
X177449480Y-111127540D02*
X177449480Y-111978440D01*
X166601140Y-109976920D02*
X176298860Y-109976920D01*
X165450520Y-111978440D02*
X165450520Y-111127540D01*
D14*
X203410820Y-119974360D02*
G75*
G03X203410820Y-119974360I-398780J0D01*
G01*
X211406740Y-119974360D02*
G75*
G03X211406740Y-119974360I-398780J0D01*
G01*
X211406740Y-111978440D02*
G75*
G03X211406740Y-111978440I-398780J0D01*
G01*
X203410820Y-111978440D02*
G75*
G03X203410820Y-111978440I-398780J0D01*
G01*
D12*
X210507580Y-115976400D02*
G75*
G03X210507580Y-115976400I-3497580J0D01*
G01*
D13*
X207010000Y-116611400D02*
X206375000Y-116611400D01*
X207645000Y-116611400D02*
X207010000Y-116611400D01*
X207010000Y-116611400D02*
X207645000Y-115341400D01*
X206375000Y-115341400D02*
X207010000Y-116611400D01*
X207645000Y-115341400D02*
X206375000Y-115341400D01*
D12*
X212008720Y-119974360D02*
X213009480Y-119974360D01*
X212008720Y-116974620D02*
X212008720Y-119974360D01*
X213009480Y-116974620D02*
X212008720Y-116974620D01*
X212008720Y-111978440D02*
X213009480Y-111978440D01*
X212008720Y-114978180D02*
X212008720Y-111978440D01*
X213009480Y-114978180D02*
X212008720Y-114978180D01*
X213009480Y-120825260D02*
X211858860Y-121975880D01*
X202161140Y-121975880D02*
X201010520Y-120825260D01*
X201010520Y-111127540D02*
X202161140Y-109976920D01*
X211858860Y-109976920D02*
X213009480Y-111127540D01*
X201010520Y-116974620D02*
X201010520Y-114978180D01*
X201010520Y-120825260D02*
X201010520Y-119974360D01*
X211858860Y-121975880D02*
X202161140Y-121975880D01*
X213009480Y-119974360D02*
X213009480Y-120825260D01*
X213009480Y-114978180D02*
X213009480Y-116974620D01*
X213009480Y-111127540D02*
X213009480Y-111978440D01*
X202161140Y-109976920D02*
X211858860Y-109976920D01*
X201010520Y-111978440D02*
X201010520Y-111127540D01*
D14*
X203375820Y-58226960D02*
G75*
G03X203375820Y-58226960I-398780J0D01*
G01*
X211371740Y-58226960D02*
G75*
G03X211371740Y-58226960I-398780J0D01*
G01*
X211371740Y-50231040D02*
G75*
G03X211371740Y-50231040I-398780J0D01*
G01*
X203375820Y-50231040D02*
G75*
G03X203375820Y-50231040I-398780J0D01*
G01*
D12*
X210472580Y-54229000D02*
G75*
G03X210472580Y-54229000I-3497580J0D01*
G01*
D13*
X206975000Y-54864000D02*
X206340000Y-54864000D01*
X207610000Y-54864000D02*
X206975000Y-54864000D01*
X206975000Y-54864000D02*
X207610000Y-53594000D01*
X206340000Y-53594000D02*
X206975000Y-54864000D01*
X207610000Y-53594000D02*
X206340000Y-53594000D01*
D12*
X211973720Y-58226960D02*
X212974480Y-58226960D01*
X211973720Y-55227220D02*
X211973720Y-58226960D01*
X212974480Y-55227220D02*
X211973720Y-55227220D01*
X211973720Y-50231040D02*
X212974480Y-50231040D01*
X211973720Y-53230780D02*
X211973720Y-50231040D01*
X212974480Y-53230780D02*
X211973720Y-53230780D01*
X212974480Y-59077860D02*
X211823860Y-60228480D01*
X202126140Y-60228480D02*
X200975520Y-59077860D01*
X200975520Y-49380140D02*
X202126140Y-48229520D01*
X211823860Y-48229520D02*
X212974480Y-49380140D01*
X200975520Y-55227220D02*
X200975520Y-53230780D01*
X200975520Y-59077860D02*
X200975520Y-58226960D01*
X211823860Y-60228480D02*
X202126140Y-60228480D01*
X212974480Y-58226960D02*
X212974480Y-59077860D01*
X212974480Y-53230780D02*
X212974480Y-55227220D01*
X212974480Y-49380140D02*
X212974480Y-50231040D01*
X202126140Y-48229520D02*
X211823860Y-48229520D01*
X200975520Y-50231040D02*
X200975520Y-49380140D01*
X220060520Y-73472040D02*
X220060520Y-72621140D01*
X221211140Y-71470520D02*
X230908860Y-71470520D01*
X232059480Y-72621140D02*
X232059480Y-73472040D01*
X232059480Y-76471780D02*
X232059480Y-78468220D01*
X232059480Y-81467960D02*
X232059480Y-82318860D01*
X230908860Y-83469480D02*
X221211140Y-83469480D01*
X220060520Y-82318860D02*
X220060520Y-81467960D01*
X220060520Y-78468220D02*
X220060520Y-76471780D01*
X230908860Y-71470520D02*
X232059480Y-72621140D01*
X220060520Y-72621140D02*
X221211140Y-71470520D01*
X221211140Y-83469480D02*
X220060520Y-82318860D01*
X232059480Y-82318860D02*
X230908860Y-83469480D01*
X232059480Y-76471780D02*
X231058720Y-76471780D01*
X231058720Y-76471780D02*
X231058720Y-73472040D01*
X231058720Y-73472040D02*
X232059480Y-73472040D01*
X232059480Y-78468220D02*
X231058720Y-78468220D01*
X231058720Y-78468220D02*
X231058720Y-81467960D01*
X231058720Y-81467960D02*
X232059480Y-81467960D01*
D13*
X226695000Y-76835000D02*
X225425000Y-76835000D01*
X225425000Y-76835000D02*
X226060000Y-78105000D01*
X226060000Y-78105000D02*
X226695000Y-76835000D01*
X226695000Y-78105000D02*
X226060000Y-78105000D01*
X226060000Y-78105000D02*
X225425000Y-78105000D01*
D12*
X229557580Y-77470000D02*
G75*
G03X229557580Y-77470000I-3497580J0D01*
G01*
D14*
X222460820Y-73472040D02*
G75*
G03X222460820Y-73472040I-398780J0D01*
G01*
X230456740Y-73472040D02*
G75*
G03X230456740Y-73472040I-398780J0D01*
G01*
X230456740Y-81467960D02*
G75*
G03X230456740Y-81467960I-398780J0D01*
G01*
X222460820Y-81467960D02*
G75*
G03X222460820Y-81467960I-398780J0D01*
G01*
X222460820Y-99755960D02*
G75*
G03X222460820Y-99755960I-398780J0D01*
G01*
X230456740Y-99755960D02*
G75*
G03X230456740Y-99755960I-398780J0D01*
G01*
X230456740Y-91760040D02*
G75*
G03X230456740Y-91760040I-398780J0D01*
G01*
X222460820Y-91760040D02*
G75*
G03X222460820Y-91760040I-398780J0D01*
G01*
D12*
X229557580Y-95758000D02*
G75*
G03X229557580Y-95758000I-3497580J0D01*
G01*
D13*
X226060000Y-96393000D02*
X225425000Y-96393000D01*
X226695000Y-96393000D02*
X226060000Y-96393000D01*
X226060000Y-96393000D02*
X226695000Y-95123000D01*
X225425000Y-95123000D02*
X226060000Y-96393000D01*
X226695000Y-95123000D02*
X225425000Y-95123000D01*
D12*
X231058720Y-99755960D02*
X232059480Y-99755960D01*
X231058720Y-96756220D02*
X231058720Y-99755960D01*
X232059480Y-96756220D02*
X231058720Y-96756220D01*
X231058720Y-91760040D02*
X232059480Y-91760040D01*
X231058720Y-94759780D02*
X231058720Y-91760040D01*
X232059480Y-94759780D02*
X231058720Y-94759780D01*
X232059480Y-100606860D02*
X230908860Y-101757480D01*
X221211140Y-101757480D02*
X220060520Y-100606860D01*
X220060520Y-90909140D02*
X221211140Y-89758520D01*
X230908860Y-89758520D02*
X232059480Y-90909140D01*
X220060520Y-96756220D02*
X220060520Y-94759780D01*
X220060520Y-100606860D02*
X220060520Y-99755960D01*
X230908860Y-101757480D02*
X221211140Y-101757480D01*
X232059480Y-99755960D02*
X232059480Y-100606860D01*
X232059480Y-94759780D02*
X232059480Y-96756220D01*
X232059480Y-90909140D02*
X232059480Y-91760040D01*
X221211140Y-89758520D02*
X230908860Y-89758520D01*
X220060520Y-91760040D02*
X220060520Y-90909140D01*
D10*
X142180000Y-52340000D02*
G75*
G02X142180000Y-54340000I0J-1000000D01*
G01*
X142180000Y-54340000D02*
X142180000Y-55990000D01*
X142180000Y-55990000D02*
X177860000Y-55990000D01*
X177860000Y-55990000D02*
X177860000Y-50690000D01*
X177860000Y-50690000D02*
X142180000Y-50690000D01*
X142180000Y-50690000D02*
X142180000Y-52340000D01*
D15*
X190752785Y-47828922D02*
X190839871Y-47857951D01*
X190985014Y-47857951D01*
X191043071Y-47828922D01*
X191072100Y-47799894D01*
X191101128Y-47741837D01*
X191101128Y-47683780D01*
X191072100Y-47625722D01*
X191043071Y-47596694D01*
X190985014Y-47567665D01*
X190868900Y-47538637D01*
X190810842Y-47509608D01*
X190781814Y-47480580D01*
X190752785Y-47422522D01*
X190752785Y-47364465D01*
X190781814Y-47306408D01*
X190810842Y-47277380D01*
X190868900Y-47248351D01*
X191014042Y-47248351D01*
X191101128Y-47277380D01*
X191304328Y-47451551D02*
X191420442Y-47857951D01*
X191536557Y-47567665D01*
X191652671Y-47857951D01*
X191768785Y-47451551D01*
X192001014Y-47857951D02*
X192001014Y-47451551D01*
X192001014Y-47248351D02*
X191971985Y-47277380D01*
X192001014Y-47306408D01*
X192030042Y-47277380D01*
X192001014Y-47248351D01*
X192001014Y-47306408D01*
X192204214Y-47451551D02*
X192436442Y-47451551D01*
X192291300Y-47248351D02*
X192291300Y-47770865D01*
X192320328Y-47828922D01*
X192378385Y-47857951D01*
X192436442Y-47857951D01*
X192900900Y-47828922D02*
X192842842Y-47857951D01*
X192726728Y-47857951D01*
X192668671Y-47828922D01*
X192639642Y-47799894D01*
X192610614Y-47741837D01*
X192610614Y-47567665D01*
X192639642Y-47509608D01*
X192668671Y-47480580D01*
X192726728Y-47451551D01*
X192842842Y-47451551D01*
X192900900Y-47480580D01*
X193162157Y-47857951D02*
X193162157Y-47248351D01*
X193423414Y-47857951D02*
X193423414Y-47538637D01*
X193394385Y-47480580D01*
X193336328Y-47451551D01*
X193249242Y-47451551D01*
X193191185Y-47480580D01*
X193162157Y-47509608D01*
X194003985Y-47248351D02*
X193713700Y-47248351D01*
X193684671Y-47538637D01*
X193713700Y-47509608D01*
X193771757Y-47480580D01*
X193916900Y-47480580D01*
X193974957Y-47509608D01*
X194003985Y-47538637D01*
X194033014Y-47596694D01*
X194033014Y-47741837D01*
X194003985Y-47799894D01*
X193974957Y-47828922D01*
X193916900Y-47857951D01*
X193771757Y-47857951D01*
X193713700Y-47828922D01*
X193684671Y-47799894D01*
D16*
X185218125Y-52189619D02*
X184637554Y-52189619D01*
X184927840Y-52189619D02*
X184927840Y-51173619D01*
X184831078Y-51318761D01*
X184734316Y-51415523D01*
X184637554Y-51463904D01*
X193433574Y-51270380D02*
X193481955Y-51222000D01*
X193578717Y-51173619D01*
X193820621Y-51173619D01*
X193917383Y-51222000D01*
X193965764Y-51270380D01*
X194014145Y-51367142D01*
X194014145Y-51463904D01*
X193965764Y-51609047D01*
X193385193Y-52189619D01*
X194014145Y-52189619D01*
X184589173Y-56172339D02*
X185218125Y-56172339D01*
X184879459Y-56559386D01*
X185024601Y-56559386D01*
X185121363Y-56607767D01*
X185169744Y-56656148D01*
X185218125Y-56752910D01*
X185218125Y-56994815D01*
X185169744Y-57091577D01*
X185121363Y-57139958D01*
X185024601Y-57188339D01*
X184734316Y-57188339D01*
X184637554Y-57139958D01*
X184589173Y-57091577D01*
X193917383Y-56511005D02*
X193917383Y-57188339D01*
X193675479Y-56123958D02*
X193433574Y-56849672D01*
X194062526Y-56849672D01*
D17*
X188551815Y-51979827D02*
X190214184Y-51979827D01*
X189383000Y-52811011D02*
X189383000Y-51148642D01*
X188501015Y-56780427D02*
X190163384Y-56780427D01*
D15*
X190739485Y-109555642D02*
X190826571Y-109584671D01*
X190971714Y-109584671D01*
X191029771Y-109555642D01*
X191058800Y-109526614D01*
X191087828Y-109468557D01*
X191087828Y-109410500D01*
X191058800Y-109352442D01*
X191029771Y-109323414D01*
X190971714Y-109294385D01*
X190855600Y-109265357D01*
X190797542Y-109236328D01*
X190768514Y-109207300D01*
X190739485Y-109149242D01*
X190739485Y-109091185D01*
X190768514Y-109033128D01*
X190797542Y-109004100D01*
X190855600Y-108975071D01*
X191000742Y-108975071D01*
X191087828Y-109004100D01*
X191291028Y-109178271D02*
X191407142Y-109584671D01*
X191523257Y-109294385D01*
X191639371Y-109584671D01*
X191755485Y-109178271D01*
X191987714Y-109584671D02*
X191987714Y-109178271D01*
X191987714Y-108975071D02*
X191958685Y-109004100D01*
X191987714Y-109033128D01*
X192016742Y-109004100D01*
X191987714Y-108975071D01*
X191987714Y-109033128D01*
X192190914Y-109178271D02*
X192423142Y-109178271D01*
X192278000Y-108975071D02*
X192278000Y-109497585D01*
X192307028Y-109555642D01*
X192365085Y-109584671D01*
X192423142Y-109584671D01*
X192887600Y-109555642D02*
X192829542Y-109584671D01*
X192713428Y-109584671D01*
X192655371Y-109555642D01*
X192626342Y-109526614D01*
X192597314Y-109468557D01*
X192597314Y-109294385D01*
X192626342Y-109236328D01*
X192655371Y-109207300D01*
X192713428Y-109178271D01*
X192829542Y-109178271D01*
X192887600Y-109207300D01*
X193148857Y-109584671D02*
X193148857Y-108975071D01*
X193410114Y-109584671D02*
X193410114Y-109265357D01*
X193381085Y-109207300D01*
X193323028Y-109178271D01*
X193235942Y-109178271D01*
X193177885Y-109207300D01*
X193148857Y-109236328D01*
X193642342Y-108975071D02*
X194019714Y-108975071D01*
X193816514Y-109207300D01*
X193903600Y-109207300D01*
X193961657Y-109236328D01*
X193990685Y-109265357D01*
X194019714Y-109323414D01*
X194019714Y-109468557D01*
X193990685Y-109526614D01*
X193961657Y-109555642D01*
X193903600Y-109584671D01*
X193729428Y-109584671D01*
X193671371Y-109555642D01*
X193642342Y-109526614D01*
D16*
X185204825Y-113916339D02*
X184624254Y-113916339D01*
X184914540Y-113916339D02*
X184914540Y-112900339D01*
X184817778Y-113045481D01*
X184721016Y-113142243D01*
X184624254Y-113190624D01*
X193420274Y-112997100D02*
X193468655Y-112948720D01*
X193565417Y-112900339D01*
X193807321Y-112900339D01*
X193904083Y-112948720D01*
X193952464Y-112997100D01*
X194000845Y-113093862D01*
X194000845Y-113190624D01*
X193952464Y-113335767D01*
X193371893Y-113916339D01*
X194000845Y-113916339D01*
X184575873Y-117899059D02*
X185204825Y-117899059D01*
X184866159Y-118286106D01*
X185011301Y-118286106D01*
X185108063Y-118334487D01*
X185156444Y-118382868D01*
X185204825Y-118479630D01*
X185204825Y-118721535D01*
X185156444Y-118818297D01*
X185108063Y-118866678D01*
X185011301Y-118915059D01*
X184721016Y-118915059D01*
X184624254Y-118866678D01*
X184575873Y-118818297D01*
X193904083Y-118237725D02*
X193904083Y-118915059D01*
X193662179Y-117850678D02*
X193420274Y-118576392D01*
X194049226Y-118576392D01*
D17*
X188538515Y-113706547D02*
X190200884Y-113706547D01*
X189369700Y-114537731D02*
X189369700Y-112875362D01*
X188487715Y-118507147D02*
X190150084Y-118507147D01*
D11*
X124920476Y-55452380D02*
X124920476Y-54452380D01*
X125253809Y-55166666D01*
X125587142Y-54452380D01*
X125587142Y-55452380D01*
X125968095Y-54452380D02*
X126587142Y-54452380D01*
X126253809Y-54833333D01*
X126396666Y-54833333D01*
X126491904Y-54880952D01*
X126539523Y-54928571D01*
X126587142Y-55023809D01*
X126587142Y-55261904D01*
X126539523Y-55357142D01*
X126491904Y-55404761D01*
X126396666Y-55452380D01*
X126110952Y-55452380D01*
X126015714Y-55404761D01*
X125968095Y-55357142D01*
X124920476Y-115632380D02*
X124920476Y-114632380D01*
X125253809Y-115346666D01*
X125587142Y-114632380D01*
X125587142Y-115632380D01*
X125968095Y-114632380D02*
X126587142Y-114632380D01*
X126253809Y-115013333D01*
X126396666Y-115013333D01*
X126491904Y-115060952D01*
X126539523Y-115108571D01*
X126587142Y-115203809D01*
X126587142Y-115441904D01*
X126539523Y-115537142D01*
X126491904Y-115584761D01*
X126396666Y-115632380D01*
X126110952Y-115632380D01*
X126015714Y-115584761D01*
X125968095Y-115537142D01*
X229060476Y-115632380D02*
X229060476Y-114632380D01*
X229393809Y-115346666D01*
X229727142Y-114632380D01*
X229727142Y-115632380D01*
X230108095Y-114632380D02*
X230727142Y-114632380D01*
X230393809Y-115013333D01*
X230536666Y-115013333D01*
X230631904Y-115060952D01*
X230679523Y-115108571D01*
X230727142Y-115203809D01*
X230727142Y-115441904D01*
X230679523Y-115537142D01*
X230631904Y-115584761D01*
X230536666Y-115632380D01*
X230250952Y-115632380D01*
X230155714Y-115584761D01*
X230108095Y-115537142D01*
X229060476Y-55452380D02*
X229060476Y-54452380D01*
X229393809Y-55166666D01*
X229727142Y-54452380D01*
X229727142Y-55452380D01*
X230108095Y-54452380D02*
X230727142Y-54452380D01*
X230393809Y-54833333D01*
X230536666Y-54833333D01*
X230631904Y-54880952D01*
X230679523Y-54928571D01*
X230727142Y-55023809D01*
X230727142Y-55261904D01*
X230679523Y-55357142D01*
X230631904Y-55404761D01*
X230536666Y-55452380D01*
X230250952Y-55452380D01*
X230155714Y-55404761D01*
X230108095Y-55357142D01*
X145748476Y-101154380D02*
X145748476Y-100154380D01*
X146081809Y-100868666D01*
X146415142Y-100154380D01*
X146415142Y-101154380D01*
X146796095Y-100154380D02*
X147415142Y-100154380D01*
X147081809Y-100535333D01*
X147224666Y-100535333D01*
X147319904Y-100582952D01*
X147367523Y-100630571D01*
X147415142Y-100725809D01*
X147415142Y-100963904D01*
X147367523Y-101059142D01*
X147319904Y-101106761D01*
X147224666Y-101154380D01*
X146938952Y-101154380D01*
X146843714Y-101106761D01*
X146796095Y-101059142D01*
X213312476Y-101154380D02*
X213312476Y-100154380D01*
X213645809Y-100868666D01*
X213979142Y-100154380D01*
X213979142Y-101154380D01*
X214360095Y-100154380D02*
X214979142Y-100154380D01*
X214645809Y-100535333D01*
X214788666Y-100535333D01*
X214883904Y-100582952D01*
X214931523Y-100630571D01*
X214979142Y-100725809D01*
X214979142Y-100963904D01*
X214931523Y-101059142D01*
X214883904Y-101106761D01*
X214788666Y-101154380D01*
X214502952Y-101154380D01*
X214407714Y-101106761D01*
X214360095Y-101059142D01*
X189742380Y-65533333D02*
X190456666Y-65533333D01*
X190599523Y-65580952D01*
X190694761Y-65676190D01*
X190742380Y-65819047D01*
X190742380Y-65914285D01*
X190742380Y-64533333D02*
X190742380Y-65104761D01*
X190742380Y-64819047D02*
X189742380Y-64819047D01*
X189885238Y-64914285D01*
X189980476Y-65009523D01*
X190028095Y-65104761D01*
X131984761Y-110787619D02*
X131889523Y-110740000D01*
X131794285Y-110644761D01*
X131651428Y-110501904D01*
X131556190Y-110454285D01*
X131460952Y-110454285D01*
X131508571Y-110692380D02*
X131413333Y-110644761D01*
X131318095Y-110549523D01*
X131270476Y-110359047D01*
X131270476Y-110025714D01*
X131318095Y-109835238D01*
X131413333Y-109740000D01*
X131508571Y-109692380D01*
X131699047Y-109692380D01*
X131794285Y-109740000D01*
X131889523Y-109835238D01*
X131937142Y-110025714D01*
X131937142Y-110359047D01*
X131889523Y-110549523D01*
X131794285Y-110644761D01*
X131699047Y-110692380D01*
X131508571Y-110692380D01*
X132889523Y-110692380D02*
X132318095Y-110692380D01*
X132603809Y-110692380D02*
X132603809Y-109692380D01*
X132508571Y-109835238D01*
X132413333Y-109930476D01*
X132318095Y-109978095D01*
D15*
X155204885Y-109542942D02*
X155291971Y-109571971D01*
X155437114Y-109571971D01*
X155495171Y-109542942D01*
X155524200Y-109513914D01*
X155553228Y-109455857D01*
X155553228Y-109397800D01*
X155524200Y-109339742D01*
X155495171Y-109310714D01*
X155437114Y-109281685D01*
X155321000Y-109252657D01*
X155262942Y-109223628D01*
X155233914Y-109194600D01*
X155204885Y-109136542D01*
X155204885Y-109078485D01*
X155233914Y-109020428D01*
X155262942Y-108991400D01*
X155321000Y-108962371D01*
X155466142Y-108962371D01*
X155553228Y-108991400D01*
X155756428Y-109165571D02*
X155872542Y-109571971D01*
X155988657Y-109281685D01*
X156104771Y-109571971D01*
X156220885Y-109165571D01*
X156453114Y-109571971D02*
X156453114Y-109165571D01*
X156453114Y-108962371D02*
X156424085Y-108991400D01*
X156453114Y-109020428D01*
X156482142Y-108991400D01*
X156453114Y-108962371D01*
X156453114Y-109020428D01*
X156656314Y-109165571D02*
X156888542Y-109165571D01*
X156743400Y-108962371D02*
X156743400Y-109484885D01*
X156772428Y-109542942D01*
X156830485Y-109571971D01*
X156888542Y-109571971D01*
X157353000Y-109542942D02*
X157294942Y-109571971D01*
X157178828Y-109571971D01*
X157120771Y-109542942D01*
X157091742Y-109513914D01*
X157062714Y-109455857D01*
X157062714Y-109281685D01*
X157091742Y-109223628D01*
X157120771Y-109194600D01*
X157178828Y-109165571D01*
X157294942Y-109165571D01*
X157353000Y-109194600D01*
X157614257Y-109571971D02*
X157614257Y-108962371D01*
X157875514Y-109571971D02*
X157875514Y-109252657D01*
X157846485Y-109194600D01*
X157788428Y-109165571D01*
X157701342Y-109165571D01*
X157643285Y-109194600D01*
X157614257Y-109223628D01*
X158485114Y-109571971D02*
X158136771Y-109571971D01*
X158310942Y-109571971D02*
X158310942Y-108962371D01*
X158252885Y-109049457D01*
X158194828Y-109107514D01*
X158136771Y-109136542D01*
D16*
X149670225Y-113903639D02*
X149089654Y-113903639D01*
X149379940Y-113903639D02*
X149379940Y-112887639D01*
X149283178Y-113032781D01*
X149186416Y-113129543D01*
X149089654Y-113177924D01*
X157885674Y-112984400D02*
X157934055Y-112936020D01*
X158030817Y-112887639D01*
X158272721Y-112887639D01*
X158369483Y-112936020D01*
X158417864Y-112984400D01*
X158466245Y-113081162D01*
X158466245Y-113177924D01*
X158417864Y-113323067D01*
X157837293Y-113903639D01*
X158466245Y-113903639D01*
X149041273Y-117886359D02*
X149670225Y-117886359D01*
X149331559Y-118273406D01*
X149476701Y-118273406D01*
X149573463Y-118321787D01*
X149621844Y-118370168D01*
X149670225Y-118466930D01*
X149670225Y-118708835D01*
X149621844Y-118805597D01*
X149573463Y-118853978D01*
X149476701Y-118902359D01*
X149186416Y-118902359D01*
X149089654Y-118853978D01*
X149041273Y-118805597D01*
X158369483Y-118225025D02*
X158369483Y-118902359D01*
X158127579Y-117837978D02*
X157885674Y-118563692D01*
X158514626Y-118563692D01*
D17*
X153003915Y-113693847D02*
X154666284Y-113693847D01*
X153835100Y-114525031D02*
X153835100Y-112862662D01*
X152953115Y-118494447D02*
X154615484Y-118494447D01*
D15*
X172984885Y-109568342D02*
X173071971Y-109597371D01*
X173217114Y-109597371D01*
X173275171Y-109568342D01*
X173304200Y-109539314D01*
X173333228Y-109481257D01*
X173333228Y-109423200D01*
X173304200Y-109365142D01*
X173275171Y-109336114D01*
X173217114Y-109307085D01*
X173101000Y-109278057D01*
X173042942Y-109249028D01*
X173013914Y-109220000D01*
X172984885Y-109161942D01*
X172984885Y-109103885D01*
X173013914Y-109045828D01*
X173042942Y-109016800D01*
X173101000Y-108987771D01*
X173246142Y-108987771D01*
X173333228Y-109016800D01*
X173536428Y-109190971D02*
X173652542Y-109597371D01*
X173768657Y-109307085D01*
X173884771Y-109597371D01*
X174000885Y-109190971D01*
X174233114Y-109597371D02*
X174233114Y-109190971D01*
X174233114Y-108987771D02*
X174204085Y-109016800D01*
X174233114Y-109045828D01*
X174262142Y-109016800D01*
X174233114Y-108987771D01*
X174233114Y-109045828D01*
X174436314Y-109190971D02*
X174668542Y-109190971D01*
X174523400Y-108987771D02*
X174523400Y-109510285D01*
X174552428Y-109568342D01*
X174610485Y-109597371D01*
X174668542Y-109597371D01*
X175133000Y-109568342D02*
X175074942Y-109597371D01*
X174958828Y-109597371D01*
X174900771Y-109568342D01*
X174871742Y-109539314D01*
X174842714Y-109481257D01*
X174842714Y-109307085D01*
X174871742Y-109249028D01*
X174900771Y-109220000D01*
X174958828Y-109190971D01*
X175074942Y-109190971D01*
X175133000Y-109220000D01*
X175394257Y-109597371D02*
X175394257Y-108987771D01*
X175655514Y-109597371D02*
X175655514Y-109278057D01*
X175626485Y-109220000D01*
X175568428Y-109190971D01*
X175481342Y-109190971D01*
X175423285Y-109220000D01*
X175394257Y-109249028D01*
X175916771Y-109045828D02*
X175945800Y-109016800D01*
X176003857Y-108987771D01*
X176149000Y-108987771D01*
X176207057Y-109016800D01*
X176236085Y-109045828D01*
X176265114Y-109103885D01*
X176265114Y-109161942D01*
X176236085Y-109249028D01*
X175887742Y-109597371D01*
X176265114Y-109597371D01*
D17*
X170733115Y-118519847D02*
X172395484Y-118519847D01*
X170783915Y-113719247D02*
X172446284Y-113719247D01*
X171615100Y-114550431D02*
X171615100Y-112888062D01*
D16*
X176149483Y-118250425D02*
X176149483Y-118927759D01*
X175907579Y-117863378D02*
X175665674Y-118589092D01*
X176294626Y-118589092D01*
X166821273Y-117911759D02*
X167450225Y-117911759D01*
X167111559Y-118298806D01*
X167256701Y-118298806D01*
X167353463Y-118347187D01*
X167401844Y-118395568D01*
X167450225Y-118492330D01*
X167450225Y-118734235D01*
X167401844Y-118830997D01*
X167353463Y-118879378D01*
X167256701Y-118927759D01*
X166966416Y-118927759D01*
X166869654Y-118879378D01*
X166821273Y-118830997D01*
X175665674Y-113009800D02*
X175714055Y-112961420D01*
X175810817Y-112913039D01*
X176052721Y-112913039D01*
X176149483Y-112961420D01*
X176197864Y-113009800D01*
X176246245Y-113106562D01*
X176246245Y-113203324D01*
X176197864Y-113348467D01*
X175617293Y-113929039D01*
X176246245Y-113929039D01*
X167450225Y-113929039D02*
X166869654Y-113929039D01*
X167159940Y-113929039D02*
X167159940Y-112913039D01*
X167063178Y-113058181D01*
X166966416Y-113154943D01*
X166869654Y-113203324D01*
D15*
X208544885Y-109568342D02*
X208631971Y-109597371D01*
X208777114Y-109597371D01*
X208835171Y-109568342D01*
X208864200Y-109539314D01*
X208893228Y-109481257D01*
X208893228Y-109423200D01*
X208864200Y-109365142D01*
X208835171Y-109336114D01*
X208777114Y-109307085D01*
X208661000Y-109278057D01*
X208602942Y-109249028D01*
X208573914Y-109220000D01*
X208544885Y-109161942D01*
X208544885Y-109103885D01*
X208573914Y-109045828D01*
X208602942Y-109016800D01*
X208661000Y-108987771D01*
X208806142Y-108987771D01*
X208893228Y-109016800D01*
X209096428Y-109190971D02*
X209212542Y-109597371D01*
X209328657Y-109307085D01*
X209444771Y-109597371D01*
X209560885Y-109190971D01*
X209793114Y-109597371D02*
X209793114Y-109190971D01*
X209793114Y-108987771D02*
X209764085Y-109016800D01*
X209793114Y-109045828D01*
X209822142Y-109016800D01*
X209793114Y-108987771D01*
X209793114Y-109045828D01*
X209996314Y-109190971D02*
X210228542Y-109190971D01*
X210083400Y-108987771D02*
X210083400Y-109510285D01*
X210112428Y-109568342D01*
X210170485Y-109597371D01*
X210228542Y-109597371D01*
X210693000Y-109568342D02*
X210634942Y-109597371D01*
X210518828Y-109597371D01*
X210460771Y-109568342D01*
X210431742Y-109539314D01*
X210402714Y-109481257D01*
X210402714Y-109307085D01*
X210431742Y-109249028D01*
X210460771Y-109220000D01*
X210518828Y-109190971D01*
X210634942Y-109190971D01*
X210693000Y-109220000D01*
X210954257Y-109597371D02*
X210954257Y-108987771D01*
X211215514Y-109597371D02*
X211215514Y-109278057D01*
X211186485Y-109220000D01*
X211128428Y-109190971D01*
X211041342Y-109190971D01*
X210983285Y-109220000D01*
X210954257Y-109249028D01*
X211767057Y-109190971D02*
X211767057Y-109597371D01*
X211621914Y-108958742D02*
X211476771Y-109394171D01*
X211854142Y-109394171D01*
D17*
X206293115Y-118519847D02*
X207955484Y-118519847D01*
X206343915Y-113719247D02*
X208006284Y-113719247D01*
X207175100Y-114550431D02*
X207175100Y-112888062D01*
D16*
X211709483Y-118250425D02*
X211709483Y-118927759D01*
X211467579Y-117863378D02*
X211225674Y-118589092D01*
X211854626Y-118589092D01*
X202381273Y-117911759D02*
X203010225Y-117911759D01*
X202671559Y-118298806D01*
X202816701Y-118298806D01*
X202913463Y-118347187D01*
X202961844Y-118395568D01*
X203010225Y-118492330D01*
X203010225Y-118734235D01*
X202961844Y-118830997D01*
X202913463Y-118879378D01*
X202816701Y-118927759D01*
X202526416Y-118927759D01*
X202429654Y-118879378D01*
X202381273Y-118830997D01*
X211225674Y-113009800D02*
X211274055Y-112961420D01*
X211370817Y-112913039D01*
X211612721Y-112913039D01*
X211709483Y-112961420D01*
X211757864Y-113009800D01*
X211806245Y-113106562D01*
X211806245Y-113203324D01*
X211757864Y-113348467D01*
X211177293Y-113929039D01*
X211806245Y-113929039D01*
X203010225Y-113929039D02*
X202429654Y-113929039D01*
X202719940Y-113929039D02*
X202719940Y-112913039D01*
X202623178Y-113058181D01*
X202526416Y-113154943D01*
X202429654Y-113203324D01*
D15*
X208509885Y-47820942D02*
X208596971Y-47849971D01*
X208742114Y-47849971D01*
X208800171Y-47820942D01*
X208829200Y-47791914D01*
X208858228Y-47733857D01*
X208858228Y-47675800D01*
X208829200Y-47617742D01*
X208800171Y-47588714D01*
X208742114Y-47559685D01*
X208626000Y-47530657D01*
X208567942Y-47501628D01*
X208538914Y-47472600D01*
X208509885Y-47414542D01*
X208509885Y-47356485D01*
X208538914Y-47298428D01*
X208567942Y-47269400D01*
X208626000Y-47240371D01*
X208771142Y-47240371D01*
X208858228Y-47269400D01*
X209061428Y-47443571D02*
X209177542Y-47849971D01*
X209293657Y-47559685D01*
X209409771Y-47849971D01*
X209525885Y-47443571D01*
X209758114Y-47849971D02*
X209758114Y-47443571D01*
X209758114Y-47240371D02*
X209729085Y-47269400D01*
X209758114Y-47298428D01*
X209787142Y-47269400D01*
X209758114Y-47240371D01*
X209758114Y-47298428D01*
X209961314Y-47443571D02*
X210193542Y-47443571D01*
X210048400Y-47240371D02*
X210048400Y-47762885D01*
X210077428Y-47820942D01*
X210135485Y-47849971D01*
X210193542Y-47849971D01*
X210658000Y-47820942D02*
X210599942Y-47849971D01*
X210483828Y-47849971D01*
X210425771Y-47820942D01*
X210396742Y-47791914D01*
X210367714Y-47733857D01*
X210367714Y-47559685D01*
X210396742Y-47501628D01*
X210425771Y-47472600D01*
X210483828Y-47443571D01*
X210599942Y-47443571D01*
X210658000Y-47472600D01*
X210919257Y-47849971D02*
X210919257Y-47240371D01*
X211180514Y-47849971D02*
X211180514Y-47530657D01*
X211151485Y-47472600D01*
X211093428Y-47443571D01*
X211006342Y-47443571D01*
X210948285Y-47472600D01*
X210919257Y-47501628D01*
X211732057Y-47240371D02*
X211615942Y-47240371D01*
X211557885Y-47269400D01*
X211528857Y-47298428D01*
X211470800Y-47385514D01*
X211441771Y-47501628D01*
X211441771Y-47733857D01*
X211470800Y-47791914D01*
X211499828Y-47820942D01*
X211557885Y-47849971D01*
X211674000Y-47849971D01*
X211732057Y-47820942D01*
X211761085Y-47791914D01*
X211790114Y-47733857D01*
X211790114Y-47588714D01*
X211761085Y-47530657D01*
X211732057Y-47501628D01*
X211674000Y-47472600D01*
X211557885Y-47472600D01*
X211499828Y-47501628D01*
X211470800Y-47530657D01*
X211441771Y-47588714D01*
D17*
X206258115Y-56772447D02*
X207920484Y-56772447D01*
X206308915Y-51971847D02*
X207971284Y-51971847D01*
X207140100Y-52803031D02*
X207140100Y-51140662D01*
D16*
X211674483Y-56503025D02*
X211674483Y-57180359D01*
X211432579Y-56115978D02*
X211190674Y-56841692D01*
X211819626Y-56841692D01*
X202346273Y-56164359D02*
X202975225Y-56164359D01*
X202636559Y-56551406D01*
X202781701Y-56551406D01*
X202878463Y-56599787D01*
X202926844Y-56648168D01*
X202975225Y-56744930D01*
X202975225Y-56986835D01*
X202926844Y-57083597D01*
X202878463Y-57131978D01*
X202781701Y-57180359D01*
X202491416Y-57180359D01*
X202394654Y-57131978D01*
X202346273Y-57083597D01*
X211190674Y-51262400D02*
X211239055Y-51214020D01*
X211335817Y-51165639D01*
X211577721Y-51165639D01*
X211674483Y-51214020D01*
X211722864Y-51262400D01*
X211771245Y-51359162D01*
X211771245Y-51455924D01*
X211722864Y-51601067D01*
X211142293Y-52181639D01*
X211771245Y-52181639D01*
X202975225Y-52181639D02*
X202394654Y-52181639D01*
X202684940Y-52181639D02*
X202684940Y-51165639D01*
X202588178Y-51310781D01*
X202491416Y-51407543D01*
X202394654Y-51455924D01*
D15*
X227594885Y-71061942D02*
X227681971Y-71090971D01*
X227827114Y-71090971D01*
X227885171Y-71061942D01*
X227914200Y-71032914D01*
X227943228Y-70974857D01*
X227943228Y-70916800D01*
X227914200Y-70858742D01*
X227885171Y-70829714D01*
X227827114Y-70800685D01*
X227711000Y-70771657D01*
X227652942Y-70742628D01*
X227623914Y-70713600D01*
X227594885Y-70655542D01*
X227594885Y-70597485D01*
X227623914Y-70539428D01*
X227652942Y-70510400D01*
X227711000Y-70481371D01*
X227856142Y-70481371D01*
X227943228Y-70510400D01*
X228146428Y-70684571D02*
X228262542Y-71090971D01*
X228378657Y-70800685D01*
X228494771Y-71090971D01*
X228610885Y-70684571D01*
X228843114Y-71090971D02*
X228843114Y-70684571D01*
X228843114Y-70481371D02*
X228814085Y-70510400D01*
X228843114Y-70539428D01*
X228872142Y-70510400D01*
X228843114Y-70481371D01*
X228843114Y-70539428D01*
X229046314Y-70684571D02*
X229278542Y-70684571D01*
X229133400Y-70481371D02*
X229133400Y-71003885D01*
X229162428Y-71061942D01*
X229220485Y-71090971D01*
X229278542Y-71090971D01*
X229743000Y-71061942D02*
X229684942Y-71090971D01*
X229568828Y-71090971D01*
X229510771Y-71061942D01*
X229481742Y-71032914D01*
X229452714Y-70974857D01*
X229452714Y-70800685D01*
X229481742Y-70742628D01*
X229510771Y-70713600D01*
X229568828Y-70684571D01*
X229684942Y-70684571D01*
X229743000Y-70713600D01*
X230004257Y-71090971D02*
X230004257Y-70481371D01*
X230265514Y-71090971D02*
X230265514Y-70771657D01*
X230236485Y-70713600D01*
X230178428Y-70684571D01*
X230091342Y-70684571D01*
X230033285Y-70713600D01*
X230004257Y-70742628D01*
X230497742Y-70481371D02*
X230904142Y-70481371D01*
X230642885Y-71090971D01*
D16*
X222060225Y-75422639D02*
X221479654Y-75422639D01*
X221769940Y-75422639D02*
X221769940Y-74406639D01*
X221673178Y-74551781D01*
X221576416Y-74648543D01*
X221479654Y-74696924D01*
X230275674Y-74503400D02*
X230324055Y-74455020D01*
X230420817Y-74406639D01*
X230662721Y-74406639D01*
X230759483Y-74455020D01*
X230807864Y-74503400D01*
X230856245Y-74600162D01*
X230856245Y-74696924D01*
X230807864Y-74842067D01*
X230227293Y-75422639D01*
X230856245Y-75422639D01*
X221431273Y-79405359D02*
X222060225Y-79405359D01*
X221721559Y-79792406D01*
X221866701Y-79792406D01*
X221963463Y-79840787D01*
X222011844Y-79889168D01*
X222060225Y-79985930D01*
X222060225Y-80227835D01*
X222011844Y-80324597D01*
X221963463Y-80372978D01*
X221866701Y-80421359D01*
X221576416Y-80421359D01*
X221479654Y-80372978D01*
X221431273Y-80324597D01*
X230759483Y-79744025D02*
X230759483Y-80421359D01*
X230517579Y-79356978D02*
X230275674Y-80082692D01*
X230904626Y-80082692D01*
D17*
X225393915Y-75212847D02*
X227056284Y-75212847D01*
X226225100Y-76044031D02*
X226225100Y-74381662D01*
X225343115Y-80013447D02*
X227005484Y-80013447D01*
D15*
X227594885Y-89349942D02*
X227681971Y-89378971D01*
X227827114Y-89378971D01*
X227885171Y-89349942D01*
X227914200Y-89320914D01*
X227943228Y-89262857D01*
X227943228Y-89204800D01*
X227914200Y-89146742D01*
X227885171Y-89117714D01*
X227827114Y-89088685D01*
X227711000Y-89059657D01*
X227652942Y-89030628D01*
X227623914Y-89001600D01*
X227594885Y-88943542D01*
X227594885Y-88885485D01*
X227623914Y-88827428D01*
X227652942Y-88798400D01*
X227711000Y-88769371D01*
X227856142Y-88769371D01*
X227943228Y-88798400D01*
X228146428Y-88972571D02*
X228262542Y-89378971D01*
X228378657Y-89088685D01*
X228494771Y-89378971D01*
X228610885Y-88972571D01*
X228843114Y-89378971D02*
X228843114Y-88972571D01*
X228843114Y-88769371D02*
X228814085Y-88798400D01*
X228843114Y-88827428D01*
X228872142Y-88798400D01*
X228843114Y-88769371D01*
X228843114Y-88827428D01*
X229046314Y-88972571D02*
X229278542Y-88972571D01*
X229133400Y-88769371D02*
X229133400Y-89291885D01*
X229162428Y-89349942D01*
X229220485Y-89378971D01*
X229278542Y-89378971D01*
X229743000Y-89349942D02*
X229684942Y-89378971D01*
X229568828Y-89378971D01*
X229510771Y-89349942D01*
X229481742Y-89320914D01*
X229452714Y-89262857D01*
X229452714Y-89088685D01*
X229481742Y-89030628D01*
X229510771Y-89001600D01*
X229568828Y-88972571D01*
X229684942Y-88972571D01*
X229743000Y-89001600D01*
X230004257Y-89378971D02*
X230004257Y-88769371D01*
X230265514Y-89378971D02*
X230265514Y-89059657D01*
X230236485Y-89001600D01*
X230178428Y-88972571D01*
X230091342Y-88972571D01*
X230033285Y-89001600D01*
X230004257Y-89030628D01*
X230642885Y-89030628D02*
X230584828Y-89001600D01*
X230555800Y-88972571D01*
X230526771Y-88914514D01*
X230526771Y-88885485D01*
X230555800Y-88827428D01*
X230584828Y-88798400D01*
X230642885Y-88769371D01*
X230759000Y-88769371D01*
X230817057Y-88798400D01*
X230846085Y-88827428D01*
X230875114Y-88885485D01*
X230875114Y-88914514D01*
X230846085Y-88972571D01*
X230817057Y-89001600D01*
X230759000Y-89030628D01*
X230642885Y-89030628D01*
X230584828Y-89059657D01*
X230555800Y-89088685D01*
X230526771Y-89146742D01*
X230526771Y-89262857D01*
X230555800Y-89320914D01*
X230584828Y-89349942D01*
X230642885Y-89378971D01*
X230759000Y-89378971D01*
X230817057Y-89349942D01*
X230846085Y-89320914D01*
X230875114Y-89262857D01*
X230875114Y-89146742D01*
X230846085Y-89088685D01*
X230817057Y-89059657D01*
X230759000Y-89030628D01*
D17*
X225343115Y-98301447D02*
X227005484Y-98301447D01*
X225393915Y-93500847D02*
X227056284Y-93500847D01*
X226225100Y-94332031D02*
X226225100Y-92669662D01*
D16*
X230759483Y-98032025D02*
X230759483Y-98709359D01*
X230517579Y-97644978D02*
X230275674Y-98370692D01*
X230904626Y-98370692D01*
X221431273Y-97693359D02*
X222060225Y-97693359D01*
X221721559Y-98080406D01*
X221866701Y-98080406D01*
X221963463Y-98128787D01*
X222011844Y-98177168D01*
X222060225Y-98273930D01*
X222060225Y-98515835D01*
X222011844Y-98612597D01*
X221963463Y-98660978D01*
X221866701Y-98709359D01*
X221576416Y-98709359D01*
X221479654Y-98660978D01*
X221431273Y-98612597D01*
X230275674Y-92791400D02*
X230324055Y-92743020D01*
X230420817Y-92694639D01*
X230662721Y-92694639D01*
X230759483Y-92743020D01*
X230807864Y-92791400D01*
X230856245Y-92888162D01*
X230856245Y-92984924D01*
X230807864Y-93130067D01*
X230227293Y-93710639D01*
X230856245Y-93710639D01*
X222060225Y-93710639D02*
X221479654Y-93710639D01*
X221769940Y-93710639D02*
X221769940Y-92694639D01*
X221673178Y-92839781D01*
X221576416Y-92936543D01*
X221479654Y-92984924D01*
D11*
X140632380Y-54101904D02*
X141441904Y-54101904D01*
X141537142Y-54054285D01*
X141584761Y-54006666D01*
X141632380Y-53911428D01*
X141632380Y-53720952D01*
X141584761Y-53625714D01*
X141537142Y-53578095D01*
X141441904Y-53530476D01*
X140632380Y-53530476D01*
X141632380Y-52530476D02*
X141632380Y-53101904D01*
X141632380Y-52816190D02*
X140632380Y-52816190D01*
X140775238Y-52911428D01*
X140870476Y-53006666D01*
X140918095Y-53101904D01*
M02*
